<svg xmlns="http://www.w3.org/2000/svg" viewBox="0 -0.5 144 128" shape-rendering="crispEdges">
<metadata>Made with Pixels to Svg https://codepen.io/shshaw/pen/XbxvNj</metadata>
<path stroke="#f6db6e" d="M0 0h8M136 0h8M0 1h8M136 1h8M0 2h8M136 2h8M0 3h8M136 3h8M0 4h8M136 4h8M0 5h8M136 5h8M0 6h8M136 6h8M0 7h8M136 7h8M16 8h8M120 8h8M16 9h8M120 9h8M16 10h8M120 10h8M16 11h8M120 11h8M16 12h8M120 12h8M16 13h8M120 13h8M16 14h8M120 14h8M16 15h8M120 15h8M8 16h8M24 16h8M112 16h8M128 16h8M8 17h8M24 17h8M112 17h8M128 17h8M8 18h8M24 18h8M112 18h8M128 18h8M8 19h8M24 19h8M112 19h8M128 19h8M8 20h8M24 20h8M112 20h8M128 20h8M8 21h8M24 21h8M112 21h8M128 21h8M8 22h8M24 22h8M112 22h8M128 22h8M8 23h8M24 23h8M112 23h8M128 23h8M16 24h8M120 24h8M16 25h8M120 25h8M16 26h8M120 26h8M16 27h8M120 27h8M16 28h8M120 28h8M16 29h8M120 29h8M16 30h8M120 30h8M16 31h8M120 31h8M48 40h8M48 41h8M48 42h8M48 43h8M48 44h8M48 45h8M48 46h8M48 47h8M80 48h8M80 49h8M80 50h8M80 51h8M80 52h8M80 53h8M80 54h8M80 55h8M32 56h8M64 56h8M32 57h8M64 57h8M32 58h8M64 58h8M32 59h8M64 59h8M32 60h8M64 60h8M32 61h8M64 61h8M32 62h8M64 62h8M32 63h8M64 63h8M72 64h8M104 64h8M72 65h8M104 65h8M72 66h8M104 66h8M72 67h8M104 67h8M72 68h8M104 68h8M72 69h8M104 69h8M72 70h8M104 70h8M72 71h8M104 71h8M56 72h8M88 72h8M56 73h8M88 73h8M56 74h8M88 74h8M56 75h8M88 75h8M56 76h8M88 76h8M56 77h8M88 77h8M56 78h8M88 78h8M56 79h8M88 79h8M16 96h8M120 96h8M16 97h8M120 97h8M16 98h8M120 98h8M16 99h8M120 99h8M16 100h8M120 100h8M16 101h8M120 101h8M16 102h8M120 102h8M16 103h8M120 103h8M8 104h8M24 104h8M112 104h8M128 104h8M8 105h8M24 105h8M112 105h8M128 105h8M8 106h8M24 106h8M112 106h8M128 106h8M8 107h8M24 107h8M112 107h8M128 107h8M8 108h8M24 108h8M112 108h8M128 108h8M8 109h8M24 109h8M112 109h8M128 109h8M8 110h8M24 110h8M112 110h8M128 110h8M8 111h8M24 111h8M112 111h8M128 111h8M16 112h8M120 112h8M16 113h8M120 113h8M16 114h8M120 114h8M16 115h8M120 115h8M16 116h8M120 116h8M16 117h8M120 117h8M16 118h8M120 118h8M16 119h8M120 119h8M0 120h8M136 120h8M0 121h8M136 121h8M0 122h8M136 122h8M0 123h8M136 123h8M0 124h8M136 124h8M0 125h8M136 125h8M0 126h8M136 126h8M0 127h8M136 127h8" />
<path stroke="#f9dda8" d="M8 8h8M128 8h8M8 9h8M128 9h8M8 10h8M128 10h8M8 11h8M128 11h8M8 12h8M128 12h8M8 13h8M128 13h8M8 14h8M128 14h8M8 15h8M128 15h8M16 16h8M64 16h16M120 16h8M16 17h8M64 17h16M120 17h8M16 18h8M64 18h16M120 18h8M16 19h8M64 19h16M120 19h8M16 20h8M64 20h16M120 20h8M16 21h8M64 21h16M120 21h8M16 22h8M64 22h16M120 22h8M16 23h8M64 23h16M120 23h8M24 24h8M56 24h32M112 24h8M24 25h8M56 25h32M112 25h8M24 26h8M56 26h32M112 26h8M24 27h8M56 27h32M112 27h8M24 28h8M56 28h32M112 28h8M24 29h8M56 29h32M112 29h8M24 30h8M56 30h32M112 30h8M24 31h8M56 31h32M112 31h8M48 32h16M80 32h16M48 33h16M80 33h16M48 34h16M80 34h16M48 35h16M80 35h16M48 36h16M80 36h16M48 37h16M80 37h16M48 38h16M80 38h16M48 39h16M80 39h16M40 40h8M88 40h16M40 41h8M88 41h16M40 42h8M88 42h16M40 43h8M88 43h16M40 44h8M88 44h16M40 45h8M88 45h16M40 46h8M88 46h16M40 47h8M88 47h16M32 48h16M96 48h16M32 49h16M96 49h16M32 50h16M96 50h16M32 51h16M96 51h16M32 52h16M96 52h16M32 53h16M96 53h16M32 54h16M96 54h16M32 55h16M96 55h16M24 56h8M104 56h16M24 57h8M104 57h16M24 58h8M104 58h16M24 59h8M104 59h16M24 60h8M104 60h16M24 61h8M104 61h16M24 62h8M104 62h16M24 63h8M104 63h16M24 64h16M112 64h8M24 65h16M112 65h8M24 66h16M112 66h8M24 67h16M112 67h8M24 68h16M112 68h8M24 69h16M112 69h8M24 70h16M112 70h8M24 71h16M112 71h8M32 72h16M96 72h16M32 73h16M96 73h16M32 74h16M96 74h16M32 75h16M96 75h16M32 76h16M96 76h16M32 77h16M96 77h16M32 78h16M96 78h16M32 79h16M96 79h16M40 80h16M88 80h8M40 81h16M88 81h8M40 82h16M88 82h8M40 83h16M88 83h8M40 84h16M88 84h8M40 85h16M88 85h8M40 86h16M88 86h8M40 87h16M88 87h8M48 88h16M80 88h16M48 89h16M80 89h16M48 90h16M80 90h16M48 91h16M80 91h16M48 92h16M80 92h16M48 93h16M80 93h16M48 94h16M80 94h16M48 95h16M80 95h16M24 96h8M56 96h32M112 96h8M24 97h8M56 97h32M112 97h8M24 98h8M56 98h32M112 98h8M24 99h8M56 99h32M112 99h8M24 100h8M56 100h32M112 100h8M24 101h8M56 101h32M112 101h8M24 102h8M56 102h32M112 102h8M24 103h8M56 103h32M112 103h8M16 104h8M64 104h16M120 104h8M16 105h8M64 105h16M120 105h8M16 106h8M64 106h16M120 106h8M16 107h8M64 107h16M120 107h8M16 108h8M64 108h16M120 108h8M16 109h8M64 109h16M120 109h8M16 110h8M64 110h16M120 110h8M16 111h8M64 111h16M120 111h8M8 112h8M128 112h8M8 113h8M128 113h8M8 114h8M128 114h8M8 115h8M128 115h8M8 116h8M128 116h8M8 117h8M128 117h8M8 118h8M128 118h8M8 119h8M128 119h8" />
<path stroke="#f6c66d" d="M64 32h16M64 33h16M64 34h16M64 35h16M64 36h16M64 37h16M64 38h16M64 39h16M56 40h32M56 41h32M56 42h32M56 43h32M56 44h32M56 45h32M56 46h32M56 47h32M48 48h16M88 48h8M48 49h16M88 49h8M48 50h16M88 50h8M48 51h16M88 51h8M48 52h16M88 52h8M48 53h16M88 53h8M48 54h16M88 54h8M48 55h16M88 55h8M40 56h16M88 56h16M40 57h16M88 57h16M40 58h16M88 58h16M40 59h16M88 59h16M40 60h16M88 60h16M40 61h16M88 61h16M40 62h16M88 62h16M40 63h16M88 63h16M40 64h16M88 64h16M40 65h16M88 65h16M40 66h16M88 66h16M40 67h16M88 67h16M40 68h16M88 68h16M40 69h16M88 69h16M40 70h16M88 70h16M40 71h16M88 71h16M48 72h8M80 72h8M48 73h8M80 73h8M48 74h8M80 74h8M48 75h8M80 75h8M48 76h8M80 76h8M48 77h8M80 77h8M48 78h8M80 78h8M48 79h8M80 79h8M56 80h32M56 81h32M56 82h32M56 83h32M56 84h32M56 85h32M56 86h32M56 87h32M64 88h16M64 89h16M64 90h16M64 91h16M64 92h16M64 93h16M64 94h16M64 95h16" />
<path stroke="#efa026" d="M64 48h16M64 49h16M64 50h16M64 51h16M64 52h16M64 53h16M64 54h16M64 55h16M56 56h8M72 56h16M56 57h8M72 57h16M56 58h8M72 58h16M56 59h8M72 59h16M56 60h8M72 60h16M56 61h8M72 61h16M56 62h8M72 62h16M56 63h8M72 63h16M56 64h16M80 64h8M56 65h16M80 65h8M56 66h16M80 66h8M56 67h16M80 67h8M56 68h16M80 68h8M56 69h16M80 69h8M56 70h16M80 70h8M56 71h16M80 71h8M64 72h16M64 73h16M64 74h16M64 75h16M64 76h16M64 77h16M64 78h16M64 79h16" />
</svg>