<svg xmlns="http://www.w3.org/2000/svg" viewBox="0 -0.5 43 67" shape-rendering="crispEdges">
<metadata>Made with Pixels to Svg https://codepen.io/shshaw/pen/XbxvNj</metadata>
<path stroke="rgba(0,0,0,0.06274509803921569)" d="M8 0h1M7 1h1M6 2h1M2 6h1M1 7h1M0 8h1M0 58h1M1 59h1M2 60h1M6 64h1M7 65h1M8 66h1" />
<path stroke="rgba(0,0,0,0.5019607843137255)" d="M9 0h24M36 4h1M36 5h1M3 6h3M36 6h3M42 10h1M42 11h1M42 12h1M42 13h1M42 14h1M42 15h1M42 16h1M42 17h1M42 18h1M18 19h1M42 19h1M18 20h1M42 20h1M18 21h1M42 21h1M18 22h1M42 22h1M18 23h1M42 23h1M18 24h1M42 24h1M18 25h1M42 25h1M18 26h1M42 26h1M18 27h1M42 27h1M18 28h1M42 28h1M18 29h1M42 29h1M18 30h1M42 30h1M18 31h1M42 31h1M18 32h1M42 32h1M18 33h1M42 33h1M18 34h1M42 34h1M18 35h1M42 35h1M18 36h1M42 36h1M18 37h1M42 37h1M18 38h1M42 38h1M18 39h1M42 39h1M18 40h1M42 40h1M18 41h1M42 41h1M18 42h1M42 42h1M18 43h1M42 43h1M18 44h1M42 44h1M18 45h1M42 45h1M18 46h1M42 46h1M18 47h1M42 47h1M18 48h6M42 48h1M42 49h1M42 50h1M42 51h1M42 52h1M42 53h1M42 54h1M42 55h1M42 56h1M36 61h1M36 62h1" />
<path stroke="rgba(0,0,0,0.3137254901960784)" d="M33 0h1M34 1h1M35 2h1M36 3h1M39 6h1M40 7h1M41 8h1M42 9h1" />
<path stroke="rgba(0,0,0,0.6901960784313725)" d="M8 1h1M7 2h1M6 3h1M2 7h1M1 8h1M0 9h1M0 57h1M1 58h1M2 59h1M3 60h1M6 63h1M7 64h1M8 65h1M9 66h1" />
<path stroke="#000000" d="M9 1h25M8 2h27M7 3h29M7 4h29M7 5h4M31 5h5M7 6h4M32 6h4M3 7h8M32 7h8M2 8h9M32 8h9M1 9h10M32 9h10M1 10h10M32 10h10M1 11h4M37 11h5M1 12h4M38 12h4M1 13h4M38 13h4M1 14h4M14 14h15M38 14h4M1 15h4M14 15h15M38 15h4M1 16h4M14 16h15M38 16h4M1 17h4M14 17h15M38 17h4M1 18h4M14 18h4M25 18h4M38 18h4M1 19h4M14 19h4M25 19h4M38 19h4M1 20h4M14 20h4M25 20h4M38 20h4M1 21h4M14 21h4M25 21h4M38 21h4M1 22h4M14 22h4M25 22h4M38 22h4M1 23h4M14 23h4M25 23h4M38 23h4M1 24h4M14 24h4M25 24h4M38 24h4M1 25h4M14 25h4M25 25h4M38 25h4M1 26h4M14 26h4M25 26h4M38 26h4M1 27h4M14 27h4M25 27h4M38 27h4M1 28h4M14 28h4M25 28h4M38 28h4M1 29h4M14 29h4M25 29h4M38 29h4M1 30h4M14 30h4M25 30h4M38 30h4M1 31h4M14 31h4M25 31h4M38 31h4M1 32h4M14 32h4M25 32h4M38 32h4M1 33h4M14 33h4M25 33h4M38 33h4M1 34h4M14 34h4M25 34h4M38 34h4M1 35h4M14 35h4M25 35h4M38 35h4M1 36h4M14 36h4M25 36h4M38 36h4M1 37h4M14 37h4M25 37h4M38 37h4M1 38h4M14 38h4M25 38h4M38 38h4M1 39h4M14 39h4M25 39h4M38 39h4M1 40h4M14 40h4M25 40h4M38 40h4M1 41h4M14 41h4M25 41h4M38 41h4M1 42h4M14 42h4M25 42h4M38 42h4M1 43h4M14 43h4M25 43h4M38 43h4M1 44h4M14 44h4M25 44h4M38 44h4M1 45h4M14 45h4M25 45h4M38 45h4M1 46h4M14 46h4M25 46h4M38 46h4M1 47h4M14 47h4M25 47h4M38 47h4M1 48h4M14 48h4M25 48h4M38 48h4M1 49h4M14 49h15M38 49h4M1 50h4M14 50h15M38 50h4M1 51h4M14 51h15M38 51h4M1 52h4M14 52h15M38 52h4M1 53h4M38 53h4M1 54h4M38 54h4M1 55h4M37 55h5M1 56h10M32 56h10M1 57h10M32 57h10M2 58h9M32 58h9M3 59h8M32 59h8M7 60h4M32 60h4M7 61h4M31 61h5M7 62h29M7 63h29M8 64h27M9 65h25" />
<path stroke="rgba(0,0,0,0.7529411764705882)" d="M6 4h1M6 5h1M6 6h1M0 10h1M0 11h1M0 12h1M0 13h1M0 14h1M0 15h1M0 16h1M0 17h1M0 18h1M18 18h7M0 19h1M24 19h1M0 20h1M24 20h1M0 21h1M24 21h1M0 22h1M24 22h1M0 23h1M24 23h1M0 24h1M24 24h1M0 25h1M24 25h1M0 26h1M24 26h1M0 27h1M24 27h1M0 28h1M24 28h1M0 29h1M24 29h1M0 30h1M24 30h1M0 31h1M24 31h1M0 32h1M24 32h1M0 33h1M24 33h1M0 34h1M24 34h1M0 35h1M24 35h1M0 36h1M24 36h1M0 37h1M24 37h1M0 38h1M24 38h1M0 39h1M24 39h1M0 40h1M24 40h1M0 41h1M24 41h1M0 42h1M24 42h1M0 43h1M24 43h1M0 44h1M24 44h1M0 45h1M24 45h1M0 46h1M24 46h1M0 47h1M24 47h1M0 48h1M24 48h1M0 49h1M0 50h1M0 51h1M0 52h1M0 53h1M0 54h1M0 55h1M0 56h1M4 60h3M36 60h3M6 61h1M6 62h1M10 66h23" />
<path stroke="#242424" d="M11 5h1M5 11h1M5 55h1M11 61h1" />
<path stroke="#a3a3a3" d="M12 5h18M31 7h1M31 8h1M31 9h1M31 10h1M6 11h5M32 11h4M37 13h1M13 14h1M37 14h1M13 15h1M37 15h1M13 16h1M37 16h1M13 17h1M37 17h1M13 18h1M37 18h1M13 19h1M37 19h1M13 20h1M37 20h1M13 21h1M37 21h1M13 22h1M37 22h1M13 23h1M37 23h1M13 24h1M37 24h1M13 25h1M37 25h1M13 26h1M37 26h1M13 27h1M37 27h1M13 28h1M37 28h1M13 29h1M37 29h1M13 30h1M37 30h1M13 31h1M37 31h1M13 32h1M37 32h1M13 33h1M37 33h1M13 34h1M37 34h1M13 35h1M37 35h1M13 36h1M37 36h1M13 37h1M37 37h1M13 38h1M37 38h1M13 39h1M37 39h1M13 40h1M37 40h1M13 41h1M37 41h1M13 42h1M37 42h1M13 43h1M37 43h1M13 44h1M37 44h1M13 45h1M37 45h1M13 46h1M37 46h1M13 47h1M37 47h1M13 48h1M37 48h1M13 49h1M37 49h1M13 50h1M37 50h1M13 51h1M37 51h1M13 52h1M37 52h1M14 53h15M37 53h1M31 56h1M31 57h1M31 58h1M31 59h1" />
<path stroke="#787878" d="M30 5h1M31 6h1M36 11h1M37 12h1" />
<path stroke="#c9c9c9" d="M11 6h1M5 12h1M5 54h1M6 55h1M11 60h1M12 61h1" />
<path stroke="#ffffff" d="M12 6h19M12 7h19M12 8h19M12 9h19M12 10h19M12 11h19M6 12h31M6 13h7M30 13h7M6 14h7M30 14h7M6 15h7M30 15h7M6 16h7M30 16h7M6 17h7M30 17h7M6 18h7M30 18h7M6 19h7M30 19h7M6 20h7M30 20h7M6 21h7M30 21h7M6 22h7M30 22h7M6 23h7M30 23h7M6 24h7M30 24h7M6 25h7M30 25h7M6 26h7M30 26h7M6 27h7M30 27h7M6 28h7M30 28h7M6 29h7M30 29h7M6 30h7M30 30h7M6 31h7M30 31h7M6 32h7M30 32h7M6 33h7M30 33h7M6 34h7M30 34h7M6 35h7M30 35h7M6 36h7M30 36h7M6 37h7M30 37h7M6 38h7M30 38h7M6 39h7M30 39h7M6 40h7M30 40h7M6 41h7M30 41h7M6 42h7M30 42h7M6 43h7M30 43h7M6 44h7M30 44h7M6 45h7M30 45h7M6 46h7M30 46h7M6 47h7M30 47h7M6 48h7M30 48h7M6 49h7M30 49h7M6 50h7M30 50h7M6 51h7M30 51h7M6 52h7M30 52h7M6 53h7M30 53h7M6 54h31M12 55h19M12 56h19M12 57h19M12 58h19M12 59h19M12 60h19" />
<path stroke="#d5d5d5" d="M11 7h1M11 8h1M11 9h1M11 10h1M31 11h1M5 13h1M14 13h15M5 14h1M29 14h1M5 15h1M29 15h1M5 16h1M29 16h1M5 17h1M29 17h1M5 18h1M29 18h1M5 19h1M29 19h1M5 20h1M29 20h1M5 21h1M29 21h1M5 22h1M29 22h1M5 23h1M29 23h1M5 24h1M29 24h1M5 25h1M29 25h1M5 26h1M29 26h1M5 27h1M29 27h1M5 28h1M29 28h1M5 29h1M29 29h1M5 30h1M29 30h1M5 31h1M29 31h1M5 32h1M29 32h1M5 33h1M29 33h1M5 34h1M29 34h1M5 35h1M29 35h1M5 36h1M29 36h1M5 37h1M29 37h1M5 38h1M29 38h1M5 39h1M29 39h1M5 40h1M29 40h1M5 41h1M29 41h1M5 42h1M29 42h1M5 43h1M29 43h1M5 44h1M29 44h1M5 45h1M29 45h1M5 46h1M29 46h1M5 47h1M29 47h1M5 48h1M29 48h1M5 49h1M29 49h1M5 50h1M29 50h1M5 51h1M29 51h1M5 52h1M29 52h1M5 53h1M13 53h1M7 55h4M32 55h4M11 56h1M11 57h1M11 58h1M11 59h1M13 61h17" />
<path stroke="#ebebeb" d="M11 11h1M13 13h1M29 53h1M31 55h1" />
<path stroke="#f5f5f5" d="M29 13h1M11 55h1" />
<path stroke="#969696" d="M37 54h1M31 60h1" />
<path stroke="#b0b0b0" d="M36 55h1M30 61h1" />
<path stroke="rgba(0,0,0,0.4392156862745098)" d="M42 57h1M36 63h1" />
<path stroke="rgba(0,0,0,0.5647058823529412)" d="M41 58h1M40 59h1M39 60h1M35 64h1M34 65h1M33 66h1" />
</svg>