<svg xmlns="http://www.w3.org/2000/svg" viewBox="0 -0.5 43 67" shape-rendering="crispEdges">
<metadata>Made with Pixels to Svg https://codepen.io/shshaw/pen/XbxvNj</metadata>
<path stroke="rgba(0,0,0,0.06274509803921569)" d="M20 0h1M19 1h1M18 2h1M14 6h1M13 7h1M12 8h1M8 12h1M7 13h1" />
<path stroke="rgba(0,0,0,0.8156862745098039)" d="M21 0h1M20 1h1M19 2h1M15 6h1M14 7h1M13 8h1M9 12h1M8 13h1M7 14h1" />
<path stroke="#000000" d="M22 0h9M21 1h11M20 2h13M19 3h15M19 4h15M19 5h3M31 5h3M16 6h6M31 6h3M15 7h7M31 7h3M14 8h8M31 8h3M13 9h9M31 9h3M13 10h9M31 10h3M13 11h3M31 11h3M10 12h6M31 12h3M9 13h7M31 13h3M8 14h8M31 14h3M7 15h9M31 15h3M7 16h9M31 16h3M7 17h3M31 17h3M7 18h3M31 18h3M7 19h3M31 19h3M7 20h3M19 20h3M31 20h3M7 21h3M19 21h3M31 21h3M7 22h3M19 22h3M31 22h3M7 23h3M19 23h3M31 23h3M7 24h3M19 24h3M31 24h3M7 25h4M18 25h4M31 25h3M7 26h15M31 26h3M7 27h15M31 27h3M8 28h14M31 28h3M9 29h13M31 29h3M31 30h3M19 31h3M31 31h3M19 32h3M31 32h3M19 33h3M31 33h3M19 34h3M31 34h3M19 35h3M31 35h3M19 36h3M31 36h3M19 37h3M31 37h3M19 38h3M31 38h3M19 39h3M31 39h3M19 40h3M31 40h3M19 41h3M31 41h3M19 42h3M31 42h3M19 43h3M31 43h3M19 44h3M31 44h3M19 45h3M31 45h3M19 46h3M31 46h3M19 47h3M31 47h3M19 48h3M31 48h3M19 49h3M31 49h3M19 50h3M31 50h3M19 51h3M31 51h3M19 52h3M31 52h3M19 53h3M31 53h3M19 54h3M31 54h3M19 55h3M31 55h3M19 56h3M31 56h3M19 57h3M31 57h3M19 58h3M31 58h3M19 59h3M31 59h3M19 60h3M31 60h3M19 61h4M30 61h4M19 62h15M19 63h15M20 64h13M21 65h11" />
<path stroke="rgba(0,0,0,0.9411764705882353)" d="M31 0h1M32 1h1M33 2h1" />
<path stroke="rgba(0,0,0,0.18823529411764706)" d="M32 0h1M33 1h1M34 2h1M9 30h1M21 66h1" />
<path stroke="rgba(0,0,0,0.5019607843137255)" d="M18 3h1M18 4h1M18 5h1M12 9h1M12 10h1M12 11h1M18 31h1M18 32h1M18 33h1M18 34h1M18 35h1M18 36h1M18 37h1M18 38h1M18 39h1M18 40h1M18 41h1M18 42h1M18 43h1M18 44h1M18 45h1M18 46h1M18 47h1M18 48h1M18 49h1M18 50h1M18 51h1M18 52h1M18 53h1M18 54h1M18 55h1M18 56h1M18 57h1M18 58h1M18 59h1M18 60h1M18 61h1M18 62h1" />
<path stroke="rgba(0,0,0,0.7529411764705882)" d="M34 3h1M34 4h1M34 5h1M34 6h1M34 7h1M34 8h1M34 9h1M34 10h1M34 11h1M34 12h1M34 13h1M34 14h1M34 15h1M34 16h1M34 17h1M34 18h1M34 19h1M34 20h1M34 21h1M34 22h1M34 23h1M34 24h1M34 25h1M34 26h1M34 27h1M34 28h1M34 29h1M34 30h1M34 31h1M34 32h1M34 33h1M34 34h1M34 35h1M34 36h1M34 37h1M34 38h1M34 39h1M34 40h1M34 41h1M34 42h1M34 43h1M34 44h1M34 45h1M34 46h1M34 47h1M34 48h1M34 49h1M34 50h1M34 51h1M34 52h1M34 53h1M34 54h1M34 55h1M34 56h1M34 57h1M34 58h1M34 59h1M34 60h1M34 61h1M34 62h1" />
<path stroke="#242424" d="M22 5h1M16 11h1M10 17h1" />
<path stroke="#e0e0e0" d="M23 5h1M17 11h1M11 17h1M18 19h1" />
<path stroke="#ffffff" d="M24 5h5M23 6h7M23 7h7M23 8h7M23 9h7M23 10h7M18 11h12M17 12h13M17 13h13M17 14h13M17 15h13M17 16h13M12 17h18M11 18h19M11 19h7M23 19h7M11 20h7M23 20h7M11 21h7M23 21h7M11 22h7M23 22h7M11 23h7M23 23h7M11 24h7M23 24h7M23 25h7M23 26h7M23 27h7M23 28h7M23 29h7M23 30h7M23 31h7M23 32h7M23 33h7M23 34h7M23 35h7M23 36h7M23 37h7M23 38h7M23 39h7M23 40h7M23 41h7M23 42h7M23 43h7M23 44h7M23 45h7M23 46h7M23 47h7M23 48h7M23 49h7M23 50h7M23 51h7M23 52h7M23 53h7M23 54h7M23 55h7M23 56h7M23 57h7M23 58h7M23 59h7M23 60h7" />
<path stroke="#f5f5f5" d="M29 5h1" />
<path stroke="#545454" d="M30 5h1M11 25h1M17 25h1M23 61h1M29 61h1" />
<path stroke="#a3a3a3" d="M22 6h1M22 7h1M22 8h1M22 9h1M22 10h1M16 12h1M16 13h1M16 14h1M16 15h1M16 16h1M10 18h1M10 19h1M10 20h1M22 20h1M10 21h1M22 21h1M10 22h1M22 22h1M10 23h1M22 23h1M22 24h1M22 25h1M22 26h1M22 27h1M22 28h1M22 29h1M22 30h1M22 31h1M22 32h1M22 33h1M22 34h1M22 35h1M22 36h1M22 37h1M22 38h1M22 39h1M22 40h1M22 41h1M22 42h1M22 43h1M22 44h1M22 45h1M22 46h1M22 47h1M22 48h1M22 49h1M22 50h1M22 51h1M22 52h1M22 53h1M22 54h1M22 55h1M22 56h1M22 57h1M22 58h1M22 59h1" />
<path stroke="#d5d5d5" d="M30 6h1M30 7h1M30 8h1M30 9h1M30 10h1M30 11h1M30 12h1M30 13h1M30 14h1M30 15h1M30 16h1M30 17h1M30 18h1M30 19h1M18 20h1M30 20h1M18 21h1M30 21h1M18 22h1M30 22h1M18 23h1M30 23h1M30 24h1M30 25h1M30 26h1M30 27h1M30 28h1M30 29h1M30 30h1M30 31h1M30 32h1M30 33h1M30 34h1M30 35h1M30 36h1M30 37h1M30 38h1M30 39h1M30 40h1M30 41h1M30 42h1M30 43h1M30 44h1M30 45h1M30 46h1M30 47h1M30 48h1M30 49h1M30 50h1M30 51h1M30 52h1M30 53h1M30 54h1M30 55h1M30 56h1M30 57h1M30 58h1M30 59h1" />
<path stroke="#676767" d="M19 19h3M12 25h5M24 61h5" />
<path stroke="#bdbdbd" d="M22 19h1" />
<path stroke="#787878" d="M10 24h1M22 60h1" />
<path stroke="#878787" d="M18 24h1M30 60h1" />
<path stroke="rgba(0,0,0,0.3137254901960784)" d="M7 28h1M8 29h1M18 63h1M19 64h1M20 65h1" />
<path stroke="rgba(0,0,0,0.25098039215686274)" d="M10 30h2M15 30h1M17 30h1M22 66h2M27 66h4" />
<path stroke="rgba(0,0,0,0.3843137254901961)" d="M12 30h1M24 66h1" />
<path stroke="rgba(0,0,0,0.4392156862745098)" d="M13 30h1M25 66h1" />
<path stroke="rgba(0,0,0,0.30196078431372547)" d="M14 30h1M26 66h1" />
<path stroke="rgba(0,0,0,0.2196078431372549)" d="M16 30h1" />
<path stroke="rgba(0,0,0,0.4627450980392157)" d="M18 30h1" />
<path stroke="rgba(0,0,0,0.8117647058823529)" d="M19 30h2" />
<path stroke="rgba(0,0,0,0.8745098039215686)" d="M21 30h1" />
<path stroke="rgba(0,0,0,0.3764705882352941)" d="M34 63h1M33 64h1M32 65h1" />
<path stroke="rgba(0,0,0,0.1803921568627451)" d="M31 66h1" />
<path stroke="rgba(0,0,0,0.00784313725490196)" d="M33 66h1" />
</svg>