<svg xmlns="http://www.w3.org/2000/svg" viewBox="0 -0.5 43 67" shape-rendering="crispEdges">
<metadata>Made with Pixels to Svg https://codepen.io/shshaw/pen/XbxvNj</metadata>
<path stroke="rgba(0,0,0,0.06274509803921569)" d="M8 0h1M33 0h1M7 1h1M34 1h1M6 2h1M35 2h1M5 3h1M2 6h1M39 6h1M1 7h1M40 7h1M0 8h1M41 8h1M20 24h1M19 25h1M18 26h1M13 31h1M12 32h1M11 33h1M8 36h1M7 37h1M6 38h1M5 39h1M2 42h1M1 43h1M0 44h1M39 48h1M40 49h1M41 50h1" />
<path stroke="rgba(0,0,0,0.25098039215686274)" d="M9 0h24M5 4h1M5 5h1M3 6h3M36 6h3M23 19h1M23 20h1M23 21h1M23 22h1M23 23h1M21 24h3M17 29h1M16 30h2M11 34h1M11 35h1M9 36h3M5 40h1M5 41h1M3 42h3M28 48h11" />
<path stroke="rgba(0,0,0,0.8156862745098039)" d="M8 1h1M33 1h1M7 2h1M34 2h1M6 3h1M35 3h1M2 7h1M39 7h1M1 8h1M40 8h1M0 9h1M41 9h1M20 25h1M19 26h1M18 27h1M14 31h1M13 32h1M12 33h1M8 37h1M7 38h1M6 39h1M2 43h1M1 44h1M0 45h1M39 49h1M40 50h1M41 51h1" />
<path stroke="#000000" d="M9 1h24M8 2h26M7 3h28M6 4h30M6 5h5M31 5h5M6 6h4M31 6h5M3 7h7M31 7h8M2 8h8M31 8h9M1 9h9M31 9h10M0 10h10M31 10h11M0 11h5M37 11h5M0 12h4M37 12h5M0 13h4M37 13h5M0 14h4M13 14h15M37 14h5M0 15h4M13 15h15M37 15h5M0 16h4M13 16h15M37 16h5M0 17h4M13 17h15M37 17h5M0 18h4M13 18h15M37 18h5M0 19h4M13 19h5M24 19h4M37 19h5M0 20h4M13 20h5M24 20h4M37 20h5M0 21h4M13 21h5M24 21h4M37 21h5M0 22h4M13 22h5M24 22h4M37 22h5M0 23h4M13 23h5M24 23h4M37 23h5M0 24h4M13 24h5M24 24h4M37 24h5M0 25h5M13 25h5M21 25h7M37 25h5M0 26h18M20 26h8M37 26h5M0 27h18M19 27h9M37 27h5M1 28h16M18 28h10M37 28h5M2 29h14M18 29h5M37 29h5M3 30h12M18 30h4M37 30h5M15 31h7M37 31h5M14 32h8M31 32h11M13 33h9M31 33h11M12 34h10M31 34h10M12 35h5M31 35h9M12 36h4M31 36h8M9 37h7M31 37h5M8 38h8M25 38h11M7 39h9M25 39h11M6 40h10M25 40h10M6 41h5M25 41h9M6 42h4M25 42h8M3 43h7M25 43h5M2 44h8M19 44h11M1 45h9M19 45h11M0 46h10M19 46h10M0 47h5M19 47h9M0 48h4M19 48h8M0 49h4M19 49h20M0 50h4M13 50h27M0 51h4M13 51h28M0 52h4M13 52h29M0 53h4M37 53h5M0 54h4M37 54h5M0 55h4M37 55h5M0 56h4M37 56h5M0 57h4M37 57h5M0 58h4M37 58h5M0 59h4M37 59h5M0 60h4M37 60h5M0 61h5M37 61h5M0 62h42M0 63h42M1 64h40M2 65h38M3 66h36" />
<path stroke="#242424" d="M11 5h1M30 5h1M10 6h1M5 11h1M36 11h1M4 12h1M23 29h1M22 30h1M17 35h1M16 36h1M11 41h1M10 42h1M5 47h1M4 48h1M36 53h1" />
<path stroke="#676767" d="M12 5h18M10 7h1M10 8h1M10 9h1M10 10h1M6 11h4M31 11h5M4 13h1M4 14h1M28 14h1M4 15h1M28 15h1M4 16h1M28 16h1M4 17h1M28 17h1M4 18h1M28 18h1M4 19h1M28 19h1M4 20h1M28 20h1M4 21h1M28 21h1M4 22h1M28 22h1M4 23h1M28 23h1M4 24h1M28 24h1M28 25h1M28 26h1M28 27h1M28 28h1M24 29h4M22 31h1M22 32h1M22 33h1M22 34h1M18 35h4M16 37h1M16 38h1M16 39h1M16 40h1M12 41h4M10 43h1M10 44h1M10 45h1M10 46h1M6 47h4M4 49h1M4 50h1M4 51h1M4 52h1M4 53h1M13 53h23M4 54h1M4 55h1M4 56h1M4 57h1M4 58h1M4 59h1M4 60h1" />
<path stroke="#e0e0e0" d="M11 6h1M30 6h1M5 12h1M36 12h1M23 30h1M17 36h1M11 42h1M5 48h1M36 54h1" />
<path stroke="#ffffff" d="M12 6h18M11 7h20M11 8h20M11 9h20M11 10h20M11 11h20M6 12h30M5 13h32M5 14h8M29 14h8M5 15h8M29 15h8M5 16h8M29 16h8M5 17h8M29 17h8M5 18h8M29 18h8M5 19h8M29 19h8M5 20h8M29 20h8M5 21h8M29 21h8M5 22h8M29 22h8M5 23h8M29 23h8M5 24h8M29 24h8M6 25h6M29 25h8M29 26h8M29 27h8M29 28h8M29 29h8M24 30h13M23 31h13M23 32h8M23 33h8M23 34h8M23 35h8M18 36h13M17 37h13M17 38h8M17 39h8M17 40h8M17 41h8M12 42h13M11 43h13M11 44h8M11 45h8M11 46h8M11 47h8M6 48h13M5 49h13M5 50h8M5 51h8M5 52h8M5 53h8M5 54h31M5 55h32M5 56h32M5 57h32M5 58h32M5 59h32M5 60h32M6 61h30" />
<path stroke="#969696" d="M10 11h1M28 29h1M22 35h1M16 41h1M10 47h1" />
<path stroke="#bdbdbd" d="M5 25h1M5 61h1" />
<path stroke="#878787" d="M12 25h1M36 31h1M30 37h1M24 43h1M18 49h1M36 61h1" />
<path stroke="rgba(0,0,0,0.6274509803921569)" d="M0 28h1M1 29h1M2 30h1M0 64h1M1 65h1M2 66h1" />
<path stroke="rgba(0,0,0,0.3764705882352941)" d="M17 28h1M16 29h1M15 30h1M41 34h1M40 35h1M39 36h1M35 40h1M34 41h1M33 42h1M29 46h1M28 47h1M27 48h1M41 64h1M40 65h1M39 66h1" />
</svg>