<svg xmlns="http://www.w3.org/2000/svg" viewBox="0 -0.5 43 67" shape-rendering="crispEdges">
<metadata>Made with Pixels to Svg https://codepen.io/shshaw/pen/XbxvNj</metadata>
<path stroke="rgba(0,0,0,0.06274509803921569)" d="M2 0h1M1 1h1M0 2h1M13 19h1M12 20h1M8 24h1M7 25h1M6 26h1M2 42h1M1 43h1M0 44h1" />
<path stroke="rgba(0,0,0,0.8156862745098039)" d="M3 0h1M2 1h1M1 2h1M15 18h1M14 19h1M13 20h1M9 24h1M8 25h1M7 26h1M3 42h1M2 43h1M1 44h1" />
<path stroke="#000000" d="M4 0h35M3 1h37M2 2h39M1 3h41M1 4h41M1 5h4M38 5h4M1 6h4M38 6h4M1 7h4M38 7h4M1 8h4M38 8h4M1 9h4M38 9h4M1 10h4M38 10h4M1 11h4M38 11h4M1 12h4M38 12h4M1 13h5M38 13h4M1 14h28M38 14h4M2 15h27M38 15h4M3 16h26M38 16h4M4 17h19M38 17h4M16 18h7M38 18h4M15 19h8M37 19h5M14 20h9M32 20h10M13 21h10M32 21h10M13 22h10M32 22h9M13 23h4M32 23h8M10 24h7M32 24h4M9 25h8M31 25h5M8 26h9M26 26h10M7 27h10M26 27h10M7 28h10M26 28h10M7 29h4M32 29h4M7 30h4M32 30h7M7 31h4M32 31h8M7 32h4M32 32h9M7 33h4M32 33h10M7 34h4M32 34h10M7 35h4M38 35h4M7 36h4M38 36h4M7 37h5M38 37h4M7 38h22M38 38h4M8 39h21M38 39h4M9 40h20M38 40h4M10 41h19M38 41h4M4 42h11M25 42h4M38 42h4M3 43h13M25 43h4M38 43h4M2 44h15M25 44h4M38 44h4M1 45h17M25 45h4M38 45h4M1 46h17M25 46h4M38 46h4M1 47h4M14 47h4M25 47h4M38 47h4M1 48h4M14 48h15M38 48h4M1 49h4M14 49h15M38 49h4M1 50h4M14 50h15M38 50h4M1 51h4M14 51h15M38 51h4M1 52h4M14 52h15M38 52h4M1 53h4M38 53h4M1 54h4M38 54h4M1 55h5M37 55h5M1 56h10M32 56h10M2 57h9M32 57h10M3 58h8M32 58h9M4 59h7M32 59h8M7 60h4M32 60h4M7 61h5M31 61h5M7 62h29M8 63h28M9 64h26M10 65h24" />
<path stroke="rgba(0,0,0,0.9411764705882353)" d="M39 0h1M40 1h1M41 2h1M1 15h1M2 16h1M3 17h1M39 30h1M40 31h1M41 32h1M7 39h1M8 40h1M9 41h1M15 42h1M16 43h1M17 44h1M1 57h1M2 58h1M3 59h1M7 63h1M8 64h1M9 65h1" />
<path stroke="rgba(0,0,0,0.18823529411764706)" d="M40 0h1M41 1h1M42 2h1M0 15h1M1 16h1M2 17h1M39 24h1M40 30h1M41 31h1M42 32h1M6 39h1M7 40h1M8 41h1M17 43h1M18 44h1M0 57h1M1 58h1M2 59h1M39 60h1M6 63h1M7 64h1M8 65h1M33 66h1" />
<path stroke="rgba(0,0,0,0.5019607843137255)" d="M0 3h1M0 4h1M0 5h1M0 6h1M0 7h1M0 8h1M0 9h1M0 10h1M0 11h1M0 12h1M0 13h1M0 14h1M12 21h1M12 22h1M12 23h1M6 27h1M6 28h1M6 29h1M6 30h1M6 31h1M6 32h1M6 33h1M6 34h1M6 35h1M6 36h1M6 37h1M6 38h1M24 42h1M24 43h1M24 44h1M0 45h1M24 45h1M0 46h1M24 46h1M0 47h1M24 47h1M0 48h1M0 49h1M0 50h1M0 51h1M0 52h1M0 53h1M0 54h1M0 55h1M0 56h1M6 60h1M6 61h1M6 62h1" />
<path stroke="rgba(0,0,0,0.7529411764705882)" d="M42 3h1M42 4h1M42 5h1M42 6h1M42 7h1M42 8h1M42 9h1M42 10h1M42 11h1M42 12h1M42 13h1M42 14h1M42 15h1M42 16h1M42 17h1M42 18h1M42 19h1M42 20h1M36 24h1M36 25h1M36 26h1M36 27h1M36 28h1M36 29h1M42 33h1M42 34h1M42 35h1M42 36h1M42 37h1M42 38h1M42 39h1M42 40h1M42 41h1M42 42h1M42 43h1M42 44h1M18 45h1M42 45h1M18 46h1M42 46h1M18 47h1M42 47h1M42 48h1M42 49h1M42 50h1M42 51h1M42 52h1M42 53h1M42 54h1M42 55h1M42 56h1M36 60h1M36 61h1M36 62h1" />
<path stroke="#242424" d="M5 5h1M23 17h1M17 23h1M11 29h1M5 47h1" />
<path stroke="#e0e0e0" d="M6 5h1M24 17h1M31 19h1M18 23h1M25 25h1M12 29h1M6 47h1M31 55h1" />
<path stroke="#ffffff" d="M7 5h29M6 6h31M6 7h31M6 8h31M6 9h31M6 10h31M6 11h31M7 12h30M30 13h7M30 14h7M30 15h7M30 16h7M25 17h12M24 18h13M24 19h7M24 20h7M24 21h7M24 22h7M19 23h12M18 24h13M18 25h7M18 26h7M18 27h7M18 28h7M13 29h17M12 30h19M12 31h19M12 32h19M12 33h19M12 34h19M12 35h24M13 36h24M30 37h7M30 38h7M30 39h7M30 40h7M30 41h7M30 42h7M30 43h7M30 44h7M30 45h7M30 46h7M7 47h5M30 47h7M6 48h7M30 48h7M6 49h7M30 49h7M6 50h7M30 50h7M6 51h7M30 51h7M6 52h7M30 52h7M6 53h31M7 54h30M12 55h19M12 56h19M12 57h19M12 58h19M12 59h19M13 60h18" />
<path stroke="#f5f5f5" d="M36 5h1M6 12h1M30 29h1M36 35h1M12 36h1M12 47h1M6 54h1M12 60h1" />
<path stroke="#545454" d="M37 5h1M5 12h1M36 19h1M30 25h1M31 29h1M37 35h1M11 36h1M13 47h1M5 54h1M36 55h1M11 60h1M30 61h1" />
<path stroke="#a3a3a3" d="M5 6h1M5 7h1M5 8h1M5 9h1M5 10h1M5 11h1M29 14h1M29 15h1M29 16h1M23 18h1M23 19h1M23 20h1M23 21h1M23 22h1M17 24h1M17 25h1M17 26h1M17 27h1M17 28h1M11 30h1M11 31h1M11 32h1M11 33h1M11 34h1M11 35h1M29 38h1M29 39h1M29 40h1M29 41h1M29 42h1M29 43h1M29 44h1M29 45h1M29 46h1M29 47h1M5 48h1M29 48h1M5 49h1M29 49h1M5 50h1M29 50h1M5 51h1M29 51h1M5 52h1M29 52h1M5 53h1M11 56h1M11 57h1M11 58h1M11 59h1" />
<path stroke="#d5d5d5" d="M37 6h1M37 7h1M37 8h1M37 9h1M37 10h1M37 11h1M37 12h1M37 13h1M37 14h1M37 15h1M37 16h1M37 17h1M31 20h1M31 21h1M31 22h1M31 23h1M25 26h1M25 27h1M25 28h1M31 30h1M31 31h1M31 32h1M31 33h1M31 34h1M37 36h1M37 37h1M37 38h1M37 39h1M37 40h1M37 41h1M37 42h1M37 43h1M37 44h1M37 45h1M37 46h1M37 47h1M13 48h1M37 48h1M13 49h1M37 49h1M13 50h1M37 50h1M13 51h1M37 51h1M13 52h1M37 52h1M37 53h1M31 56h1M31 57h1M31 58h1M31 59h1" />
<path stroke="#3f3f3f" d="M6 13h1M12 37h1M6 55h1M12 61h1" />
<path stroke="#676767" d="M7 13h22M32 19h4M26 25h4M13 37h16M7 55h4M32 55h4M13 61h17" />
<path stroke="#bdbdbd" d="M29 13h1M29 37h1M11 55h1" />
<path stroke="rgba(0,0,0,0.12549019607843137)" d="M3 18h1M3 60h1M9 66h1" />
<path stroke="rgba(0,0,0,0.25098039215686274)" d="M4 18h11M37 24h2M16 42h8M4 60h2M37 60h2M10 66h23" />
<path stroke="#878787" d="M37 18h1M31 24h1M37 54h1M31 60h1" />
<path stroke="rgba(0,0,0,0.3764705882352941)" d="M42 21h1M41 22h1M40 23h1M42 57h1M41 58h1M40 59h1M36 63h1M35 64h1M34 65h1" />
</svg>