<svg xmlns="http://www.w3.org/2000/svg" viewBox="0 -0.5 43 67" shape-rendering="crispEdges">
<metadata>Made with Pixels to Svg https://codepen.io/shshaw/pen/XbxvNj</metadata>
<path stroke="rgba(0,0,0,0.18823529411764706)" d="M17 0h1M16 1h1M15 2h1M11 12h1M10 13h1M9 14h1M5 24h1M4 25h1M3 26h1M42 54h1M38 64h1M37 65h1M36 66h1" />
<path stroke="rgba(0,0,0,0.7529411764705882)" d="M18 0h18M12 12h3M6 24h3M0 36h3M39 36h3" />
<path stroke="rgba(0,0,0,0.5647058823529412)" d="M36 0h1M37 1h1M38 2h1M42 36h1" />
<path stroke="rgba(0,0,0,0.9411764705882353)" d="M17 1h1M16 2h1M15 3h1M11 13h1M10 14h1M9 15h1M5 25h1M4 26h1M3 27h1M42 53h1M38 63h1M37 64h1M36 65h1" />
<path stroke="#000000" d="M18 1h19M17 2h21M16 3h23M15 4h24M15 5h5M34 5h5M15 6h5M35 6h4M15 7h5M35 7h4M15 8h5M35 8h4M15 9h5M35 9h4M15 10h5M35 10h4M15 11h5M35 11h4M15 12h5M35 12h4M12 13h8M35 13h4M11 14h9M35 14h4M10 15h10M35 15h4M9 16h11M35 16h4M9 17h5M35 17h4M9 18h5M35 18h4M9 19h5M35 19h4M9 20h5M23 20h3M35 20h4M9 21h5M23 21h3M35 21h4M9 22h5M23 22h3M35 22h4M9 23h5M23 23h3M35 23h4M9 24h5M23 24h3M35 24h4M6 25h8M23 25h3M35 25h4M5 26h9M23 26h3M35 26h4M4 27h10M23 27h3M35 27h4M3 28h11M23 28h3M35 28h4M3 29h5M23 29h3M35 29h4M3 30h5M23 30h3M35 30h4M3 31h5M22 31h4M35 31h4M3 32h5M17 32h9M35 32h4M3 33h5M17 33h9M35 33h4M3 34h5M17 34h9M35 34h4M3 35h5M17 35h9M35 35h4M3 36h5M17 36h9M35 36h4M0 37h8M17 37h9M35 37h8M0 38h8M17 38h9M35 38h8M0 39h8M17 39h9M35 39h8M0 40h8M17 40h9M35 40h8M0 41h2M40 41h3M0 42h2M41 42h2M0 43h2M41 43h2M0 44h2M41 44h2M0 45h2M41 45h2M0 46h2M41 46h2M0 47h2M41 47h2M0 48h2M41 48h2M0 49h2M40 49h3M0 50h26M35 50h8M0 51h26M35 51h8M0 52h26M35 52h8M0 53h26M35 53h7M21 54h5M35 54h4M21 55h5M35 55h4M21 56h5M35 56h4M21 57h5M35 57h4M21 58h5M35 58h4M21 59h5M35 59h4M21 60h5M35 60h4M21 61h5M34 61h5M21 62h18M22 63h16M23 64h14M24 65h12" />
<path stroke="rgba(0,0,0,0.25098039215686274)" d="M39 3h1M39 4h1M39 5h1M39 6h1M39 7h1M39 8h1M39 9h1M39 10h1M39 11h1M39 12h1M39 13h1M39 14h1M39 15h1M39 16h1M39 17h1M39 18h1M39 19h1M39 20h1M39 21h1M39 22h1M39 23h1M39 24h1M39 25h1M39 26h1M39 27h1M39 28h1M39 29h1M39 30h1M39 31h1M39 32h1M39 33h1M39 34h1M39 35h1M39 55h1M39 56h1M39 57h1M39 58h1M39 59h1M39 60h1M39 61h1M39 62h1" />
<path stroke="#545454" d="M20 5h1M14 17h1M8 29h1M21 31h1M2 41h1M39 49h1M33 61h1" />
<path stroke="#d5d5d5" d="M21 5h12M15 17h5M9 29h5M3 41h5M17 41h9M35 41h4" />
<path stroke="#b0b0b0" d="M33 5h1M39 41h1" />
<path stroke="#f5f5f5" d="M20 6h1M14 18h1M8 30h1M21 30h1M2 42h1M39 48h1M33 60h1" />
<path stroke="#ffffff" d="M21 6h13M20 7h14M20 8h14M20 9h14M20 10h14M20 11h14M20 12h14M20 13h14M20 14h14M20 15h14M20 16h14M20 17h14M15 18h19M14 19h8M26 19h8M14 20h8M26 20h8M14 21h8M26 21h8M14 22h8M26 22h8M14 23h8M26 23h8M14 24h8M26 24h8M14 25h8M26 25h8M14 26h8M26 26h8M14 27h8M26 27h8M14 28h8M26 28h8M14 29h8M26 29h8M9 30h12M26 30h8M8 31h8M26 31h8M8 32h8M26 32h8M8 33h8M26 33h8M8 34h8M26 34h8M8 35h8M26 35h8M8 36h8M26 36h8M8 37h8M26 37h8M8 38h8M26 38h8M8 39h8M26 39h8M8 40h8M26 40h8M8 41h8M26 41h8M3 42h37M2 43h38M2 44h38M2 45h38M2 46h38M2 47h38M3 48h36M26 49h8M26 50h8M26 51h8M26 52h8M26 53h8M26 54h8M26 55h8M26 56h8M26 57h8M26 58h8M26 59h8M27 60h6" />
<path stroke="#676767" d="M34 6h1M34 7h1M34 8h1M34 9h1M34 10h1M34 11h1M34 12h1M34 13h1M34 14h1M34 15h1M34 16h1M34 17h1M34 18h1M34 19h1M22 20h1M34 20h1M22 21h1M34 21h1M22 22h1M34 22h1M22 23h1M34 23h1M22 24h1M34 24h1M22 25h1M34 25h1M22 26h1M34 26h1M22 27h1M34 27h1M22 28h1M34 28h1M22 29h1M34 29h1M34 30h1M34 31h1M16 32h1M34 32h1M16 33h1M34 33h1M16 34h1M34 34h1M16 35h1M34 35h1M16 36h1M34 36h1M16 37h1M34 37h1M16 38h1M34 38h1M16 39h1M34 39h1M16 40h1M34 40h1M40 42h1M40 43h1M40 44h1M40 45h1M40 46h1M40 47h1M34 50h1M34 51h1M34 52h1M34 53h1M34 54h1M34 55h1M34 56h1M34 57h1M34 58h1M34 59h1" />
<path stroke="#bdbdbd" d="M22 19h1M16 31h1M34 49h1" />
<path stroke="#a3a3a3" d="M23 19h3M17 31h4M3 49h23M35 49h4M27 61h6" />
<path stroke="#3f3f3f" d="M22 30h1M40 48h1M34 60h1" />
<path stroke="#e0e0e0" d="M16 41h1M34 41h1M2 48h1M26 60h1" />
<path stroke="#242424" d="M2 49h1M26 61h1" />
<path stroke="rgba(0,0,0,0.5019607843137255)" d="M0 54h21M39 54h3M24 66h12" />
<path stroke="rgba(0,0,0,0.8156862745098039)" d="M21 63h1M22 64h1M23 65h1" />
<path stroke="rgba(0,0,0,0.12549019607843137)" d="M39 63h1" />
<path stroke="rgba(0,0,0,0.06274509803921569)" d="M21 64h1M22 65h1M23 66h1" />
</svg>