<svg xmlns="http://www.w3.org/2000/svg" viewBox="0 -0.5 43 67" shape-rendering="crispEdges">
<metadata>Made with Pixels to Svg https://codepen.io/shshaw/pen/XbxvNj</metadata>
<path stroke="rgba(0,0,0,0.06274509803921569)" d="M2 0h1M1 1h1M0 2h1M0 33h1M1 34h1M2 36h1M1 37h1M0 38h1M0 57h1M1 58h1M2 59h1M3 60h1M6 63h1M7 64h1M8 65h1M9 66h1" />
<path stroke="rgba(0,0,0,0.8156862745098039)" d="M3 0h1M2 1h1M1 2h1M1 33h1M2 34h1M3 36h1M2 37h1M1 38h1M1 57h1M2 58h1M3 59h1M7 63h1M8 64h1M9 65h1" />
<path stroke="#000000" d="M4 0h36M3 1h38M2 2h40M1 3h42M1 4h42M1 5h4M38 5h5M1 6h4M38 6h5M1 7h4M38 7h5M1 8h4M38 8h5M1 9h4M38 9h5M1 10h4M38 10h5M1 11h4M38 11h5M1 12h4M38 12h5M1 13h4M37 13h6M1 14h4M14 14h29M1 15h4M14 15h28M1 16h4M14 16h27M1 17h4M14 17h26M1 18h4M14 18h4M1 19h4M14 19h21M1 20h4M14 20h22M1 21h4M14 21h23M1 22h4M14 22h23M1 23h4M32 23h5M1 24h4M32 24h8M1 25h4M32 25h9M1 26h4M32 26h10M1 27h4M32 27h11M1 28h4M32 28h11M1 29h4M38 29h5M1 30h4M38 30h5M1 31h5M38 31h5M1 32h28M38 32h5M2 33h27M38 33h5M3 34h26M38 34h5M19 35h10M38 35h5M4 36h12M25 36h4M38 36h5M3 37h14M25 37h4M38 37h5M2 38h16M25 38h4M38 38h5M1 39h18M25 39h4M38 39h5M1 40h18M25 40h4M38 40h5M1 41h4M14 41h5M25 41h4M38 41h5M1 42h4M14 42h5M25 42h4M38 42h5M1 43h4M14 43h5M25 43h4M38 43h5M1 44h4M14 44h5M25 44h4M38 44h5M1 45h4M14 45h5M25 45h4M38 45h5M1 46h4M14 46h5M25 46h4M38 46h5M1 47h4M14 47h5M25 47h4M38 47h5M1 48h4M14 48h15M38 48h5M1 49h4M14 49h15M38 49h5M1 50h4M14 50h15M38 50h5M1 51h4M14 51h15M38 51h5M1 52h4M14 52h15M38 52h5M1 53h4M38 53h5M1 54h4M38 54h5M1 55h5M37 55h6M1 56h10M32 56h11M2 57h9M32 57h10M3 58h8M32 58h9M4 59h7M32 59h8M7 60h4M32 60h5M7 61h5M31 61h6M7 62h30M8 63h28M9 64h26M10 65h24" />
<path stroke="rgba(0,0,0,0.6274509803921569)" d="M40 0h1M41 1h1M42 2h1M42 15h1M41 16h1M40 17h1M35 19h1M36 20h1M40 24h1M41 25h1M42 26h1M16 36h1M17 37h1M18 38h1M42 57h1M41 58h1M40 59h1M36 63h1M35 64h1M34 65h1" />
<path stroke="rgba(0,0,0,0.25098039215686274)" d="M0 3h1M0 4h1M0 5h1M0 6h1M0 7h1M0 8h1M0 9h1M0 10h1M0 11h1M0 12h1M0 13h1M0 14h1M0 15h1M0 16h1M0 17h1M0 18h1M0 19h1M0 20h1M0 21h1M0 22h1M0 23h1M0 24h1M0 25h1M0 26h1M0 27h1M0 28h1M0 29h1M0 30h1M0 31h1M0 32h1M17 36h8M24 37h1M24 38h1M0 39h1M24 39h1M0 40h1M24 40h1M0 41h1M24 41h1M0 42h1M24 42h1M0 43h1M24 43h1M0 44h1M24 44h1M0 45h1M24 45h1M0 46h1M24 46h1M0 47h1M24 47h1M0 48h1M0 49h1M0 50h1M0 51h1M0 52h1M0 53h1M0 54h1M0 55h1M0 56h1M4 60h3M37 60h3M6 61h1M6 62h1M10 66h24" />
<path stroke="#242424" d="M5 5h1M5 30h1M6 31h1M5 41h1M5 54h1M6 55h1M11 60h1M12 61h1" />
<path stroke="#e0e0e0" d="M6 5h1M6 30h1M6 41h1M6 54h1M12 60h1" />
<path stroke="#ffffff" d="M7 5h30M6 6h32M6 7h32M6 8h32M6 9h32M6 10h32M6 11h32M6 12h31M6 13h8M6 14h8M6 15h8M6 16h8M6 17h8M6 18h8M6 19h8M6 20h8M6 21h8M6 22h8M6 23h25M6 24h26M6 25h26M6 26h26M6 27h26M6 28h26M6 29h31M7 30h31M30 31h8M30 32h8M30 33h8M30 34h8M30 35h8M30 36h8M30 37h8M30 38h8M30 39h8M30 40h8M7 41h6M30 41h8M6 42h8M30 42h8M6 43h8M30 43h8M6 44h8M30 44h8M6 45h8M30 45h8M6 46h8M30 46h8M6 47h8M30 47h8M6 48h8M30 48h8M6 49h8M30 49h8M6 50h8M30 50h8M6 51h8M30 51h8M6 52h8M30 52h8M6 53h32M7 54h30M12 55h20M12 56h20M12 57h20M12 58h20M12 59h20M13 60h18" />
<path stroke="#bdbdbd" d="M37 5h1M37 12h1M31 23h1M37 29h1M13 41h1M37 54h1M31 60h1" />
<path stroke="#676767" d="M5 6h1M5 7h1M5 8h1M5 9h1M5 10h1M5 11h1M5 12h1M5 13h1M14 13h23M5 14h1M5 15h1M5 16h1M5 17h1M5 18h1M5 19h1M5 20h1M5 21h1M5 22h1M5 23h1M5 24h1M5 25h1M5 26h1M5 27h1M5 28h1M5 29h1M7 31h22M29 32h1M29 33h1M29 34h1M29 35h1M29 36h1M29 37h1M29 38h1M29 39h1M29 40h1M29 41h1M5 42h1M29 42h1M5 43h1M29 43h1M5 44h1M29 44h1M5 45h1M29 45h1M5 46h1M29 46h1M5 47h1M29 47h1M5 48h1M29 48h1M5 49h1M29 49h1M5 50h1M29 50h1M5 51h1M29 51h1M5 52h1M29 52h1M5 53h1M7 55h4M32 55h5M11 56h1M11 57h1M11 58h1M11 59h1M13 61h18" />
<path stroke="#969696" d="M29 31h1M11 55h1" />
</svg>