<svg xmlns="http://www.w3.org/2000/svg" viewBox="0 -0.5 43 67" shape-rendering="crispEdges">
<metadata>Made with Pixels to Svg https://codepen.io/shshaw/pen/XbxvNj</metadata>
<path stroke="rgba(0,0,0,0.18823529411764706)" d="M15 1h1M33 1h1M14 2h1M34 2h1M13 3h1M35 3h1M9 7h1M8 8h1M7 9h1M3 13h1M2 14h1M35 14h1M1 15h1M34 15h1M33 16h1M33 19h1M34 20h1M35 21h1M39 25h1M40 26h1M41 27h1M41 56h1M40 57h1M39 58h1M4 59h1M35 62h1M34 63h1M33 64h1M10 65h1" />
<path stroke="rgba(0,0,0,0.9411764705882353)" d="M16 1h1M32 1h1M15 2h1M33 2h1M14 3h1M34 3h1M10 7h1M9 8h1M8 9h1M4 13h1M3 14h1M34 14h1M2 15h1M33 15h1M32 16h1M32 19h1M33 20h1M34 21h1M38 25h1M39 26h1M40 27h1M40 56h1M39 57h1M38 58h1M34 62h1M33 63h1M32 64h1" />
<path stroke="#000000" d="M17 1h15M16 2h17M15 3h19M14 4h21M14 5h3M32 5h3M14 6h3M32 6h3M11 7h6M32 7h3M10 8h7M32 8h3M9 9h8M32 9h3M8 10h9M32 10h3M8 11h3M32 11h3M8 12h3M32 12h3M5 13h6M31 13h4M4 14h7M20 14h14M3 15h8M20 15h13M2 16h9M20 16h12M2 17h3M20 17h3M2 18h3M20 18h3M2 19h3M19 19h13M2 20h3M14 20h19M2 21h3M14 21h20M2 22h3M14 22h21M2 23h3M32 23h3M2 24h3M32 24h3M2 25h3M32 25h6M2 26h3M32 26h7M2 27h3M32 27h8M2 28h3M32 28h9M2 29h3M38 29h3M2 30h3M38 30h3M2 31h3M38 31h3M2 32h3M14 32h15M38 32h3M2 33h3M14 33h15M38 33h3M2 34h3M14 34h15M38 34h3M2 35h3M14 35h3M26 35h3M38 35h3M2 36h3M14 36h3M26 36h3M38 36h3M2 37h3M14 37h3M26 37h3M38 37h3M2 38h3M14 38h3M26 38h3M38 38h3M2 39h3M14 39h3M26 39h3M38 39h3M2 40h3M14 40h3M26 40h3M38 40h3M2 41h3M14 41h3M26 41h3M38 41h3M2 42h3M14 42h3M26 42h3M38 42h3M2 43h3M14 43h3M26 43h3M38 43h3M2 44h3M14 44h3M26 44h3M38 44h3M2 45h3M14 45h3M26 45h3M38 45h3M2 46h3M14 46h3M26 46h3M38 46h3M2 47h3M14 47h3M26 47h3M38 47h3M2 48h3M14 48h3M26 48h3M38 48h3M2 49h3M14 49h15M38 49h3M2 50h3M14 50h15M38 50h3M2 51h3M14 51h15M38 51h3M2 52h3M14 52h15M38 52h3M2 53h3M38 53h3M2 54h3M38 54h3M2 55h4M37 55h4M2 56h9M32 56h8M3 57h8M32 57h7M4 58h7M32 58h6M8 59h3M32 59h3M8 60h3M32 60h3M8 61h4M31 61h4M8 62h26M9 63h24M10 64h22" />
<path stroke="rgba(0,0,0,0.7529411764705882)" d="M13 4h1M13 5h1M13 6h1M7 10h1M7 11h1M7 12h1M1 16h1M1 17h1M1 18h1M1 19h1M1 20h1M1 21h1M1 22h1M1 23h1M1 24h1M1 25h1M1 26h1M1 27h1M1 28h1M1 29h1M1 30h1M1 31h1M1 32h1M1 33h1M1 34h1M1 35h1M25 35h1M1 36h1M25 36h1M1 37h1M25 37h1M1 38h1M25 38h1M1 39h1M25 39h1M1 40h1M25 40h1M1 41h1M25 41h1M1 42h1M25 42h1M1 43h1M25 43h1M1 44h1M25 44h1M1 45h1M25 45h1M1 46h1M25 46h1M1 47h1M25 47h1M1 48h1M25 48h1M1 49h1M1 50h1M1 51h1M1 52h1M1 53h1M1 54h1M1 55h1M7 59h1M7 60h1M7 61h1" />
<path stroke="rgba(0,0,0,0.5019607843137255)" d="M35 4h1M35 5h1M35 6h1M35 7h1M35 8h1M35 9h1M35 10h1M35 11h1M35 12h1M35 13h1M23 17h1M23 18h1M35 22h1M35 23h1M35 24h1M41 28h1M41 29h1M41 30h1M41 31h1M41 32h1M41 33h1M41 34h1M17 35h1M41 35h1M17 36h1M41 36h1M17 37h1M41 37h1M17 38h1M41 38h1M17 39h1M41 39h1M17 40h1M41 40h1M17 41h1M41 41h1M17 42h1M41 42h1M17 43h1M41 43h1M17 44h1M41 44h1M17 45h1M41 45h1M17 46h1M41 46h1M17 47h1M41 47h1M17 48h1M41 48h1M41 49h1M41 50h1M41 51h1M41 52h1M41 53h1M41 54h1M41 55h1M35 59h1M35 60h1M35 61h1" />
<path stroke="#545454" d="M17 5h1M31 5h1M11 11h1M31 12h1M5 17h1M19 18h1M31 23h1M37 29h1M37 54h1M6 55h1M31 60h1M12 61h1" />
<path stroke="#f5f5f5" d="M18 5h1M30 5h1M12 11h1M30 12h1M6 17h1M18 18h1M30 23h1M36 29h1M36 54h1M30 60h1" />
<path stroke="#ffffff" d="M19 5h11M18 6h13M18 7h13M18 8h13M18 9h13M18 10h13M13 11h18M12 12h18M12 13h7M12 14h7M12 15h7M12 16h7M7 17h12M6 18h12M6 19h7M6 20h7M6 21h7M6 22h7M6 23h24M6 24h25M6 25h25M6 26h25M6 27h25M6 28h25M6 29h30M6 30h31M6 31h7M30 31h7M6 32h7M30 32h7M6 33h7M30 33h7M6 34h7M30 34h7M6 35h7M30 35h7M6 36h7M30 36h7M6 37h7M30 37h7M6 38h7M30 38h7M6 39h7M30 39h7M6 40h7M30 40h7M6 41h7M30 41h7M6 42h7M30 42h7M6 43h7M30 43h7M6 44h7M30 44h7M6 45h7M30 45h7M6 46h7M30 46h7M6 47h7M30 47h7M6 48h7M30 48h7M6 49h7M30 49h7M6 50h7M30 50h7M6 51h7M30 51h7M6 52h7M30 52h7M6 53h31M6 54h30M12 55h19M12 56h19M12 57h19M12 58h19M12 59h19M12 60h18" />
<path stroke="#d5d5d5" d="M17 6h1M17 7h1M17 8h1M17 9h1M17 10h1M11 12h1M11 13h1M11 14h1M11 15h1M11 16h1M5 18h1M5 19h1M5 20h1M5 21h1M5 22h1M5 23h1M5 24h1M5 25h1M5 26h1M5 27h1M5 28h1M5 29h1M5 30h1M5 31h1M5 32h1M29 32h1M5 33h1M29 33h1M5 34h1M29 34h1M5 35h1M29 35h1M5 36h1M29 36h1M5 37h1M29 37h1M5 38h1M29 38h1M5 39h1M29 39h1M5 40h1M29 40h1M5 41h1M29 41h1M5 42h1M29 42h1M5 43h1M29 43h1M5 44h1M29 44h1M5 45h1M29 45h1M5 46h1M29 46h1M5 47h1M29 47h1M5 48h1M29 48h1M5 49h1M29 49h1M5 50h1M29 50h1M5 51h1M29 51h1M5 52h1M29 52h1M5 53h1M11 56h1M11 57h1M11 58h1M11 59h1" />
<path stroke="#a3a3a3" d="M31 6h1M31 7h1M31 8h1M31 9h1M31 10h1M31 11h1M19 14h1M19 15h1M19 16h1M19 17h1M13 20h1M13 21h1M13 22h1M31 24h1M31 25h1M31 26h1M31 27h1M31 28h1M37 30h1M37 31h1M13 32h1M37 32h1M13 33h1M37 33h1M13 34h1M37 34h1M13 35h1M37 35h1M13 36h1M37 36h1M13 37h1M37 37h1M13 38h1M37 38h1M13 39h1M37 39h1M13 40h1M37 40h1M13 41h1M37 41h1M13 42h1M37 42h1M13 43h1M37 43h1M13 44h1M37 44h1M13 45h1M37 45h1M13 46h1M37 46h1M13 47h1M37 47h1M13 48h1M37 48h1M13 49h1M37 49h1M13 50h1M37 50h1M13 51h1M37 51h1M13 52h1M37 52h1M37 53h1M31 56h1M31 57h1M31 58h1M31 59h1" />
<path stroke="#bdbdbd" d="M19 13h1M13 19h1M13 31h1M31 55h1" />
<path stroke="#676767" d="M20 13h10M14 19h4M14 31h15M7 55h4M32 55h4M13 61h17" />
<path stroke="#3f3f3f" d="M30 13h1M18 19h1M36 55h1M30 61h1" />
<path stroke="rgba(0,0,0,0.25098039215686274)" d="M24 17h8M18 35h7M5 59h2M36 59h2M11 65h21" />
<path stroke="rgba(0,0,0,0.12549019607843137)" d="M32 17h1M38 59h1M32 65h1" />
<path stroke="#e0e0e0" d="M29 31h1M11 55h1" />
<path stroke="#878787" d="M5 54h1M11 60h1" />
<path stroke="rgba(0,0,0,0.3764705882352941)" d="M1 56h1M2 57h1M3 58h1M7 62h1M8 63h1M9 64h1" />
</svg>