<svg xmlns="http://www.w3.org/2000/svg" viewBox="0 -0.5 43 67" shape-rendering="crispEdges">
<metadata>Made with Pixels to Svg https://codepen.io/shshaw/pen/XbxvNj</metadata>
<path stroke="rgba(0,0,0,0.06274509803921569)" d="M3 1h1M2 2h1M1 3h1M1 15h1M2 16h1M3 17h1M21 19h1M20 20h1M19 21h1M15 31h1M14 32h1M13 33h1M9 43h1M8 44h1M7 45h1M7 63h1M8 64h1M9 65h1" />
<path stroke="rgba(0,0,0,0.5019607843137255)" d="M4 1h34M41 5h1M41 6h1M41 7h1M41 8h1M41 9h1M41 10h1M41 11h1M41 12h1M41 13h1M41 14h1M41 15h1M41 16h1M41 17h1M41 18h1M22 19h3M41 19h1M41 20h1M41 21h1M41 22h1M41 23h1M41 24h1M41 25h1M35 30h1M16 31h3M35 31h1M35 32h1M35 33h1M35 34h1M35 35h1M35 36h1M35 37h1M29 42h1M10 43h3M29 43h1M29 44h1M29 45h1M29 46h1M29 47h1M29 48h1M29 49h1M23 54h1M23 55h1M23 56h1M23 57h1M23 58h1M23 59h1M23 60h1M23 61h1" />
<path stroke="rgba(0,0,0,0.3137254901960784)" d="M38 1h1M39 2h1M40 3h1M41 4h1" />
<path stroke="rgba(0,0,0,0.6901960784313725)" d="M3 2h1M2 3h1M1 4h1M1 14h1M2 15h1M3 16h1M4 17h1M21 20h1M20 21h1M19 22h1M15 32h1M14 33h1M13 34h1M9 44h1M8 45h1M7 46h1M7 62h1M8 63h1M9 64h1M10 65h1" />
<path stroke="#000000" d="M4 2h35M3 3h37M2 4h39M2 5h3M37 5h4M2 6h3M38 6h3M2 7h3M38 7h3M2 8h3M38 8h3M2 9h3M38 9h3M2 10h3M38 10h3M2 11h3M38 11h3M2 12h3M38 12h3M2 13h3M38 13h3M2 14h27M38 14h3M3 15h26M38 15h3M4 16h25M38 16h3M26 17h3M38 17h3M26 18h3M38 18h3M26 19h3M38 19h3M22 20h7M38 20h3M21 21h8M38 21h3M20 22h9M38 22h3M20 23h3M38 23h3M20 24h3M38 24h3M20 25h3M37 25h4M20 26h3M32 26h9M20 27h3M32 27h8M20 28h3M32 28h7M20 29h3M32 29h3M20 30h3M32 30h3M20 31h3M32 31h3M16 32h7M32 32h3M15 33h8M32 33h3M14 34h9M32 34h3M14 35h3M32 35h3M14 36h3M32 36h3M14 37h3M31 37h4M14 38h3M26 38h9M14 39h3M26 39h8M14 40h3M26 40h7M14 41h3M26 41h3M14 42h3M26 42h3M14 43h3M26 43h3M10 44h7M26 44h3M9 45h8M26 45h3M8 46h9M26 46h3M8 47h3M26 47h3M8 48h3M26 48h3M8 49h3M25 49h4M8 50h3M20 50h9M8 51h3M20 51h8M8 52h3M20 52h7M8 53h3M20 53h3M8 54h3M20 54h3M8 55h3M20 55h3M8 56h3M20 56h3M8 57h3M20 57h3M8 58h3M20 58h3M8 59h3M20 59h3M8 60h3M20 60h3M8 61h3M19 61h4M8 62h15M9 63h13M10 64h11" />
<path stroke="rgba(0,0,0,0.7529411764705882)" d="M1 5h1M1 6h1M1 7h1M1 8h1M1 9h1M1 10h1M1 11h1M1 12h1M1 13h1M5 17h21M25 18h1M25 19h1M19 23h1M19 24h1M19 25h1M19 26h1M19 27h1M19 28h1M19 29h1M35 29h3M19 30h1M19 31h1M13 35h1M13 36h1M13 37h1M13 38h1M13 39h1M13 40h1M13 41h1M29 41h3M13 42h1M13 43h1M7 47h1M7 48h1M7 49h1M7 50h1M7 51h1M7 52h1M7 53h1M23 53h3M7 54h1M7 55h1M7 56h1M7 57h1M7 58h1M7 59h1M7 60h1M7 61h1M11 65h9" />
<path stroke="#242424" d="M5 5h1M5 13h1M23 23h1M17 35h1M11 47h1M11 61h1" />
<path stroke="#a3a3a3" d="M6 5h30M37 7h1M37 8h1M37 9h1M37 10h1M37 11h1M37 12h1M37 13h1M37 14h1M37 15h1M37 16h1M37 17h1M37 18h1M37 19h1M37 20h1M37 21h1M37 22h1M24 23h5M37 23h1M31 26h1M31 27h1M31 28h1M31 29h1M31 30h1M31 31h1M31 32h1M31 33h1M31 34h1M18 35h5M31 35h1M25 38h1M25 39h1M25 40h1M25 41h1M25 42h1M25 43h1M25 44h1M25 45h1M25 46h1M12 47h5M25 47h1M19 50h1M19 51h1M19 52h1M19 53h1M19 54h1M19 55h1M19 56h1M19 57h1M19 58h1M19 59h1" />
<path stroke="#787878" d="M36 5h1M37 6h1" />
<path stroke="#c9c9c9" d="M5 6h1M5 12h1M6 13h1M23 24h1M17 36h1M11 48h1M11 60h1M12 61h1" />
<path stroke="#ffffff" d="M6 6h31M6 7h31M6 8h31M6 9h31M6 10h31M6 11h31M6 12h31M30 13h7M30 14h7M30 15h7M30 16h7M30 17h7M30 18h7M30 19h7M30 20h7M30 21h7M30 22h7M30 23h7M24 24h13M24 25h7M24 26h7M24 27h7M24 28h7M24 29h7M24 30h7M24 31h7M24 32h7M24 33h7M24 34h7M24 35h7M18 36h13M18 37h7M18 38h7M18 39h7M18 40h7M18 41h7M18 42h7M18 43h7M18 44h7M18 45h7M18 46h7M18 47h7M12 48h13M12 49h7M12 50h7M12 51h7M12 52h7M12 53h7M12 54h7M12 55h7M12 56h7M12 57h7M12 58h7M12 59h7M12 60h7" />
<path stroke="#d5d5d5" d="M5 7h1M5 8h1M5 9h1M5 10h1M5 11h1M7 13h22M29 14h1M29 15h1M29 16h1M29 17h1M29 18h1M29 19h1M29 20h1M29 21h1M29 22h1M23 25h1M32 25h4M23 26h1M23 27h1M23 28h1M23 29h1M23 30h1M23 31h1M23 32h1M23 33h1M23 34h1M17 37h1M26 37h4M17 38h1M17 39h1M17 40h1M17 41h1M17 42h1M17 43h1M17 44h1M17 45h1M17 46h1M11 49h1M20 49h4M11 50h1M11 51h1M11 52h1M11 53h1M11 54h1M11 55h1M11 56h1M11 57h1M11 58h1M11 59h1M13 61h5" />
<path stroke="#f5f5f5" d="M29 13h1" />
<path stroke="#ebebeb" d="M29 23h1M31 25h1M23 35h1M25 37h1M17 47h1M19 49h1" />
<path stroke="#969696" d="M37 24h1M31 36h1M25 48h1M19 60h1" />
<path stroke="#b0b0b0" d="M36 25h1M30 37h1M24 49h1M18 61h1" />
<path stroke="rgba(0,0,0,0.4392156862745098)" d="M41 26h1M35 38h1M29 50h1M23 62h1" />
<path stroke="rgba(0,0,0,0.5647058823529412)" d="M40 27h1M39 28h1M38 29h1M34 39h1M33 40h1M32 41h1M28 51h1M27 52h1M26 53h1M22 63h1M21 64h1M20 65h1" />
</svg>