<svg xmlns="http://www.w3.org/2000/svg" viewBox="0 -0.5 43 67" shape-rendering="crispEdges">
<metadata>Made with Pixels to Svg https://codepen.io/shshaw/pen/XbxvNj</metadata>
<path stroke="rgba(0,0,0,0.18823529411764706)" d="M9 1h1M33 1h1M8 2h1M34 2h1M7 3h1M35 3h1M3 7h1M39 7h1M2 8h1M40 8h1M1 9h1M41 9h1M1 33h1M41 33h1M4 59h1M38 59h1M10 65h1M32 65h1" />
<path stroke="rgba(0,0,0,0.9411764705882353)" d="M10 1h1M32 1h1M9 2h1M33 2h1M8 3h1M34 3h1M4 7h1M38 7h1M3 8h1M39 8h1M2 9h1M40 9h1M2 33h1M40 33h1" />
<path stroke="#000000" d="M11 1h21M10 2h23M9 3h25M8 4h27M8 5h3M32 5h3M8 6h3M32 6h3M5 7h6M32 7h6M4 8h7M32 8h7M3 9h8M32 9h8M2 10h9M32 10h9M2 11h3M38 11h3M2 12h3M38 12h3M2 13h3M38 13h3M2 14h3M14 14h15M38 14h3M2 15h3M14 15h15M38 15h3M2 16h3M14 16h15M38 16h3M2 17h3M14 17h3M26 17h3M38 17h3M2 18h3M14 18h3M26 18h3M38 18h3M2 19h3M14 19h3M26 19h3M38 19h3M2 20h3M14 20h3M26 20h3M38 20h3M2 21h3M14 21h3M26 21h3M38 21h3M2 22h3M14 22h3M26 22h3M38 22h3M2 23h3M14 23h3M26 23h3M38 23h3M2 24h3M14 24h3M26 24h3M38 24h3M2 25h3M14 25h15M38 25h3M2 26h3M14 26h15M38 26h3M2 27h3M14 27h15M38 27h3M2 28h3M14 28h15M38 28h3M2 29h3M38 29h3M2 30h3M38 30h3M2 31h4M37 31h4M2 32h9M32 32h9M3 33h8M32 33h8M2 34h9M32 34h9M2 35h3M38 35h3M2 36h3M38 36h3M2 37h3M38 37h3M2 38h3M14 38h15M38 38h3M2 39h3M14 39h15M38 39h3M2 40h3M14 40h15M38 40h3M2 41h3M14 41h3M26 41h3M38 41h3M2 42h3M14 42h3M26 42h3M38 42h3M2 43h3M14 43h3M26 43h3M38 43h3M2 44h3M14 44h3M26 44h3M38 44h3M2 45h3M14 45h3M26 45h3M38 45h3M2 46h3M14 46h3M26 46h3M38 46h3M2 47h3M14 47h3M26 47h3M38 47h3M2 48h3M14 48h3M26 48h3M38 48h3M2 49h3M14 49h15M38 49h3M2 50h3M14 50h15M38 50h3M2 51h3M14 51h15M38 51h3M2 52h3M14 52h15M38 52h3M2 53h3M38 53h3M2 54h3M38 54h3M2 55h4M37 55h4M2 56h9M32 56h9M3 57h8M32 57h8M4 58h7M32 58h7M8 59h3M32 59h3M8 60h3M32 60h3M8 61h4M31 61h4M8 62h27M9 63h25M10 64h23" />
<path stroke="rgba(0,0,0,0.5019607843137255)" d="M7 4h1M35 4h1M7 5h1M35 5h1M7 6h1M35 6h1M1 10h1M41 10h1M1 11h1M41 11h1M1 12h1M41 12h1M1 13h1M41 13h1M1 14h1M41 14h1M1 15h1M41 15h1M1 16h1M41 16h1M1 17h1M17 17h1M25 17h1M41 17h1M1 18h1M17 18h1M25 18h1M41 18h1M1 19h1M17 19h1M25 19h1M41 19h1M1 20h1M17 20h1M25 20h1M41 20h1M1 21h1M17 21h1M25 21h1M41 21h1M1 22h1M17 22h1M25 22h1M41 22h1M1 23h1M17 23h1M25 23h1M41 23h1M1 24h1M17 24h1M25 24h1M41 24h1M1 25h1M41 25h1M1 26h1M41 26h1M1 27h1M41 27h1M1 28h1M41 28h1M1 29h1M41 29h1M1 30h1M41 30h1M1 31h1M41 31h1M1 34h1M41 34h1M1 35h1M41 35h1M1 36h1M41 36h1M1 37h1M41 37h1M1 38h1M41 38h1M1 39h1M41 39h1M1 40h1M41 40h1M1 41h1M17 41h1M25 41h1M41 41h1M1 42h1M17 42h1M25 42h1M41 42h1M1 43h1M17 43h1M25 43h1M41 43h1M1 44h1M17 44h1M25 44h1M41 44h1M1 45h1M17 45h1M25 45h1M41 45h1M1 46h1M17 46h1M25 46h1M41 46h1M1 47h1M17 47h1M25 47h1M41 47h1M1 48h1M17 48h1M25 48h1M41 48h1M1 49h1M41 49h1M1 50h1M41 50h1M1 51h1M41 51h1M1 52h1M41 52h1M1 53h1M41 53h1M1 54h1M41 54h1M1 55h1M41 55h1M7 59h1M35 59h1M7 60h1M35 60h1M7 61h1M35 61h1" />
<path stroke="#545454" d="M11 5h1M31 5h1M5 11h1M37 11h1M6 31h1M36 31h1M5 35h1M37 35h1M6 55h1M36 55h1M12 61h1M30 61h1" />
<path stroke="#f5f5f5" d="M12 5h1M30 5h1M6 11h1M36 11h1M6 35h1M36 35h1" />
<path stroke="#ffffff" d="M13 5h17M12 6h19M12 7h19M12 8h19M12 9h19M12 10h19M7 11h29M6 12h31M6 13h7M30 13h7M6 14h7M30 14h7M6 15h7M30 15h7M6 16h7M30 16h7M6 17h7M30 17h7M6 18h7M30 18h7M6 19h7M30 19h7M6 20h7M30 20h7M6 21h7M30 21h7M6 22h7M30 22h7M6 23h7M30 23h7M6 24h7M30 24h7M6 25h7M30 25h7M6 26h7M30 26h7M6 27h7M30 27h7M6 28h7M30 28h7M6 29h31M6 30h31M12 31h19M12 32h19M12 33h19M12 34h19M7 35h29M6 36h31M6 37h7M30 37h7M6 38h7M30 38h7M6 39h7M30 39h7M6 40h7M30 40h7M6 41h7M30 41h7M6 42h7M30 42h7M6 43h7M30 43h7M6 44h7M30 44h7M6 45h7M30 45h7M6 46h7M30 46h7M6 47h7M30 47h7M6 48h7M30 48h7M6 49h7M30 49h7M6 50h7M30 50h7M6 51h7M30 51h7M6 52h7M30 52h7M6 53h31M6 54h31M12 55h19M12 56h19M12 57h19M12 58h19M12 59h19M12 60h19" />
<path stroke="#a3a3a3" d="M11 6h1M31 6h1M11 7h1M31 7h1M11 8h1M31 8h1M11 9h1M31 9h1M11 10h1M31 10h1M5 12h1M37 12h1M5 13h1M37 13h1M5 14h1M13 14h1M29 14h1M37 14h1M5 15h1M13 15h1M29 15h1M37 15h1M5 16h1M13 16h1M29 16h1M37 16h1M5 17h1M13 17h1M29 17h1M37 17h1M5 18h1M13 18h1M29 18h1M37 18h1M5 19h1M13 19h1M29 19h1M37 19h1M5 20h1M13 20h1M29 20h1M37 20h1M5 21h1M13 21h1M29 21h1M37 21h1M5 22h1M13 22h1M29 22h1M37 22h1M5 23h1M13 23h1M29 23h1M37 23h1M5 24h1M13 24h1M29 24h1M37 24h1M5 25h1M13 25h1M29 25h1M37 25h1M5 26h1M13 26h1M29 26h1M37 26h1M5 27h1M13 27h1M29 27h1M37 27h1M5 28h1M13 28h1M29 28h1M37 28h1M5 29h1M37 29h1M11 32h1M31 32h1M11 33h1M31 33h1M11 34h1M31 34h1M5 36h1M37 36h1M5 37h1M37 37h1M5 38h1M13 38h1M29 38h1M37 38h1M5 39h1M13 39h1M29 39h1M37 39h1M5 40h1M13 40h1M29 40h1M37 40h1M5 41h1M13 41h1M29 41h1M37 41h1M5 42h1M13 42h1M29 42h1M37 42h1M5 43h1M13 43h1M29 43h1M37 43h1M5 44h1M13 44h1M29 44h1M37 44h1M5 45h1M13 45h1M29 45h1M37 45h1M5 46h1M13 46h1M29 46h1M37 46h1M5 47h1M13 47h1M29 47h1M37 47h1M5 48h1M13 48h1M29 48h1M37 48h1M5 49h1M13 49h1M29 49h1M37 49h1M5 50h1M13 50h1M29 50h1M37 50h1M5 51h1M13 51h1M29 51h1M37 51h1M5 52h1M13 52h1M29 52h1M37 52h1M5 53h1M37 53h1M11 56h1M31 56h1M11 57h1M31 57h1M11 58h1M31 58h1M11 59h1M31 59h1" />
<path stroke="#bdbdbd" d="M13 13h1M29 13h1M11 31h1M31 31h1M13 37h1M29 37h1M11 55h1M31 55h1" />
<path stroke="#676767" d="M14 13h15M7 31h4M32 31h4M14 37h15M7 55h4M32 55h4M13 61h17" />
<path stroke="rgba(0,0,0,0.25098039215686274)" d="M18 17h7M18 41h7M5 59h2M36 59h2M11 65h21" />
<path stroke="#787878" d="M5 30h1M37 30h1M5 54h1M37 54h1M11 60h1M31 60h1" />
<path stroke="rgba(0,0,0,0.3137254901960784)" d="M1 32h1M41 32h1M1 56h1M41 56h1M2 57h1M40 57h1M3 58h1M39 58h1M7 62h1M35 62h1M8 63h1M34 63h1M9 64h1M33 64h1" />
</svg>