<svg xmlns="http://www.w3.org/2000/svg" viewBox="0 -0.5 43 67" shape-rendering="crispEdges">
<metadata>Made with Pixels to Svg https://codepen.io/shshaw/pen/XbxvNj</metadata>
<path stroke="rgba(0,0,0,0.5647058823529412)" d="M9 1h1M8 2h1M7 3h1M3 7h1M2 8h1M1 9h1M9 49h1M8 50h1M7 51h1" />
<path stroke="rgba(0,0,0,0.7529411764705882)" d="M10 1h22M4 7h3M35 7h3M17 31h8M10 49h9" />
<path stroke="rgba(0,0,0,0.3764705882352941)" d="M32 1h1M33 2h1M34 3h1M38 7h1M39 8h1M40 9h1" />
<path stroke="#000000" d="M9 2h24M8 3h26M7 4h28M7 5h4M31 5h4M7 6h3M31 6h4M7 7h3M31 7h4M3 8h7M31 8h8M2 9h8M31 9h9M1 10h9M31 10h10M1 11h4M37 11h4M1 12h3M37 12h4M1 13h3M37 13h4M1 14h3M13 14h15M37 14h4M1 15h3M13 15h15M37 15h4M1 16h3M13 16h15M37 16h4M1 17h3M13 17h4M25 17h3M37 17h4M1 18h3M13 18h4M25 18h3M37 18h4M1 19h3M13 19h4M25 19h3M37 19h4M1 20h3M13 20h4M25 20h3M37 20h4M1 21h3M13 21h4M25 21h3M37 21h4M1 22h3M13 22h4M25 22h3M37 22h4M1 23h3M13 23h4M25 23h3M37 23h4M1 24h3M13 24h4M25 24h3M37 24h4M1 25h3M13 25h4M25 25h3M37 25h4M1 26h3M13 26h4M25 26h3M37 26h4M1 27h3M13 27h4M25 27h3M37 27h4M1 28h3M13 28h4M25 28h3M37 28h4M1 29h3M13 29h4M25 29h3M37 29h4M1 30h3M13 30h4M25 30h3M37 30h4M1 31h3M13 31h4M25 31h3M37 31h4M1 32h3M13 32h15M37 32h4M1 33h3M13 33h15M37 33h4M1 34h3M13 34h15M37 34h4M1 35h3M37 35h4M1 36h3M37 36h4M1 37h4M37 37h4M2 38h8M37 38h4M3 39h7M37 39h4M4 40h6M37 40h4M7 41h3M37 41h4M7 42h3M37 42h4M7 43h4M37 43h4M8 44h20M37 44h4M9 45h19M37 45h4M10 46h18M37 46h4M19 47h4M37 47h4M19 48h3M37 48h4M19 49h3M37 49h4M9 50h13M31 50h9M8 51h14M31 51h8M7 52h15M31 52h7M7 53h4M31 53h4M7 54h3M31 54h4M7 55h3M31 55h4M7 56h3M25 56h9M7 57h3M25 57h8M7 58h3M25 58h7M7 59h3M25 59h4M7 60h3M25 60h4M7 61h4M25 61h4M8 62h20M9 63h18M10 64h16" />
<path stroke="rgba(0,0,0,0.25098039215686274)" d="M6 4h1M6 5h1M6 6h1M0 10h1M0 11h1M0 12h1M0 13h1M0 14h1M0 15h1M0 16h1M0 17h1M0 18h1M24 18h1M0 19h1M24 19h1M0 20h1M24 20h1M0 21h1M24 21h1M0 22h1M24 22h1M0 23h1M24 23h1M0 24h1M24 24h1M0 25h1M24 25h1M0 26h1M24 26h1M0 27h1M24 27h1M0 28h1M24 28h1M0 29h1M24 29h1M0 30h1M24 30h1M0 31h1M0 32h1M0 33h1M0 34h1M0 35h1M0 36h1M0 37h1M6 42h1M6 43h1M18 48h1M6 52h1M6 53h1M6 54h1M6 55h1M6 56h1M6 57h1M6 58h1M6 59h1M6 60h1M6 61h1" />
<path stroke="#b0b0b0" d="M11 5h1M5 11h1M23 47h1M11 53h1" />
<path stroke="#d5d5d5" d="M12 5h18M6 11h4M31 11h5M13 35h15M24 47h4M12 53h10" />
<path stroke="#878787" d="M30 5h1M36 11h1" />
<path stroke="#676767" d="M10 6h1M10 7h1M10 8h1M10 9h1M10 10h1M4 12h1M4 13h1M4 14h1M28 14h1M4 15h1M28 15h1M4 16h1M28 16h1M4 17h1M28 17h1M4 18h1M28 18h1M4 19h1M28 19h1M4 20h1M28 20h1M4 21h1M28 21h1M4 22h1M28 22h1M4 23h1M28 23h1M4 24h1M28 24h1M4 25h1M28 25h1M4 26h1M28 26h1M4 27h1M28 27h1M4 28h1M28 28h1M4 29h1M28 29h1M4 30h1M28 30h1M4 31h1M28 31h1M4 32h1M28 32h1M4 33h1M28 33h1M4 34h1M28 34h1M4 35h1M10 38h1M10 39h1M10 40h1M10 41h1M28 44h1M28 45h1M28 46h1M22 48h1M22 49h1M22 50h1M22 51h1M22 52h1M10 54h1M10 55h1M10 56h1M10 57h1M10 58h1M10 59h1" />
<path stroke="#ffffff" d="M11 6h20M11 7h20M11 8h20M11 9h20M11 10h20M11 11h20M5 12h32M5 13h8M29 13h8M5 14h8M29 14h8M5 15h8M29 15h8M5 16h8M29 16h8M5 17h8M29 17h8M5 18h8M29 18h8M5 19h8M29 19h8M5 20h8M29 20h8M5 21h8M29 21h8M5 22h8M29 22h8M5 23h8M29 23h8M5 24h8M29 24h8M5 25h8M29 25h8M5 26h8M29 26h8M5 27h8M29 27h8M5 28h8M29 28h8M5 29h8M29 29h8M5 30h8M29 30h8M5 31h8M29 31h8M5 32h8M29 32h8M5 33h8M29 33h8M5 34h8M29 34h8M5 35h8M29 35h8M6 36h31M11 37h26M11 38h26M11 39h26M11 40h26M11 41h26M12 42h25M29 43h8M29 44h8M29 45h8M29 46h8M29 47h8M23 48h13M23 49h8M23 50h8M23 51h8M23 52h8M23 53h8M11 54h19M11 55h14M11 56h14M11 57h14M11 58h14M11 59h14M12 60h12" />
<path stroke="#e0e0e0" d="M10 11h1M28 35h1M28 47h1M36 48h1M22 53h1M30 54h1M24 60h1" />
<path stroke="#a3a3a3" d="M13 13h15M6 37h4M12 43h16M31 49h5M25 55h5M12 61h12" />
<path stroke="#bdbdbd" d="M28 13h1M10 37h1M28 43h1" />
<path stroke="rgba(0,0,0,0.5019607843137255)" d="M17 17h8M4 41h3M10 47h9M35 53h3M29 59h3M10 65h16" />
<path stroke="#3f3f3f" d="M4 36h1M10 42h1M10 60h1" />
<path stroke="#f5f5f5" d="M5 36h1M11 42h1M11 60h1" />
<path stroke="#545454" d="M5 37h1M11 43h1M11 61h1" />
<path stroke="rgba(0,0,0,0.12549019607843137)" d="M0 38h1M6 44h1M6 62h1" />
<path stroke="rgba(0,0,0,0.9411764705882353)" d="M1 38h1M2 39h1M3 40h1M7 44h1M8 45h1M9 46h1M7 62h1M8 63h1M9 64h1" />
<path stroke="rgba(0,0,0,0.18823529411764706)" d="M1 39h1M2 40h1M3 41h1M7 45h1M8 46h1M9 47h1M7 63h1M8 64h1M9 65h1" />
<path stroke="#242424" d="M36 49h1M30 55h1M24 61h1" />
<path stroke="rgba(0,0,0,0.8156862745098039)" d="M40 50h1M39 51h1M38 52h1M34 56h1M33 57h1M32 58h1M28 62h1M27 63h1M26 64h1" />
<path stroke="rgba(0,0,0,0.06274509803921569)" d="M40 51h1M39 52h1M38 53h1M34 57h1M33 58h1M32 59h1M28 63h1M27 64h1M26 65h1" />
</svg>