<svg xmlns="http://www.w3.org/2000/svg" viewBox="0 -0.5 428 59" shape-rendering="crispEdges">
<metadata>Made with Pixels to Svg https://codepen.io/shshaw/pen/XbxvNj</metadata>
<path stroke="#000000" d="M314 0h10M313 1h12M312 2h14M312 3h14M312 4h4M323 4h3M2 5h10M68 5h10M286 5h15M312 5h4M323 5h3M1 6h12M67 6h12M285 6h17M312 6h4M323 6h3M0 7h14M66 7h14M284 7h19M312 7h4M323 7h3M0 8h14M66 8h14M284 8h19M312 8h4M323 8h3M0 9h4M11 9h3M66 9h4M77 9h3M284 9h4M300 9h3M312 9h4M323 9h3M0 10h4M11 10h3M66 10h4M77 10h3M281 10h7M300 10h3M312 10h4M323 10h3M0 11h4M11 11h3M66 11h4M77 11h3M280 11h8M300 11h3M312 11h4M323 11h3M0 12h4M11 12h3M66 12h4M77 12h3M279 12h9M300 12h3M312 12h4M323 12h3M0 13h4M11 13h3M66 13h4M77 13h3M279 13h9M300 13h3M312 13h4M323 13h3M0 14h4M11 14h3M66 14h4M77 14h3M279 14h4M300 14h3M312 14h4M323 14h3M0 15h14M66 15h4M77 15h3M279 15h4M290 15h13M312 15h4M323 15h3M1 16h12M66 16h4M77 16h3M279 16h4M290 16h12M312 16h4M323 16h3M2 17h10M66 17h4M77 17h3M279 17h4M290 17h11M312 17h4M323 17h3M66 18h4M77 18h3M279 18h4M290 18h3M312 18h4M323 18h3M66 19h4M77 19h3M279 19h4M290 19h3M312 19h4M323 19h3M2 20h10M25 20h25M63 20h7M77 20h11M129 20h20M162 20h10M182 20h10M205 20h20M238 20h25M271 20h12M290 20h11M312 20h4M323 20h3M342 20h20M375 20h10M395 20h10M415 20h10M1 21h12M24 21h27M62 21h8M77 21h12M128 21h22M161 21h12M181 21h12M204 21h22M237 21h27M270 21h13M290 21h12M312 21h4M323 21h3M341 21h22M374 21h12M394 21h12M414 21h12M0 22h14M23 22h29M61 22h9M77 22h13M127 22h24M160 22h14M180 22h14M203 22h24M236 22h29M269 22h14M290 22h13M312 22h4M323 22h3M340 22h24M373 22h14M393 22h14M413 22h14M0 23h14M23 23h29M61 23h9M77 23h13M127 23h24M160 23h14M180 23h14M203 23h24M236 23h29M269 23h14M290 23h13M312 23h4M323 23h3M340 23h24M373 23h14M393 23h14M413 23h14M0 24h4M11 24h3M23 24h4M34 24h3M49 24h3M61 24h4M87 24h3M127 24h4M148 24h3M160 24h4M171 24h3M180 24h4M191 24h3M203 24h4M224 24h3M236 24h4M247 24h3M262 24h3M269 24h4M300 24h3M312 24h4M323 24h3M340 24h4M361 24h3M373 24h4M384 24h3M393 24h4M404 24h3M413 24h4M424 24h3M0 25h4M11 25h3M23 25h4M34 25h3M49 25h6M61 25h4M87 25h3M124 25h7M148 25h6M160 25h4M171 25h3M180 25h4M191 25h3M200 25h7M224 25h6M236 25h4M247 25h3M262 25h3M269 25h4M300 25h3M312 25h4M323 25h3M337 25h7M361 25h6M373 25h4M384 25h3M393 25h4M404 25h3M413 25h4M424 25h3M0 26h4M11 26h3M23 26h4M34 26h3M49 26h7M61 26h4M87 26h3M123 26h8M148 26h7M160 26h4M171 26h3M180 26h4M191 26h3M199 26h8M224 26h7M236 26h4M247 26h3M262 26h3M269 26h4M300 26h3M312 26h4M323 26h3M336 26h8M361 26h7M373 26h4M384 26h3M393 26h4M404 26h3M413 26h4M424 26h3M0 27h4M11 27h3M23 27h4M34 27h3M49 27h8M61 27h4M87 27h3M122 27h9M148 27h8M160 27h4M171 27h3M180 27h4M191 27h3M198 27h9M224 27h8M236 27h4M247 27h3M262 27h3M269 27h4M300 27h3M312 27h4M323 27h3M335 27h9M361 27h8M373 27h4M384 27h3M393 27h4M404 27h3M413 27h4M424 27h3M0 28h4M11 28h3M23 28h4M34 28h3M49 28h8M61 28h4M87 28h3M122 28h9M148 28h8M160 28h4M171 28h3M180 28h4M191 28h3M198 28h9M224 28h8M236 28h4M247 28h3M262 28h3M269 28h4M300 28h3M312 28h4M323 28h3M335 28h9M361 28h8M373 28h4M384 28h3M393 28h4M404 28h3M413 28h4M424 28h3M0 29h4M11 29h3M23 29h4M54 29h3M61 29h4M87 29h3M122 29h4M153 29h3M160 29h4M171 29h3M180 29h4M191 29h3M198 29h4M229 29h3M236 29h4M262 29h3M269 29h4M300 29h3M312 29h4M323 29h3M335 29h4M366 29h3M373 29h4M384 29h3M393 29h4M404 29h3M413 29h4M424 29h3M0 30h4M11 30h3M23 30h4M39 30h8M54 30h3M61 30h9M77 30h13M122 30h4M133 30h13M153 30h3M160 30h4M171 30h13M191 30h3M198 30h4M209 30h13M229 30h3M236 30h4M252 30h13M269 30h14M290 30h13M312 30h4M323 30h3M335 30h4M346 30h13M366 30h3M373 30h4M384 30h13M404 30h13M424 30h3M0 31h4M11 31h3M23 31h4M39 31h8M54 31h3M62 31h8M77 31h12M122 31h4M133 31h13M153 31h3M160 31h4M171 31h13M191 31h3M198 31h4M209 31h13M229 31h3M236 31h4M252 31h12M270 31h13M290 31h12M312 31h4M323 31h3M335 31h4M346 31h13M366 31h3M373 31h4M384 31h13M404 31h13M424 31h3M0 32h4M11 32h3M23 32h4M39 32h8M54 32h3M63 32h7M77 32h11M122 32h4M133 32h13M153 32h3M160 32h4M171 32h13M191 32h3M198 32h4M209 32h13M229 32h3M236 32h4M252 32h11M271 32h12M290 32h11M312 32h4M323 32h3M335 32h4M346 32h13M366 32h3M373 32h4M384 32h13M404 32h13M424 32h3M0 33h4M11 33h3M23 33h4M39 33h3M43 33h4M54 33h3M66 33h4M77 33h3M122 33h4M133 33h3M142 33h4M153 33h3M160 33h4M171 33h13M191 33h3M198 33h4M209 33h13M229 33h3M236 33h4M252 33h3M279 33h4M290 33h3M312 33h4M323 33h3M335 33h4M346 33h3M355 33h4M366 33h3M373 33h4M384 33h13M404 33h13M424 33h3M0 34h4M11 34h3M23 34h4M39 34h3M43 34h4M54 34h3M66 34h4M77 34h3M122 34h4M133 34h3M142 34h4M153 34h3M160 34h4M176 34h3M191 34h3M198 34h4M229 34h3M236 34h4M252 34h3M279 34h4M290 34h3M312 34h4M323 34h3M335 34h4M346 34h3M355 34h4M366 34h3M373 34h4M389 34h3M409 34h3M424 34h3M0 35h4M11 35h3M23 35h4M34 35h8M43 35h4M54 35h3M66 35h4M77 35h3M122 35h4M133 35h3M142 35h4M153 35h3M160 35h9M176 35h3M186 35h8M198 35h4M229 35h3M236 35h4M247 35h8M279 35h4M290 35h3M312 35h4M323 35h3M335 35h4M346 35h3M355 35h4M366 35h3M373 35h9M389 35h3M399 35h3M409 35h3M419 35h8M0 36h4M11 36h3M23 36h4M34 36h7M43 36h4M54 36h3M66 36h4M77 36h3M122 36h4M133 36h3M142 36h4M153 36h3M161 36h8M176 36h3M186 36h7M198 36h4M229 36h3M236 36h4M247 36h7M279 36h4M290 36h3M312 36h4M323 36h3M335 36h4M346 36h3M355 36h4M366 36h3M374 36h8M389 36h3M399 36h3M409 36h3M419 36h7M0 37h4M11 37h3M23 37h4M34 37h6M43 37h4M54 37h3M66 37h4M77 37h3M122 37h4M133 37h3M142 37h4M153 37h3M162 37h7M176 37h3M186 37h6M198 37h4M229 37h3M236 37h4M247 37h6M279 37h4M290 37h3M312 37h4M323 37h3M335 37h4M346 37h3M355 37h4M366 37h3M375 37h7M389 37h3M399 37h3M409 37h3M419 37h6M0 38h4M11 38h3M23 38h4M34 38h3M43 38h4M54 38h3M66 38h4M77 38h3M122 38h4M133 38h3M142 38h4M153 38h3M165 38h4M176 38h3M186 38h3M198 38h4M229 38h3M236 38h4M247 38h3M279 38h4M290 38h3M312 38h4M323 38h3M335 38h4M346 38h3M355 38h4M366 38h3M378 38h4M389 38h3M399 38h3M409 38h3M419 38h3M0 39h4M11 39h3M23 39h4M34 39h3M43 39h4M54 39h3M66 39h4M77 39h3M122 39h4M133 39h3M142 39h4M153 39h3M165 39h4M176 39h3M186 39h3M198 39h4M229 39h3M236 39h4M247 39h3M279 39h4M290 39h3M312 39h4M323 39h3M335 39h4M346 39h3M355 39h4M366 39h3M378 39h4M389 39h3M399 39h3M409 39h3M419 39h3M0 40h4M11 40h3M23 40h4M34 40h3M43 40h4M54 40h3M66 40h4M77 40h3M122 40h4M133 40h3M142 40h4M153 40h3M165 40h4M176 40h3M186 40h3M198 40h4M209 40h23M236 40h4M247 40h3M279 40h4M290 40h3M312 40h4M323 40h3M335 40h4M346 40h3M355 40h4M366 40h3M378 40h4M389 40h3M399 40h3M409 40h3M419 40h3M0 41h4M11 41h3M23 41h4M34 41h3M43 41h4M54 41h3M66 41h4M77 41h3M122 41h4M133 41h3M142 41h4M153 41h3M165 41h4M176 41h3M186 41h3M198 41h4M209 41h22M236 41h4M247 41h3M279 41h4M290 41h3M312 41h4M323 41h3M335 41h4M346 41h3M355 41h4M366 41h3M378 41h4M389 41h3M399 41h3M409 41h3M419 41h3M0 42h4M11 42h3M23 42h4M34 42h3M43 42h4M54 42h3M66 42h4M77 42h3M122 42h4M133 42h3M142 42h4M153 42h3M165 42h4M176 42h3M186 42h3M198 42h4M209 42h23M236 42h4M247 42h3M279 42h4M290 42h3M312 42h4M323 42h3M335 42h4M346 42h3M355 42h4M366 42h3M378 42h4M389 42h3M399 42h3M409 42h3M419 42h3M0 43h4M11 43h3M23 43h4M34 43h3M43 43h4M54 43h3M66 43h4M77 43h3M122 43h4M133 43h3M142 43h4M153 43h3M165 43h4M176 43h3M186 43h3M198 43h4M209 43h3M218 43h14M236 43h4M247 43h3M279 43h4M290 43h3M312 43h4M323 43h3M335 43h4M346 43h3M355 43h4M366 43h3M378 43h4M389 43h3M399 43h3M409 43h3M419 43h3M0 44h4M11 44h3M23 44h4M34 44h3M43 44h4M54 44h3M66 44h4M77 44h3M122 44h4M133 44h3M142 44h4M153 44h3M165 44h4M186 44h3M198 44h4M209 44h3M218 44h4M229 44h3M236 44h4M247 44h3M279 44h4M290 44h3M312 44h4M323 44h3M335 44h4M346 44h3M355 44h4M366 44h3M378 44h4M399 44h3M419 44h3M0 45h4M11 45h3M23 45h4M34 45h3M43 45h4M54 45h3M66 45h4M77 45h11M122 45h4M133 45h13M153 45h3M165 45h9M181 45h8M198 45h4M209 45h13M229 45h3M236 45h4M247 45h3M279 45h4M290 45h3M312 45h4M323 45h3M335 45h4M346 45h13M366 45h3M378 45h9M394 45h13M414 45h8M0 46h4M11 46h3M23 46h4M34 46h3M43 46h4M54 46h3M66 46h4M77 46h12M122 46h4M133 46h13M153 46h3M166 46h8M181 46h7M198 46h4M209 46h13M229 46h3M236 46h4M247 46h3M279 46h4M290 46h3M312 46h4M323 46h3M335 46h4M346 46h13M366 46h3M379 46h8M394 46h13M414 46h7M0 47h4M11 47h3M23 47h4M34 47h3M43 47h4M54 47h3M66 47h4M77 47h13M122 47h4M133 47h13M153 47h3M167 47h7M181 47h6M198 47h4M209 47h13M229 47h3M236 47h4M247 47h3M279 47h4M290 47h3M312 47h4M323 47h3M335 47h4M346 47h13M366 47h3M380 47h7M394 47h13M414 47h6M0 48h4M11 48h3M23 48h4M34 48h3M43 48h4M54 48h3M66 48h4M77 48h13M122 48h4M133 48h13M153 48h3M170 48h4M181 48h3M198 48h4M209 48h13M229 48h3M236 48h4M247 48h3M279 48h4M290 48h3M312 48h4M323 48h3M335 48h4M346 48h13M366 48h3M383 48h4M394 48h3M403 48h4M414 48h3M0 49h4M11 49h3M23 49h4M34 49h3M43 49h4M54 49h3M66 49h4M87 49h3M122 49h4M153 49h3M170 49h4M181 49h3M198 49h4M229 49h3M236 49h4M247 49h3M279 49h4M290 49h3M312 49h4M323 49h3M335 49h4M366 49h3M383 49h4M394 49h3M403 49h4M414 49h3M0 50h4M11 50h3M23 50h4M34 50h3M43 50h4M54 50h3M66 50h9M87 50h3M122 50h9M148 50h8M170 50h4M181 50h3M198 50h9M224 50h8M236 50h4M247 50h3M279 50h4M290 50h3M312 50h4M323 50h3M335 50h9M361 50h8M383 50h4M394 50h3M403 50h4M414 50h3M0 51h4M11 51h3M23 51h4M34 51h3M43 51h4M54 51h3M67 51h8M87 51h3M123 51h8M148 51h7M170 51h4M181 51h3M199 51h8M224 51h7M236 51h4M247 51h3M279 51h4M290 51h3M312 51h4M323 51h3M336 51h8M361 51h7M383 51h4M394 51h3M403 51h4M414 51h3M0 52h4M11 52h3M23 52h4M34 52h3M43 52h4M54 52h3M68 52h7M87 52h3M124 52h7M148 52h6M170 52h4M181 52h3M200 52h7M224 52h6M236 52h4M247 52h3M279 52h4M290 52h3M312 52h4M323 52h3M337 52h7M361 52h6M383 52h4M394 52h3M403 52h4M414 52h3M0 53h4M11 53h3M23 53h4M34 53h3M43 53h4M54 53h3M71 53h4M87 53h3M127 53h4M148 53h3M170 53h4M181 53h3M203 53h4M224 53h3M236 53h4M247 53h3M279 53h4M290 53h3M312 53h4M323 53h3M340 53h4M361 53h3M383 53h4M394 53h3M403 53h4M414 53h3M0 54h4M11 54h3M23 54h4M34 54h3M43 54h4M54 54h3M71 54h4M87 54h3M127 54h4M148 54h3M170 54h4M181 54h3M203 54h4M224 54h3M236 54h4M247 54h3M279 54h4M290 54h3M312 54h4M323 54h3M340 54h4M361 54h3M383 54h4M394 54h3M403 54h4M414 54h3M0 55h14M23 55h14M43 55h14M71 55h19M127 55h24M170 55h14M203 55h24M236 55h14M279 55h14M312 55h14M340 55h24M383 55h14M403 55h14M1 56h12M24 56h12M44 56h12M72 56h17M128 56h22M171 56h12M204 56h22M237 56h12M280 56h12M313 56h12M341 56h22M384 56h12M404 56h12M2 57h10M25 57h10M45 57h10M73 57h15M129 57h20M172 57h10M205 57h20M238 57h10M281 57h10M314 57h10M342 57h20M385 57h10M405 57h10" />
<path stroke="rgba(0,0,0,0.7333333333333333)" d="M324 0h1M325 1h1M326 2h1M326 3h1M326 4h1M12 5h1M78 5h1M301 5h1M326 5h1M13 6h1M79 6h1M302 6h1M326 6h1M14 7h1M80 7h1M303 7h1M326 7h1M14 8h1M80 8h1M303 8h1M326 8h1M14 9h1M80 9h1M303 9h1M326 9h1M14 10h1M80 10h1M303 10h1M326 10h1M14 11h1M80 11h1M303 11h1M326 11h1M14 12h1M80 12h1M303 12h1M326 12h1M14 13h1M80 13h1M303 13h1M326 13h1M14 14h1M80 14h1M303 14h1M326 14h1M14 15h1M80 15h1M303 15h1M326 15h1M0 16h1M13 16h1M80 16h1M302 16h1M326 16h1M1 17h1M12 17h1M80 17h1M301 17h1M326 17h1M2 18h10M80 18h1M293 18h8M326 18h1M80 19h1M293 19h1M326 19h1M12 20h1M50 20h1M88 20h1M149 20h1M172 20h1M192 20h1M225 20h1M263 20h1M301 20h1M326 20h1M362 20h1M385 20h1M405 20h1M425 20h1M13 21h1M51 21h1M89 21h1M150 21h1M173 21h1M193 21h1M226 21h1M264 21h1M302 21h1M326 21h1M363 21h1M386 21h1M406 21h1M426 21h1M14 22h1M52 22h1M90 22h1M151 22h1M174 22h1M194 22h1M227 22h1M265 22h1M303 22h1M326 22h1M364 22h1M387 22h1M407 22h1M427 22h1M14 23h1M52 23h1M90 23h1M151 23h1M174 23h1M194 23h1M227 23h1M265 23h1M303 23h1M326 23h1M364 23h1M387 23h1M407 23h1M427 23h1M14 24h1M52 24h1M90 24h1M151 24h1M174 24h1M194 24h1M227 24h1M265 24h1M303 24h1M326 24h1M364 24h1M387 24h1M407 24h1M427 24h1M14 25h1M55 25h1M90 25h1M154 25h1M174 25h1M194 25h1M230 25h1M265 25h1M303 25h1M326 25h1M367 25h1M387 25h1M407 25h1M427 25h1M14 26h1M56 26h1M90 26h1M155 26h1M174 26h1M194 26h1M231 26h1M265 26h1M303 26h1M326 26h1M368 26h1M387 26h1M407 26h1M427 26h1M14 27h1M57 27h1M90 27h1M156 27h1M174 27h1M194 27h1M232 27h1M265 27h1M303 27h1M326 27h1M369 27h1M387 27h1M407 27h1M427 27h1M14 28h1M57 28h1M90 28h1M156 28h1M174 28h1M194 28h1M232 28h1M265 28h1M303 28h1M326 28h1M369 28h1M387 28h1M407 28h1M427 28h1M14 29h1M57 29h1M90 29h1M156 29h1M174 29h1M194 29h1M232 29h1M265 29h1M303 29h1M326 29h1M369 29h1M387 29h1M407 29h1M427 29h1M14 30h1M57 30h1M90 30h1M156 30h1M194 30h1M232 30h1M265 30h1M303 30h1M326 30h1M369 30h1M427 30h1M14 31h1M57 31h1M61 31h1M89 31h1M156 31h1M194 31h1M232 31h1M264 31h1M269 31h1M302 31h1M326 31h1M369 31h1M427 31h1M14 32h1M57 32h1M62 32h1M88 32h1M156 32h1M194 32h1M232 32h1M263 32h1M270 32h1M301 32h1M326 32h1M369 32h1M427 32h1M14 33h1M42 33h1M57 33h1M63 33h3M80 33h8M136 33h6M156 33h1M194 33h1M232 33h1M255 33h8M271 33h8M293 33h8M326 33h1M349 33h6M369 33h1M427 33h1M14 34h1M42 34h1M57 34h1M80 34h1M136 34h1M156 34h1M194 34h1M232 34h1M255 34h1M293 34h1M326 34h1M349 34h1M369 34h1M427 34h1M14 35h1M42 35h1M57 35h1M80 35h1M136 35h1M156 35h1M194 35h1M232 35h1M255 35h1M293 35h1M326 35h1M349 35h1M369 35h1M427 35h1M14 36h1M41 36h1M57 36h1M80 36h1M136 36h1M156 36h1M160 36h1M193 36h1M232 36h1M254 36h1M293 36h1M326 36h1M349 36h1M369 36h1M373 36h1M426 36h1M14 37h1M40 37h1M57 37h1M80 37h1M136 37h1M156 37h1M161 37h1M192 37h1M232 37h1M253 37h1M293 37h1M326 37h1M349 37h1M369 37h1M374 37h1M425 37h1M14 38h1M37 38h3M57 38h1M80 38h1M136 38h1M156 38h1M162 38h3M189 38h3M232 38h1M250 38h3M293 38h1M326 38h1M349 38h1M369 38h1M375 38h3M422 38h3M14 39h1M37 39h1M57 39h1M80 39h1M136 39h1M156 39h1M189 39h1M232 39h1M250 39h1M293 39h1M326 39h1M349 39h1M369 39h1M422 39h1M14 40h1M37 40h1M57 40h1M80 40h1M136 40h1M156 40h1M189 40h1M232 40h1M250 40h1M293 40h1M326 40h1M349 40h1M369 40h1M422 40h1M14 41h1M37 41h1M57 41h1M80 41h1M136 41h1M156 41h1M189 41h1M231 41h1M250 41h1M293 41h1M326 41h1M349 41h1M369 41h1M422 41h1M14 42h1M37 42h1M57 42h1M80 42h1M136 42h1M156 42h1M189 42h1M232 42h1M250 42h1M293 42h1M326 42h1M349 42h1M369 42h1M422 42h1M14 43h1M37 43h1M57 43h1M80 43h1M136 43h1M156 43h1M189 43h1M212 43h6M232 43h1M250 43h1M293 43h1M326 43h1M349 43h1M369 43h1M422 43h1M14 44h1M37 44h1M57 44h1M80 44h1M136 44h1M156 44h1M189 44h1M212 44h1M232 44h1M250 44h1M293 44h1M326 44h1M349 44h1M369 44h1M422 44h1M14 45h1M37 45h1M57 45h1M88 45h1M156 45h1M189 45h1M232 45h1M250 45h1M293 45h1M326 45h1M369 45h1M422 45h1M14 46h1M37 46h1M57 46h1M89 46h1M156 46h1M165 46h1M188 46h1M232 46h1M250 46h1M293 46h1M326 46h1M369 46h1M378 46h1M421 46h1M14 47h1M37 47h1M57 47h1M90 47h1M156 47h1M166 47h1M187 47h1M232 47h1M250 47h1M293 47h1M326 47h1M369 47h1M379 47h1M420 47h1M14 48h1M37 48h1M57 48h1M90 48h1M156 48h1M167 48h3M184 48h3M232 48h1M250 48h1M293 48h1M326 48h1M369 48h1M380 48h3M397 48h6M417 48h3M14 49h1M37 49h1M57 49h1M90 49h1M156 49h1M184 49h1M232 49h1M250 49h1M293 49h1M326 49h1M369 49h1M397 49h1M417 49h1M14 50h1M37 50h1M57 50h1M90 50h1M156 50h1M184 50h1M232 50h1M250 50h1M293 50h1M326 50h1M369 50h1M397 50h1M417 50h1M14 51h1M37 51h1M57 51h1M66 51h1M90 51h1M122 51h1M155 51h1M184 51h1M198 51h1M231 51h1M250 51h1M293 51h1M326 51h1M335 51h1M368 51h1M397 51h1M417 51h1M14 52h1M37 52h1M57 52h1M67 52h1M90 52h1M123 52h1M154 52h1M184 52h1M199 52h1M230 52h1M250 52h1M293 52h1M326 52h1M336 52h1M367 52h1M397 52h1M417 52h1M14 53h1M37 53h1M57 53h1M68 53h3M90 53h1M124 53h3M151 53h3M184 53h1M200 53h3M227 53h3M250 53h1M293 53h1M326 53h1M337 53h3M364 53h3M397 53h1M417 53h1M14 54h1M37 54h1M57 54h1M90 54h1M151 54h1M184 54h1M227 54h1M250 54h1M293 54h1M326 54h1M364 54h1M397 54h1M417 54h1M14 55h1M37 55h1M57 55h1M90 55h1M151 55h1M184 55h1M227 55h1M250 55h1M293 55h1M326 55h1M364 55h1M397 55h1M417 55h1M0 56h1M13 56h1M23 56h1M36 56h1M43 56h1M56 56h1M71 56h1M89 56h1M127 56h1M150 56h1M170 56h1M183 56h1M203 56h1M226 56h1M236 56h1M249 56h1M279 56h1M292 56h1M312 56h1M325 56h1M340 56h1M363 56h1M383 56h1M396 56h1M403 56h1M416 56h1M1 57h1M12 57h1M24 57h1M35 57h1M44 57h1M55 57h1M72 57h1M88 57h1M128 57h1M149 57h1M171 57h1M182 57h1M204 57h1M225 57h1M237 57h1M248 57h1M280 57h1M291 57h1M313 57h1M324 57h1M341 57h1M362 57h1M384 57h1M395 57h1M404 57h1M415 57h1M2 58h10M25 58h10M45 58h10M73 58h15M129 58h20M172 58h10M205 58h20M238 58h10M281 58h10M314 58h10M342 58h20M385 58h10M405 58h10" />
<path stroke="#ffffff" d="M316 4h6M316 5h6M316 6h6M316 7h6M316 8h6M4 9h6M70 9h6M288 9h11M316 9h6M4 10h6M70 10h6M288 10h11M316 10h6M4 11h6M70 11h6M288 11h11M316 11h6M4 12h6M70 12h6M288 12h11M316 12h6M4 13h6M70 13h6M288 13h11M316 13h6M70 14h6M283 14h6M316 14h6M70 15h6M283 15h6M316 15h6M70 16h6M283 16h6M316 16h6M70 17h6M283 17h6M316 17h6M70 18h6M283 18h6M316 18h6M70 19h6M283 19h6M316 19h6M70 20h6M283 20h6M316 20h6M70 21h6M283 21h6M316 21h6M70 22h6M283 22h6M316 22h6M70 23h6M283 23h6M316 23h6M4 24h6M27 24h6M37 24h11M65 24h21M131 24h16M164 24h6M184 24h6M207 24h16M240 24h6M250 24h11M273 24h26M316 24h6M344 24h16M377 24h6M397 24h6M417 24h6M4 25h6M27 25h6M37 25h11M65 25h21M131 25h16M164 25h6M184 25h6M207 25h16M240 25h6M250 25h11M273 25h26M316 25h6M344 25h16M377 25h6M397 25h6M417 25h6M4 26h6M27 26h6M37 26h11M65 26h21M131 26h16M164 26h6M184 26h6M207 26h16M240 26h6M250 26h11M273 26h26M316 26h6M344 26h16M377 26h6M397 26h6M417 26h6M4 27h6M27 27h6M37 27h11M65 27h21M131 27h16M164 27h6M184 27h6M207 27h16M240 27h6M250 27h11M273 27h26M316 27h6M344 27h16M377 27h6M397 27h6M417 27h6M4 28h6M27 28h6M37 28h11M65 28h21M131 28h16M164 28h6M184 28h6M207 28h16M240 28h6M250 28h11M273 28h26M316 28h6M344 28h16M377 28h6M397 28h6M417 28h6M4 29h6M27 29h11M47 29h6M70 29h6M126 29h6M146 29h6M164 29h6M184 29h6M202 29h6M222 29h6M240 29h11M283 29h6M316 29h6M339 29h6M359 29h6M377 29h6M397 29h6M417 29h6M4 30h6M27 30h11M47 30h6M70 30h6M126 30h6M146 30h6M164 30h6M184 30h6M202 30h6M222 30h6M240 30h11M283 30h6M316 30h6M339 30h6M359 30h6M377 30h6M397 30h6M417 30h6M4 31h6M27 31h11M47 31h6M70 31h6M126 31h6M146 31h6M164 31h6M184 31h6M202 31h6M222 31h6M240 31h11M283 31h6M316 31h6M339 31h6M359 31h6M377 31h6M397 31h6M417 31h6M4 32h6M27 32h11M47 32h6M70 32h6M126 32h6M146 32h6M164 32h6M184 32h6M202 32h6M222 32h6M240 32h11M283 32h6M316 32h6M339 32h6M359 32h6M377 32h6M397 32h6M417 32h6M4 33h6M27 33h11M47 33h6M70 33h6M126 33h6M146 33h6M164 33h6M184 33h6M202 33h6M222 33h6M240 33h11M283 33h6M316 33h6M339 33h6M359 33h6M377 33h6M397 33h6M417 33h6M4 34h6M27 34h6M47 34h6M70 34h6M126 34h6M146 34h6M169 34h6M179 34h6M202 34h26M240 34h6M283 34h6M316 34h6M339 34h6M359 34h6M382 34h6M392 34h6M402 34h6M412 34h6M4 35h6M27 35h6M47 35h6M70 35h6M126 35h6M146 35h6M169 35h6M179 35h6M202 35h26M240 35h6M283 35h6M316 35h6M339 35h6M359 35h6M382 35h6M392 35h6M402 35h6M412 35h6M4 36h6M27 36h6M47 36h6M70 36h6M126 36h6M146 36h6M169 36h6M179 36h6M202 36h26M240 36h6M283 36h6M316 36h6M339 36h6M359 36h6M382 36h6M392 36h6M402 36h6M412 36h6M4 37h6M27 37h6M47 37h6M70 37h6M126 37h6M146 37h6M169 37h6M179 37h6M202 37h26M240 37h6M283 37h6M316 37h6M339 37h6M359 37h6M382 37h6M392 37h6M402 37h6M412 37h6M4 38h6M27 38h6M47 38h6M70 38h6M126 38h6M146 38h6M169 38h6M179 38h6M202 38h26M240 38h6M283 38h6M316 38h6M339 38h6M359 38h6M382 38h6M392 38h6M402 38h6M412 38h6M4 39h6M27 39h6M47 39h6M70 39h6M126 39h6M146 39h6M169 39h6M179 39h6M202 39h6M240 39h6M283 39h6M316 39h6M339 39h6M359 39h6M382 39h6M392 39h6M402 39h6M412 39h6M4 40h6M27 40h6M47 40h6M70 40h6M126 40h6M146 40h6M169 40h6M179 40h6M202 40h6M240 40h6M283 40h6M316 40h6M339 40h6M359 40h6M382 40h6M392 40h6M402 40h6M412 40h6M4 41h6M27 41h6M47 41h6M70 41h6M126 41h6M146 41h6M169 41h6M179 41h6M202 41h6M240 41h6M283 41h6M316 41h6M339 41h6M359 41h6M382 41h6M392 41h6M402 41h6M412 41h6M4 42h6M27 42h6M47 42h6M70 42h6M126 42h6M146 42h6M169 42h6M179 42h6M202 42h6M240 42h6M283 42h6M316 42h6M339 42h6M359 42h6M382 42h6M392 42h6M402 42h6M412 42h6M4 43h6M27 43h6M47 43h6M70 43h6M126 43h6M146 43h6M169 43h6M179 43h6M202 43h6M240 43h6M283 43h6M316 43h6M339 43h6M359 43h6M382 43h6M392 43h6M402 43h6M412 43h6M4 44h6M27 44h6M47 44h6M70 44h6M126 44h6M146 44h6M174 44h6M202 44h6M222 44h6M240 44h6M283 44h6M316 44h6M339 44h6M359 44h6M387 44h6M407 44h6M4 45h6M27 45h6M47 45h6M70 45h6M126 45h6M146 45h6M174 45h6M202 45h6M222 45h6M240 45h6M283 45h6M316 45h6M339 45h6M359 45h6M387 45h6M407 45h6M4 46h6M27 46h6M47 46h6M70 46h6M126 46h6M146 46h6M174 46h6M202 46h6M222 46h6M240 46h6M283 46h6M316 46h6M339 46h6M359 46h6M387 46h6M407 46h6M4 47h6M27 47h6M47 47h6M70 47h6M126 47h6M146 47h6M174 47h6M202 47h6M222 47h6M240 47h6M283 47h6M316 47h6M339 47h6M359 47h6M387 47h6M407 47h6M4 48h6M27 48h6M47 48h6M70 48h6M126 48h6M146 48h6M174 48h6M202 48h6M222 48h6M240 48h6M283 48h6M316 48h6M339 48h6M359 48h6M387 48h6M407 48h6M4 49h6M27 49h6M47 49h6M75 49h11M131 49h16M174 49h6M207 49h16M240 49h6M283 49h6M316 49h6M344 49h16M387 49h6M407 49h6M4 50h6M27 50h6M47 50h6M75 50h11M131 50h16M174 50h6M207 50h16M240 50h6M283 50h6M316 50h6M344 50h16M387 50h6M407 50h6M4 51h6M27 51h6M47 51h6M75 51h11M131 51h16M174 51h6M207 51h16M240 51h6M283 51h6M316 51h6M344 51h16M387 51h6M407 51h6M4 52h6M27 52h6M47 52h6M75 52h11M131 52h16M174 52h6M207 52h16M240 52h6M283 52h6M316 52h6M344 52h16M387 52h6M407 52h6M4 53h6M27 53h6M47 53h6M75 53h11M131 53h16M174 53h6M207 53h16M240 53h6M283 53h6M316 53h6M344 53h16M387 53h6M407 53h6" />
<path stroke="#d1d1d1" d="M322 4h1M322 5h1M322 6h1M322 7h1M322 8h1M10 9h1M76 9h1M299 9h1M322 9h1M10 10h1M76 10h1M299 10h1M322 10h1M10 11h1M76 11h1M299 11h1M322 11h1M10 12h1M76 12h1M299 12h1M322 12h1M10 13h1M76 13h1M299 13h1M322 13h1M4 14h6M76 14h1M290 14h9M322 14h1M76 15h1M289 15h1M322 15h1M76 16h1M289 16h1M322 16h1M76 17h1M289 17h1M322 17h1M76 18h1M289 18h1M322 18h1M76 19h1M289 19h1M322 19h1M76 20h1M289 20h1M322 20h1M76 21h1M289 21h1M322 21h1M76 22h1M289 22h1M322 22h1M76 23h1M289 23h1M322 23h1M10 24h1M33 24h1M48 24h1M86 24h1M147 24h1M170 24h1M190 24h1M223 24h1M246 24h1M261 24h1M299 24h1M322 24h1M360 24h1M383 24h1M403 24h1M423 24h1M10 25h1M33 25h1M48 25h1M86 25h1M147 25h1M170 25h1M190 25h1M223 25h1M246 25h1M261 25h1M299 25h1M322 25h1M360 25h1M383 25h1M403 25h1M423 25h1M10 26h1M33 26h1M48 26h1M86 26h1M147 26h1M170 26h1M190 26h1M223 26h1M246 26h1M261 26h1M299 26h1M322 26h1M360 26h1M383 26h1M403 26h1M423 26h1M10 27h1M33 27h1M48 27h1M86 27h1M147 27h1M170 27h1M190 27h1M223 27h1M246 27h1M261 27h1M299 27h1M322 27h1M360 27h1M383 27h1M403 27h1M423 27h1M10 28h1M33 28h1M48 28h1M86 28h1M147 28h1M170 28h1M190 28h1M223 28h1M246 28h1M261 28h1M299 28h1M322 28h1M360 28h1M383 28h1M403 28h1M423 28h1M10 29h1M39 29h8M53 29h1M65 29h5M77 29h9M133 29h13M152 29h1M170 29h1M190 29h1M209 29h13M228 29h1M252 29h9M273 29h10M290 29h9M322 29h1M346 29h13M365 29h1M383 29h1M403 29h1M423 29h1M10 30h1M38 30h1M53 30h1M76 30h1M132 30h1M152 30h1M170 30h1M190 30h1M208 30h1M228 30h1M251 30h1M289 30h1M322 30h1M345 30h1M365 30h1M383 30h1M403 30h1M423 30h1M10 31h1M38 31h1M53 31h1M76 31h1M132 31h1M152 31h1M170 31h1M190 31h1M208 31h1M228 31h1M251 31h1M289 31h1M322 31h1M345 31h1M365 31h1M383 31h1M403 31h1M423 31h1M10 32h1M38 32h1M53 32h1M76 32h1M132 32h1M152 32h1M170 32h1M190 32h1M208 32h1M228 32h1M251 32h1M289 32h1M322 32h1M345 32h1M365 32h1M383 32h1M403 32h1M423 32h1M10 33h1M38 33h1M53 33h1M76 33h1M132 33h1M152 33h1M170 33h1M190 33h1M208 33h1M228 33h1M251 33h1M289 33h1M322 33h1M345 33h1M365 33h1M383 33h1M403 33h1M423 33h1M10 34h1M34 34h4M53 34h1M76 34h1M132 34h1M152 34h1M164 34h5M175 34h1M186 34h4M228 34h1M247 34h4M289 34h1M322 34h1M345 34h1M365 34h1M377 34h5M388 34h1M399 34h3M408 34h1M419 34h4M10 35h1M33 35h1M53 35h1M76 35h1M132 35h1M152 35h1M175 35h1M185 35h1M228 35h1M246 35h1M289 35h1M322 35h1M345 35h1M365 35h1M388 35h1M398 35h1M408 35h1M418 35h1M10 36h1M33 36h1M53 36h1M76 36h1M132 36h1M152 36h1M175 36h1M185 36h1M228 36h1M246 36h1M289 36h1M322 36h1M345 36h1M365 36h1M388 36h1M398 36h1M408 36h1M418 36h1M10 37h1M33 37h1M53 37h1M76 37h1M132 37h1M152 37h1M175 37h1M185 37h1M228 37h1M246 37h1M289 37h1M322 37h1M345 37h1M365 37h1M388 37h1M398 37h1M408 37h1M418 37h1M10 38h1M33 38h1M53 38h1M76 38h1M132 38h1M152 38h1M175 38h1M185 38h1M228 38h1M246 38h1M289 38h1M322 38h1M345 38h1M365 38h1M388 38h1M398 38h1M408 38h1M418 38h1M10 39h1M33 39h1M53 39h1M76 39h1M132 39h1M152 39h1M175 39h1M185 39h1M209 39h19M246 39h1M289 39h1M322 39h1M345 39h1M365 39h1M388 39h1M398 39h1M408 39h1M418 39h1M10 40h1M33 40h1M53 40h1M76 40h1M132 40h1M152 40h1M175 40h1M185 40h1M208 40h1M246 40h1M289 40h1M322 40h1M345 40h1M365 40h1M388 40h1M398 40h1M408 40h1M418 40h1M10 41h1M33 41h1M53 41h1M76 41h1M132 41h1M152 41h1M175 41h1M185 41h1M208 41h1M246 41h1M289 41h1M322 41h1M345 41h1M365 41h1M388 41h1M398 41h1M408 41h1M418 41h1M10 42h1M33 42h1M53 42h1M76 42h1M132 42h1M152 42h1M175 42h1M185 42h1M208 42h1M246 42h1M289 42h1M322 42h1M345 42h1M365 42h1M388 42h1M398 42h1M408 42h1M418 42h1M10 43h1M33 43h1M53 43h1M76 43h1M132 43h1M152 43h1M175 43h1M185 43h1M208 43h1M246 43h1M289 43h1M322 43h1M345 43h1M365 43h1M388 43h1M398 43h1M408 43h1M418 43h1M10 44h1M33 44h1M53 44h1M76 44h1M132 44h1M152 44h1M169 44h5M181 44h4M208 44h1M228 44h1M246 44h1M289 44h1M322 44h1M345 44h1M365 44h1M382 44h5M394 44h4M402 44h5M414 44h4M10 45h1M33 45h1M53 45h1M76 45h1M132 45h1M152 45h1M180 45h1M208 45h1M228 45h1M246 45h1M289 45h1M322 45h1M345 45h1M365 45h1M393 45h1M413 45h1M10 46h1M33 46h1M53 46h1M76 46h1M132 46h1M152 46h1M180 46h1M208 46h1M228 46h1M246 46h1M289 46h1M322 46h1M345 46h1M365 46h1M393 46h1M413 46h1M10 47h1M33 47h1M53 47h1M76 47h1M132 47h1M152 47h1M180 47h1M208 47h1M228 47h1M246 47h1M289 47h1M322 47h1M345 47h1M365 47h1M393 47h1M413 47h1M10 48h1M33 48h1M53 48h1M76 48h1M132 48h1M152 48h1M180 48h1M208 48h1M228 48h1M246 48h1M289 48h1M322 48h1M345 48h1M365 48h1M393 48h1M413 48h1M10 49h1M33 49h1M53 49h1M70 49h5M86 49h1M126 49h5M148 49h4M180 49h1M202 49h5M224 49h4M246 49h1M289 49h1M322 49h1M339 49h5M361 49h4M393 49h1M413 49h1M10 50h1M33 50h1M53 50h1M86 50h1M147 50h1M180 50h1M223 50h1M246 50h1M289 50h1M322 50h1M360 50h1M393 50h1M413 50h1M10 51h1M33 51h1M53 51h1M86 51h1M147 51h1M180 51h1M223 51h1M246 51h1M289 51h1M322 51h1M360 51h1M393 51h1M413 51h1M10 52h1M33 52h1M53 52h1M86 52h1M147 52h1M180 52h1M223 52h1M246 52h1M289 52h1M322 52h1M360 52h1M393 52h1M413 52h1M10 53h1M33 53h1M53 53h1M86 53h1M147 53h1M180 53h1M223 53h1M246 53h1M289 53h1M322 53h1M360 53h1M393 53h1M413 53h1M4 54h6M27 54h6M47 54h6M75 54h11M131 54h16M174 54h6M207 54h16M240 54h6M283 54h6M316 54h6M344 54h16M387 54h6M407 54h6" />
<path stroke="#aaaaaa" d="M10 14h1M299 14h1M86 29h1M261 29h1M299 29h1M38 34h1M190 34h1M251 34h1M423 34h1M228 39h1M185 44h1M398 44h1M418 44h1M152 49h1M228 49h1M365 49h1M10 54h1M33 54h1M53 54h1M86 54h1M147 54h1M180 54h1M223 54h1M246 54h1M289 54h1M322 54h1M360 54h1M393 54h1M413 54h1" />
<path stroke="#f4f4f4" d="M289 14h1M38 29h1M76 29h1M132 29h1M208 29h1M251 29h1M289 29h1M345 29h1M33 34h1M185 34h1M246 34h1M398 34h1M418 34h1M208 39h1M180 44h1M393 44h1M413 44h1M147 49h1M223 49h1M360 49h1" />
<path stroke="rgba(0,0,0,0.5333333333333333)" d="M14 16h1M303 16h1M13 17h1M302 17h1M12 18h1M301 18h1M90 31h1M265 31h1M303 31h1M89 32h1M264 32h1M302 32h1M88 33h1M263 33h1M301 33h1M42 36h1M194 36h1M255 36h1M427 36h1M41 37h1M193 37h1M254 37h1M426 37h1M40 38h1M192 38h1M253 38h1M425 38h1M232 41h1M189 46h1M422 46h1M188 47h1M421 47h1M187 48h1M420 48h1M156 51h1M232 51h1M369 51h1M155 52h1M231 52h1M368 52h1M154 53h1M230 53h1M367 53h1M14 56h1M37 56h1M57 56h1M90 56h1M151 56h1M184 56h1M227 56h1M250 56h1M293 56h1M326 56h1M364 56h1M397 56h1M417 56h1M13 57h1M36 57h1M56 57h1M89 57h1M150 57h1M183 57h1M226 57h1M249 57h1M292 57h1M325 57h1M363 57h1M396 57h1M416 57h1M12 58h1M35 58h1M55 58h1M88 58h1M149 58h1M182 58h1M225 58h1M248 58h1M291 58h1M324 58h1M362 58h1M395 58h1M415 58h1" />
</svg>