<svg xmlns="http://www.w3.org/2000/svg" viewBox="0 -0.5 268 59" shape-rendering="crispEdges">
<metadata>Made with Pixels to Svg https://codepen.io/shshaw/pen/XbxvNj</metadata>
<path stroke="rgba(0,0,0,0.12549019607843137)" d="M11 0h1M67 0h1M123 0h1M228 0h1M0 11h1M56 11h1M112 11h1M217 11h1M0 25h1M86 25h1M168 55h1" />
<path stroke="rgba(0,0,0,0.25098039215686274)" d="M12 0h28M68 0h28M124 0h28M172 0h13M187 0h21M229 0h28M168 4h1M168 5h1M168 6h1M168 7h1M168 8h1M168 9h1M168 10h1M168 11h1M0 12h1M56 12h1M112 12h1M168 12h1M217 12h1M0 13h1M56 13h1M112 13h1M168 13h1M217 13h1M0 14h1M56 14h1M112 14h1M168 14h1M217 14h1M0 15h1M56 15h1M112 15h1M168 15h1M217 15h1M0 16h1M56 16h1M112 16h1M168 16h1M217 16h1M0 17h1M56 17h1M112 17h1M168 17h1M217 17h1M0 18h1M56 18h1M112 18h1M168 18h1M217 18h1M0 19h1M56 19h1M112 19h1M168 19h1M217 19h1M0 20h1M56 20h1M112 20h1M168 20h1M217 20h1M0 21h1M56 21h1M86 21h1M112 21h1M142 21h1M168 21h1M217 21h1M0 22h1M56 22h1M86 22h1M112 22h1M142 22h1M168 22h1M217 22h1M0 23h1M56 23h1M86 23h1M112 23h1M142 23h1M168 23h1M217 23h1M0 24h1M56 24h1M86 24h1M112 24h1M142 24h1M168 24h1M217 24h1M56 25h1M112 25h1M142 25h1M168 25h1M217 25h1M56 26h1M112 26h1M142 26h1M168 26h1M217 26h1M56 27h1M112 27h1M142 27h1M168 27h1M217 27h1M56 28h1M112 28h1M142 28h1M168 28h1M217 28h1M56 29h1M112 29h1M142 29h1M168 29h1M217 29h1M4 30h4M56 30h1M90 30h13M112 30h1M142 30h1M168 30h1M217 30h1M56 31h1M112 31h1M142 31h1M168 31h1M217 31h1M56 32h1M112 32h1M142 32h1M168 32h1M217 32h1M56 33h1M112 33h1M142 33h1M168 33h1M217 33h1M0 34h1M56 34h1M86 34h1M112 34h1M142 34h1M168 34h1M217 34h1M0 35h1M56 35h1M86 35h1M112 35h1M142 35h1M168 35h1M217 35h1M0 36h1M30 36h1M56 36h1M86 36h1M112 36h1M142 36h1M168 36h1M217 36h1M247 36h1M0 37h1M30 37h1M56 37h1M86 37h1M112 37h1M142 37h1M168 37h1M217 37h1M247 37h1M0 38h1M56 38h1M112 38h1M168 38h1M217 38h1M0 39h1M56 39h1M112 39h1M168 39h1M217 39h1M0 40h1M56 40h1M112 40h1M168 40h1M217 40h1M0 41h1M56 41h1M112 41h1M168 41h1M217 41h1M0 42h1M56 42h1M112 42h1M168 42h1M217 42h1M0 43h1M56 43h1M112 43h1M168 43h1M217 43h1M0 44h1M56 44h1M112 44h1M168 44h1M217 44h1M0 45h1M56 45h1M112 45h1M168 45h1M217 45h1M0 46h1M56 46h1M112 46h1M168 46h1M217 46h1M0 47h1M56 47h1M112 47h1M168 47h1M217 47h1M168 48h1M168 49h1M168 50h1M168 51h1M168 52h1M168 53h1M168 54h1" />
<path stroke="rgba(0,0,0,0.06274509803921569)" d="M40 0h1M96 0h1M152 0h1M208 0h1M257 0h1M41 1h1M97 1h1M153 1h1M209 1h1M258 1h1M42 2h1M98 2h1M154 2h1M210 2h1M259 2h1M43 3h1M99 3h1M155 3h1M211 3h1M260 3h1M104 8h1M160 8h1M265 8h1M105 9h1M161 9h1M266 9h1M106 10h1M162 10h1M267 10h1M43 18h1M211 18h1M210 19h1M209 20h1M48 23h1M49 24h1M50 25h1M106 26h1M105 27h1M104 28h1M188 56h1M187 57h1M186 58h1" />
<path stroke="rgba(0,0,0,0.18823529411764706)" d="M185 0h1M10 1h1M66 1h1M122 1h1M227 1h1M9 2h1M65 2h1M121 2h1M226 2h1M8 3h1M64 3h1M120 3h1M225 3h1M3 8h1M59 8h1M115 8h1M220 8h1M2 9h1M58 9h1M114 9h1M219 9h1M1 10h1M57 10h1M113 10h1M218 10h1M1 26h1M87 26h1M2 27h1M88 27h1M3 28h1M89 28h1M103 30h1M169 56h1M170 57h1M171 58h1" />
<path stroke="rgba(0,0,0,0.9411764705882353)" d="M11 1h1M67 1h1M123 1h1M228 1h1M10 2h1M66 2h1M122 2h1M227 2h1M9 3h1M65 3h1M121 3h1M226 3h1M3 9h1M59 9h1M115 9h1M220 9h1M2 10h1M58 10h1M114 10h1M219 10h1M1 11h1M57 11h1M113 11h1M218 11h1M1 25h1M87 25h1M2 26h1M88 26h1M3 27h1M89 27h1M169 55h1M170 56h1M171 57h1" />
<path stroke="#000000" d="M12 1h28M68 1h28M124 1h28M172 1h14M187 1h21M229 1h28M11 2h30M67 2h30M123 2h30M171 2h38M228 2h30M10 3h32M66 3h32M122 3h32M170 3h40M227 3h32M9 4h34M65 4h34M121 4h34M169 4h42M226 4h34M9 5h5M38 5h5M65 5h5M94 5h5M121 5h5M150 5h5M169 5h6M183 5h7M206 5h5M226 5h5M255 5h5M9 6h4M39 6h4M65 6h4M95 6h4M121 6h4M151 6h4M169 6h5M184 6h5M207 6h4M226 6h4M256 6h4M9 7h4M39 7h4M65 7h4M95 7h4M121 7h4M151 7h4M169 7h4M184 7h4M207 7h4M226 7h4M256 7h4M9 8h4M39 8h4M65 8h4M95 8h4M121 8h4M151 8h4M169 8h4M184 8h4M207 8h4M226 8h4M256 8h4M4 9h9M39 9h4M60 9h9M95 9h9M116 9h9M151 9h9M169 9h4M184 9h4M207 9h4M221 9h9M256 9h9M3 10h10M39 10h4M59 10h10M95 10h10M115 10h10M151 10h10M169 10h4M184 10h4M207 10h4M220 10h10M256 10h10M2 11h11M39 11h4M58 11h11M95 11h11M114 11h11M151 11h11M169 11h4M184 11h4M207 11h4M219 11h11M256 11h11M1 12h12M39 12h4M57 12h12M95 12h12M113 12h12M151 12h12M169 12h4M184 12h4M207 12h4M218 12h12M256 12h12M1 13h5M39 13h4M57 13h5M102 13h5M113 13h5M158 13h5M169 13h4M207 13h4M218 13h5M263 13h5M1 14h4M39 14h4M57 14h4M102 14h5M113 14h4M158 14h5M169 14h4M207 14h4M218 14h4M263 14h5M1 15h4M39 15h4M57 15h4M102 15h5M113 15h4M158 15h5M169 15h4M207 15h4M218 15h4M263 15h5M1 16h4M16 16h27M57 16h4M72 16h19M102 16h5M113 16h4M128 16h19M158 16h5M169 16h4M192 16h19M218 16h4M233 16h19M263 16h5M1 17h4M16 17h27M57 17h4M72 17h19M102 17h5M113 17h4M128 17h19M158 17h5M169 17h4M192 17h19M218 17h4M233 17h19M263 17h5M1 18h4M16 18h26M57 18h4M72 18h19M102 18h5M113 18h4M128 18h19M158 18h5M169 18h4M192 18h18M218 18h4M233 18h19M263 18h5M1 19h4M16 19h27M57 19h4M72 19h19M102 19h5M113 19h4M128 19h19M158 19h5M169 19h4M192 19h17M218 19h4M233 19h19M263 19h5M1 20h4M38 20h5M57 20h4M72 20h19M102 20h5M113 20h4M128 20h19M158 20h5M169 20h4M192 20h16M218 20h4M263 20h5M1 21h4M39 21h4M57 21h4M72 21h5M87 21h4M102 21h5M113 21h4M128 21h5M143 21h4M158 21h5M169 21h4M192 21h4M218 21h4M263 21h5M1 22h4M39 22h4M57 22h4M72 22h5M87 22h4M102 22h5M113 22h4M128 22h5M143 22h4M158 22h5M169 22h4M192 22h4M218 22h4M263 22h5M1 23h5M39 23h4M57 23h4M72 23h5M87 23h5M102 23h5M113 23h4M128 23h5M143 23h4M158 23h5M169 23h4M191 23h5M218 23h4M263 23h5M1 24h12M39 24h9M57 24h4M72 24h5M87 24h20M113 24h4M128 24h5M143 24h4M158 24h5M169 24h4M184 24h12M218 24h4M263 24h5M2 25h11M39 25h10M57 25h4M72 25h5M88 25h18M113 25h4M128 25h5M143 25h4M158 25h5M169 25h4M184 25h12M218 25h4M263 25h5M3 26h10M39 26h11M57 26h4M72 26h5M89 26h16M113 26h4M128 26h5M143 26h4M158 26h5M169 26h4M184 26h11M218 26h4M263 26h5M4 27h9M39 27h12M57 27h4M72 27h5M90 27h14M113 27h4M128 27h5M143 27h4M158 27h5M169 27h4M184 27h10M218 27h4M263 27h5M9 28h4M46 28h5M57 28h4M72 28h5M113 28h4M128 28h5M143 28h4M158 28h5M169 28h4M184 28h5M218 28h4M263 28h5M9 29h4M46 29h5M57 29h4M72 29h5M113 29h4M128 29h5M143 29h4M158 29h5M169 29h4M184 29h5M218 29h4M263 29h5M9 30h4M46 30h5M57 30h4M72 30h5M113 30h4M128 30h5M143 30h4M158 30h5M169 30h4M184 30h5M218 30h4M263 30h5M4 31h31M46 31h5M57 31h4M72 31h5M90 31h14M113 31h4M128 31h5M143 31h4M158 31h5M169 31h4M184 31h5M218 31h4M233 31h35M3 32h32M46 32h5M57 32h4M72 32h5M89 32h16M113 32h4M128 32h5M143 32h4M158 32h5M169 32h4M184 32h5M218 32h4M233 32h35M2 33h33M46 33h5M57 33h4M72 33h5M88 33h18M113 33h4M128 33h5M143 33h4M158 33h5M169 33h4M184 33h5M218 33h4M233 33h34M1 34h34M46 34h5M57 34h4M72 34h5M87 34h20M113 34h4M128 34h5M143 34h4M158 34h5M169 34h4M184 34h5M218 34h4M233 34h35M1 35h6M15 35h20M46 35h5M57 35h4M72 35h5M87 35h6M101 35h6M113 35h4M128 35h5M143 35h4M158 35h5M169 35h4M184 35h5M218 35h4M233 35h21M262 35h6M1 36h5M16 36h5M31 36h4M46 36h5M57 36h4M72 36h5M87 36h5M102 36h5M113 36h4M128 36h5M143 36h4M158 36h5M169 36h4M184 36h5M218 36h4M233 36h5M248 36h5M263 36h5M1 37h4M16 37h5M31 37h4M46 37h5M57 37h4M72 37h5M87 37h4M102 37h5M113 37h4M128 37h5M143 37h4M158 37h5M169 37h4M184 37h5M218 37h4M233 37h5M248 37h4M263 37h5M1 38h4M16 38h5M31 38h4M46 38h5M57 38h4M72 38h5M87 38h4M102 38h5M113 38h4M128 38h5M143 38h4M158 38h5M169 38h4M184 38h5M218 38h4M233 38h5M248 38h4M263 38h5M1 39h4M16 39h19M46 39h5M57 39h4M72 39h19M102 39h5M113 39h4M128 39h19M158 39h5M169 39h4M184 39h5M218 39h4M233 39h19M263 39h5M1 40h4M16 40h19M46 40h5M57 40h4M72 40h19M102 40h5M113 40h4M128 40h19M158 40h5M169 40h4M184 40h5M218 40h4M233 40h19M263 40h5M1 41h4M16 41h19M46 41h5M57 41h4M72 41h19M102 41h5M113 41h4M128 41h19M158 41h5M169 41h4M184 41h5M218 41h4M233 41h19M263 41h5M1 42h4M16 42h19M46 42h5M57 42h4M72 42h19M102 42h5M113 42h4M128 42h19M158 42h5M169 42h4M184 42h5M218 42h4M233 42h19M263 42h5M1 43h4M46 43h5M57 43h4M102 43h5M113 43h4M158 43h5M169 43h4M184 43h5M218 43h4M263 43h5M1 44h4M46 44h5M57 44h4M102 44h5M113 44h4M158 44h5M169 44h4M184 44h5M218 44h4M263 44h5M1 45h5M46 45h5M57 45h5M102 45h5M113 45h5M158 45h5M169 45h4M184 45h5M218 45h5M263 45h5M1 46h12M39 46h12M57 46h12M95 46h12M113 46h12M151 46h12M169 46h4M184 46h5M218 46h12M256 46h12M1 47h12M39 47h12M57 47h12M95 47h12M113 47h12M151 47h12M169 47h4M184 47h5M218 47h12M256 47h12M2 48h11M39 48h11M58 48h11M95 48h11M114 48h11M151 48h11M169 48h4M184 48h5M219 48h11M256 48h11M3 49h10M39 49h10M59 49h10M95 49h10M115 49h10M151 49h10M169 49h4M184 49h5M220 49h10M256 49h10M4 50h9M39 50h9M60 50h9M95 50h9M116 50h9M151 50h9M169 50h4M184 50h5M221 50h9M256 50h9M9 51h4M39 51h4M65 51h4M95 51h4M121 51h4M151 51h4M169 51h4M184 51h5M226 51h4M256 51h4M9 52h4M39 52h4M65 52h4M95 52h4M121 52h4M151 52h4M169 52h4M184 52h5M226 52h4M256 52h4M9 53h5M38 53h5M65 53h5M94 53h5M121 53h5M150 53h5M169 53h5M184 53h5M226 53h5M255 53h5M9 54h34M65 54h34M121 54h34M169 54h20M226 54h34M9 55h34M65 55h34M121 55h34M170 55h18M226 55h34M10 56h32M66 56h32M122 56h32M171 56h16M227 56h32M11 57h30M67 57h30M123 57h30M172 57h14M228 57h30" />
<path stroke="rgba(0,0,0,0.8156862745098039)" d="M40 1h1M96 1h1M152 1h1M208 1h1M257 1h1M41 2h1M97 2h1M153 2h1M209 2h1M258 2h1M42 3h1M98 3h1M154 3h1M210 3h1M259 3h1M104 9h1M160 9h1M265 9h1M105 10h1M161 10h1M266 10h1M106 11h1M162 11h1M267 11h1M42 18h1M210 18h1M209 19h1M208 20h1M48 24h1M49 25h1M106 25h1M50 26h1M105 26h1M104 27h1M188 55h1M187 56h1M186 57h1" />
<path stroke="rgba(0,0,0,0.6274509803921569)" d="M171 1h1M186 1h1M170 2h1M169 3h1M3 31h1M89 31h1M2 32h1M88 32h1M1 33h1M87 33h1M1 48h1M57 48h1M113 48h1M218 48h1M2 49h1M58 49h1M114 49h1M219 49h1M3 50h1M59 50h1M115 50h1M220 50h1" />
<path stroke="rgba(0,0,0,0.7529411764705882)" d="M8 4h1M64 4h1M120 4h1M225 4h1M8 5h1M64 5h1M120 5h1M225 5h1M8 6h1M64 6h1M120 6h1M225 6h1M8 7h1M64 7h1M120 7h1M225 7h1M4 8h5M60 8h5M99 8h4M116 8h5M155 8h4M221 8h5M260 8h4M43 23h4M8 28h1M8 29h1M8 30h1M21 38h10M77 38h10M133 38h10M238 38h10M8 51h1M64 51h1M120 51h1M225 51h1M8 52h1M64 52h1M120 52h1M225 52h1M8 53h1M64 53h1M120 53h1M225 53h1M8 54h1M64 54h1M120 54h1M225 54h1" />
<path stroke="rgba(0,0,0,0.5019607843137255)" d="M43 4h1M99 4h1M155 4h1M211 4h1M260 4h1M43 5h1M99 5h1M155 5h1M211 5h1M260 5h1M43 6h1M99 6h1M155 6h1M211 6h1M260 6h1M43 7h1M99 7h1M155 7h1M211 7h1M260 7h1M43 8h1M211 8h1M43 9h1M211 9h1M43 10h1M211 10h1M43 11h1M211 11h1M43 12h1M211 12h1M43 13h1M211 13h1M43 14h1M211 14h1M43 15h1M211 15h1M43 16h1M211 16h1M43 17h1M211 17h1M43 19h1M43 20h1M43 21h1M196 21h1M43 22h1M196 22h1M196 23h1M196 24h1M4 28h4M90 28h14M189 28h4M43 51h1M99 51h1M155 51h1M260 51h1M43 52h1M99 52h1M155 52h1M260 52h1M43 53h1M99 53h1M155 53h1M260 53h1M43 54h1M99 54h1M155 54h1M260 54h1M12 58h28M68 58h28M124 58h28M172 58h14M229 58h28" />
<path stroke="#3f3f3f" d="M14 5h1M70 5h1M126 5h1M231 5h1M5 14h1M61 14h1M117 14h1M222 14h1M5 22h1M91 22h1M173 52h1" />
<path stroke="#676767" d="M15 5h22M71 5h22M127 5h22M175 5h7M190 5h15M232 5h22M173 7h1M188 7h1M173 8h1M188 8h1M173 9h1M188 9h1M173 10h1M188 10h1M173 11h1M188 11h1M173 12h1M188 12h1M173 13h1M173 14h1M5 15h1M61 15h1M117 15h1M173 15h1M222 15h1M5 16h1M61 16h1M91 16h1M117 16h1M147 16h1M173 16h1M222 16h1M252 16h1M5 17h1M61 17h1M91 17h1M117 17h1M147 17h1M173 17h1M222 17h1M252 17h1M5 18h1M61 18h1M91 18h1M117 18h1M147 18h1M173 18h1M222 18h1M252 18h1M5 19h1M61 19h1M91 19h1M117 19h1M147 19h1M173 19h1M222 19h1M252 19h1M5 20h1M16 20h21M61 20h1M91 20h1M117 20h1M147 20h1M173 20h1M222 20h1M233 20h19M5 21h1M61 21h1M91 21h1M117 21h1M147 21h1M173 21h1M222 21h1M61 22h1M117 22h1M147 22h1M173 22h1M222 22h1M61 23h1M117 23h1M147 23h1M173 23h1M222 23h1M61 24h1M117 24h1M147 24h1M173 24h1M222 24h1M61 25h1M117 25h1M147 25h1M173 25h1M222 25h1M61 26h1M117 26h1M147 26h1M173 26h1M222 26h1M61 27h1M117 27h1M147 27h1M173 27h1M222 27h1M61 28h1M117 28h1M147 28h1M173 28h1M222 28h1M61 29h1M117 29h1M147 29h1M173 29h1M222 29h1M61 30h1M117 30h1M147 30h1M173 30h1M222 30h1M35 31h1M61 31h1M117 31h1M147 31h1M173 31h1M222 31h1M35 32h1M61 32h1M117 32h1M147 32h1M173 32h1M222 32h1M35 33h1M61 33h1M117 33h1M147 33h1M173 33h1M222 33h1M35 34h1M61 34h1M117 34h1M147 34h1M173 34h1M222 34h1M7 35h7M35 35h1M61 35h1M93 35h7M117 35h1M147 35h1M173 35h1M222 35h1M254 35h7M35 36h1M61 36h1M117 36h1M147 36h1M173 36h1M222 36h1M5 37h1M35 37h1M61 37h1M91 37h1M117 37h1M147 37h1M173 37h1M222 37h1M252 37h1M5 38h1M35 38h1M61 38h1M91 38h1M117 38h1M147 38h1M173 38h1M222 38h1M252 38h1M5 39h1M35 39h1M61 39h1M91 39h1M117 39h1M147 39h1M173 39h1M222 39h1M252 39h1M5 40h1M35 40h1M61 40h1M91 40h1M117 40h1M147 40h1M173 40h1M222 40h1M252 40h1M5 41h1M35 41h1M61 41h1M91 41h1M117 41h1M147 41h1M173 41h1M222 41h1M252 41h1M5 42h1M35 42h1M61 42h1M91 42h1M117 42h1M147 42h1M173 42h1M222 42h1M252 42h1M5 43h1M61 43h1M117 43h1M173 43h1M222 43h1M5 44h1M61 44h1M117 44h1M173 44h1M222 44h1M173 45h1M173 46h1M173 47h1M173 48h1M173 49h1M173 50h1M173 51h1" />
<path stroke="#242424" d="M37 5h1M93 5h1M149 5h1M205 5h1M254 5h1M38 6h1M94 6h1M150 6h1M206 6h1M255 6h1M101 13h1M157 13h1M262 13h1M38 15h1M206 15h1M37 20h1M38 21h1M101 23h1M45 28h1M183 53h1" />
<path stroke="#545454" d="M182 5h1M13 6h1M69 6h1M125 6h1M230 6h1M6 13h1M62 13h1M118 13h1M223 13h1M6 23h1M92 23h1M13 30h1M14 35h1M100 35h1M261 35h1M174 53h1" />
<path stroke="#f5f5f5" d="M14 6h1M70 6h1M126 6h1M231 6h1M13 13h1M69 13h1M125 13h1M230 13h1M6 14h1M62 14h1M118 14h1M223 14h1M6 22h1M92 22h1M14 30h1M174 52h1" />
<path stroke="#ffffff" d="M15 6h22M71 6h22M127 6h22M175 6h8M190 6h15M232 6h22M14 7h24M70 7h24M126 7h24M174 7h10M189 7h17M231 7h24M14 8h24M70 8h24M126 8h24M174 8h10M189 8h17M231 8h24M14 9h24M70 9h24M126 9h24M174 9h10M189 9h17M231 9h24M14 10h24M70 10h24M126 10h24M174 10h10M189 10h17M231 10h24M14 11h24M70 11h24M126 11h24M174 11h10M189 11h17M231 11h24M14 12h24M70 12h24M126 12h24M174 12h10M189 12h17M231 12h24M14 13h24M70 13h24M126 13h24M174 13h10M189 13h17M231 13h24M7 14h31M63 14h38M119 14h38M174 14h32M224 14h38M6 15h31M62 15h40M118 15h40M174 15h31M223 15h40M6 16h10M62 16h10M92 16h10M118 16h10M148 16h10M174 16h17M223 16h10M253 16h10M6 17h10M62 17h10M92 17h10M118 17h10M148 17h10M174 17h17M223 17h10M253 17h10M6 18h10M62 18h10M92 18h10M118 18h10M148 18h10M174 18h17M223 18h10M253 18h10M6 19h10M62 19h10M92 19h10M118 19h10M148 19h10M174 19h17M223 19h10M253 19h10M6 20h10M62 20h10M92 20h10M118 20h10M148 20h10M174 20h17M223 20h10M253 20h10M6 21h31M62 21h10M92 21h10M118 21h10M148 21h10M174 21h17M223 21h40M7 22h31M62 22h10M93 22h8M118 22h10M148 22h10M174 22h17M223 22h40M14 23h24M62 23h10M118 23h10M148 23h10M174 23h10M223 23h40M14 24h24M62 24h10M118 24h10M148 24h10M174 24h10M223 24h40M14 25h24M62 25h10M118 25h10M148 25h10M174 25h10M223 25h40M14 26h24M62 26h10M118 26h10M148 26h10M174 26h10M223 26h40M14 27h24M62 27h10M118 27h10M148 27h10M174 27h10M223 27h40M14 28h24M62 28h10M118 28h10M148 28h10M174 28h10M223 28h40M14 29h31M62 29h10M118 29h10M148 29h10M174 29h10M223 29h40M15 30h31M62 30h10M118 30h10M148 30h10M174 30h10M223 30h39M36 31h10M62 31h10M118 31h10M148 31h10M174 31h10M223 31h10M36 32h10M62 32h10M118 32h10M148 32h10M174 32h10M223 32h10M36 33h10M62 33h10M118 33h10M148 33h10M174 33h10M223 33h10M36 34h10M62 34h10M118 34h10M148 34h10M174 34h10M223 34h10M36 35h10M62 35h10M118 35h10M148 35h10M174 35h10M223 35h10M7 36h8M36 36h10M62 36h10M93 36h8M118 36h10M148 36h10M174 36h10M223 36h10M254 36h8M6 37h10M36 37h10M62 37h10M92 37h10M118 37h10M148 37h10M174 37h10M223 37h10M253 37h10M6 38h10M36 38h10M62 38h10M92 38h10M118 38h10M148 38h10M174 38h10M223 38h10M253 38h10M6 39h10M36 39h10M62 39h10M92 39h10M118 39h10M148 39h10M174 39h10M223 39h10M253 39h10M6 40h10M36 40h10M62 40h10M92 40h10M118 40h10M148 40h10M174 40h10M223 40h10M253 40h10M6 41h10M36 41h10M62 41h10M92 41h10M118 41h10M148 41h10M174 41h10M223 41h10M253 41h10M6 42h10M36 42h10M62 42h10M92 42h10M118 42h10M148 42h10M174 42h10M223 42h10M253 42h10M6 43h10M36 43h10M62 43h10M92 43h10M118 43h10M148 43h10M174 43h10M223 43h10M253 43h10M6 44h40M62 44h40M118 44h40M174 44h10M223 44h40M7 45h38M63 45h38M119 45h38M174 45h10M224 45h38M14 46h24M70 46h24M126 46h24M174 46h10M231 46h24M14 47h24M70 47h24M126 47h24M174 47h10M231 47h24M14 48h24M70 48h24M126 48h24M174 48h10M231 48h24M14 49h24M70 49h24M126 49h24M174 49h10M231 49h24M14 50h24M70 50h24M126 50h24M174 50h10M231 50h24M14 51h24M70 51h24M126 51h24M174 51h10M231 51h24M14 52h24M70 52h24M126 52h24M175 52h8M231 52h24" />
<path stroke="#e0e0e0" d="M37 6h1M93 6h1M149 6h1M205 6h1M254 6h1M188 13h1M101 14h1M157 14h1M262 14h1M37 15h1M205 15h1M37 21h1M101 22h1M45 29h1M35 43h1M91 43h1M147 43h1M252 43h1M183 52h1" />
<path stroke="#bdbdbd" d="M174 6h1M189 6h1M6 36h1M92 36h1M253 36h1M6 45h1M62 45h1M118 45h1M223 45h1" />
<path stroke="#878787" d="M183 6h1M262 30h1M15 36h1M101 36h1M262 36h1M45 45h1M101 45h1M157 45h1M262 45h1" />
<path stroke="#d5d5d5" d="M13 7h1M69 7h1M125 7h1M230 7h1M13 8h1M69 8h1M125 8h1M230 8h1M13 9h1M69 9h1M125 9h1M230 9h1M13 10h1M69 10h1M125 10h1M230 10h1M13 11h1M69 11h1M125 11h1M230 11h1M13 12h1M69 12h1M125 12h1M230 12h1M7 13h6M63 13h6M95 13h5M119 13h6M151 13h5M184 13h4M224 13h6M256 13h5M13 24h1M13 25h1M13 26h1M13 27h1M13 28h1M39 28h5M13 29h1M16 43h19M72 43h19M128 43h19M233 43h19M13 46h1M69 46h1M125 46h1M230 46h1M13 47h1M69 47h1M125 47h1M230 47h1M13 48h1M69 48h1M125 48h1M230 48h1M13 49h1M69 49h1M125 49h1M230 49h1M13 50h1M69 50h1M125 50h1M230 50h1M13 51h1M69 51h1M125 51h1M230 51h1" />
<path stroke="#a3a3a3" d="M38 7h1M94 7h1M150 7h1M206 7h1M255 7h1M38 8h1M94 8h1M150 8h1M206 8h1M255 8h1M38 9h1M94 9h1M150 9h1M206 9h1M255 9h1M38 10h1M94 10h1M150 10h1M206 10h1M255 10h1M38 11h1M94 11h1M150 11h1M206 11h1M255 11h1M38 12h1M94 12h1M150 12h1M206 12h1M255 12h1M38 13h1M206 13h1M38 14h1M206 14h1M191 16h1M191 17h1M191 18h1M191 19h1M191 20h1M191 21h1M38 22h1M7 23h6M38 23h1M93 23h8M184 23h6M38 24h1M38 25h1M38 26h1M38 27h1M38 46h1M94 46h1M150 46h1M255 46h1M38 47h1M94 47h1M150 47h1M255 47h1M38 48h1M94 48h1M150 48h1M255 48h1M38 49h1M94 49h1M150 49h1M255 49h1M38 50h1M94 50h1M150 50h1M255 50h1M38 51h1M94 51h1M150 51h1M255 51h1M15 53h22M71 53h22M127 53h22M175 53h8M232 53h22" />
<path stroke="rgba(0,0,0,0.6901960784313725)" d="M103 8h1M159 8h1M264 8h1M47 23h1" />
<path stroke="#ebebeb" d="M94 13h1M150 13h1M255 13h1M13 23h1M38 28h1" />
<path stroke="#c9c9c9" d="M100 13h1M156 13h1M261 13h1M44 28h1" />
<path stroke="#969696" d="M252 20h1M14 53h1M70 53h1M126 53h1M231 53h1" />
<path stroke="#787878" d="M191 22h1M190 23h1M38 52h1M94 52h1M150 52h1M255 52h1M37 53h1M93 53h1M149 53h1M254 53h1" />
<path stroke="rgba(0,0,0,0.3137254901960784)" d="M196 25h1M195 26h1M194 27h1M193 28h1M43 55h1M99 55h1M155 55h1M260 55h1M42 56h1M98 56h1M154 56h1M259 56h1M41 57h1M97 57h1M153 57h1M258 57h1M40 58h1M96 58h1M152 58h1M257 58h1" />
<path stroke="rgba(0,0,0,0.3764705882352941)" d="M104 31h1M105 32h1M106 33h1M267 33h1M50 48h1M106 48h1M162 48h1M267 48h1M49 49h1M105 49h1M161 49h1M266 49h1M48 50h1M104 50h1M160 50h1M265 50h1" />
<path stroke="#b0b0b0" d="M13 52h1M69 52h1M125 52h1M230 52h1" />
<path stroke="rgba(0,0,0,0.5647058823529412)" d="M8 55h1M64 55h1M120 55h1M225 55h1M9 56h1M65 56h1M121 56h1M226 56h1M10 57h1M66 57h1M122 57h1M227 57h1" />
<path stroke="rgba(0,0,0,0.4392156862745098)" d="M11 58h1M67 58h1M123 58h1M228 58h1" />
</svg>