<svg xmlns="http://www.w3.org/2000/svg" viewBox="0 -0.5 440 416" shape-rendering="crispEdges">
<metadata>Made with Pixels to Svg https://codepen.io/shshaw/pen/XbxvNj</metadata>
<path stroke="#ee4f1f" d="M272 0h8M272 1h8M272 2h8M272 3h8M272 4h8M272 5h8M272 6h8M272 7h8M240 8h8M272 8h8M240 9h8M272 9h8M240 10h8M272 10h8M240 11h8M272 11h8M240 12h8M272 12h8M240 13h8M272 13h8M240 14h8M272 14h8M240 15h8M272 15h8M240 16h16M272 16h8M240 17h16M272 17h8M240 18h16M272 18h8M240 19h16M272 19h8M240 20h16M272 20h8M240 21h16M272 21h8M240 22h16M272 22h8M240 23h16M272 23h8M232 24h24M360 24h8M232 25h24M360 25h8M232 26h24M360 26h8M232 27h24M360 27h8M232 28h24M360 28h8M232 29h24M360 29h8M232 30h24M360 30h8M232 31h24M360 31h8M232 32h24M296 32h8M360 32h8M232 33h24M296 33h8M360 33h8M232 34h24M296 34h8M360 34h8M232 35h24M296 35h8M360 35h8M232 36h24M296 36h8M360 36h8M232 37h24M296 37h8M360 37h8M232 38h24M296 38h8M360 38h8M232 39h24M296 39h8M360 39h8M224 40h32M288 40h8M352 40h16M224 41h32M288 41h8M352 41h16M224 42h32M288 42h8M352 42h16M224 43h32M288 43h8M352 43h16M224 44h32M288 44h8M352 44h16M224 45h32M288 45h8M352 45h16M224 46h32M288 46h8M352 46h16M224 47h32M288 47h8M352 47h16M232 48h16M256 48h8M352 48h8M232 49h16M256 49h8M352 49h8M232 50h16M256 50h8M352 50h8M232 51h16M256 51h8M352 51h8M232 52h16M256 52h8M352 52h8M232 53h16M256 53h8M352 53h8M232 54h16M256 54h8M352 54h8M232 55h16M256 55h8M352 55h8M232 56h24M336 56h24M232 57h24M336 57h24M232 58h24M336 58h24M232 59h24M336 59h24M232 60h24M336 60h24M232 61h24M336 61h24M232 62h24M336 62h24M232 63h24M336 63h24M224 64h32M328 64h32M400 64h8M224 65h32M328 65h32M400 65h8M224 66h32M328 66h32M400 66h8M224 67h32M328 67h32M400 67h8M224 68h32M328 68h32M400 68h8M224 69h32M328 69h32M400 69h8M224 70h32M328 70h32M400 70h8M224 71h32M328 71h32M400 71h8M216 72h32M320 72h32M392 72h8M216 73h32M320 73h32M392 73h8M216 74h32M320 74h32M392 74h8M216 75h32M320 75h32M392 75h8M216 76h32M320 76h32M392 76h8M216 77h32M320 77h32M392 77h8M216 78h32M320 78h32M392 78h8M216 79h32M320 79h32M392 79h8M216 80h32M296 80h48M384 80h8M216 81h32M296 81h48M384 81h8M216 82h32M296 82h48M384 82h8M216 83h32M296 83h48M384 83h8M216 84h32M296 84h48M384 84h8M216 85h32M296 85h48M384 85h8M216 86h32M296 86h48M384 86h8M216 87h32M296 87h48M384 87h8M208 88h32M288 88h24M328 88h16M208 89h32M288 89h24M328 89h16M208 90h32M288 90h24M328 90h16M208 91h32M288 91h24M328 91h16M208 92h32M288 92h24M328 92h16M208 93h32M288 93h24M328 93h16M208 94h32M288 94h24M328 94h16M208 95h32M288 95h24M328 95h16M200 96h32M272 96h8M288 96h16M328 96h8M200 97h32M272 97h8M288 97h16M328 97h8M200 98h32M272 98h8M288 98h16M328 98h8M200 99h32M272 99h8M288 99h16M328 99h8M200 100h32M272 100h8M288 100h16M328 100h8M200 101h32M272 101h8M288 101h16M328 101h8M200 102h32M272 102h8M288 102h16M328 102h8M200 103h32M272 103h8M288 103h16M328 103h8M192 104h16M216 104h8M240 104h8M288 104h8M320 104h16M368 104h8M192 105h16M216 105h8M240 105h8M288 105h8M320 105h16M368 105h8M192 106h16M216 106h8M240 106h8M288 106h8M320 106h16M368 106h8M192 107h16M216 107h8M240 107h8M288 107h8M320 107h16M368 107h8M192 108h16M216 108h8M240 108h8M288 108h8M320 108h16M368 108h8M192 109h16M216 109h8M240 109h8M288 109h8M320 109h16M368 109h8M192 110h16M216 110h8M240 110h8M288 110h8M320 110h16M368 110h8M192 111h16M216 111h8M240 111h8M288 111h8M320 111h16M368 111h8M160 112h8M192 112h8M216 112h8M280 112h16M312 112h16M368 112h8M160 113h8M192 113h8M216 113h8M280 113h16M312 113h16M368 113h8M160 114h8M192 114h8M216 114h8M280 114h16M312 114h16M368 114h8M160 115h8M192 115h8M216 115h8M280 115h16M312 115h16M368 115h8M160 116h8M192 116h8M216 116h8M280 116h16M312 116h16M368 116h8M160 117h8M192 117h8M216 117h8M280 117h16M312 117h16M368 117h8M160 118h8M192 118h8M216 118h8M280 118h16M312 118h16M368 118h8M160 119h8M192 119h8M216 119h8M280 119h16M312 119h16M368 119h8M184 120h16M208 120h16M240 120h16M272 120h16M296 120h24M352 120h24M184 121h16M208 121h16M240 121h16M272 121h16M296 121h24M352 121h24M184 122h16M208 122h16M240 122h16M272 122h16M296 122h24M352 122h24M184 123h16M208 123h16M240 123h16M272 123h16M296 123h24M352 123h24M184 124h16M208 124h16M240 124h16M272 124h16M296 124h24M352 124h24M184 125h16M208 125h16M240 125h16M272 125h16M296 125h24M352 125h24M184 126h16M208 126h16M240 126h16M272 126h16M296 126h24M352 126h24M184 127h16M208 127h16M240 127h16M272 127h16M296 127h24M352 127h24M176 128h16M216 128h8M232 128h24M272 128h8M288 128h16M336 128h40M176 129h16M216 129h8M232 129h24M272 129h8M288 129h16M336 129h40M176 130h16M216 130h8M232 130h24M272 130h8M288 130h16M336 130h40M176 131h16M216 131h8M232 131h24M272 131h8M288 131h16M336 131h40M176 132h16M216 132h8M232 132h24M272 132h8M288 132h16M336 132h40M176 133h16M216 133h8M232 133h24M272 133h8M288 133h16M336 133h40M176 134h16M216 134h8M232 134h24M272 134h8M288 134h16M336 134h40M176 135h16M216 135h8M232 135h24M272 135h8M288 135h16M336 135h40M152 136h8M168 136h24M216 136h32M264 136h32M328 136h40M152 137h8M168 137h24M216 137h32M264 137h32M328 137h40M152 138h8M168 138h24M216 138h32M264 138h32M328 138h40M152 139h8M168 139h24M216 139h32M264 139h32M328 139h40M152 140h8M168 140h24M216 140h32M264 140h32M328 140h40M152 141h8M168 141h24M216 141h32M264 141h32M328 141h40M152 142h8M168 142h24M216 142h32M264 142h32M328 142h40M152 143h8M168 143h24M216 143h32M264 143h32M328 143h40M152 144h8M168 144h16M224 144h56M320 144h24M152 145h8M168 145h16M224 145h56M320 145h24M152 146h8M168 146h16M224 146h56M320 146h24M152 147h8M168 147h16M224 147h56M320 147h24M152 148h8M168 148h16M224 148h56M320 148h24M152 149h8M168 149h16M224 149h56M320 149h24M152 150h8M168 150h16M224 150h56M320 150h24M152 151h8M168 151h16M224 151h56M320 151h24M144 152h16M168 152h16M240 152h32M312 152h24M144 153h16M168 153h16M240 153h32M312 153h24M144 154h16M168 154h16M240 154h32M312 154h24M144 155h16M168 155h16M240 155h32M312 155h24M144 156h16M168 156h16M240 156h32M312 156h24M144 157h16M168 157h16M240 157h32M312 157h24M144 158h16M168 158h16M240 158h32M312 158h24M144 159h16M168 159h16M240 159h32M312 159h24M144 160h32M256 160h16M296 160h32M144 161h32M256 161h16M296 161h32M144 162h32M256 162h16M296 162h32M144 163h32M256 163h16M296 163h32M144 164h32M256 164h16M296 164h32M144 165h32M256 165h16M296 165h32M144 166h32M256 166h16M296 166h32M144 167h32M256 167h16M296 167h32M136 168h40M264 168h40M312 168h8M136 169h40M264 169h40M312 169h8M136 170h40M264 170h40M312 170h8M136 171h40M264 171h40M312 171h8M136 172h40M264 172h40M312 172h8M136 173h40M264 173h40M312 173h8M136 174h40M264 174h40M312 174h8M136 175h40M264 175h40M312 175h8M88 176h8M136 176h32M272 176h48M88 177h8M136 177h32M272 177h48M88 178h8M136 178h32M272 178h48M88 179h8M136 179h32M272 179h48M88 180h8M136 180h32M272 180h48M88 181h8M136 181h32M272 181h48M88 182h8M136 182h32M272 182h48M88 183h8M136 183h32M272 183h48M72 184h16M128 184h32M280 184h16M72 185h16M128 185h32M280 185h16M72 186h16M128 186h32M280 186h16M72 187h16M128 187h32M280 187h16M72 188h16M128 188h32M280 188h16M72 189h16M128 189h32M280 189h16M72 190h16M128 190h32M280 190h16M72 191h16M128 191h32M280 191h16M64 192h16M104 192h16M128 192h24M280 192h16M312 192h8M64 193h16M104 193h16M128 193h24M280 193h16M312 193h8M64 194h16M104 194h16M128 194h24M280 194h16M312 194h8M64 195h16M104 195h16M128 195h24M280 195h16M312 195h8M64 196h16M104 196h16M128 196h24M280 196h16M312 196h8M64 197h16M104 197h16M128 197h24M280 197h16M312 197h8M64 198h16M104 198h16M128 198h24M280 198h16M312 198h8M64 199h16M104 199h16M128 199h24M280 199h16M312 199h8M64 200h16M96 200h48M280 200h32M64 201h16M96 201h48M280 201h32M64 202h16M96 202h48M280 202h32M64 203h16M96 203h48M280 203h32M64 204h16M96 204h48M280 204h32M64 205h16M96 205h48M280 205h32M64 206h16M96 206h48M280 206h32M64 207h16M96 207h48M280 207h32M56 208h56M264 208h40M56 209h56M264 209h40M56 210h56M264 210h40M56 211h56M264 211h40M56 212h56M264 212h40M56 213h56M264 213h40M56 214h56M264 214h40M56 215h56M264 215h40M48 216h24M248 216h32M48 217h24M248 217h32M48 218h24M248 218h32M48 219h24M248 219h32M48 220h24M248 220h32M48 221h24M248 221h32M48 222h24M248 222h32M48 223h24M248 223h32M40 224h24M240 224h32M288 224h8M40 225h24M240 225h32M288 225h8M40 226h24M240 226h32M288 226h8M40 227h24M240 227h32M288 227h8M40 228h24M240 228h32M288 228h8M40 229h24M240 229h32M288 229h8M40 230h24M240 230h32M288 230h8M40 231h24M240 231h32M288 231h8M40 232h16M240 232h16M40 233h16M240 233h16M40 234h16M240 234h16M40 235h16M240 235h16M40 236h16M240 236h16M40 237h16M240 237h16M40 238h16M240 238h16M40 239h16M240 239h16M32 240h16M240 240h32M280 240h8M32 241h16M240 241h32M280 241h8M32 242h16M240 242h32M280 242h8M32 243h16M240 243h32M280 243h8M32 244h16M240 244h32M280 244h8M32 245h16M240 245h32M280 245h8M32 246h16M240 246h32M280 246h8M32 247h16M240 247h32M280 247h8M24 248h16M256 248h32M24 249h16M256 249h32M24 250h16M256 250h32M24 251h16M256 251h32M24 252h16M256 252h32M24 253h16M256 253h32M24 254h16M256 254h32M24 255h16M256 255h32M16 256h16M256 256h24M16 257h16M256 257h24M16 258h16M256 258h24M16 259h16M256 259h24M16 260h16M256 260h24M16 261h16M256 261h24M16 262h16M256 262h24M16 263h16M256 263h24M8 264h16M248 264h32M8 265h16M248 265h32M8 266h16M248 266h32M8 267h16M248 267h32M8 268h16M248 268h32M8 269h16M248 269h32M8 270h16M248 270h32M8 271h16M248 271h32M8 272h16M224 272h8M240 272h32M8 273h16M224 273h8M240 273h32M8 274h16M224 274h8M240 274h32M8 275h16M224 275h8M240 275h32M8 276h16M224 276h8M240 276h32M8 277h16M224 277h8M240 277h32M8 278h16M224 278h8M240 278h32M8 279h16M224 279h8M240 279h32M8 280h16M216 280h40M8 281h16M216 281h40M8 282h16M216 282h40M8 283h16M216 283h40M8 284h16M216 284h40M8 285h16M216 285h40M8 286h16M216 286h40M8 287h16M216 287h40M0 288h16M216 288h16M0 289h16M216 289h16M0 290h16M216 290h16M0 291h16M216 291h16M0 292h16M216 292h16M0 293h16M216 293h16M0 294h16M216 294h16M0 295h16M216 295h16M0 296h16M216 296h16M0 297h16M216 297h16M0 298h16M216 298h16M0 299h16M216 299h16M0 300h16M216 300h16M0 301h16M216 301h16M0 302h16M216 302h16M0 303h16M216 303h16M0 304h16M208 304h16M0 305h16M208 305h16M0 306h16M208 306h16M0 307h16M208 307h16M0 308h16M208 308h16M0 309h16M208 309h16M0 310h16M208 310h16M0 311h16M208 311h16M0 312h16M200 312h16M0 313h16M200 313h16M0 314h16M200 314h16M0 315h16M200 315h16M0 316h16M200 316h16M0 317h16M200 317h16M0 318h16M200 318h16M0 319h16M200 319h16M0 320h16M200 320h8M0 321h16M200 321h8M0 322h16M200 322h8M0 323h16M200 323h8M0 324h16M200 324h8M0 325h16M200 325h8M0 326h16M200 326h8M0 327h16M200 327h8M0 328h16M192 328h16M0 329h16M192 329h16M0 330h16M192 330h16M0 331h16M192 331h16M0 332h16M192 332h16M0 333h16M192 333h16M0 334h16M192 334h16M0 335h16M192 335h16M0 336h16M192 336h16M0 337h16M192 337h16M0 338h16M192 338h16M0 339h16M192 339h16M0 340h16M192 340h16M0 341h16M192 341h16M0 342h16M192 342h16M0 343h16M192 343h16M0 344h16M200 344h8M232 344h8M0 345h16M200 345h8M232 345h8M0 346h16M200 346h8M232 346h8M0 347h16M200 347h8M232 347h8M0 348h16M200 348h8M232 348h8M0 349h16M200 349h8M232 349h8M0 350h16M200 350h8M232 350h8M0 351h16M200 351h8M232 351h8M0 352h16M200 352h8M216 352h16M0 353h16M200 353h8M216 353h16M0 354h16M200 354h8M216 354h16M0 355h16M200 355h8M216 355h16M0 356h16M200 356h8M216 356h16M0 357h16M200 357h8M216 357h16M0 358h16M200 358h8M216 358h16M0 359h16M200 359h8M216 359h16M8 360h16M176 360h48M8 361h16M176 361h48M8 362h16M176 362h48M8 363h16M176 363h48M8 364h16M176 364h48M8 365h16M176 365h48M8 366h16M176 366h48M8 367h16M176 367h48M16 368h16M168 368h48M16 369h16M168 369h48M16 370h16M168 370h48M16 371h16M168 371h48M16 372h16M168 372h48M16 373h16M168 373h48M16 374h16M168 374h48M16 375h16M168 375h48M16 376h24M152 376h64M16 377h24M152 377h64M16 378h24M152 378h64M16 379h24M152 379h64M16 380h24M152 380h64M16 381h24M152 381h64M16 382h24M152 382h64M16 383h24M152 383h64M24 384h24M144 384h48M24 385h24M144 385h48M24 386h24M144 386h48M24 387h24M144 387h48M24 388h24M144 388h48M24 389h24M144 389h48M24 390h24M144 390h48M24 391h24M144 391h48M32 392h24M120 392h56M32 393h24M120 393h56M32 394h24M120 394h56M32 395h24M120 395h56M32 396h24M120 396h56M32 397h24M120 397h56M32 398h24M120 398h56M32 399h24M120 399h56M48 400h112M48 401h112M48 402h112M48 403h112M48 404h112M48 405h112M48 406h112M48 407h112M56 408h80M56 409h80M56 410h80M56 411h80M56 412h80M56 413h80M56 414h80M56 415h80" />
<path stroke="#f77a2d" d="M312 88h16M312 89h16M312 90h16M312 91h16M312 92h16M312 93h16M312 94h16M312 95h16M304 96h24M304 97h24M304 98h24M304 99h24M304 100h24M304 101h24M304 102h24M304 103h24M208 104h8M296 104h24M208 105h8M296 105h24M208 106h8M296 106h24M208 107h8M296 107h24M208 108h8M296 108h24M208 109h8M296 109h24M208 110h8M296 110h24M208 111h8M296 111h24M200 112h16M296 112h16M200 113h16M296 113h16M200 114h16M296 114h16M200 115h16M296 115h16M200 116h16M296 116h16M200 117h16M296 117h16M200 118h16M296 118h16M200 119h16M296 119h16M200 120h8M288 120h8M200 121h8M288 121h8M200 122h8M288 122h8M200 123h8M288 123h8M200 124h8M288 124h8M200 125h8M288 125h8M200 126h8M288 126h8M200 127h8M288 127h8M192 128h24M280 128h8M192 129h24M280 129h8M192 130h24M280 130h8M192 131h24M280 131h8M192 132h24M280 132h8M192 133h24M280 133h8M192 134h24M280 134h8M192 135h24M280 135h8M192 136h8M208 136h8M192 137h8M208 137h8M192 138h8M208 138h8M192 139h8M208 139h8M192 140h8M208 140h8M192 141h8M208 141h8M192 142h8M208 142h8M192 143h8M208 143h8M184 144h8M200 144h24M184 145h8M200 145h24M184 146h8M200 146h24M184 147h8M200 147h24M184 148h8M200 148h24M184 149h8M200 149h24M184 150h8M200 150h24M184 151h8M200 151h24M184 152h56M184 153h56M184 154h56M184 155h56M184 156h56M184 157h56M184 158h56M184 159h56M176 160h16M200 160h48M176 161h16M200 161h48M176 162h16M200 162h48M176 163h16M200 163h48M176 164h16M200 164h48M176 165h16M200 165h48M176 166h16M200 166h48M176 167h16M200 167h48M176 168h8M192 168h40M240 168h24M304 168h8M176 169h8M192 169h40M240 169h24M304 169h8M176 170h8M192 170h40M240 170h24M304 170h8M176 171h8M192 171h40M240 171h24M304 171h8M176 172h8M192 172h40M240 172h24M304 172h8M176 173h8M192 173h40M240 173h24M304 173h8M176 174h8M192 174h40M240 174h24M304 174h8M176 175h8M192 175h40M240 175h24M304 175h8M168 176h16M224 176h24M256 176h16M168 177h16M224 177h24M256 177h16M168 178h16M224 178h24M256 178h16M168 179h16M224 179h24M256 179h16M168 180h16M224 180h24M256 180h16M168 181h16M224 181h24M256 181h16M168 182h16M224 182h24M256 182h16M168 183h16M224 183h24M256 183h16M160 184h16M232 184h40M160 185h16M232 185h40M160 186h16M232 186h40M160 187h16M232 187h40M160 188h16M232 188h40M160 189h16M232 189h40M160 190h16M232 190h40M160 191h16M232 191h40M152 192h16M240 192h24M272 192h8M152 193h16M240 193h24M272 193h8M152 194h16M240 194h24M272 194h8M152 195h16M240 195h24M272 195h8M152 196h16M240 196h24M272 196h8M152 197h16M240 197h24M272 197h8M152 198h16M240 198h24M272 198h8M152 199h16M240 199h24M272 199h8M144 200h16M240 200h8M256 200h24M144 201h16M240 201h8M256 201h24M144 202h16M240 202h8M256 202h24M144 203h16M240 203h8M256 203h24M144 204h16M240 204h8M256 204h24M144 205h16M240 205h8M256 205h24M144 206h16M240 206h8M256 206h24M144 207h16M240 207h8M256 207h24M112 208h40M240 208h24M112 209h40M240 209h24M112 210h40M240 210h24M112 211h40M240 211h24M112 212h40M240 212h24M112 213h40M240 213h24M112 214h40M240 214h24M112 215h40M240 215h24M72 216h72M232 216h16M72 217h72M232 217h16M72 218h72M232 218h16M72 219h72M232 219h16M72 220h72M232 220h16M72 221h72M232 221h16M72 222h72M232 222h16M72 223h72M232 223h16M64 224h40M232 224h8M64 225h40M232 225h8M64 226h40M232 226h8M64 227h40M232 227h8M64 228h40M232 228h8M64 229h40M232 229h8M64 230h40M232 230h8M64 231h40M232 231h8M56 232h32M232 232h8M56 233h32M232 233h8M56 234h32M232 234h8M56 235h32M232 235h8M56 236h32M232 236h8M56 237h32M232 237h8M56 238h32M232 238h8M56 239h32M232 239h8M48 240h32M232 240h8M48 241h32M232 241h8M48 242h32M232 242h8M48 243h32M232 243h8M48 244h32M232 244h8M48 245h32M232 245h8M48 246h32M232 246h8M48 247h32M232 247h8M40 248h32M232 248h24M40 249h32M232 249h24M40 250h32M232 250h24M40 251h32M232 251h24M40 252h32M232 252h24M40 253h32M232 253h24M40 254h32M232 254h24M40 255h32M232 255h24M32 256h32M232 256h24M32 257h32M232 257h24M32 258h32M232 258h24M32 259h32M232 259h24M32 260h32M232 260h24M32 261h32M232 261h24M32 262h32M232 262h24M32 263h32M232 263h24M24 264h32M208 264h40M24 265h32M208 265h40M24 266h32M208 266h40M24 267h32M208 267h40M24 268h32M208 268h40M24 269h32M208 269h40M24 270h32M208 270h40M24 271h32M208 271h40M24 272h16M200 272h24M232 272h8M24 273h16M200 273h24M232 273h8M24 274h16M200 274h24M232 274h8M24 275h16M200 275h24M232 275h8M24 276h16M200 276h24M232 276h8M24 277h16M200 277h24M232 277h8M24 278h16M200 278h24M232 278h8M24 279h16M200 279h24M232 279h8M24 280h16M192 280h24M24 281h16M192 281h24M24 282h16M192 282h24M24 283h16M192 283h24M24 284h16M192 284h24M24 285h16M192 285h24M24 286h16M192 286h24M24 287h16M192 287h24M16 288h16M192 288h24M16 289h16M192 289h24M16 290h16M192 290h24M16 291h16M192 291h24M16 292h16M192 292h24M16 293h16M192 293h24M16 294h16M192 294h24M16 295h16M192 295h24M16 296h16M192 296h24M16 297h16M192 297h24M16 298h16M192 298h24M16 299h16M192 299h24M16 300h16M192 300h24M16 301h16M192 301h24M16 302h16M192 302h24M16 303h16M192 303h24M16 304h16M192 304h16M16 305h16M192 305h16M16 306h16M192 306h16M16 307h16M192 307h16M16 308h16M192 308h16M16 309h16M192 309h16M16 310h16M192 310h16M16 311h16M192 311h16M16 312h16M192 312h8M16 313h16M192 313h8M16 314h16M192 314h8M16 315h16M192 315h8M16 316h16M192 316h8M16 317h16M192 317h8M16 318h16M192 318h8M16 319h16M192 319h8M16 320h16M184 320h16M16 321h16M184 321h16M16 322h16M184 322h16M16 323h16M184 323h16M16 324h16M184 324h16M16 325h16M184 325h16M16 326h16M184 326h16M16 327h16M184 327h16M16 328h16M176 328h16M16 329h16M176 329h16M16 330h16M176 330h16M16 331h16M176 331h16M16 332h16M176 332h16M16 333h16M176 333h16M16 334h16M176 334h16M16 335h16M176 335h16M16 336h16M168 336h24M16 337h16M168 337h24M16 338h16M168 338h24M16 339h16M168 339h24M16 340h16M168 340h24M16 341h16M168 341h24M16 342h16M168 342h24M16 343h16M168 343h24M16 344h16M160 344h40M16 345h16M160 345h40M16 346h16M160 346h40M16 347h16M160 347h40M16 348h16M160 348h40M16 349h16M160 349h40M16 350h16M160 350h40M16 351h16M160 351h40M16 352h24M152 352h48M16 353h24M152 353h48M16 354h24M152 354h48M16 355h24M152 355h48M16 356h24M152 356h48M16 357h24M152 357h48M16 358h24M152 358h48M16 359h24M152 359h48M24 360h16M144 360h32M24 361h16M144 361h32M24 362h16M144 362h32M24 363h16M144 363h32M24 364h16M144 364h32M24 365h16M144 365h32M24 366h16M144 366h32M24 367h16M144 367h32M32 368h24M136 368h32M32 369h24M136 369h32M32 370h24M136 370h32M32 371h24M136 371h32M32 372h24M136 372h32M32 373h24M136 373h32M32 374h24M136 374h32M32 375h24M136 375h32M40 376h24M128 376h24M40 377h24M128 377h24M40 378h24M128 378h24M40 379h24M128 379h24M40 380h24M128 380h24M40 381h24M128 381h24M40 382h24M128 382h24M40 383h24M128 383h24M48 384h96M48 385h96M48 386h96M48 387h96M48 388h96M48 389h96M48 390h96M48 391h96M56 392h64M56 393h64M56 394h64M56 395h64M56 396h64M56 397h64M56 398h64M56 399h64" />
<path stroke="#fff8d9" d="M200 136h8M200 137h8M200 138h8M200 139h8M200 140h8M200 141h8M200 142h8M200 143h8M192 144h8M192 145h8M192 146h8M192 147h8M192 148h8M192 149h8M192 150h8M192 151h8M192 160h8M192 161h8M192 162h8M192 163h8M192 164h8M192 165h8M192 166h8M192 167h8M184 168h8M184 169h8M184 170h8M184 171h8M184 172h8M184 173h8M184 174h8M184 175h8M184 176h8M184 177h8M184 178h8M184 179h8M184 180h8M184 181h8M184 182h8M184 183h8M176 184h16M272 184h8M176 185h16M272 185h8M176 186h16M272 186h8M176 187h16M272 187h8M176 188h16M272 188h8M176 189h16M272 189h8M176 190h16M272 190h8M176 191h16M272 191h8M168 192h16M264 192h8M168 193h16M264 193h8M168 194h16M264 194h8M168 195h16M264 195h8M168 196h16M264 196h8M168 197h16M264 197h8M168 198h16M264 198h8M168 199h16M264 199h8M160 200h16M248 200h8M160 201h16M248 201h8M160 202h16M248 202h8M160 203h16M248 203h8M160 204h16M248 204h8M160 205h16M248 205h8M160 206h16M248 206h8M160 207h16M248 207h8M152 208h16M232 208h8M152 209h16M232 209h8M152 210h16M232 210h8M152 211h16M232 211h8M152 212h16M232 212h8M152 213h16M232 213h8M152 214h16M232 214h8M152 215h16M232 215h8M144 216h16M224 216h8M144 217h16M224 217h8M144 218h16M224 218h8M144 219h16M224 219h8M144 220h16M224 220h8M144 221h16M224 221h8M144 222h16M224 222h8M144 223h16M224 223h8M104 224h48M224 224h8M104 225h48M224 225h8M104 226h48M224 226h8M104 227h48M224 227h8M104 228h48M224 228h8M104 229h48M224 229h8M104 230h48M224 230h8M104 231h48M224 231h8M88 232h32M224 232h8M88 233h32M224 233h8M88 234h32M224 234h8M88 235h32M224 235h8M88 236h32M224 236h8M88 237h32M224 237h8M88 238h32M224 238h8M88 239h32M224 239h8M80 240h24M216 240h16M80 241h24M216 241h16M80 242h24M216 242h16M80 243h24M216 243h16M80 244h24M216 244h16M80 245h24M216 245h16M80 246h24M216 246h16M80 247h24M216 247h16M72 248h16M216 248h16M72 249h16M216 249h16M72 250h16M216 250h16M72 251h16M216 251h16M72 252h16M216 252h16M72 253h16M216 253h16M72 254h16M216 254h16M72 255h16M216 255h16M64 256h8M192 256h40M64 257h8M192 257h40M64 258h8M192 258h40M64 259h8M192 259h40M64 260h8M192 260h40M64 261h8M192 261h40M64 262h8M192 262h40M64 263h8M192 263h40M56 264h8M192 264h16M56 265h8M192 265h16M56 266h8M192 266h16M56 267h8M192 267h16M56 268h8M192 268h16M56 269h8M192 269h16M56 270h8M192 270h16M56 271h8M192 271h16M40 272h24M184 272h16M40 273h24M184 273h16M40 274h24M184 274h16M40 275h24M184 275h16M40 276h24M184 276h16M40 277h24M184 277h16M40 278h24M184 278h16M40 279h24M184 279h16M40 280h16M184 280h8M40 281h16M184 281h8M40 282h16M184 282h8M40 283h16M184 283h8M40 284h16M184 284h8M40 285h16M184 285h8M40 286h16M184 286h8M40 287h16M184 287h8M32 288h16M184 288h8M32 289h16M184 289h8M32 290h16M184 290h8M32 291h16M184 291h8M32 292h16M184 292h8M32 293h16M184 293h8M32 294h16M184 294h8M32 295h16M184 295h8M32 296h16M184 296h8M32 297h16M184 297h8M32 298h16M184 298h8M32 299h16M184 299h8M32 300h16M184 300h8M32 301h16M184 301h8M32 302h16M184 302h8M32 303h16M184 303h8M32 304h16M184 304h8M32 305h16M184 305h8M32 306h16M184 306h8M32 307h16M184 307h8M32 308h16M184 308h8M32 309h16M184 309h8M32 310h16M184 310h8M32 311h16M184 311h8M32 312h16M176 312h16M32 313h16M176 313h16M32 314h16M176 314h16M32 315h16M176 315h16M32 316h16M176 316h16M32 317h16M176 317h16M32 318h16M176 318h16M32 319h16M176 319h16M32 320h16M168 320h16M32 321h16M168 321h16M32 322h16M168 322h16M32 323h16M168 323h16M32 324h16M168 324h16M32 325h16M168 325h16M32 326h16M168 326h16M32 327h16M168 327h16M32 328h16M168 328h8M32 329h16M168 329h8M32 330h16M168 330h8M32 331h16M168 331h8M32 332h16M168 332h8M32 333h16M168 333h8M32 334h16M168 334h8M32 335h16M168 335h8M32 336h16M160 336h8M32 337h16M160 337h8M32 338h16M160 338h8M32 339h16M160 339h8M32 340h16M160 340h8M32 341h16M160 341h8M32 342h16M160 342h8M32 343h16M160 343h8M32 344h16M152 344h8M32 345h16M152 345h8M32 346h16M152 346h8M32 347h16M152 347h8M32 348h16M152 348h8M32 349h16M152 349h8M32 350h16M152 350h8M32 351h16M152 351h8M40 352h16M144 352h8M40 353h16M144 353h8M40 354h16M144 354h8M40 355h16M144 355h8M40 356h16M144 356h8M40 357h16M144 357h8M40 358h16M144 358h8M40 359h16M144 359h8M40 360h24M128 360h16M40 361h24M128 361h16M40 362h24M128 362h16M40 363h24M128 363h16M40 364h24M128 364h16M40 365h24M128 365h16M40 366h24M128 366h16M40 367h24M128 367h16M56 368h80M56 369h80M56 370h80M56 371h80M56 372h80M56 373h80M56 374h80M56 375h80M64 376h64M64 377h64M64 378h64M64 379h64M64 380h64M64 381h64M64 382h64M64 383h64" />
<path stroke="#ffd268" d="M248 160h8M248 161h8M248 162h8M248 163h8M248 164h8M248 165h8M248 166h8M248 167h8M232 168h8M232 169h8M232 170h8M232 171h8M232 172h8M232 173h8M232 174h8M232 175h8M192 176h32M248 176h8M192 177h32M248 177h8M192 178h32M248 178h8M192 179h32M248 179h8M192 180h32M248 180h8M192 181h32M248 181h8M192 182h32M248 182h8M192 183h32M248 183h8M192 184h40M192 185h40M192 186h40M192 187h40M192 188h40M192 189h40M192 190h40M192 191h40M184 192h56M184 193h56M184 194h56M184 195h56M184 196h56M184 197h56M184 198h56M184 199h56M176 200h64M176 201h64M176 202h64M176 203h64M176 204h64M176 205h64M176 206h64M176 207h64M168 208h64M168 209h64M168 210h64M168 211h64M168 212h64M168 213h64M168 214h64M168 215h64M160 216h64M160 217h64M160 218h64M160 219h64M160 220h64M160 221h64M160 222h64M160 223h64M152 224h72M152 225h72M152 226h72M152 227h72M152 228h72M152 229h72M152 230h72M152 231h72M120 232h104M120 233h104M120 234h104M120 235h104M120 236h104M120 237h104M120 238h104M120 239h104M104 240h112M104 241h112M104 242h112M104 243h112M104 244h112M104 245h112M104 246h112M104 247h112M88 248h128M88 249h128M88 250h128M88 251h128M88 252h128M88 253h128M88 254h128M88 255h128M72 256h120M72 257h120M72 258h120M72 259h120M72 260h120M72 261h120M72 262h120M72 263h120M64 264h128M64 265h128M64 266h128M64 267h128M64 268h128M64 269h128M64 270h128M64 271h128M64 272h120M64 273h120M64 274h120M64 275h120M64 276h120M64 277h120M64 278h120M64 279h120M56 280h128M56 281h128M56 282h128M56 283h128M56 284h128M56 285h128M56 286h128M56 287h128M48 288h136M48 289h136M48 290h136M48 291h136M48 292h136M48 293h136M48 294h136M48 295h136M48 296h136M48 297h136M48 298h136M48 299h136M48 300h136M48 301h136M48 302h136M48 303h136M48 304h136M48 305h136M48 306h136M48 307h136M48 308h136M48 309h136M48 310h136M48 311h136M48 312h128M48 313h128M48 314h128M48 315h128M48 316h128M48 317h128M48 318h128M48 319h128M48 320h120M48 321h120M48 322h120M48 323h120M48 324h120M48 325h120M48 326h120M48 327h120M48 328h120M48 329h120M48 330h120M48 331h120M48 332h120M48 333h120M48 334h120M48 335h120M48 336h112M48 337h112M48 338h112M48 339h112M48 340h112M48 341h112M48 342h112M48 343h112M48 344h104M48 345h104M48 346h104M48 347h104M48 348h104M48 349h104M48 350h104M48 351h104M56 352h88M56 353h88M56 354h88M56 355h88M56 356h88M56 357h88M56 358h88M56 359h88M64 360h64M64 361h64M64 362h64M64 363h64M64 364h64M64 365h64M64 366h64M64 367h64" />
</svg>