<svg xmlns="http://www.w3.org/2000/svg" viewBox="0 -0.5 440 448" shape-rendering="crispEdges">
<metadata>Made with Pixels to Svg https://codepen.io/shshaw/pen/XbxvNj</metadata>
<path stroke="#8ba425" d="M200 0h8M200 1h8M200 2h8M200 3h8M200 4h8M200 5h8M200 6h8M200 7h8M192 16h16M192 17h16M192 18h16M192 19h16M192 20h16M192 21h16M192 22h16M192 23h16M184 24h24M184 25h24M184 26h24M184 27h24M184 28h24M184 29h24M184 30h24M184 31h24M176 32h16M176 33h16M176 34h16M176 35h16M176 36h16M176 37h16M176 38h16M176 39h16M208 40h8M208 41h8M208 42h8M208 43h8M208 44h8M208 45h8M208 46h8M208 47h8M128 48h16M160 48h24M128 49h16M160 49h24M128 50h16M160 50h24M128 51h16M160 51h24M128 52h16M160 52h24M128 53h16M160 53h24M128 54h16M160 54h24M128 55h16M160 55h24M128 56h56M200 56h16M128 57h56M200 57h16M128 58h56M200 58h16M128 59h56M200 59h16M128 60h56M200 60h16M128 61h56M200 61h16M128 62h56M200 62h16M128 63h56M200 63h16M120 64h104M120 65h104M120 66h104M120 67h104M120 68h104M120 69h104M120 70h104M120 71h104M136 72h24M168 72h56M136 73h24M168 73h56M136 74h24M168 74h56M136 75h24M168 75h56M136 76h24M168 76h56M136 77h24M168 77h56M136 78h24M168 78h56M136 79h24M168 79h56M152 80h8M184 80h40M152 81h8M184 81h40M152 82h8M184 82h40M152 83h8M184 83h40M152 84h8M184 84h40M152 85h8M184 85h40M152 86h8M184 86h40M152 87h8M184 87h40M192 88h32M192 89h32M192 90h32M192 91h32M192 92h32M192 93h32M192 94h32M192 95h32M200 96h16M200 97h16M200 98h16M200 99h16M200 100h16M200 101h16M200 102h16M200 103h16M192 104h24M192 105h24M192 106h24M192 107h24M192 108h24M192 109h24M192 110h24M192 111h24" />
<path stroke="#788d21" d="M72 8h8M72 9h8M72 10h8M72 11h8M72 12h8M72 13h8M72 14h8M72 15h8M72 16h8M72 17h8M72 18h8M72 19h8M72 20h8M72 21h8M72 22h8M72 23h8M64 24h16M64 25h16M64 26h16M64 27h16M64 28h16M64 29h16M64 30h16M64 31h16M64 32h16M88 32h8M192 32h8M64 33h16M88 33h8M192 33h8M64 34h16M88 34h8M192 34h8M64 35h16M88 35h8M192 35h8M64 36h16M88 36h8M192 36h8M64 37h16M88 37h8M192 37h8M64 38h16M88 38h8M192 38h8M64 39h16M88 39h8M192 39h8M64 40h8M184 40h8M64 41h8M184 41h8M64 42h8M184 42h8M64 43h8M184 43h8M64 44h8M184 44h8M64 45h8M184 45h8M64 46h8M184 46h8M64 47h8M184 47h8M64 48h8M64 49h8M64 50h8M64 51h8M64 52h8M64 53h8M64 54h8M64 55h8M64 56h16M184 56h8M64 57h16M184 57h8M64 58h16M184 58h8M64 59h16M184 59h8M64 60h16M184 60h8M64 61h16M184 61h8M64 62h16M184 62h8M64 63h16M184 63h8M56 64h16M56 65h16M56 66h16M56 67h16M56 68h16M56 69h16M56 70h16M56 71h16M48 72h8M48 73h8M48 74h8M48 75h8M48 76h8M48 77h8M48 78h8M48 79h8M48 80h8M48 81h8M48 82h8M48 83h8M48 84h8M48 85h8M48 86h8M48 87h8M224 120h16M224 121h16M224 122h16M224 123h16M224 124h16M224 125h16M224 126h16M224 127h16M216 128h8M232 128h16M216 129h8M232 129h16M216 130h8M232 130h16M216 131h8M232 131h16M216 132h8M232 132h16M216 133h8M232 133h16M216 134h8M232 134h16M216 135h8M232 135h16M248 136h24M248 137h24M248 138h24M248 139h24M248 140h24M248 141h24M248 142h24M248 143h24M112 176h24M152 176h8M184 176h8M112 177h24M152 177h8M184 177h8M112 178h24M152 178h8M184 178h8M112 179h24M152 179h8M184 179h8M112 180h24M152 180h8M184 180h8M112 181h24M152 181h8M184 181h8M112 182h24M152 182h8M184 182h8M112 183h24M152 183h8M184 183h8M120 184h40M200 184h16M120 185h40M200 185h16M120 186h40M200 186h16M120 187h40M200 187h16M120 188h40M200 188h16M120 189h40M200 189h16M120 190h40M200 190h16M120 191h40M200 191h16M56 192h16M168 192h8M184 192h8M208 192h8M56 193h16M168 193h8M184 193h8M208 193h8M56 194h16M168 194h8M184 194h8M208 194h8M56 195h16M168 195h8M184 195h8M208 195h8M56 196h16M168 196h8M184 196h8M208 196h8M56 197h16M168 197h8M184 197h8M208 197h8M56 198h16M168 198h8M184 198h8M208 198h8M56 199h16M168 199h8M184 199h8M208 199h8M40 200h16M64 200h16M144 200h8M184 200h8M208 200h16M40 201h16M64 201h16M144 201h8M184 201h8M208 201h16M40 202h16M64 202h16M144 202h8M184 202h8M208 202h16M40 203h16M64 203h16M144 203h8M184 203h8M208 203h16M40 204h16M64 204h16M144 204h8M184 204h8M208 204h16M40 205h16M64 205h16M144 205h8M184 205h8M208 205h16M40 206h16M64 206h16M144 206h8M184 206h8M208 206h16M40 207h16M64 207h16M144 207h8M184 207h8M208 207h16M40 208h16M64 208h16M224 208h16M40 209h16M64 209h16M224 209h16M40 210h16M64 210h16M224 210h16M40 211h16M64 211h16M224 211h16M40 212h16M64 212h16M224 212h16M40 213h16M64 213h16M224 213h16M40 214h16M64 214h16M224 214h16M40 215h16M64 215h16M224 215h16M32 216h16M56 216h24M240 216h8M32 217h16M56 217h24M240 217h8M32 218h16M56 218h24M240 218h8M32 219h16M56 219h24M240 219h8M32 220h16M56 220h24M240 220h8M32 221h16M56 221h24M240 221h8M32 222h16M56 222h24M240 222h8M32 223h16M56 223h24M240 223h8M32 224h48M248 224h8M32 225h48M248 225h8M32 226h48M248 226h8M32 227h48M248 227h8M32 228h48M248 228h8M32 229h48M248 229h8M32 230h48M248 230h8M32 231h48M248 231h8M24 232h16M48 232h16M256 232h40M24 233h16M48 233h16M256 233h40M24 234h16M48 234h16M256 234h40M24 235h16M48 235h16M256 235h40M24 236h16M48 236h16M256 236h40M24 237h16M48 237h16M256 237h40M24 238h16M48 238h16M256 238h40M24 239h16M48 239h16M256 239h40M16 240h16M272 240h32M16 241h16M272 241h32M16 242h16M272 242h32M16 243h16M272 243h32M16 244h16M272 244h32M16 245h16M272 245h32M16 246h16M272 246h32M16 247h16M272 247h32M16 248h16M40 248h8M280 248h32M16 249h16M40 249h8M280 249h32M16 250h16M40 250h8M280 250h32M16 251h16M40 251h8M280 251h32M16 252h16M40 252h8M280 252h32M16 253h16M40 253h8M280 253h32M16 254h16M40 254h8M280 254h32M16 255h16M40 255h8M280 255h32M16 256h8M32 256h16M288 256h32M16 257h8M32 257h16M288 257h32M16 258h8M32 258h16M288 258h32M16 259h8M32 259h16M288 259h32M16 260h8M32 260h16M288 260h32M16 261h8M32 261h16M288 261h32M16 262h8M32 262h16M288 262h32M16 263h8M32 263h16M288 263h32M8 264h16M32 264h8M296 264h32M8 265h16M32 265h8M296 265h32M8 266h16M32 266h8M296 266h32M8 267h16M32 267h8M296 267h32M8 268h16M32 268h8M296 268h32M8 269h16M32 269h8M296 269h32M8 270h16M32 270h8M296 270h32M8 271h16M32 271h8M296 271h32M8 272h8M304 272h24M8 273h8M304 273h24M8 274h8M304 274h24M8 275h8M304 275h24M8 276h8M304 276h24M8 277h8M304 277h24M8 278h8M304 278h24M8 279h8M304 279h24M8 280h8M312 280h16M8 281h8M312 281h16M8 282h8M312 282h16M8 283h8M312 283h16M8 284h8M312 284h16M8 285h8M312 285h16M8 286h8M312 286h16M8 287h8M312 287h16M0 288h16M0 289h16M0 290h16M0 291h16M0 292h16M0 293h16M0 294h16M0 295h16M0 296h8M0 297h8M0 298h8M0 299h8M0 300h8M0 301h8M0 302h8M0 303h8M0 304h16M0 305h16M0 306h16M0 307h16M0 308h16M0 309h16M0 310h16M0 311h16M0 312h8M0 313h8M0 314h8M0 315h8M0 316h8M0 317h8M0 318h8M0 319h8M72 336h16M192 336h16M72 337h16M192 337h16M72 338h16M192 338h16M72 339h16M192 339h16M72 340h16M192 340h16M72 341h16M192 341h16M72 342h16M192 342h16M72 343h16M192 343h16M72 344h48M168 344h40M72 345h48M168 345h40M72 346h48M168 346h40M72 347h48M168 347h40M72 348h48M168 348h40M72 349h48M168 349h40M72 350h48M168 350h40M72 351h48M168 351h40M72 352h48M128 352h8M168 352h40M72 353h48M128 353h8M168 353h40M72 354h48M128 354h8M168 354h40M72 355h48M128 355h8M168 355h40M72 356h48M128 356h8M168 356h40M72 357h48M128 357h8M168 357h40M72 358h48M128 358h8M168 358h40M72 359h48M128 359h8M168 359h40M64 360h40M176 360h32M64 361h40M176 361h32M64 362h40M176 362h32M64 363h40M176 363h32M64 364h40M176 364h32M64 365h40M176 365h32M64 366h40M176 366h32M64 367h40M176 367h32M64 368h32M176 368h32M64 369h32M176 369h32M64 370h32M176 370h32M64 371h32M176 371h32M64 372h32M176 372h32M64 373h32M176 373h32M64 374h32M176 374h32M64 375h32M176 375h32M64 376h24M184 376h32M64 377h24M184 377h32M64 378h24M184 378h32M64 379h24M184 379h32M64 380h24M184 380h32M64 381h24M184 381h32M64 382h24M184 382h32M64 383h24M184 383h32M56 384h32M184 384h32M56 385h32M184 385h32M56 386h32M184 386h32M56 387h32M184 387h32M56 388h32M184 388h32M56 389h32M184 389h32M56 390h32M184 390h32M56 391h32M184 391h32M56 392h16M192 392h32M56 393h16M192 393h32M56 394h16M192 394h32M56 395h16M192 395h32M56 396h16M192 396h32M56 397h16M192 397h32M56 398h16M192 398h32M56 399h16M192 399h32M56 400h8M192 400h32M56 401h8M192 401h32M56 402h8M192 402h32M56 403h8M192 403h32M56 404h8M192 404h32M56 405h8M192 405h32M56 406h8M192 406h32M56 407h8M192 407h32M48 408h8M192 408h32M48 409h8M192 409h32M48 410h8M192 410h32M48 411h8M192 411h32M48 412h8M192 412h32M48 413h8M192 413h32M48 414h8M192 414h32M48 415h8M192 415h32M48 416h8M200 416h24M48 417h8M200 417h24M48 418h8M200 418h24M48 419h8M200 419h24M48 420h8M200 420h24M48 421h8M200 421h24M48 422h8M200 422h24M48 423h8M200 423h24M48 424h8M208 424h16M48 425h8M208 425h16M48 426h8M208 426h16M48 427h8M208 427h16M48 428h8M208 428h16M48 429h8M208 429h16M48 430h8M208 430h16M48 431h8M208 431h16M40 432h8M216 432h8M40 433h8M216 433h8M40 434h8M216 434h8M40 435h8M216 435h8M40 436h8M216 436h8M40 437h8M216 437h8M40 438h8M216 438h8M40 439h8M216 439h8M40 440h8M216 440h16M40 441h8M216 441h16M40 442h8M216 442h16M40 443h8M216 443h16M40 444h8M216 444h16M40 445h8M216 445h16M40 446h8M216 446h16M40 447h8M216 447h16" />
<path stroke="#93ad27" d="M80 8h8M200 8h16M80 9h8M200 9h16M80 10h8M200 10h16M80 11h8M200 11h16M80 12h8M200 12h16M80 13h8M200 13h16M80 14h8M200 14h16M80 15h8M200 15h16M80 16h24M208 16h8M80 17h24M208 17h8M80 18h24M208 18h8M80 19h24M208 19h8M80 20h24M208 20h8M80 21h24M208 21h8M80 22h24M208 22h8M80 23h24M208 23h8M88 24h16M208 24h8M88 25h16M208 25h8M88 26h16M208 26h8M88 27h16M208 27h8M88 28h16M208 28h8M88 29h16M208 29h8M88 30h16M208 30h8M88 31h16M208 31h8M216 32h8M216 33h8M216 34h8M216 35h8M216 36h8M216 37h8M216 38h8M216 39h8M216 40h8M216 41h8M216 42h8M216 43h8M216 44h8M216 45h8M216 46h8M216 47h8M216 48h8M216 49h8M216 50h8M216 51h8M216 52h8M216 53h8M216 54h8M216 55h8" />
<path stroke="#596918" d="M80 24h8M80 25h8M80 26h8M80 27h8M80 28h8M80 29h8M80 30h8M80 31h8M80 32h8M200 32h8M80 33h8M200 33h8M80 34h8M200 34h8M80 35h8M200 35h8M80 36h8M200 36h8M80 37h8M200 37h8M80 38h8M200 38h8M80 39h8M200 39h8M72 40h32M192 40h16M72 41h32M192 41h16M72 42h32M192 42h16M72 43h32M192 43h16M72 44h32M192 44h16M72 45h32M192 45h16M72 46h32M192 46h16M72 47h32M192 47h16M72 48h24M184 48h24M72 49h24M184 49h24M72 50h24M184 50h24M72 51h24M184 51h24M72 52h24M184 52h24M72 53h24M184 53h24M72 54h24M184 54h24M72 55h24M184 55h24M192 56h8M192 57h8M192 58h8M192 59h8M192 60h8M192 61h8M192 62h8M192 63h8" />
<path stroke="#95af29" d="M176 24h8M176 25h8M176 26h8M176 27h8M176 28h8M176 29h8M176 30h8M176 31h8M96 32h8M208 32h8M96 33h8M208 33h8M96 34h8M208 34h8M96 35h8M208 35h8M96 36h8M208 36h8M96 37h8M208 37h8M96 38h8M208 38h8M96 39h8M208 39h8M104 40h16M160 40h24M104 41h16M160 41h24M104 42h16M160 42h24M104 43h16M160 43h24M104 44h16M160 44h24M104 45h16M160 45h24M104 46h16M160 46h24M104 47h16M160 47h24M208 48h8M208 49h8M208 50h8M208 51h8M208 52h8M208 53h8M208 54h8M208 55h8M216 56h8M216 57h8M216 58h8M216 59h8M216 60h8M216 61h8M216 62h8M216 63h8M224 88h8M224 89h8M224 90h8M224 91h8M224 92h8M224 93h8M224 94h8M224 95h8M224 96h32M224 97h32M224 98h32M224 99h32M224 100h32M224 101h32M224 102h32M224 103h32M232 104h40M232 105h40M232 106h40M232 107h40M232 108h40M232 109h40M232 110h40M232 111h40M256 112h16M256 113h16M256 114h16M256 115h16M256 116h16M256 117h16M256 118h16M256 119h16M264 120h16M264 121h16M264 122h16M264 123h16M264 124h16M264 125h16M264 126h16M264 127h16M264 128h16M264 129h16M264 130h16M264 131h16M264 132h16M264 133h16M264 134h16M264 135h16" />
<path stroke="#819722" d="M96 48h8M96 49h8M96 50h8M96 51h8M96 52h8M96 53h8M96 54h8M96 55h8M80 56h24M80 57h24M80 58h24M80 59h24M80 60h24M80 61h24M80 62h24M80 63h24M80 64h16M80 65h16M80 66h16M80 67h16M80 68h16M80 69h16M80 70h16M80 71h16M80 72h40M80 73h40M80 74h40M80 75h40M80 76h40M80 77h40M80 78h40M80 79h40M88 80h16M112 80h24M88 81h16M112 81h24M88 82h16M112 82h24M88 83h16M112 83h24M88 84h16M112 84h24M88 85h16M112 85h24M88 86h16M112 86h24M88 87h16M112 87h24M88 88h16M112 88h32M88 89h16M112 89h32M88 90h16M112 90h32M88 91h16M112 91h32M88 92h16M112 92h32M88 93h16M112 93h32M88 94h16M112 94h32M88 95h16M112 95h32M96 96h8M112 96h32M96 97h8M112 97h32M96 98h8M112 98h32M96 99h8M112 99h32M96 100h8M112 100h32M96 101h8M112 101h32M96 102h8M112 102h32M96 103h8M112 103h32M104 104h40M104 105h40M104 106h40M104 107h40M104 108h40M104 109h40M104 110h40M104 111h40M112 112h40M112 113h40M112 114h40M112 115h40M112 116h40M112 117h40M112 118h40M112 119h40M120 120h40M120 121h40M120 122h40M120 123h40M120 124h40M120 125h40M120 126h40M120 127h40M128 128h40M128 129h40M128 130h40M128 131h40M128 132h40M128 133h40M128 134h40M128 135h40M128 136h40M128 137h40M128 138h40M128 139h40M128 140h40M128 141h40M128 142h40M128 143h40M136 144h40M136 145h40M136 146h40M136 147h40M136 148h40M136 149h40M136 150h40M136 151h40M144 152h56M144 153h56M144 154h56M144 155h56M144 156h56M144 157h56M144 158h56M144 159h56M168 160h16M200 160h8M168 161h16M200 161h8M168 162h16M200 162h8M168 163h16M200 163h8M168 164h16M200 164h8M168 165h16M200 165h8M168 166h16M200 166h8M168 167h16M200 167h8" />
<path stroke="#879f24" d="M104 48h24M104 49h24M104 50h24M104 51h24M104 52h24M104 53h24M104 54h24M104 55h24M104 56h24M104 57h24M104 58h24M104 59h24M104 60h24M104 61h24M104 62h24M104 63h24M96 64h24M96 65h24M96 66h24M96 67h24M96 68h24M96 69h24M96 70h24M96 71h24M120 72h16M160 72h8M120 73h16M160 73h8M120 74h16M160 74h8M120 75h16M160 75h8M120 76h16M160 76h8M120 77h16M160 77h8M120 78h16M160 78h8M120 79h16M160 79h8M136 80h16M160 80h8M176 80h8M136 81h16M160 81h8M176 81h8M136 82h16M160 82h8M176 82h8M136 83h16M160 83h8M176 83h8M136 84h16M160 84h8M176 84h8M136 85h16M160 85h8M176 85h8M136 86h16M160 86h8M176 86h8M136 87h16M160 87h8M176 87h8M144 88h24M176 88h16M144 89h24M176 89h16M144 90h24M176 90h16M144 91h24M176 91h16M144 92h24M176 92h16M144 93h24M176 93h16M144 94h24M176 94h16M144 95h24M176 95h16M144 96h24M176 96h24M216 96h8M144 97h24M176 97h24M216 97h8M144 98h24M176 98h24M216 98h8M144 99h24M176 99h24M216 99h8M144 100h24M176 100h24M216 100h8M144 101h24M176 101h24M216 101h8M144 102h24M176 102h24M216 102h8M144 103h24M176 103h24M216 103h8M144 104h48M216 104h8M144 105h48M216 105h8M144 106h48M216 106h8M144 107h48M216 107h8M144 108h48M216 108h8M144 109h48M216 109h8M144 110h48M216 110h8M144 111h48M216 111h8M152 112h72M152 113h72M152 114h72M152 115h72M152 116h72M152 117h72M152 118h72M152 119h72M160 120h64M160 121h64M160 122h64M160 123h64M160 124h64M160 125h64M160 126h64M160 127h64M168 128h48M168 129h48M168 130h48M168 131h48M168 132h48M168 133h48M168 134h48M168 135h48M168 136h56M168 137h56M168 138h56M168 139h56M168 140h56M168 141h56M168 142h56M168 143h56M176 144h48M176 145h48M176 146h48M176 147h48M176 148h48M176 149h48M176 150h48M176 151h48M200 152h16M200 153h16M200 154h16M200 155h16M200 156h16M200 157h16M200 158h16M200 159h16" />
<path stroke="#7a9021" d="M72 64h8M72 65h8M72 66h8M72 67h8M72 68h8M72 69h8M72 70h8M72 71h8M224 144h8M224 145h8M224 146h8M224 147h8M224 148h8M224 149h8M224 150h8M224 151h8M216 152h16M216 153h16M216 154h16M216 155h16M216 156h16M216 157h16M216 158h16M216 159h16M112 160h8M144 160h24M184 160h16M112 161h8M144 161h24M184 161h16M112 162h8M144 162h24M184 162h16M112 163h8M144 163h24M184 163h16M112 164h8M144 164h24M184 164h16M112 165h8M144 165h24M184 165h16M112 166h8M144 166h24M184 166h16M112 167h8M144 167h24M184 167h16M120 168h8M152 168h56M120 169h8M152 169h56M120 170h8M152 170h56M120 171h8M152 171h56M120 172h8M152 172h56M120 173h8M152 173h56M120 174h8M152 174h56M120 175h8M152 175h56M136 176h8M160 176h24M192 176h8M136 177h8M160 177h24M192 177h8M136 178h8M160 178h24M192 178h8M136 179h8M160 179h24M192 179h8M136 180h8M160 180h24M192 180h8M136 181h8M160 181h24M192 181h8M136 182h8M160 182h24M192 182h8M136 183h8M160 183h24M192 183h8" />
<path stroke="#758a1f" d="M56 72h24M56 73h24M56 74h24M56 75h24M56 76h24M56 77h24M56 78h24M56 79h24M56 80h32M56 81h32M56 82h32M56 83h32M56 84h32M56 85h32M56 86h32M56 87h32M48 88h40M48 89h40M48 90h40M48 91h40M48 92h40M48 93h40M48 94h40M48 95h40M56 96h40M56 97h40M56 98h40M56 99h40M56 100h40M56 101h40M56 102h40M56 103h40M72 104h32M72 105h32M72 106h32M72 107h32M72 108h32M72 109h32M72 110h32M72 111h32M80 112h32M80 113h32M80 114h32M80 115h32M80 116h32M80 117h32M80 118h32M80 119h32M80 120h40M80 121h40M80 122h40M80 123h40M80 124h40M80 125h40M80 126h40M80 127h40M88 128h40M88 129h40M88 130h40M88 131h40M88 132h40M88 133h40M88 134h40M88 135h40M96 136h32M96 137h32M96 138h32M96 139h32M96 140h32M96 141h32M96 142h32M96 143h32M96 144h40M96 145h40M96 146h40M96 147h40M96 148h40M96 149h40M96 150h40M96 151h40M104 152h40M104 153h40M104 154h40M104 155h40M104 156h40M104 157h40M104 158h40M104 159h40M120 160h24M120 161h24M120 162h24M120 163h24M120 164h24M120 165h24M120 166h24M120 167h24M104 168h16M128 168h24M104 169h16M128 169h24M104 170h16M128 170h24M104 171h16M128 171h24M104 172h16M128 172h24M104 173h16M128 173h24M104 174h16M128 174h24M104 175h16M128 175h24M144 176h8M144 177h8M144 178h8M144 179h8M144 180h8M144 181h8M144 182h8M144 183h8" />
<path stroke="#540e11" d="M104 80h8M168 80h8M104 81h8M168 81h8M104 82h8M168 82h8M104 83h8M168 83h8M104 84h8M168 84h8M104 85h8M168 85h8M104 86h8M168 86h8M104 87h8M168 87h8M104 88h8M168 88h8M104 89h8M168 89h8M104 90h8M168 90h8M104 91h8M168 91h8M104 92h8M168 92h8M104 93h8M168 93h8M104 94h8M168 94h8M104 95h8M168 95h8M104 96h8M168 96h8M104 97h8M168 97h8M104 98h8M168 98h8M104 99h8M168 99h8M104 100h8M168 100h8M104 101h8M168 101h8M104 102h8M168 102h8M104 103h8M168 103h8M104 296h8M104 297h8M104 298h8M104 299h8M104 300h8M104 301h8M104 302h8M104 303h8M80 304h8M120 304h8M136 304h8M192 304h8M216 304h16M80 305h8M120 305h8M136 305h8M192 305h8M216 305h16M80 306h8M120 306h8M136 306h8M192 306h8M216 306h16M80 307h8M120 307h8M136 307h8M192 307h8M216 307h16M80 308h8M120 308h8M136 308h8M192 308h8M216 308h16M80 309h8M120 309h8M136 309h8M192 309h8M216 309h16M80 310h8M120 310h8M136 310h8M192 310h8M216 310h16M80 311h8M120 311h8M136 311h8M192 311h8M216 311h16M64 312h8M96 312h8M152 312h8M176 312h8M64 313h8M96 313h8M152 313h8M176 313h8M64 314h8M96 314h8M152 314h8M176 314h8M64 315h8M96 315h8M152 315h8M176 315h8M64 316h8M96 316h8M152 316h8M176 316h8M64 317h8M96 317h8M152 317h8M176 317h8M64 318h8M96 318h8M152 318h8M176 318h8M64 319h8M96 319h8M152 319h8M176 319h8M64 320h8M88 320h8M104 320h16M136 320h8M160 320h8M192 320h8M208 320h16M64 321h8M88 321h8M104 321h16M136 321h8M160 321h8M192 321h8M208 321h16M64 322h8M88 322h8M104 322h16M136 322h8M160 322h8M192 322h8M208 322h16M64 323h8M88 323h8M104 323h16M136 323h8M160 323h8M192 323h8M208 323h16M64 324h8M88 324h8M104 324h16M136 324h8M160 324h8M192 324h8M208 324h16M64 325h8M88 325h8M104 325h16M136 325h8M160 325h8M192 325h8M208 325h16M64 326h8M88 326h8M104 326h16M136 326h8M160 326h8M192 326h8M208 326h16M64 327h8M88 327h8M104 327h16M136 327h8M160 327h8M192 327h8M208 327h16M72 328h24M168 328h8M184 328h8M72 329h24M168 329h8M184 329h8M72 330h24M168 330h8M184 330h8M72 331h24M168 331h8M184 331h8M72 332h24M168 332h8M184 332h8M72 333h24M168 333h8M184 333h8M72 334h24M168 334h8M184 334h8M72 335h24M168 335h8M184 335h8M96 336h8M120 336h8M144 336h8M160 336h8M96 337h8M120 337h8M144 337h8M160 337h8M96 338h8M120 338h8M144 338h8M160 338h8M96 339h8M120 339h8M144 339h8M160 339h8M96 340h8M120 340h8M144 340h8M160 340h8M96 341h8M120 341h8M144 341h8M160 341h8M96 342h8M120 342h8M144 342h8M160 342h8M96 343h8M120 343h8M144 343h8M160 343h8M144 352h8M144 353h8M144 354h8M144 355h8M144 356h8M144 357h8M144 358h8M144 359h8" />
<path stroke="#64761a" d="M40 96h16M40 97h16M40 98h16M40 99h16M40 100h16M40 101h16M40 102h16M40 103h16M40 104h16M40 105h16M40 106h16M40 107h16M40 108h16M40 109h16M40 110h16M40 111h16M48 112h8M48 113h8M48 114h8M48 115h8M48 116h8M48 117h8M48 118h8M48 119h8M48 120h16M48 121h16M48 122h16M48 123h16M48 124h16M48 125h16M48 126h16M48 127h16M48 128h16M48 129h16M48 130h16M48 131h16M48 132h16M48 133h16M48 134h16M48 135h16M48 136h16M48 137h16M48 138h16M48 139h16M48 140h16M48 141h16M48 142h16M48 143h16M48 144h24M48 145h24M48 146h24M48 147h24M48 148h24M48 149h24M48 150h24M48 151h24M48 152h24M48 153h24M48 154h24M48 155h24M48 156h24M48 157h24M48 158h24M48 159h24M48 160h32M48 161h32M48 162h32M48 163h32M48 164h32M48 165h32M48 166h32M48 167h32M56 168h32M56 169h32M56 170h32M56 171h32M56 172h32M56 173h32M56 174h32M56 175h32M80 176h8M104 176h8M80 177h8M104 177h8M80 178h8M104 178h8M80 179h8M104 179h8M80 180h8M104 180h8M80 181h8M104 181h8M80 182h8M104 182h8M80 183h8M104 183h8M88 184h8M104 184h8M88 185h8M104 185h8M88 186h8M104 186h8M88 187h8M104 187h8M88 188h8M104 188h8M88 189h8M104 189h8M88 190h8M104 190h8M88 191h8M104 191h8M88 192h24M88 193h24M88 194h24M88 195h24M88 196h24M88 197h24M88 198h24M88 199h24M96 200h16M96 201h16M96 202h16M96 203h16M96 204h16M96 205h16M96 206h16M96 207h16M80 208h8M112 208h8M80 209h8M112 209h8M80 210h8M112 210h8M80 211h8M112 211h8M80 212h8M112 212h8M80 213h8M112 213h8M80 214h8M112 214h8M80 215h8M112 215h8M80 216h24M80 217h24M80 218h24M80 219h24M80 220h24M80 221h24M80 222h24M80 223h24M80 224h32M80 225h32M80 226h32M80 227h32M80 228h32M80 229h32M80 230h32M80 231h32M80 232h40M80 233h40M80 234h40M80 235h40M80 236h40M80 237h40M80 238h40M80 239h40M96 240h40M96 241h40M96 242h40M96 243h40M96 244h40M96 245h40M96 246h40M96 247h40M96 248h40M96 249h40M96 250h40M96 251h40M96 252h40M96 253h40M96 254h40M96 255h40M96 256h32M96 257h32M96 258h32M96 259h32M96 260h32M96 261h32M96 262h32M96 263h32M104 264h8M104 265h8M104 266h8M104 267h8M104 268h8M104 269h8M104 270h8M104 271h8M120 272h32M120 273h32M120 274h32M120 275h32M120 276h32M120 277h32M120 278h32M120 279h32M120 280h32M120 281h32M120 282h32M120 283h32M120 284h32M120 285h32M120 286h32M120 287h32M144 288h16M144 289h16M144 290h16M144 291h16M144 292h16M144 293h16M144 294h16M144 295h16M144 296h16M144 297h16M144 298h16M144 299h16M144 300h16M144 301h16M144 302h16M144 303h16" />
<path stroke="#6b7e1c" d="M56 104h16M56 105h16M56 106h16M56 107h16M56 108h16M56 109h16M56 110h16M56 111h16M56 112h24M56 113h24M56 114h24M56 115h24M56 116h24M56 117h24M56 118h24M56 119h24M64 120h16M64 121h16M64 122h16M64 123h16M64 124h16M64 125h16M64 126h16M64 127h16M64 128h24M64 129h24M64 130h24M64 131h24M64 132h24M64 133h24M64 134h24M64 135h24M64 136h32M64 137h32M64 138h32M64 139h32M64 140h32M64 141h32M64 142h32M64 143h32M72 144h24M72 145h24M72 146h24M72 147h24M72 148h24M72 149h24M72 150h24M72 151h24M72 152h32M72 153h32M72 154h32M72 155h32M72 156h32M72 157h32M72 158h32M72 159h32M80 160h32M80 161h32M80 162h32M80 163h32M80 164h32M80 165h32M80 166h32M80 167h32M88 168h16M88 169h16M88 170h16M88 171h16M88 172h16M88 173h16M88 174h16M88 175h16M88 176h16M88 177h16M88 178h16M88 179h16M88 180h16M88 181h16M88 182h16M88 183h16M96 184h8M96 185h8M96 186h8M96 187h8M96 188h8M96 189h8M96 190h8M96 191h8" />
<path stroke="#7f9521" d="M224 104h8M224 105h8M224 106h8M224 107h8M224 108h8M224 109h8M224 110h8M224 111h8M224 112h32M224 113h32M224 114h32M224 115h32M224 116h32M224 117h32M224 118h32M224 119h32M240 120h24M240 121h24M240 122h24M240 123h24M240 124h24M240 125h24M240 126h24M240 127h24M248 128h16M248 129h16M248 130h16M248 131h16M248 132h16M248 133h16M248 134h16M248 135h16M152 200h32M152 201h32M152 202h32M152 203h32M152 204h32M152 205h32M152 206h32M152 207h32M144 208h32M144 209h32M144 210h32M144 211h32M144 212h32M144 213h32M144 214h32M144 215h32M144 216h32M144 217h32M144 218h32M144 219h32M144 220h32M144 221h32M144 222h32M144 223h32M160 224h16M160 225h16M160 226h16M160 227h16M160 228h16M160 229h16M160 230h16M160 231h16M168 232h8M168 233h8M168 234h8M168 235h8M168 236h8M168 237h8M168 238h8M168 239h8M192 296h8M192 297h8M192 298h8M192 299h8M192 300h8M192 301h8M192 302h8M192 303h8" />
<path stroke="#117c82" d="M424 104h16M424 105h16M424 106h16M424 107h16M424 108h16M424 109h16M424 110h16M424 111h16M408 112h24M408 113h24M408 114h24M408 115h24M408 116h24M408 117h24M408 118h24M408 119h24M400 120h24M400 121h24M400 122h24M400 123h24M400 124h24M400 125h24M400 126h24M400 127h24M392 128h32M392 129h32M392 130h32M392 131h32M392 132h32M392 133h32M392 134h32M392 135h32M384 136h24M384 137h24M384 138h24M384 139h24M384 140h24M384 141h24M384 142h24M384 143h24M376 144h24M376 145h24M376 146h24M376 147h24M376 148h24M376 149h24M376 150h24M376 151h24M368 152h24M368 153h24M368 154h24M368 155h24M368 156h24M368 157h24M368 158h24M368 159h24M360 160h24M360 161h24M360 162h24M360 163h24M360 164h24M360 165h24M360 166h24M360 167h24M352 168h24M352 169h24M352 170h24M352 171h24M352 172h24M352 173h24M352 174h24M352 175h24M344 176h24M344 177h24M344 178h24M344 179h24M344 180h24M344 181h24M344 182h24M344 183h24M336 184h24M336 185h24M336 186h24M336 187h24M336 188h24M336 189h24M336 190h24M336 191h24M328 192h24M328 193h24M328 194h24M328 195h24M328 196h24M328 197h24M328 198h24M328 199h24M320 200h24M320 201h24M320 202h24M320 203h24M320 204h24M320 205h24M320 206h24M320 207h24M312 208h24M312 209h24M312 210h24M312 211h24M312 212h24M312 213h24M312 214h24M312 215h24M304 216h24M304 217h24M304 218h24M304 219h24M304 220h24M304 221h24M304 222h24M304 223h24M304 224h16M304 225h16M304 226h16M304 227h16M304 228h16M304 229h16M304 230h16M304 231h16M312 232h8M312 233h8M312 234h8M312 235h8M312 236h8M312 237h8M312 238h8M312 239h8" />
<path stroke="#07494b" d="M432 112h8M432 113h8M432 114h8M432 115h8M432 116h8M432 117h8M432 118h8M432 119h8M424 120h8M424 121h8M424 122h8M424 123h8M424 124h8M424 125h8M424 126h8M424 127h8M424 128h8M424 129h8M424 130h8M424 131h8M424 132h8M424 133h8M424 134h8M424 135h8M408 136h16M408 137h16M408 138h16M408 139h16M408 140h16M408 141h16M408 142h16M408 143h16M400 144h16M400 145h16M400 146h16M400 147h16M400 148h16M400 149h16M400 150h16M400 151h16M392 152h16M392 153h16M392 154h16M392 155h16M392 156h16M392 157h16M392 158h16M392 159h16M384 160h16M384 161h16M384 162h16M384 163h16M384 164h16M384 165h16M384 166h16M384 167h16M376 168h16M376 169h16M376 170h16M376 171h16M376 172h16M376 173h16M376 174h16M376 175h16M368 176h16M368 177h16M368 178h16M368 179h16M368 180h16M368 181h16M368 182h16M368 183h16M360 184h16M360 185h16M360 186h16M360 187h16M360 188h16M360 189h16M360 190h16M360 191h16M352 192h16M352 193h16M352 194h16M352 195h16M352 196h16M352 197h16M352 198h16M352 199h16M344 200h16M344 201h16M344 202h16M344 203h16M344 204h16M344 205h16M344 206h16M344 207h16M336 208h16M336 209h16M336 210h16M336 211h16M336 212h16M336 213h16M336 214h16M336 215h16M328 216h16M328 217h16M328 218h16M328 219h16M328 220h16M328 221h16M328 222h16M328 223h16M320 224h16M320 225h16M320 226h16M320 227h16M320 228h16M320 229h16M320 230h16M320 231h16M320 232h8M320 233h8M320 234h8M320 235h8M320 236h8M320 237h8M320 238h8M320 239h8" />
<path stroke="#6b7e1d" d="M208 160h16M208 161h16M208 162h16M208 163h16M208 164h16M208 165h16M208 166h16M208 167h16M208 168h16M208 169h16M208 170h16M208 171h16M208 172h16M208 173h16M208 174h16M208 175h16M200 176h16M200 177h16M200 178h16M200 179h16M200 180h16M200 181h16M200 182h16M200 183h16M160 184h40M160 185h40M160 186h40M160 187h40M160 188h40M160 189h40M160 190h40M160 191h40M136 192h32M136 193h32M136 194h32M136 195h32M136 196h32M136 197h32M136 198h32M136 199h32" />
<path stroke="#906014" d="M64 176h16M64 177h16M64 178h16M64 179h16M64 180h16M64 181h16M64 182h16M64 183h16M64 184h24M64 185h24M64 186h24M64 187h24M64 188h24M64 189h24M64 190h24M64 191h24M72 192h16M72 193h16M72 194h16M72 195h16M72 196h16M72 197h16M72 198h16M72 199h16M80 200h16M80 201h16M80 202h16M80 203h16M80 204h16M80 205h16M80 206h16M80 207h16M88 208h24M88 209h24M88 210h24M88 211h24M88 212h24M88 213h24M88 214h24M88 215h24M104 216h16M104 217h16M104 218h16M104 219h16M104 220h16M104 221h16M104 222h16M104 223h16M112 224h16M136 224h24M112 225h16M136 225h24M112 226h16M136 226h24M112 227h16M136 227h24M112 228h16M136 228h24M112 229h16M136 229h24M112 230h16M136 230h24M112 231h16M136 231h24M120 232h48M120 233h48M120 234h48M120 235h48M120 236h48M120 237h48M120 238h48M120 239h48M136 240h32M136 241h32M136 242h32M136 243h32M136 244h32M136 245h32M136 246h32M136 247h32M136 248h32M136 249h32M136 250h32M136 251h32M136 252h32M136 253h32M136 254h32M136 255h32M128 256h48M128 257h48M128 258h48M128 259h48M128 260h48M128 261h48M128 262h48M128 263h48M112 264h72M112 265h72M112 266h72M112 267h72M112 268h72M112 269h72M112 270h72M112 271h72M96 272h24M176 272h24M96 273h24M176 273h24M96 274h24M176 274h24M96 275h24M176 275h24M96 276h24M176 276h24M96 277h24M176 277h24M96 278h24M176 278h24M96 279h24M176 279h24M88 280h24M192 280h16M88 281h24M192 281h16M88 282h24M192 282h16M88 283h24M192 283h16M88 284h24M192 284h16M88 285h24M192 285h16M88 286h24M192 286h16M88 287h24M192 287h16M88 288h8M200 288h16M88 289h8M200 289h16M88 290h8M200 290h16M88 291h8M200 291h16M88 292h8M200 292h16M88 293h8M200 293h16M88 294h8M200 294h16M88 295h8M200 295h16M80 296h16M200 296h24M80 297h16M200 297h24M80 298h16M200 298h24M80 299h16M200 299h24M80 300h16M200 300h24M80 301h16M200 301h24M80 302h16M200 302h24M80 303h16M200 303h24" />
<path stroke="#6c7f1c" d="M112 184h8M112 185h8M112 186h8M112 187h8M112 188h8M112 189h8M112 190h8M112 191h8M112 192h24M112 193h24M112 194h24M112 195h24M112 196h24M112 197h24M112 198h24M112 199h24M112 200h32M112 201h32M112 202h32M112 203h32M112 204h32M112 205h32M112 206h32M112 207h32M120 208h24M120 209h24M120 210h24M120 211h24M120 212h24M120 213h24M120 214h24M120 215h24M120 216h24M120 217h24M120 218h24M120 219h24M120 220h24M120 221h24M120 222h24M120 223h24M128 224h8M128 225h8M128 226h8M128 227h8M128 228h8M128 229h8M128 230h8M128 231h8M168 240h8M168 241h8M168 242h8M168 243h8M168 244h8M168 245h8M168 246h8M168 247h8M168 248h8M168 249h8M168 250h8M168 251h8M168 252h8M168 253h8M168 254h8M168 255h8M152 272h24M152 273h24M152 274h24M152 275h24M152 276h24M152 277h24M152 278h24M152 279h24M152 280h40M152 281h40M152 282h40M152 283h40M152 284h40M152 285h40M152 286h40M152 287h40M160 288h40M160 289h40M160 290h40M160 291h40M160 292h40M160 293h40M160 294h40M160 295h40M160 296h32M160 297h32M160 298h32M160 299h32M160 300h32M160 301h32M160 302h32M160 303h32M168 304h8M168 305h8M168 306h8M168 307h8M168 308h8M168 309h8M168 310h8M168 311h8" />
<path stroke="#7b9122" d="M216 184h16M216 185h16M216 186h16M216 187h16M216 188h16M216 189h16M216 190h16M216 191h16M216 192h24M216 193h24M216 194h24M216 195h24M216 196h24M216 197h24M216 198h24M216 199h24M56 200h8M224 200h32M56 201h8M224 201h32M56 202h8M224 202h32M56 203h8M224 203h32M56 204h8M224 204h32M56 205h8M224 205h32M56 206h8M224 206h32M56 207h8M224 207h32M56 208h8M240 208h24M56 209h8M240 209h24M56 210h8M240 210h24M56 211h8M240 211h24M56 212h8M240 212h24M56 213h8M240 213h24M56 214h8M240 214h24M56 215h8M240 215h24M48 216h8M248 216h32M48 217h8M248 217h32M48 218h8M248 218h32M48 219h8M248 219h32M48 220h8M248 220h32M48 221h8M248 221h32M48 222h8M248 222h32M48 223h8M248 223h32M256 224h32M256 225h32M256 226h32M256 227h32M256 228h32M256 229h32M256 230h32M256 231h32M40 232h8M40 233h8M40 234h8M40 235h8M40 236h8M40 237h8M40 238h8M40 239h8M32 240h16M32 241h16M32 242h16M32 243h16M32 244h16M32 245h16M32 246h16M32 247h16M32 248h8M32 249h8M32 250h8M32 251h8M32 252h8M32 253h8M32 254h8M32 255h8M24 256h8M24 257h8M24 258h8M24 259h8M24 260h8M24 261h8M24 262h8M24 263h8M24 264h8M24 265h8M24 266h8M24 267h8M24 268h8M24 269h8M24 270h8M24 271h8M16 272h16M16 273h16M16 274h16M16 275h16M16 276h16M16 277h16M16 278h16M16 279h16M16 280h8M16 281h8M16 282h8M16 283h8M16 284h8M16 285h8M16 286h8M16 287h8M16 288h8M16 289h8M16 290h8M16 291h8M16 292h8M16 293h8M16 294h8M16 295h8M8 296h8M8 297h8M8 298h8M8 299h8M8 300h8M8 301h8M8 302h8M8 303h8M208 328h16M208 329h16M208 330h16M208 331h16M208 332h16M208 333h16M208 334h16M208 335h16M208 336h16M208 337h16M208 338h16M208 339h16M208 340h16M208 341h16M208 342h16M208 343h16M208 344h16M208 345h16M208 346h16M208 347h16M208 348h16M208 349h16M208 350h16M208 351h16M120 352h8M208 352h16M120 353h8M208 353h16M120 354h8M208 354h16M120 355h8M208 355h16M120 356h8M208 356h16M120 357h8M208 357h16M120 358h8M208 358h16M120 359h8M208 359h16M104 360h24M208 360h24M104 361h24M208 361h24M104 362h24M208 362h24M104 363h24M208 363h24M104 364h24M208 364h24M104 365h24M208 365h24M104 366h24M208 366h24M104 367h24M208 367h24M96 368h16M208 368h24M96 369h16M208 369h24M96 370h16M208 370h24M96 371h16M208 371h24M96 372h16M208 372h24M96 373h16M208 373h24M96 374h16M208 374h24M96 375h16M208 375h24M88 376h24M216 376h16M88 377h24M216 377h16M88 378h24M216 378h16M88 379h24M216 379h16M88 380h24M216 380h16M88 381h24M216 381h16M88 382h24M216 382h16M88 383h24M216 383h16M88 384h16M216 384h16M88 385h16M216 385h16M88 386h16M216 386h16M88 387h16M216 387h16M88 388h16M216 388h16M88 389h16M216 389h16M88 390h16M216 390h16M88 391h16M216 391h16M72 392h24M224 392h16M72 393h24M224 393h16M72 394h24M224 394h16M72 395h24M224 395h16M72 396h24M224 396h16M72 397h24M224 397h16M72 398h24M224 398h16M72 399h24M224 399h16M64 400h24M224 400h16M64 401h24M224 401h16M64 402h24M224 402h16M64 403h24M224 403h16M64 404h24M224 404h16M64 405h24M224 405h16M64 406h24M224 406h16M64 407h24M224 407h16M56 408h24M224 408h16M56 409h24M224 409h16M56 410h24M224 410h16M56 411h24M224 411h16M56 412h24M224 412h16M56 413h24M224 413h16M56 414h24M224 414h16M56 415h24M224 415h16M56 416h24M224 416h16M56 417h24M224 417h16M56 418h24M224 418h16M56 419h24M224 419h16M56 420h24M224 420h16M56 421h24M224 421h16M56 422h24M224 422h16M56 423h24M224 423h16M56 424h16M224 424h24M56 425h16M224 425h24M56 426h16M224 426h24M56 427h16M224 427h24M56 428h16M224 428h24M56 429h16M224 429h24M56 430h16M224 430h24M56 431h16M224 431h24M48 432h24M224 432h32M48 433h24M224 433h32M48 434h24M224 434h32M48 435h24M224 435h32M48 436h24M224 436h32M48 437h24M224 437h32M48 438h24M224 438h32M48 439h24M224 439h32M48 440h24M232 440h24M48 441h24M232 441h24M48 442h24M232 442h24M48 443h24M232 443h24M48 444h24M232 444h24M48 445h24M232 445h24M48 446h24M232 446h24M48 447h24M232 447h24" />
<path stroke="#859d23" d="M176 192h8M200 192h8M176 193h8M200 193h8M176 194h8M200 194h8M176 195h8M200 195h8M176 196h8M200 196h8M176 197h8M200 197h8M176 198h8M200 198h8M176 199h8M200 199h8M200 200h8M200 201h8M200 202h8M200 203h8M200 204h8M200 205h8M200 206h8M200 207h8M200 208h8M200 209h8M200 210h8M200 211h8M200 212h8M200 213h8M200 214h8M200 215h8M200 216h8M200 217h8M200 218h8M200 219h8M200 220h8M200 221h8M200 222h8M200 223h8M200 224h8M200 225h8M200 226h8M200 227h8M200 228h8M200 229h8M200 230h8M200 231h8M184 232h24M184 233h24M184 234h24M184 235h24M184 236h24M184 237h24M184 238h24M184 239h24M184 240h24M184 241h24M184 242h24M184 243h24M184 244h24M184 245h24M184 246h24M184 247h24M192 248h24M192 249h24M192 250h24M192 251h24M192 252h24M192 253h24M192 254h24M192 255h24M192 256h24M192 257h24M192 258h24M192 259h24M192 260h24M192 261h24M192 262h24M192 263h24M200 264h16M200 265h16M200 266h16M200 267h16M200 268h16M200 269h16M200 270h16M200 271h16M200 272h16M200 273h16M200 274h16M200 275h16M200 276h16M200 277h16M200 278h16M200 279h16M208 280h8M208 281h8M208 282h8M208 283h8M208 284h8M208 285h8M208 286h8M208 287h8" />
<path stroke="#73881e" d="M192 192h8M192 193h8M192 194h8M192 195h8M192 196h8M192 197h8M192 198h8M192 199h8M192 200h8M192 201h8M192 202h8M192 203h8M192 204h8M192 205h8M192 206h8M192 207h8M176 208h24M176 209h24M176 210h24M176 211h24M176 212h24M176 213h24M176 214h24M176 215h24M176 216h24M176 217h24M176 218h24M176 219h24M176 220h24M176 221h24M176 222h24M176 223h24M176 224h24M176 225h24M176 226h24M176 227h24M176 228h24M176 229h24M176 230h24M176 231h24M176 232h8M176 233h8M176 234h8M176 235h8M176 236h8M176 237h8M176 238h8M176 239h8M176 240h8M176 241h8M176 242h8M176 243h8M176 244h8M176 245h8M176 246h8M176 247h8M176 248h16M176 249h16M176 250h16M176 251h16M176 252h16M176 253h16M176 254h16M176 255h16M176 256h16M176 257h16M176 258h16M176 259h16M176 260h16M176 261h16M176 262h16M176 263h16M184 264h16M184 265h16M184 266h16M184 267h16M184 268h16M184 269h16M184 270h16M184 271h16" />
<path stroke="#05344d" d="M272 192h8M272 193h8M272 194h8M272 195h8M272 196h8M272 197h8M272 198h8M272 199h8M272 200h16M272 201h16M272 202h16M272 203h16M272 204h16M272 205h16M272 206h16M272 207h16M280 208h16M280 209h16M280 210h16M280 211h16M280 212h16M280 213h16M280 214h16M280 215h16M288 216h16M288 217h16M288 218h16M288 219h16M288 220h16M288 221h16M288 222h16M288 223h16M296 224h8M296 225h8M296 226h8M296 227h8M296 228h8M296 229h8M296 230h8M296 231h8M296 232h16M296 233h16M296 234h16M296 235h16M296 236h16M296 237h16M296 238h16M296 239h16M304 240h24M304 241h24M304 242h24M304 243h24M304 244h24M304 245h24M304 246h24M304 247h24M320 248h16M320 249h16M320 250h16M320 251h16M320 252h16M320 253h16M320 254h16M320 255h16M328 256h16M328 257h16M328 258h16M328 259h16M328 260h16M328 261h16M328 262h16M328 263h16M336 264h16M336 265h16M336 266h16M336 267h16M336 268h16M336 269h16M336 270h16M336 271h16" />
<path stroke="#65761b" d="M208 208h16M208 209h16M208 210h16M208 211h16M208 212h16M208 213h16M208 214h16M208 215h16M208 216h32M208 217h32M208 218h32M208 219h32M208 220h32M208 221h32M208 222h32M208 223h32M224 224h24M224 225h24M224 226h24M224 227h24M224 228h24M224 229h24M224 230h24M224 231h24M64 232h16M240 232h16M64 233h16M240 233h16M64 234h16M240 234h16M64 235h16M240 235h16M64 236h16M240 236h16M64 237h16M240 237h16M64 238h16M240 238h16M64 239h16M240 239h16M48 240h16M248 240h24M48 241h16M248 241h24M48 242h16M248 242h24M48 243h16M248 243h24M48 244h16M248 244h24M48 245h16M248 245h24M48 246h16M248 246h24M48 247h16M248 247h24M48 248h16M264 248h16M48 249h16M264 249h16M48 250h16M264 250h16M48 251h16M264 251h16M48 252h16M264 252h16M48 253h16M264 253h16M48 254h16M264 254h16M48 255h16M264 255h16M48 256h16M272 256h16M48 257h16M272 257h16M48 258h16M272 258h16M48 259h16M272 259h16M48 260h16M272 260h16M48 261h16M272 261h16M48 262h16M272 262h16M48 263h16M272 263h16M40 264h16M280 264h16M40 265h16M280 265h16M40 266h16M280 266h16M40 267h16M280 267h16M40 268h16M280 268h16M40 269h16M280 269h16M40 270h16M280 270h16M40 271h16M280 271h16M32 272h24M296 272h8M32 273h24M296 273h8M32 274h24M296 274h8M32 275h24M296 275h8M32 276h24M296 276h8M32 277h24M296 277h8M32 278h24M296 278h8M32 279h24M296 279h8M24 280h16M24 281h16M24 282h16M24 283h16M24 284h16M24 285h16M24 286h16M24 287h16M24 288h8M24 289h8M24 290h8M24 291h8M24 292h8M24 293h8M24 294h8M24 295h8M16 296h8M16 297h8M16 298h8M16 299h8M16 300h8M16 301h8M16 302h8M16 303h8" />
<path stroke="#566517" d="M208 224h16M208 225h16M208 226h16M208 227h16M208 228h16M208 229h16M208 230h16M208 231h16M208 232h32M208 233h32M208 234h32M208 235h32M208 236h32M208 237h32M208 238h32M208 239h32M64 240h32M232 240h16M64 241h32M232 241h16M64 242h32M232 242h16M64 243h32M232 243h16M64 244h32M232 244h16M64 245h32M232 245h16M64 246h32M232 246h16M64 247h32M232 247h16M64 248h8M80 248h16M248 248h16M64 249h8M80 249h16M248 249h16M64 250h8M80 250h16M248 250h16M64 251h8M80 251h16M248 251h16M64 252h8M80 252h16M248 252h16M64 253h8M80 253h16M248 253h16M64 254h8M80 254h16M248 254h16M64 255h8M80 255h16M248 255h16M80 256h16M256 256h16M80 257h16M256 257h16M80 258h16M256 258h16M80 259h16M256 259h16M80 260h16M256 260h16M80 261h16M256 261h16M80 262h16M256 262h16M80 263h16M256 263h16M80 264h24M80 265h24M80 266h24M80 267h24M80 268h24M80 269h24M80 270h24M80 271h24M80 272h16M288 272h8M80 273h16M288 273h8M80 274h16M288 274h8M80 275h16M288 275h8M80 276h16M288 276h8M80 277h16M288 277h8M80 278h16M288 278h8M80 279h16M288 279h8M40 280h8M80 280h8M112 280h8M296 280h16M40 281h8M80 281h8M112 281h8M296 281h16M40 282h8M80 282h8M112 282h8M296 282h16M40 283h8M80 283h8M112 283h8M296 283h16M40 284h8M80 284h8M112 284h8M296 284h16M40 285h8M80 285h8M112 285h8M296 285h16M40 286h8M80 286h8M112 286h8M296 286h16M40 287h8M80 287h8M112 287h8M296 287h16M32 288h8M80 288h8M96 288h48M32 289h8M80 289h8M96 289h48M32 290h8M80 290h8M96 290h48M32 291h8M80 291h8M96 291h48M32 292h8M80 292h8M96 292h48M32 293h8M80 293h8M96 293h48M32 294h8M80 294h8M96 294h48M32 295h8M80 295h8M96 295h48M24 296h8M24 297h8M24 298h8M24 299h8M24 300h8M24 301h8M24 302h8M24 303h8M16 304h8M16 305h8M16 306h8M16 307h8M16 308h8M16 309h8M16 310h8M16 311h8M8 312h16M8 313h16M8 314h16M8 315h16M8 316h16M8 317h16M8 318h16M8 319h16M168 360h8M168 361h8M168 362h8M168 363h8M168 364h8M168 365h8M168 366h8M168 367h8" />
<path stroke="#073b44" d="M264 264h16M264 265h16M264 266h16M264 267h16M264 268h16M264 269h16M264 270h16M264 271h16M264 272h24M264 273h24M264 274h24M264 275h24M264 276h24M264 277h24M264 278h24M264 279h24M256 280h32M256 281h32M256 282h32M256 283h32M256 284h32M256 285h32M256 286h32M256 287h32M256 288h16M256 289h16M256 290h16M256 291h16M256 292h16M256 293h16M256 294h16M256 295h16" />
<path stroke="#91171f" d="M96 296h8M112 296h32M96 297h8M112 297h32M96 298h8M112 298h32M96 299h8M112 299h32M96 300h8M112 300h32M96 301h8M112 301h32M96 302h8M112 302h32M96 303h8M112 303h32M72 304h8M88 304h32M128 304h8M144 304h24M176 304h16M200 304h16M72 305h8M88 305h32M128 305h8M144 305h24M176 305h16M200 305h16M72 306h8M88 306h32M128 306h8M144 306h24M176 306h16M200 306h16M72 307h8M88 307h32M128 307h8M144 307h24M176 307h16M200 307h16M72 308h8M88 308h32M128 308h8M144 308h24M176 308h16M200 308h16M72 309h8M88 309h32M128 309h8M144 309h24M176 309h16M200 309h16M72 310h8M88 310h32M128 310h8M144 310h24M176 310h16M200 310h16M72 311h8M88 311h32M128 311h8M144 311h24M176 311h16M200 311h16M72 312h24M104 312h48M160 312h16M184 312h40M72 313h24M104 313h48M160 313h16M184 313h40M72 314h24M104 314h48M160 314h16M184 314h40M72 315h24M104 315h48M160 315h16M184 315h40M72 316h24M104 316h48M160 316h16M184 316h40M72 317h24M104 317h48M160 317h16M184 317h40M72 318h24M104 318h48M160 318h16M184 318h40M72 319h24M104 319h48M160 319h16M184 319h40M72 320h16M96 320h8M120 320h16M144 320h16M168 320h24M200 320h8M72 321h16M96 321h8M120 321h16M144 321h16M168 321h24M200 321h8M72 322h16M96 322h8M120 322h16M144 322h16M168 322h24M200 322h8M72 323h16M96 323h8M120 323h16M144 323h16M168 323h24M200 323h8M72 324h16M96 324h8M120 324h16M144 324h16M168 324h24M200 324h8M72 325h16M96 325h8M120 325h16M144 325h16M168 325h24M200 325h8M72 326h16M96 326h8M120 326h16M144 326h16M168 326h24M200 326h8M72 327h16M96 327h8M120 327h16M144 327h16M168 327h24M200 327h8M96 328h72M176 328h8M192 328h16M96 329h72M176 329h8M192 329h16M96 330h72M176 330h8M192 330h16M96 331h72M176 331h8M192 331h16M96 332h72M176 332h8M192 332h16M96 333h72M176 333h8M192 333h16M96 334h72M176 334h8M192 334h16M96 335h72M176 335h8M192 335h16M88 336h8M104 336h16M128 336h16M152 336h8M168 336h24M88 337h8M104 337h16M128 337h16M152 337h8M168 337h24M88 338h8M104 338h16M128 338h16M152 338h8M168 338h24M88 339h8M104 339h16M128 339h16M152 339h8M168 339h24M88 340h8M104 340h16M128 340h16M152 340h8M168 340h24M88 341h8M104 341h16M128 341h16M152 341h8M168 341h24M88 342h8M104 342h16M128 342h16M152 342h8M168 342h24M88 343h8M104 343h16M128 343h16M152 343h8M168 343h24M120 344h48M120 345h48M120 346h48M120 347h48M120 348h48M120 349h48M120 350h48M120 351h48M136 352h8M152 352h16M136 353h8M152 353h16M136 354h8M152 354h16M136 355h8M152 355h16M136 356h8M152 356h16M136 357h8M152 357h16M136 358h8M152 358h16M136 359h8M152 359h16" />
<path stroke="#61721a" d="M64 328h8M64 329h8M64 330h8M64 331h8M64 332h8M64 333h8M64 334h8M64 335h8M56 336h16M56 337h16M56 338h16M56 339h16M56 340h16M56 341h16M56 342h16M56 343h16M56 344h16M56 345h16M56 346h16M56 347h16M56 348h16M56 349h16M56 350h16M56 351h16M56 352h16M56 353h16M56 354h16M56 355h16M56 356h16M56 357h16M56 358h16M56 359h16M56 360h8M56 361h8M56 362h8M56 363h8M56 364h8M56 365h8M56 366h8M56 367h8M48 368h16M48 369h16M48 370h16M48 371h16M48 372h16M48 373h16M48 374h16M48 375h16M48 376h16M168 376h16M48 377h16M168 377h16M48 378h16M168 378h16M48 379h16M168 379h16M48 380h16M168 380h16M48 381h16M168 381h16M48 382h16M168 382h16M48 383h16M168 383h16M48 384h8M168 384h16M48 385h8M168 385h16M48 386h8M168 386h16M48 387h8M168 387h16M48 388h8M168 388h16M48 389h8M168 389h16M48 390h8M168 390h16M48 391h8M168 391h16M40 392h16M176 392h16M40 393h16M176 393h16M40 394h16M176 394h16M40 395h16M176 395h16M40 396h16M176 396h16M40 397h16M176 397h16M40 398h16M176 398h16M40 399h16M176 399h16M40 400h16M176 400h16M40 401h16M176 401h16M40 402h16M176 402h16M40 403h16M176 403h16M40 404h16M176 404h16M40 405h16M176 405h16M40 406h16M176 406h16M40 407h16M176 407h16M40 408h8M184 408h8M40 409h8M184 409h8M40 410h8M184 410h8M40 411h8M184 411h8M40 412h8M184 412h8M40 413h8M184 413h8M40 414h8M184 414h8M40 415h8M184 415h8M40 416h8M184 416h16M40 417h8M184 417h16M40 418h8M184 418h16M40 419h8M184 419h16M40 420h8M184 420h16M40 421h8M184 421h16M40 422h8M184 422h16M40 423h8M184 423h16M32 424h16M192 424h16M32 425h16M192 425h16M32 426h16M192 426h16M32 427h16M192 427h16M32 428h16M192 428h16M32 429h16M192 429h16M32 430h16M192 430h16M32 431h16M192 431h16M24 432h16M192 432h24M24 433h16M192 433h24M24 434h16M192 434h24M24 435h16M192 435h24M24 436h16M192 436h24M24 437h16M192 437h24M24 438h16M192 438h24M24 439h16M192 439h24M24 440h16M208 440h8M24 441h16M208 441h8M24 442h16M208 442h8M24 443h16M208 443h8M24 444h16M208 444h8M24 445h16M208 445h8M24 446h16M208 446h8M24 447h16M208 447h8" />
<path stroke="#5b6b18" d="M48 360h8M48 361h8M48 362h8M48 363h8M48 364h8M48 365h8M48 366h8M48 367h8M168 368h8M168 369h8M168 370h8M168 371h8M168 372h8M168 373h8M168 374h8M168 375h8" />
</svg>