<svg xmlns="http://www.w3.org/2000/svg" viewBox="0 -0.5 20 17" shape-rendering="crispEdges">
<metadata>Made with Pixels to Svg https://codepen.io/shshaw/pen/XbxvNj</metadata>
<path stroke="#181b1d" d="M4 0h3M13 0h3M2 1h2M7 1h1M12 1h1M16 1h2M1 2h1M8 2h1M11 2h1M18 2h1M0 3h1M9 3h2M19 3h1M0 4h1M19 4h1M0 5h1M19 5h1M0 6h1M19 6h1M1 7h1M18 7h1M1 8h1M18 8h1M2 9h1M17 9h1M3 10h1M16 10h1M4 11h1M15 11h1M5 12h1M14 12h1M6 13h1M13 13h1M7 14h1M12 14h1M8 15h1M11 15h1M9 16h2" />
<path stroke="#ff5158" d="M4 1h1M2 2h1M1 3h1M1 4h1M1 5h1M1 6h1M2 7h1M2 8h1M3 9h1M4 10h1M5 11h1M6 12h1M7 13h1M8 14h1M9 15h1" />
<path stroke="#f42834" d="M5 1h2M13 1h2M3 2h5M12 2h4M2 3h7M11 3h7M2 4h1M5 4h13M2 5h1M4 5h14M2 6h16M3 7h14M3 8h2M6 8h11M4 9h2M7 9h9M5 10h2M8 10h7M6 11h8M7 12h6M8 13h4M9 14h2" />
<path stroke="#cb212b" d="M15 1h1M16 2h2M18 3h1M18 4h1M18 5h1M18 6h1M17 7h1M17 8h1M16 9h1M15 10h1M14 11h1M13 12h1M12 13h1M11 14h1M10 15h1" />
<path stroke="#f9b3b5" d="M3 4h2M3 5h1M5 8h1M6 9h1M7 10h1" />
</svg>