<svg xmlns="http://www.w3.org/2000/svg" viewBox="0 -0.5 20 17" shape-rendering="crispEdges">
<metadata>Made with Pixels to Svg https://codepen.io/shshaw/pen/XbxvNj</metadata>
<path stroke="#181b1d" d="M4 0h3M2 1h2M7 1h1M1 2h1M8 2h1M0 3h1M9 3h1M0 4h1M0 5h1M0 6h1M1 7h1M1 8h1M2 9h1M3 10h1M4 11h1M5 12h1M6 13h1M7 14h1M8 15h1M9 16h1" />
<path stroke="#ff5158" d="M4 1h1M2 2h1M1 3h1M1 4h1M1 5h1M1 6h1M2 7h1M2 8h1M3 9h1M4 10h1M5 11h1M6 12h1M7 13h1M8 14h1M9 15h1" />
<path stroke="#f42834" d="M5 1h2M3 2h5M2 3h7M2 4h1M5 4h5M2 5h1M4 5h6M2 6h8M3 7h7M3 8h2M6 8h4M4 9h2M7 9h3M5 10h2M8 10h2M6 11h4M7 12h3M8 13h2M9 14h1" />
<path stroke="#f9b3b5" d="M3 4h2M3 5h1M5 8h1M6 9h1M7 10h1" />
</svg>