<svg xmlns="http://www.w3.org/2000/svg" viewBox="0 -0.5 96 59" shape-rendering="crispEdges">
<metadata>Made with Pixels to Svg https://codepen.io/shshaw/pen/XbxvNj</metadata>
<path stroke="#181b1d" d="M47 0h2M46 1h1M49 1h1M45 2h1M50 2h1M44 3h1M51 3h1M44 4h1M51 4h1M43 5h1M52 5h1M43 6h1M52 6h1M42 7h1M53 7h1M36 8h7M53 8h7M1 9h1M35 9h1M42 9h1M53 9h1M60 9h1M94 9h1M0 10h1M2 10h1M31 10h4M36 10h1M43 10h1M52 10h1M59 10h1M61 10h4M93 10h1M95 10h1M0 11h1M3 11h1M27 11h4M37 11h1M58 11h1M65 11h4M92 11h1M95 11h1M0 12h1M4 12h1M24 12h3M38 12h1M57 12h1M69 12h3M91 12h1M95 12h1M1 13h1M5 13h1M22 13h2M38 13h1M57 13h1M72 13h2M90 13h1M94 13h1M1 14h1M6 14h6M19 14h3M36 14h2M58 14h2M74 14h3M84 14h6M94 14h1M1 15h1M11 15h1M17 15h2M35 15h1M60 15h1M77 15h2M84 15h1M94 15h1M2 16h1M10 16h1M16 16h1M34 16h1M61 16h1M79 16h1M85 16h1M93 16h1M1 17h1M3 17h1M9 17h1M15 17h1M33 17h1M62 17h1M80 17h1M86 17h1M92 17h1M94 17h1M0 18h1M3 18h1M6 18h3M14 18h1M33 18h1M62 18h1M81 18h1M87 18h3M92 18h1M95 18h1M0 19h1M4 19h1M6 19h1M12 19h2M33 19h1M40 19h2M54 19h2M62 19h1M82 19h2M89 19h1M91 19h1M95 19h1M0 20h1M4 20h1M7 20h3M11 20h1M34 20h1M39 20h1M42 20h1M53 20h1M56 20h1M61 20h1M84 20h1M86 20h3M91 20h1M95 20h1M1 21h2M4 21h1M10 21h1M35 21h1M38 21h1M43 21h1M52 21h1M57 21h1M60 21h1M85 21h1M91 21h1M93 21h2M3 22h2M11 22h2M36 22h2M43 22h1M52 22h1M58 22h2M83 22h2M91 22h2M4 23h1M13 23h1M43 23h1M52 23h1M82 23h1M91 23h1M5 24h1M13 24h1M42 24h1M53 24h1M82 24h1M90 24h1M5 25h1M13 25h1M42 25h1M53 25h1M82 25h1M90 25h1M4 26h2M13 26h1M25 26h1M41 26h1M54 26h1M70 26h1M82 26h1M90 26h2M3 27h1M6 27h1M11 27h2M24 27h1M26 27h1M41 27h1M54 27h1M69 27h1M71 27h1M83 27h2M89 27h1M92 27h1M3 28h1M6 28h1M11 28h1M23 28h1M27 28h1M40 28h1M55 28h1M68 28h1M72 28h1M84 28h1M89 28h1M92 28h1M4 29h1M6 29h1M12 29h1M23 29h1M27 29h1M40 29h1M55 29h1M68 29h1M72 29h1M83 29h1M89 29h1M91 29h1M5 30h1M7 30h1M12 30h1M22 30h1M28 30h1M39 30h1M56 30h1M67 30h1M73 30h1M83 30h1M88 30h1M90 30h1M7 31h1M12 31h1M22 31h1M28 31h1M39 31h1M56 31h1M67 31h1M73 31h1M83 31h1M88 31h1M7 32h1M13 32h1M22 32h1M28 32h1M32 32h7M57 32h7M67 32h1M73 32h1M82 32h1M88 32h1M8 33h1M13 33h1M20 33h12M64 33h12M82 33h1M87 33h1M8 34h1M13 34h7M76 34h7M87 34h1M8 35h1M87 35h1M6 36h2M88 36h2M5 37h1M90 37h1M5 38h1M90 38h1M5 39h1M90 39h1M5 40h1M90 40h1M5 41h1M90 41h1M5 42h1M90 42h1M5 43h1M90 43h1M5 44h1M90 44h1M5 45h1M90 45h1M5 46h1M90 46h1M5 47h1M90 47h1" />
<path stroke="#ffeca6" d="M47 1h2M46 2h1M49 2h1M45 3h1M50 3h1M45 4h1M50 4h1M44 5h1M51 5h1M44 6h1M51 6h1M43 7h1M52 7h1M43 8h1M52 8h1M36 9h6M43 9h1M52 9h1M54 9h6M1 10h1M37 10h1M44 10h1M51 10h1M58 10h1M94 10h1M2 11h1M38 11h1M57 11h1M93 11h1M3 12h1M39 12h1M56 12h1M92 12h1M4 13h1M39 13h1M56 13h1M91 13h1M5 14h1M38 14h1M57 14h1M90 14h1M6 15h5M36 15h2M59 15h1M85 15h5M9 16h1M35 16h1M60 16h1M86 16h1M6 17h3M34 17h1M61 17h1M87 17h3M34 18h1M40 18h2M54 18h2M61 18h1M34 19h1M39 19h1M42 19h1M53 19h1M56 19h1M61 19h1M6 20h1M35 20h1M38 20h1M43 20h1M52 20h1M57 20h1M60 20h1M89 20h1M7 21h3M36 21h2M44 21h1M51 21h1M58 21h2M86 21h3M10 22h1M44 22h1M51 22h1M85 22h1M11 23h2M44 23h1M51 23h1M83 23h2M12 24h1M43 24h1M52 24h1M83 24h1M12 25h1M43 25h1M52 25h1M83 25h1M11 26h2M42 26h1M53 26h1M83 26h2M10 27h1M42 27h1M53 27h1M85 27h1M10 28h1M41 28h1M54 28h1M85 28h1M11 29h1M41 29h1M54 29h1M84 29h1M11 30h1M40 30h1M55 30h1M84 30h1M11 31h1M40 31h1M55 31h1M84 31h1M12 32h1M39 32h1M56 32h1M83 32h1M12 33h1M32 33h32M83 33h1M12 34h1M20 34h12M47 34h2M64 34h12M83 34h1M10 35h11M23 35h2M46 35h1M49 35h1M71 35h2M75 35h11M8 36h2M23 36h2M45 36h1M50 36h1M71 36h2M86 36h2M6 37h2M23 37h2M44 37h1M51 37h1M71 37h2M88 37h2M22 38h1M25 38h1M44 38h1M51 38h1M70 38h1M73 38h1M21 39h1M26 39h1M43 39h1M52 39h1M69 39h1M74 39h1M20 40h1M27 40h1M43 40h1M52 40h1M68 40h1M75 40h1M19 41h1M28 41h1M44 41h1M51 41h1M67 41h1M76 41h1M19 42h1M28 42h1M44 42h1M51 42h1M67 42h1M76 42h1M20 43h1M27 43h1M45 43h1M50 43h1M68 43h1M75 43h1M21 44h1M26 44h1M46 44h1M49 44h1M69 44h1M74 44h1M22 45h1M25 45h1M47 45h2M70 45h1M73 45h1M23 46h2M47 46h2M71 46h2M23 47h2M32 47h32M71 47h2M19 48h13M64 48h13M10 49h9M77 49h9M6 50h4M86 50h4M6 51h1M89 51h1" />
<path stroke="#eb9c53" d="M47 2h2M45 5h1M50 5h1M44 7h1M51 7h1M44 8h1M51 8h1M44 9h1M51 9h1M38 10h4M54 10h4M1 11h1M94 11h1M2 12h1M93 12h1M3 13h1M92 13h1M4 14h1M53 14h1M91 14h1M5 15h1M53 15h1M90 15h1M6 16h3M53 16h1M87 16h3M5 17h1M53 17h1M90 17h1M52 18h1M51 19h1M5 20h1M45 20h2M49 20h2M90 20h1M45 21h1M50 21h1M7 22h3M45 22h1M50 22h1M86 22h3M10 23h1M45 23h1M50 23h1M85 23h1M11 24h1M44 24h1M51 24h1M84 24h1M11 25h1M44 25h1M51 25h1M84 25h1M10 26h1M43 26h1M52 26h1M85 26h1M9 27h1M43 27h1M52 27h1M86 27h1M9 28h1M26 28h1M42 28h1M53 28h1M69 28h1M86 28h1M10 29h1M26 29h1M42 29h1M53 29h1M69 29h1M85 29h1M10 30h1M27 30h1M41 30h1M54 30h1M68 30h1M85 30h1M10 31h1M27 31h1M41 31h1M54 31h1M68 31h1M85 31h1M11 32h1M27 32h1M40 32h1M55 32h1M68 32h1M84 32h1M11 33h1M84 33h1M10 34h2M84 34h2M9 35h1M44 35h1M51 35h1M86 35h1M21 36h1M26 36h1M43 36h1M52 36h1M69 36h1M74 36h1M21 37h1M26 37h1M42 37h1M53 37h1M69 37h1M74 37h1M20 38h1M27 38h1M42 38h1M53 38h1M68 38h1M75 38h1M19 39h1M28 39h1M41 39h1M54 39h1M67 39h1M76 39h1M18 40h1M29 40h1M41 40h1M54 40h1M66 40h1M77 40h1M17 41h1M30 41h1M42 41h1M53 41h1M65 41h1M78 41h1M17 42h1M30 42h1M42 42h1M53 42h1M65 42h1M78 42h1M18 43h1M29 43h1M43 43h1M52 43h1M66 43h1M77 43h1M19 44h1M28 44h1M44 44h1M51 44h1M67 44h1M76 44h1M20 45h1M27 45h1M45 45h1M50 45h1M68 45h1M75 45h1M21 46h1M26 46h1M69 46h1M74 46h1" />
<path stroke="#ffa447" d="M46 3h4M45 8h1M50 8h1M45 9h1M50 9h1M42 10h1M45 10h6M53 10h1M39 11h18M1 12h1M40 12h1M43 12h4M49 12h4M55 12h1M94 12h1M2 13h1M40 13h5M51 13h5M93 13h1M2 14h2M39 14h5M54 14h3M92 14h2M2 15h3M38 15h6M54 15h5M91 15h3M3 16h3M36 16h8M54 16h6M90 16h3M4 17h1M35 17h1M39 17h5M54 17h3M60 17h1M91 17h1M4 18h2M35 18h1M39 18h1M42 18h3M56 18h1M60 18h1M90 18h2M5 19h1M35 19h1M43 19h2M60 19h1M90 19h1M36 20h2M44 20h1M58 20h2M5 21h2M89 21h2M5 22h2M89 22h2M5 23h5M46 23h1M49 23h1M86 23h5M6 24h5M45 24h6M85 24h5M6 25h5M45 25h6M85 25h5M6 26h4M44 26h8M86 26h4M7 27h2M44 27h8M87 27h2M7 28h2M25 28h1M43 28h10M70 28h1M87 28h2M7 29h3M25 29h1M43 29h10M70 29h1M86 29h3M8 30h2M23 30h1M42 30h12M72 30h1M86 30h2M8 31h2M23 31h1M42 31h12M72 31h1M86 31h2M8 32h3M23 32h1M41 32h14M72 32h1M85 32h3M9 33h2M85 33h2M9 34h1M86 34h1M32 35h12M52 35h12M27 36h16M53 36h16M27 37h15M54 37h15M28 38h14M54 38h14M29 39h12M55 39h12M30 40h11M55 40h11M31 41h11M54 41h11M31 42h11M54 42h11M30 43h13M53 43h13M29 44h15M52 44h15M28 45h17M51 45h17M27 46h5M64 46h5" />
<path stroke="#ecbeda" d="M46 4h4M45 6h1M50 6h1M45 7h1M50 7h1M46 9h4" />
<path stroke="#c09ab1" d="M46 5h1M49 5h1M46 8h1M49 8h1" />
<path stroke="#ffcdec" d="M47 5h2M46 6h1M48 6h2M46 7h4M47 8h2" />
<path stroke="#ffdff4" d="M47 6h1" />
<path stroke="#e75a5b" d="M35 10h1M31 11h4M27 12h4M65 12h4M24 13h3M69 13h3M22 14h2M72 14h2M19 15h3M74 15h3M17 16h2M77 16h2M16 17h1M79 17h1M15 18h1M80 18h1M14 19h1M81 19h1M12 20h2M82 20h2M11 21h1M84 21h1" />
<path stroke="#912726" d="M60 10h1M36 11h1M59 11h1M37 12h1M58 12h1M37 13h1M58 13h1M35 14h1M60 14h1M34 15h1M33 16h1M32 17h1M32 18h1M32 19h1M33 20h1M40 20h2M54 20h2M34 21h1M42 21h1M53 21h1M35 22h1M42 22h1M53 22h1M42 23h1M53 23h1M41 24h1M54 24h1M41 25h1M54 25h1M40 26h1M55 26h1M40 27h1M55 27h1M39 28h1M56 28h1M39 29h1M56 29h1M38 30h1M57 30h1M38 31h1M57 31h1" />
<path stroke="#c13433" d="M35 11h1M60 11h5M31 12h6M59 12h6M27 13h10M59 13h10M24 14h11M61 14h11M22 15h12M61 15h13M19 16h14M62 16h15M17 17h10M28 17h4M63 17h5M69 17h10M16 18h10M29 18h3M63 18h4M70 18h10M15 19h9M29 19h3M63 19h4M72 19h9M14 20h8M29 20h4M62 20h5M74 20h8M13 21h8M31 21h3M61 21h4M75 21h8M14 22h6M31 22h4M60 22h3M76 22h6M15 23h5M26 23h2M32 23h4M60 23h3M68 23h2M76 23h5M15 24h3M23 24h6M32 24h3M61 24h2M67 24h6M78 24h3M15 25h3M22 25h9M32 25h3M61 25h3M65 25h9M78 25h3M15 26h2M20 26h4M27 26h7M62 26h7M72 26h4M79 26h2M14 27h3M19 27h4M28 27h6M62 27h6M73 27h4M79 27h3M13 28h4M18 28h4M29 28h4M63 28h4M74 28h4M79 28h4M14 29h8M29 29h4M63 29h4M74 29h8M14 30h7M30 30h2M64 30h2M75 30h7M14 31h7M75 31h7M15 32h6M75 32h6M15 33h5M76 33h5" />
<path stroke="#ffd099" d="M41 12h2M53 12h2M46 21h4M46 22h4M47 23h2M25 27h1M70 27h1M24 28h1M71 28h1M24 29h1M71 29h1" />
<path stroke="#ea524d" d="M47 12h2M45 13h2M49 13h2M44 14h1M51 14h1M44 15h1M51 15h1M44 16h1M51 16h1M38 17h1M44 17h1M51 17h1M59 17h1M45 18h2M49 18h2M36 19h1M47 19h2M57 19h1M26 30h1M71 30h1M24 32h1M69 32h1M23 38h2M71 38h2M22 39h4M70 39h4M21 40h1M25 40h2M69 40h1M73 40h2M20 41h2M25 41h3M68 41h2M73 41h3M20 42h2M26 42h2M68 42h2M74 42h2M21 43h3M26 43h1M69 43h3M74 43h1M22 44h4M70 44h4M23 45h2M71 45h2" />
<path stroke="#f65651" d="M47 13h2M45 14h1M48 14h3M45 15h1M47 15h2M45 16h3M37 17h1M45 17h2M50 17h1M58 17h1M36 18h3M47 18h2M57 18h3M37 19h1M58 19h1M25 30h1M70 30h1M24 31h3M69 31h3M25 32h1M70 32h1" />
<path stroke="#f77672" d="M46 14h2M46 15h1M36 17h1M57 17h1M24 30h1M69 30h1M22 40h3M70 40h3M22 41h3M70 41h3M22 42h3M70 42h3" />
<path stroke="#c4855a" d="M52 14h1M52 15h1M52 16h1M52 17h1M51 18h1M45 19h2M49 19h2M47 20h2M32 34h15M49 34h15M21 35h2M25 35h7M45 35h1M50 35h1M64 35h7M73 35h2M12 36h9M22 36h1M25 36h1M44 36h1M51 36h1M70 36h1M73 36h1M75 36h9M22 37h1M25 37h1M43 37h1M52 37h1M70 37h1M73 37h1M21 38h1M26 38h1M43 38h1M52 38h1M69 38h1M74 38h1M20 39h1M27 39h1M42 39h1M53 39h1M68 39h1M75 39h1M19 40h1M28 40h1M42 40h1M53 40h1M67 40h1M76 40h1M18 41h1M29 41h1M43 41h1M52 41h1M66 41h1M77 41h1M18 42h1M29 42h1M43 42h1M52 42h1M66 42h1M77 42h1M19 43h1M28 43h1M44 43h1M51 43h1M67 43h1M76 43h1M20 44h1M27 44h1M45 44h1M50 44h1M68 44h1M75 44h1M21 45h1M26 45h1M46 45h1M49 45h1M69 45h1M74 45h1M22 46h1M25 46h1M32 46h15M49 46h15M70 46h1M73 46h1M19 47h4M25 47h7M64 47h7M73 47h4M12 48h7M77 48h7" />
<path stroke="#9c3733" d="M49 15h2M48 16h3M47 17h3M38 19h1M59 19h1M4 27h2M90 27h2M4 28h2M90 28h2M5 29h1M90 29h1M26 32h1M71 32h1M25 42h1M73 42h1M24 43h2M72 43h2" />
<path stroke="#efc0dd" d="M2 17h1M93 17h1M1 18h2M93 18h2M1 19h3M92 19h3M1 20h3M92 20h3M3 21h1M92 21h1" />
<path stroke="#d13837" d="M27 17h1M68 17h1M26 18h3M67 18h3M24 19h5M67 19h5M22 20h7M67 20h7M21 21h10M65 21h10M20 22h11M63 22h13M20 23h6M28 23h4M63 23h5M70 23h6M18 24h5M29 24h3M63 24h4M73 24h5M18 25h4M31 25h1M64 25h1M74 25h4M17 26h3M76 26h3M17 27h2M77 27h2M17 28h1M78 28h1" />
<path stroke="#ffcb8e" d="M53 18h1M52 19h1M51 20h1" />
<path stroke="#b42f2f" d="M12 21h1M83 21h1M13 22h1M82 22h1M14 23h1M81 23h1M14 24h1M81 24h1M14 25h1M81 25h1M14 26h1M81 26h1M13 27h1M82 27h1M12 28h1M83 28h1M13 29h1M82 29h1M13 30h1M82 30h1M13 31h1M82 31h1M14 32h1M81 32h1M14 33h1M81 33h1" />
<path stroke="#a32b2b" d="M39 21h3M54 21h3M38 22h4M54 22h4M36 23h6M54 23h6M35 24h6M55 24h6M35 25h6M55 25h6M24 26h1M26 26h1M34 26h6M56 26h6M69 26h1M71 26h1M23 27h1M27 27h1M34 27h6M56 27h6M68 27h1M72 27h1M22 28h1M28 28h1M33 28h6M57 28h6M67 28h1M73 28h1M22 29h1M28 29h1M33 29h6M57 29h6M67 29h1M73 29h1M21 30h1M29 30h1M32 30h6M58 30h6M66 30h1M74 30h1M21 31h1M29 31h9M58 31h9M74 31h1M21 32h1M29 32h3M64 32h3M74 32h1" />
<path stroke="#ffdff1" d="M47 35h2M46 36h4M45 37h6M45 38h1M47 38h4M44 39h5M50 39h2M44 40h4M50 40h2M45 41h2M50 41h1M45 42h6M46 43h4M47 44h2" />
<path stroke="#a9734e" d="M10 36h2M84 36h2M10 48h2M84 48h2" />
<path stroke="#c88137" d="M8 37h2M86 37h2M6 38h3M87 38h3M6 39h3M87 39h3M6 40h3M87 40h3M6 41h3M87 41h3M6 42h3M87 42h3M6 43h3M87 43h3M6 44h3M87 44h3M6 45h3M87 45h3M6 46h3M87 46h3M6 47h3M87 47h3M6 48h3M87 48h3M6 49h4M86 49h4" />
<path stroke="#d68a3b" d="M10 37h2M84 37h2M9 38h3M84 38h3M9 39h3M84 39h3M9 40h3M84 40h3M9 41h3M84 41h3M9 42h3M84 42h3M9 43h3M84 43h3M9 44h3M84 44h3M9 45h3M84 45h3M9 46h3M84 46h3M9 47h3M84 47h3M9 48h1M86 48h1" />
<path stroke="#e2923f" d="M12 37h9M75 37h9M12 38h8M76 38h8M12 39h7M77 39h7M12 40h6M78 40h6M12 41h5M79 41h5M12 42h5M79 42h5M12 43h6M78 43h6M12 44h7M77 44h7M12 45h8M76 45h8M12 46h9M75 46h9M12 47h7M77 47h7" />
<path stroke="#ffeef9" d="M46 38h1" />
<path stroke="#e1aed2" d="M49 39h1M48 40h2M47 41h3" />
<path stroke="#000000" d="M5 48h1M90 48h1M5 49h1M90 49h1M5 50h1M90 50h1M5 51h1M90 51h1" />
<path stroke="#7d4624" d="M32 48h32M19 49h13M64 49h13M10 50h9M77 50h9M7 51h3M86 51h3M6 52h1M89 52h1" />
<path stroke="#ac6c35" d="M32 49h32M19 50h58M10 51h22M64 51h22M7 52h12M77 52h12M6 53h4M86 53h4M7 54h12M77 54h12M10 55h22M64 55h22M19 56h58M32 57h32" />
<path stroke="#3b2911" d="M32 51h32M19 52h58M10 53h76M19 54h58M32 55h32" />
<path stroke="#201609" d="M5 53h1M90 53h1M6 54h1M89 54h1M7 55h3M86 55h3M10 56h9M77 56h9M19 57h13M64 57h13M32 58h32" />
</svg>