<svg xmlns="http://www.w3.org/2000/svg" viewBox="0 -0.5 64 9" shape-rendering="crispEdges">
<metadata>Made with Pixels to Svg https://codepen.io/shshaw/pen/XbxvNj</metadata>
<path stroke="#444444" d="M8 0h4M5 1h4M10 1h1M3 2h3M9 2h1M1 3h3M9 3h2M0 4h2M10 4h2M1 5h3M9 5h2M3 6h3M9 6h1M5 7h4M10 7h1M8 8h4" />
<path stroke="#bcbcbc" d="M51 0h1M53 0h3M57 0h3M61 0h3M49 1h2M52 1h3M56 1h3M60 1h2M47 2h3M51 2h3M55 2h3M59 2h1M55 3h2M58 3h1M55 4h1M57 4h1M55 5h2M58 5h1M47 6h3M51 6h3M55 6h3M59 6h1M49 7h2M52 7h3M56 7h3M60 7h2M51 8h1M53 8h3M57 8h3M61 8h3" />
<path stroke="#8f8f8f" d="M52 0h1M56 0h1M60 0h1M51 1h1M55 1h1M59 1h1M50 2h1M54 2h1M58 2h1M57 3h1M56 4h1M57 5h1M50 6h1M54 6h1M58 6h1M51 7h1M55 7h1M59 7h1M52 8h1M56 8h1M60 8h1" />
<path stroke="#686868" d="M9 1h1M6 2h3M4 3h3M2 4h3M4 5h3M6 6h3M9 7h1" />
<path stroke="#828282" d="M7 3h2M5 4h5M7 5h2" />
<path stroke="#654e3f" d="M11 3h44M12 4h43M11 5h44" />
</svg>