<svg xmlns="http://www.w3.org/2000/svg" viewBox="0 -0.5 216 504" shape-rendering="crispEdges">
<metadata>Made with Pixels to Svg https://codepen.io/shshaw/pen/XbxvNj</metadata>
<path stroke="#000000" d="M104 0h8M104 1h8M104 2h8M104 3h8M104 4h8M104 5h8M104 6h8M104 7h8M104 8h8M104 9h8M104 10h8M104 11h8M104 12h8M104 13h8M104 14h8M104 15h8M96 16h8M112 16h8M96 17h8M112 17h8M96 18h8M112 18h8M96 19h8M112 19h8M96 20h8M112 20h8M96 21h8M112 21h8M96 22h8M112 22h8M96 23h8M112 23h8M96 24h8M112 24h8M96 25h8M112 25h8M96 26h8M112 26h8M96 27h8M112 27h8M96 28h8M112 28h8M96 29h8M112 29h8M96 30h8M112 30h8M96 31h8M112 31h8M96 32h8M112 32h8M96 33h8M112 33h8M96 34h8M112 34h8M96 35h8M112 35h8M96 36h8M112 36h8M96 37h8M112 37h8M96 38h8M112 38h8M96 39h8M112 39h8M88 40h8M120 40h8M88 41h8M120 41h8M88 42h8M120 42h8M88 43h8M120 43h8M88 44h8M120 44h8M88 45h8M120 45h8M88 46h8M120 46h8M88 47h8M120 47h8M88 48h8M120 48h8M88 49h8M120 49h8M88 50h8M120 50h8M88 51h8M120 51h8M88 52h8M120 52h8M88 53h8M120 53h8M88 54h8M120 54h8M88 55h8M120 55h8M88 56h8M120 56h8M88 57h8M120 57h8M88 58h8M120 58h8M88 59h8M120 59h8M88 60h8M120 60h8M88 61h8M120 61h8M88 62h8M120 62h8M88 63h8M120 63h8M88 64h8M120 64h8M88 65h8M120 65h8M88 66h8M120 66h8M88 67h8M120 67h8M88 68h8M120 68h8M88 69h8M120 69h8M88 70h8M120 70h8M88 71h8M120 71h8M80 72h8M128 72h8M80 73h8M128 73h8M80 74h8M128 74h8M80 75h8M128 75h8M80 76h8M128 76h8M80 77h8M128 77h8M80 78h8M128 78h8M80 79h8M128 79h8M80 80h8M128 80h8M80 81h8M128 81h8M80 82h8M128 82h8M80 83h8M128 83h8M80 84h8M128 84h8M80 85h8M128 85h8M80 86h8M128 86h8M80 87h8M128 87h8M80 88h8M128 88h8M80 89h8M128 89h8M80 90h8M128 90h8M80 91h8M128 91h8M80 92h8M128 92h8M80 93h8M128 93h8M80 94h8M128 94h8M80 95h8M128 95h8M80 96h8M128 96h8M80 97h8M128 97h8M80 98h8M128 98h8M80 99h8M128 99h8M80 100h8M128 100h8M80 101h8M128 101h8M80 102h8M128 102h8M80 103h8M128 103h8M72 104h8M136 104h8M72 105h8M136 105h8M72 106h8M136 106h8M72 107h8M136 107h8M72 108h8M136 108h8M72 109h8M136 109h8M72 110h8M136 110h8M72 111h8M136 111h8M72 112h8M136 112h8M72 113h8M136 113h8M72 114h8M136 114h8M72 115h8M136 115h8M72 116h8M136 116h8M72 117h8M136 117h8M72 118h8M136 118h8M72 119h8M136 119h8M72 120h8M136 120h8M72 121h8M136 121h8M72 122h8M136 122h8M72 123h8M136 123h8M72 124h8M136 124h8M72 125h8M136 125h8M72 126h8M136 126h8M72 127h8M136 127h8M72 128h8M136 128h8M72 129h8M136 129h8M72 130h8M136 130h8M72 131h8M136 131h8M72 132h8M136 132h8M72 133h8M136 133h8M72 134h8M136 134h8M72 135h8M136 135h8M72 136h8M136 136h8M72 137h8M136 137h8M72 138h8M136 138h8M72 139h8M136 139h8M72 140h8M136 140h8M72 141h8M136 141h8M72 142h8M136 142h8M72 143h8M136 143h8M64 144h8M80 144h8M128 144h8M144 144h8M64 145h8M80 145h8M128 145h8M144 145h8M64 146h8M80 146h8M128 146h8M144 146h8M64 147h8M80 147h8M128 147h8M144 147h8M64 148h8M80 148h8M128 148h8M144 148h8M64 149h8M80 149h8M128 149h8M144 149h8M64 150h8M80 150h8M128 150h8M144 150h8M64 151h8M80 151h8M128 151h8M144 151h8M64 152h8M88 152h40M144 152h8M64 153h8M88 153h40M144 153h8M64 154h8M88 154h40M144 154h8M64 155h8M88 155h40M144 155h8M64 156h8M88 156h40M144 156h8M64 157h8M88 157h40M144 157h8M64 158h8M88 158h40M144 158h8M64 159h8M88 159h40M144 159h8M64 160h8M144 160h8M64 161h8M144 161h8M64 162h8M144 162h8M64 163h8M144 163h8M64 164h8M144 164h8M64 165h8M144 165h8M64 166h8M144 166h8M64 167h8M144 167h8M64 168h8M144 168h8M64 169h8M144 169h8M64 170h8M144 170h8M64 171h8M144 171h8M64 172h8M144 172h8M64 173h8M144 173h8M64 174h8M144 174h8M64 175h8M144 175h8M64 176h8M144 176h8M64 177h8M144 177h8M64 178h8M144 178h8M64 179h8M144 179h8M64 180h8M144 180h8M64 181h8M144 181h8M64 182h8M144 182h8M64 183h8M144 183h8M56 184h8M152 184h8M56 185h8M152 185h8M56 186h8M152 186h8M56 187h8M152 187h8M56 188h8M152 188h8M56 189h8M152 189h8M56 190h8M152 190h8M56 191h8M152 191h8M48 192h8M160 192h8M48 193h8M160 193h8M48 194h8M160 194h8M48 195h8M160 195h8M48 196h8M160 196h8M48 197h8M160 197h8M48 198h8M160 198h8M48 199h8M160 199h8M48 200h8M160 200h8M48 201h8M160 201h8M48 202h8M160 202h8M48 203h8M160 203h8M48 204h8M160 204h8M48 205h8M160 205h8M48 206h8M160 206h8M48 207h8M160 207h8M48 208h8M160 208h8M48 209h8M160 209h8M48 210h8M160 210h8M48 211h8M160 211h8M48 212h8M160 212h8M48 213h8M160 213h8M48 214h8M160 214h8M48 215h8M160 215h8M48 216h8M160 216h8M48 217h8M160 217h8M48 218h8M160 218h8M48 219h8M160 219h8M48 220h8M160 220h8M48 221h8M160 221h8M48 222h8M160 222h8M48 223h8M160 223h8M48 224h8M160 224h8M48 225h8M160 225h8M48 226h8M160 226h8M48 227h8M160 227h8M48 228h8M160 228h8M48 229h8M160 229h8M48 230h8M160 230h8M48 231h8M160 231h8M48 232h8M160 232h8M48 233h8M160 233h8M48 234h8M160 234h8M48 235h8M160 235h8M48 236h8M160 236h8M48 237h8M160 237h8M48 238h8M160 238h8M48 239h8M160 239h8M48 240h8M160 240h8M48 241h8M160 241h8M48 242h8M160 242h8M48 243h8M160 243h8M48 244h8M160 244h8M48 245h8M160 245h8M48 246h8M160 246h8M48 247h8M160 247h8M48 248h8M160 248h8M48 249h8M160 249h8M48 250h8M160 250h8M48 251h8M160 251h8M48 252h8M160 252h8M48 253h8M160 253h8M48 254h8M160 254h8M48 255h8M160 255h8M48 256h8M160 256h8M48 257h8M160 257h8M48 258h8M160 258h8M48 259h8M160 259h8M48 260h8M160 260h8M48 261h8M160 261h8M48 262h8M160 262h8M48 263h8M160 263h8M48 264h8M160 264h8M48 265h8M160 265h8M48 266h8M160 266h8M48 267h8M160 267h8M48 268h8M160 268h8M48 269h8M160 269h8M48 270h8M160 270h8M48 271h8M160 271h8M48 272h8M160 272h8M48 273h8M160 273h8M48 274h8M160 274h8M48 275h8M160 275h8M48 276h8M160 276h8M48 277h8M160 277h8M48 278h8M160 278h8M48 279h8M160 279h8M48 280h8M160 280h8M48 281h8M160 281h8M48 282h8M160 282h8M48 283h8M160 283h8M48 284h8M160 284h8M48 285h8M160 285h8M48 286h8M160 286h8M48 287h8M160 287h8M48 288h8M160 288h8M48 289h8M160 289h8M48 290h8M160 290h8M48 291h8M160 291h8M48 292h8M160 292h8M48 293h8M160 293h8M48 294h8M160 294h8M48 295h8M160 295h8M48 296h8M160 296h8M48 297h8M160 297h8M48 298h8M160 298h8M48 299h8M160 299h8M48 300h8M160 300h8M48 301h8M160 301h8M48 302h8M160 302h8M48 303h8M160 303h8M48 304h8M160 304h8M48 305h8M160 305h8M48 306h8M160 306h8M48 307h8M160 307h8M48 308h8M160 308h8M48 309h8M160 309h8M48 310h8M160 310h8M48 311h8M160 311h8M48 312h8M160 312h8M48 313h8M160 313h8M48 314h8M160 314h8M48 315h8M160 315h8M48 316h8M160 316h8M48 317h8M160 317h8M48 318h8M160 318h8M48 319h8M160 319h8M48 320h8M160 320h8M48 321h8M160 321h8M48 322h8M160 322h8M48 323h8M160 323h8M48 324h8M160 324h8M48 325h8M160 325h8M48 326h8M160 326h8M48 327h8M160 327h8M48 328h8M160 328h8M48 329h8M160 329h8M48 330h8M160 330h8M48 331h8M160 331h8M48 332h8M160 332h8M48 333h8M160 333h8M48 334h8M160 334h8M48 335h8M160 335h8M48 336h8M160 336h8M48 337h8M160 337h8M48 338h8M160 338h8M48 339h8M160 339h8M48 340h8M160 340h8M48 341h8M160 341h8M48 342h8M160 342h8M48 343h8M160 343h8M48 344h8M160 344h8M48 345h8M160 345h8M48 346h8M160 346h8M48 347h8M160 347h8M48 348h8M160 348h8M48 349h8M160 349h8M48 350h8M160 350h8M48 351h8M160 351h8M48 352h8M160 352h8M48 353h8M160 353h8M48 354h8M160 354h8M48 355h8M160 355h8M48 356h8M160 356h8M48 357h8M160 357h8M48 358h8M160 358h8M48 359h8M160 359h8M48 360h8M160 360h8M48 361h8M160 361h8M48 362h8M160 362h8M48 363h8M160 363h8M48 364h8M160 364h8M48 365h8M160 365h8M48 366h8M160 366h8M48 367h8M160 367h8M48 368h8M160 368h8M48 369h8M160 369h8M48 370h8M160 370h8M48 371h8M160 371h8M48 372h8M160 372h8M48 373h8M160 373h8M48 374h8M160 374h8M48 375h8M160 375h8M48 376h8M160 376h8M48 377h8M160 377h8M48 378h8M160 378h8M48 379h8M160 379h8M48 380h8M160 380h8M48 381h8M160 381h8M48 382h8M160 382h8M48 383h8M160 383h8M48 384h8M160 384h8M48 385h8M160 385h8M48 386h8M160 386h8M48 387h8M160 387h8M48 388h8M160 388h8M48 389h8M160 389h8M48 390h8M160 390h8M48 391h8M160 391h8M48 392h8M160 392h8M48 393h8M160 393h8M48 394h8M160 394h8M48 395h8M160 395h8M48 396h8M160 396h8M48 397h8M160 397h8M48 398h8M160 398h8M48 399h8M160 399h8M48 400h8M160 400h8M48 401h8M160 401h8M48 402h8M160 402h8M48 403h8M160 403h8M48 404h8M160 404h8M48 405h8M160 405h8M48 406h8M160 406h8M48 407h8M160 407h8M48 408h8M160 408h8M48 409h8M160 409h8M48 410h8M160 410h8M48 411h8M160 411h8M48 412h8M160 412h8M48 413h8M160 413h8M48 414h8M160 414h8M48 415h8M160 415h8M48 416h8M160 416h8M48 417h8M160 417h8M48 418h8M160 418h8M48 419h8M160 419h8M48 420h8M160 420h8M48 421h8M160 421h8M48 422h8M160 422h8M48 423h8M160 423h8M56 424h24M136 424h24M56 425h24M136 425h24M56 426h24M136 426h24M56 427h24M136 427h24M56 428h24M136 428h24M56 429h24M136 429h24M56 430h24M136 430h24M56 431h24M136 431h24M80 432h56M80 433h56M80 434h56M80 435h56M80 436h56M80 437h56M80 438h56M80 439h56M48 456h8M160 456h8M48 457h8M160 457h8M48 458h8M160 458h8M48 459h8M160 459h8M48 460h8M160 460h8M48 461h8M160 461h8M48 462h8M160 462h8M48 463h8M160 463h8M48 464h8M160 464h8M48 465h8M160 465h8M48 466h8M160 466h8M48 467h8M160 467h8M48 468h8M160 468h8M48 469h8M160 469h8M48 470h8M160 470h8M48 471h8M160 471h8M48 472h8M160 472h8M48 473h8M160 473h8M48 474h8M160 474h8M48 475h8M160 475h8M48 476h8M160 476h8M48 477h8M160 477h8M48 478h8M160 478h8M48 479h8M160 479h8M48 480h8M160 480h8M48 481h8M160 481h8M48 482h8M160 482h8M48 483h8M160 483h8M48 484h8M160 484h8M48 485h8M160 485h8M48 486h8M160 486h8M48 487h8M160 487h8M48 488h32M136 488h32M48 489h32M136 489h32M48 490h32M136 490h32M48 491h32M136 491h32M48 492h32M136 492h32M48 493h32M136 493h32M48 494h32M136 494h32M48 495h32M136 495h32M80 496h56M80 497h56M80 498h56M80 499h56M80 500h56M80 501h56M80 502h56M80 503h56" />
<path stroke="#fb513f" d="M80 8h8M128 8h8M80 9h8M128 9h8M80 10h8M128 10h8M80 11h8M128 11h8M80 12h8M128 12h8M80 13h8M128 13h8M80 14h8M128 14h8M80 15h8M128 15h8M72 16h8M136 16h8M72 17h8M136 17h8M72 18h8M136 18h8M72 19h8M136 19h8M72 20h8M136 20h8M72 21h8M136 21h8M72 22h8M136 22h8M72 23h8M136 23h8M72 24h8M136 24h8M72 25h8M136 25h8M72 26h8M136 26h8M72 27h8M136 27h8M72 28h8M136 28h8M72 29h8M136 29h8M72 30h8M136 30h8M72 31h8M136 31h8M64 32h8M144 32h8M64 33h8M144 33h8M64 34h8M144 34h8M64 35h8M144 35h8M64 36h8M144 36h8M64 37h8M144 37h8M64 38h8M144 38h8M64 39h8M144 39h8M64 40h8M144 40h8M64 41h8M144 41h8M64 42h8M144 42h8M64 43h8M144 43h8M64 44h8M144 44h8M64 45h8M144 45h8M64 46h8M144 46h8M64 47h8M144 47h8M64 48h8M144 48h8M64 49h8M144 49h8M64 50h8M144 50h8M64 51h8M144 51h8M64 52h8M144 52h8M64 53h8M144 53h8M64 54h8M144 54h8M64 55h8M144 55h8M64 56h8M144 56h8M64 57h8M144 57h8M64 58h8M144 58h8M64 59h8M144 59h8M64 60h8M144 60h8M64 61h8M144 61h8M64 62h8M144 62h8M64 63h8M144 63h8" />
<path stroke="#cfcfcf" d="M104 16h8M104 17h8M104 18h8M104 19h8M104 20h8M104 21h8M104 22h8M104 23h8M104 24h8M104 25h8M104 26h8M104 27h8M104 28h8M104 29h8M104 30h8M104 31h8M104 32h8M104 33h8M104 34h8M104 35h8M104 36h8M104 37h8M104 38h8M104 39h8M104 40h16M104 41h16M104 42h16M104 43h16M104 44h16M104 45h16M104 46h16M104 47h16M104 48h16M104 49h16M104 50h16M104 51h16M104 52h16M104 53h16M104 54h16M104 55h16M104 56h16M104 57h16M104 58h16M104 59h16M104 60h16M104 61h16M104 62h16M104 63h16M104 64h16M104 65h16M104 66h16M104 67h16M104 68h16M104 69h16M104 70h16M104 71h16M104 72h24M104 73h24M104 74h24M104 75h24M104 76h24M104 77h24M104 78h24M104 79h24M104 80h24M104 81h24M104 82h24M104 83h24M104 84h24M104 85h24M104 86h24M104 87h24M104 88h24M104 89h24M104 90h24M104 91h24M104 92h24M104 93h24M104 94h24M104 95h24M104 96h24M104 97h24M104 98h24M104 99h24M104 100h24M104 101h24M104 102h24M104 103h24M104 104h32M104 105h32M104 106h32M104 107h32M104 108h32M104 109h32M104 110h32M104 111h32M104 112h32M104 113h32M104 114h32M104 115h32M104 116h32M104 117h32M104 118h32M104 119h32M104 120h32M104 121h32M104 122h32M104 123h32M104 124h32M104 125h32M104 126h32M104 127h32M104 128h32M104 129h32M104 130h32M104 131h32M104 132h32M104 133h32M104 134h32M104 135h32M104 136h32M104 137h32M104 138h32M104 139h32M104 140h32M104 141h32M104 142h32M104 143h32M104 144h24M136 144h8M104 145h24M136 145h8M104 146h24M136 146h8M104 147h24M136 147h8M104 148h24M136 148h8M104 149h24M136 149h8M104 150h24M136 150h8M104 151h24M136 151h8M128 152h16M128 153h16M128 154h16M128 155h16M128 156h16M128 157h16M128 158h16M128 159h16M104 160h40M104 161h40M104 162h40M104 163h40M104 164h40M104 165h40M104 166h40M104 167h40M104 168h40M104 169h40M104 170h40M104 171h40M104 172h40M104 173h40M104 174h40M104 175h40M104 176h40M104 177h40M104 178h40M104 179h40M104 180h40M104 181h40M104 182h40M104 183h40M104 184h48M104 185h48M104 186h48M104 187h48M104 188h48M104 189h48M104 190h48M104 191h48M104 192h56M104 193h56M104 194h56M104 195h56M104 196h56M104 197h56M104 198h56M104 199h56M104 200h56M104 201h56M104 202h56M104 203h56M104 204h56M104 205h56M104 206h56M104 207h56M104 208h56M104 209h56M104 210h56M104 211h56M104 212h56M104 213h56M104 214h56M104 215h56M104 216h56M104 217h56M104 218h56M104 219h56M104 220h56M104 221h56M104 222h56M104 223h56M104 224h32M144 224h16M104 225h32M144 225h16M104 226h32M144 226h16M104 227h32M144 227h16M104 228h32M144 228h16M104 229h32M144 229h16M104 230h32M144 230h16M104 231h32M144 231h16M104 232h56M104 233h56M104 234h56M104 235h56M104 236h56M104 237h56M104 238h56M104 239h56M104 240h56M104 241h56M104 242h56M104 243h56M104 244h56M104 245h56M104 246h56M104 247h56M104 248h56M104 249h56M104 250h56M104 251h56M104 252h56M104 253h56M104 254h56M104 255h56M104 256h56M104 257h56M104 258h56M104 259h56M104 260h56M104 261h56M104 262h56M104 263h56M104 264h32M144 264h16M104 265h32M144 265h16M104 266h32M144 266h16M104 267h32M144 267h16M104 268h32M144 268h16M104 269h32M144 269h16M104 270h32M144 270h16M104 271h32M144 271h16M104 272h32M144 272h16M104 273h32M144 273h16M104 274h32M144 274h16M104 275h32M144 275h16M104 276h32M144 276h16M104 277h32M144 277h16M104 278h32M144 278h16M104 279h32M144 279h16M104 280h32M144 280h16M104 281h32M144 281h16M104 282h32M144 282h16M104 283h32M144 283h16M104 284h32M144 284h16M104 285h32M144 285h16M104 286h32M144 286h16M104 287h32M144 287h16M104 288h32M144 288h16M104 289h32M144 289h16M104 290h32M144 290h16M104 291h32M144 291h16M104 292h32M144 292h16M104 293h32M144 293h16M104 294h32M144 294h16M104 295h32M144 295h16M104 296h32M144 296h16M104 297h32M144 297h16M104 298h32M144 298h16M104 299h32M144 299h16M104 300h32M144 300h16M104 301h32M144 301h16M104 302h32M144 302h16M104 303h32M144 303h16M104 304h32M144 304h16M104 305h32M144 305h16M104 306h32M144 306h16M104 307h32M144 307h16M104 308h32M144 308h16M104 309h32M144 309h16M104 310h32M144 310h16M104 311h32M144 311h16M104 312h32M144 312h16M104 313h32M144 313h16M104 314h32M144 314h16M104 315h32M144 315h16M104 316h32M144 316h16M104 317h32M144 317h16M104 318h32M144 318h16M104 319h32M144 319h16M104 320h32M144 320h16M104 321h32M144 321h16M104 322h32M144 322h16M104 323h32M144 323h16M104 324h32M144 324h16M104 325h32M144 325h16M104 326h32M144 326h16M104 327h32M144 327h16M104 328h32M144 328h16M104 329h32M144 329h16M104 330h32M144 330h16M104 331h32M144 331h16M104 332h32M144 332h16M104 333h32M144 333h16M104 334h32M144 334h16M104 335h32M144 335h16M104 336h56M104 337h56M104 338h56M104 339h56M104 340h56M104 341h56M104 342h56M104 343h56M104 344h56M104 345h56M104 346h56M104 347h56M104 348h56M104 349h56M104 350h56M104 351h56M104 352h56M104 353h56M104 354h56M104 355h56M104 356h56M104 357h56M104 358h56M104 359h56M104 360h56M104 361h56M104 362h56M104 363h56M104 364h56M104 365h56M104 366h56M104 367h56M104 368h56M104 369h56M104 370h56M104 371h56M104 372h56M104 373h56M104 374h56M104 375h56M104 376h56M104 377h56M104 378h56M104 379h56M104 380h56M104 381h56M104 382h56M104 383h56M104 384h56M104 385h56M104 386h56M104 387h56M104 388h56M104 389h56M104 390h56M104 391h56M104 392h56M104 393h56M104 394h56M104 395h56M104 396h56M104 397h56M104 398h56M104 399h56M104 400h56M104 401h56M104 402h56M104 403h56M104 404h56M104 405h56M104 406h56M104 407h56M104 408h56M104 409h56M104 410h56M104 411h56M104 412h56M104 413h56M104 414h56M104 415h56M104 416h56M104 417h56M104 418h56M104 419h56M104 420h56M104 421h56M104 422h56M104 423h56M104 424h32M104 425h32M104 426h32M104 427h32M104 428h32M104 429h32M104 430h32M104 431h32M56 464h8M136 464h24M56 465h8M136 465h24M56 466h8M136 466h24M56 467h8M136 467h24M56 468h8M136 468h24M56 469h8M136 469h24M56 470h8M136 470h24M56 471h8M136 471h24M56 472h8M104 472h56M56 473h8M104 473h56M56 474h8M104 474h56M56 475h8M104 475h56M56 476h8M104 476h56M56 477h8M104 477h56M56 478h8M104 478h56M56 479h8M104 479h56M56 480h8M104 480h56M56 481h8M104 481h56M56 482h8M104 482h56M56 483h8M104 483h56M56 484h8M104 484h56M56 485h8M104 485h56M56 486h8M104 486h56M56 487h8M104 487h56M104 488h32M104 489h32M104 490h32M104 491h32M104 492h32M104 493h32M104 494h32M104 495h32" />
<path stroke="#bebebe" d="M96 40h8M96 41h8M96 42h8M96 43h8M96 44h8M96 45h8M96 46h8M96 47h8M96 48h8M96 49h8M96 50h8M96 51h8M96 52h8M96 53h8M96 54h8M96 55h8M96 56h8M96 57h8M96 58h8M96 59h8M96 60h8M96 61h8M96 62h8M96 63h8M96 64h8M96 65h8M96 66h8M96 67h8M96 68h8M96 69h8M96 70h8M96 71h8M88 72h16M88 73h16M88 74h16M88 75h16M88 76h16M88 77h16M88 78h16M88 79h16M88 80h16M88 81h16M88 82h16M88 83h16M88 84h16M88 85h16M88 86h16M88 87h16M88 88h16M88 89h16M88 90h16M88 91h16M88 92h16M88 93h16M88 94h16M88 95h16M88 96h16M88 97h16M88 98h16M88 99h16M88 100h16M88 101h16M88 102h16M88 103h16M80 104h24M80 105h24M80 106h24M80 107h24M80 108h24M80 109h24M80 110h24M80 111h24M80 112h24M80 113h24M80 114h24M80 115h24M80 116h24M80 117h24M80 118h24M80 119h24M80 120h24M80 121h24M80 122h24M80 123h24M80 124h24M80 125h24M80 126h24M80 127h24M80 128h24M80 129h24M80 130h24M80 131h24M80 132h24M80 133h24M80 134h24M80 135h24M80 136h24M80 137h24M80 138h24M80 139h24M80 140h24M80 141h24M80 142h24M80 143h24M88 144h16M88 145h16M88 146h16M88 147h16M88 148h16M88 149h16M88 150h16M88 151h16M80 152h8M80 153h8M80 154h8M80 155h8M80 156h8M80 157h8M80 158h8M80 159h8M80 160h24M80 161h24M80 162h24M80 163h24M80 164h24M80 165h24M80 166h24M80 167h24M80 168h24M80 169h24M80 170h24M80 171h24M80 172h24M80 173h24M80 174h24M80 175h24M80 176h24M80 177h24M80 178h24M80 179h24M80 180h24M80 181h24M80 182h24M80 183h24M80 184h24M80 185h24M80 186h24M80 187h24M80 188h24M80 189h24M80 190h24M80 191h24M80 192h24M80 193h24M80 194h24M80 195h24M80 196h24M80 197h24M80 198h24M80 199h24M80 200h24M80 201h24M80 202h24M80 203h24M80 204h24M80 205h24M80 206h24M80 207h24M80 208h24M80 209h24M80 210h24M80 211h24M80 212h24M80 213h24M80 214h24M80 215h24M80 216h24M80 217h24M80 218h24M80 219h24M80 220h24M80 221h24M80 222h24M80 223h24M80 224h24M80 225h24M80 226h24M80 227h24M80 228h24M80 229h24M80 230h24M80 231h24M80 232h24M80 233h24M80 234h24M80 235h24M80 236h24M80 237h24M80 238h24M80 239h24M80 240h24M80 241h24M80 242h24M80 243h24M80 244h24M80 245h24M80 246h24M80 247h24M80 248h24M80 249h24M80 250h24M80 251h24M80 252h24M80 253h24M80 254h24M80 255h24M80 256h24M80 257h24M80 258h24M80 259h24M80 260h24M80 261h24M80 262h24M80 263h24M80 264h24M80 265h24M80 266h24M80 267h24M80 268h24M80 269h24M80 270h24M80 271h24M80 272h24M80 273h24M80 274h24M80 275h24M80 276h24M80 277h24M80 278h24M80 279h24M80 280h24M80 281h24M80 282h24M80 283h24M80 284h24M80 285h24M80 286h24M80 287h24M80 288h24M80 289h24M80 290h24M80 291h24M80 292h24M80 293h24M80 294h24M80 295h24M80 296h24M80 297h24M80 298h24M80 299h24M80 300h24M80 301h24M80 302h24M80 303h24M80 304h24M80 305h24M80 306h24M80 307h24M80 308h24M80 309h24M80 310h24M80 311h24M80 312h24M80 313h24M80 314h24M80 315h24M80 316h24M80 317h24M80 318h24M80 319h24M80 320h24M80 321h24M80 322h24M80 323h24M80 324h24M80 325h24M80 326h24M80 327h24M80 328h24M80 329h24M80 330h24M80 331h24M80 332h24M80 333h24M80 334h24M80 335h24M80 336h24M80 337h24M80 338h24M80 339h24M80 340h24M80 341h24M80 342h24M80 343h24M80 344h24M80 345h24M80 346h24M80 347h24M80 348h24M80 349h24M80 350h24M80 351h24M80 352h24M80 353h24M80 354h24M80 355h24M80 356h24M80 357h24M80 358h24M80 359h24M80 360h24M80 361h24M80 362h24M80 363h24M80 364h24M80 365h24M80 366h24M80 367h24M80 368h24M80 369h24M80 370h24M80 371h24M80 372h24M80 373h24M80 374h24M80 375h24M80 376h24M80 377h24M80 378h24M80 379h24M80 380h24M80 381h24M80 382h24M80 383h24M80 384h24M80 385h24M80 386h24M80 387h24M80 388h24M80 389h24M80 390h24M80 391h24M80 392h24M80 393h24M80 394h24M80 395h24M80 396h24M80 397h24M80 398h24M80 399h24M80 400h24M80 401h24M80 402h24M80 403h24M80 404h24M80 405h24M80 406h24M80 407h24M80 408h24M80 409h24M80 410h24M80 411h24M80 412h24M80 413h24M80 414h24M80 415h24M80 416h24M80 417h24M80 418h24M80 419h24M80 420h24M80 421h24M80 422h24M80 423h24M80 424h24M80 425h24M80 426h24M80 427h24M80 428h24M80 429h24M80 430h24M80 431h24M80 464h8M80 465h8M80 466h8M80 467h8M80 468h8M80 469h8M80 470h8M80 471h8M80 472h24M80 473h24M80 474h24M80 475h24M80 476h24M80 477h24M80 478h24M80 479h24M80 480h24M80 481h24M80 482h24M80 483h24M80 484h24M80 485h24M80 486h24M80 487h24M80 488h24M80 489h24M80 490h24M80 491h24M80 492h24M80 493h24M80 494h24M80 495h24" />
<path stroke="#fb7342" d="M48 96h8M160 96h8M48 97h8M160 97h8M48 98h8M160 98h8M48 99h8M160 99h8M48 100h8M160 100h8M48 101h8M160 101h8M48 102h8M160 102h8M48 103h8M160 103h8M40 104h8M168 104h8M40 105h8M168 105h8M40 106h8M168 106h8M40 107h8M168 107h8M40 108h8M168 108h8M40 109h8M168 109h8M40 110h8M168 110h8M40 111h8M168 111h8M40 112h8M168 112h8M40 113h8M168 113h8M40 114h8M168 114h8M40 115h8M168 115h8M40 116h8M168 116h8M40 117h8M168 117h8M40 118h8M168 118h8M40 119h8M168 119h8M32 120h8M176 120h8M32 121h8M176 121h8M32 122h8M176 122h8M32 123h8M176 123h8M32 124h8M176 124h8M32 125h8M176 125h8M32 126h8M176 126h8M32 127h8M176 127h8M32 128h8M176 128h8M32 129h8M176 129h8M32 130h8M176 130h8M32 131h8M176 131h8M32 132h8M176 132h8M32 133h8M176 133h8M32 134h8M176 134h8M32 135h8M176 135h8M32 136h8M176 136h8M32 137h8M176 137h8M32 138h8M176 138h8M32 139h8M176 139h8M32 140h8M176 140h8M32 141h8M176 141h8M32 142h8M176 142h8M32 143h8M176 143h8" />
<path stroke="#9d9d9d" d="M72 144h8M72 145h8M72 146h8M72 147h8M72 148h8M72 149h8M72 150h8M72 151h8M72 152h8M72 153h8M72 154h8M72 155h8M72 156h8M72 157h8M72 158h8M72 159h8M72 160h8M72 161h8M72 162h8M72 163h8M72 164h8M72 165h8M72 166h8M72 167h8M72 168h8M72 169h8M72 170h8M72 171h8M72 172h8M72 173h8M72 174h8M72 175h8M72 176h8M72 177h8M72 178h8M72 179h8M72 180h8M72 181h8M72 182h8M72 183h8M64 184h16M64 185h16M64 186h16M64 187h16M64 188h16M64 189h16M64 190h16M64 191h16M64 192h16M64 193h16M64 194h16M64 195h16M64 196h16M64 197h16M64 198h16M64 199h16M64 200h16M64 201h16M64 202h16M64 203h16M64 204h16M64 205h16M64 206h16M64 207h16M64 208h16M64 209h16M64 210h16M64 211h16M64 212h16M64 213h16M64 214h16M64 215h16M64 216h16M64 217h16M64 218h16M64 219h16M64 220h16M64 221h16M64 222h16M64 223h16M64 224h16M64 225h16M64 226h16M64 227h16M64 228h16M64 229h16M64 230h16M64 231h16M64 232h16M64 233h16M64 234h16M64 235h16M64 236h16M64 237h16M64 238h16M64 239h16M64 240h16M64 241h16M64 242h16M64 243h16M64 244h16M64 245h16M64 246h16M64 247h16M64 248h16M64 249h16M64 250h16M64 251h16M64 252h16M64 253h16M64 254h16M64 255h16M64 256h16M64 257h16M64 258h16M64 259h16M64 260h16M64 261h16M64 262h16M64 263h16M64 264h16M64 265h16M64 266h16M64 267h16M64 268h16M64 269h16M64 270h16M64 271h16M64 272h16M64 273h16M64 274h16M64 275h16M64 276h16M64 277h16M64 278h16M64 279h16M64 280h16M64 281h16M64 282h16M64 283h16M64 284h16M64 285h16M64 286h16M64 287h16M64 288h16M64 289h16M64 290h16M64 291h16M64 292h16M64 293h16M64 294h16M64 295h16M64 296h16M64 297h16M64 298h16M64 299h16M64 300h16M64 301h16M64 302h16M64 303h16M64 304h16M64 305h16M64 306h16M64 307h16M64 308h16M64 309h16M64 310h16M64 311h16M64 312h16M64 313h16M64 314h16M64 315h16M64 316h16M64 317h16M64 318h16M64 319h16M64 320h16M64 321h16M64 322h16M64 323h16M64 324h16M64 325h16M64 326h16M64 327h16M64 328h16M64 329h16M64 330h16M64 331h16M64 332h16M64 333h16M64 334h16M64 335h16M64 336h16M64 337h16M64 338h16M64 339h16M64 340h16M64 341h16M64 342h16M64 343h16M64 344h16M64 345h16M64 346h16M64 347h16M64 348h16M64 349h16M64 350h16M64 351h16M64 352h16M64 353h16M64 354h16M64 355h16M64 356h16M64 357h16M64 358h16M64 359h16M64 360h16M64 361h16M64 362h16M64 363h16M64 364h16M64 365h16M64 366h16M64 367h16M64 368h16M64 369h16M64 370h16M64 371h16M64 372h16M64 373h16M64 374h16M64 375h16M64 376h16M64 377h16M64 378h16M64 379h16M64 380h16M64 381h16M64 382h16M64 383h16M64 384h16M64 385h16M64 386h16M64 387h16M64 388h16M64 389h16M64 390h16M64 391h16M64 392h16M64 393h16M64 394h16M64 395h16M64 396h16M64 397h16M64 398h16M64 399h16M64 400h16M64 401h16M64 402h16M64 403h16M64 404h16M64 405h16M64 406h16M64 407h16M64 408h16M64 409h16M64 410h16M64 411h16M64 412h16M64 413h16M64 414h16M64 415h16M64 416h16M64 417h16M64 418h16M64 419h16M64 420h16M64 421h16M64 422h16M64 423h16M64 464h16M64 465h16M64 466h16M64 467h16M64 468h16M64 469h16M64 470h16M64 471h16M64 472h16M64 473h16M64 474h16M64 475h16M64 476h16M64 477h16M64 478h16M64 479h16M64 480h16M64 481h16M64 482h16M64 483h16M64 484h16M64 485h16M64 486h16M64 487h16" />
<path stroke="#fb8b44" d="M32 176h8M176 176h8M32 177h8M176 177h8M32 178h8M176 178h8M32 179h8M176 179h8M32 180h8M176 180h8M32 181h8M176 181h8M32 182h8M176 182h8M32 183h8M176 183h8M24 184h8M184 184h8M24 185h8M184 185h8M24 186h8M184 186h8M24 187h8M184 187h8M24 188h8M184 188h8M24 189h8M184 189h8M24 190h8M184 190h8M24 191h8M184 191h8M16 192h16M184 192h16M16 193h16M184 193h16M16 194h16M184 194h16M16 195h16M184 195h16M16 196h16M184 196h16M16 197h16M184 197h16M16 198h16M184 198h16M16 199h16M184 199h16M16 200h8M192 200h8M16 201h8M192 201h8M16 202h8M192 202h8M16 203h8M192 203h8M16 204h8M192 204h8M16 205h8M192 205h8M16 206h8M192 206h8M16 207h8M192 207h8M16 208h8M192 208h8M16 209h8M192 209h8M16 210h8M192 210h8M16 211h8M192 211h8M16 212h8M192 212h8M16 213h8M192 213h8M16 214h8M192 214h8M16 215h8M192 215h8M16 216h8M192 216h8M16 217h8M192 217h8M16 218h8M192 218h8M16 219h8M192 219h8M16 220h8M192 220h8M16 221h8M192 221h8M16 222h8M192 222h8M16 223h8M192 223h8" />
<path stroke="#8b8b8b" d="M56 192h8M56 193h8M56 194h8M56 195h8M56 196h8M56 197h8M56 198h8M56 199h8M56 200h8M56 201h8M56 202h8M56 203h8M56 204h8M56 205h8M56 206h8M56 207h8M56 208h8M56 209h8M56 210h8M56 211h8M56 212h8M56 213h8M56 214h8M56 215h8M56 216h8M56 217h8M56 218h8M56 219h8M56 220h8M56 221h8M56 222h8M56 223h8M56 224h8M56 225h8M56 226h8M56 227h8M56 228h8M56 229h8M56 230h8M56 231h8M56 232h8M56 233h8M56 234h8M56 235h8M56 236h8M56 237h8M56 238h8M56 239h8M56 240h8M56 241h8M56 242h8M56 243h8M56 244h8M56 245h8M56 246h8M56 247h8M56 248h8M56 249h8M56 250h8M56 251h8M56 252h8M56 253h8M56 254h8M56 255h8M56 256h8M56 257h8M56 258h8M56 259h8M56 260h8M56 261h8M56 262h8M56 263h8M56 264h8M56 265h8M56 266h8M56 267h8M56 268h8M56 269h8M56 270h8M56 271h8M56 272h8M56 273h8M56 274h8M56 275h8M56 276h8M56 277h8M56 278h8M56 279h8M56 280h8M56 281h8M56 282h8M56 283h8M56 284h8M56 285h8M56 286h8M56 287h8M56 288h8M56 289h8M56 290h8M56 291h8M56 292h8M56 293h8M56 294h8M56 295h8M56 296h8M56 297h8M56 298h8M56 299h8M56 300h8M56 301h8M56 302h8M56 303h8M56 304h8M56 305h8M56 306h8M56 307h8M56 308h8M56 309h8M56 310h8M56 311h8M56 312h8M56 313h8M56 314h8M56 315h8M56 316h8M56 317h8M56 318h8M56 319h8M56 320h8M56 321h8M56 322h8M56 323h8M56 324h8M56 325h8M56 326h8M56 327h8M56 328h8M56 329h8M56 330h8M56 331h8M56 332h8M56 333h8M56 334h8M56 335h8M56 336h8M56 337h8M56 338h8M56 339h8M56 340h8M56 341h8M56 342h8M56 343h8M56 344h8M56 345h8M56 346h8M56 347h8M56 348h8M56 349h8M56 350h8M56 351h8M56 352h8M56 353h8M56 354h8M56 355h8M56 356h8M56 357h8M56 358h8M56 359h8M56 360h8M56 361h8M56 362h8M56 363h8M56 364h8M56 365h8M56 366h8M56 367h8M56 368h8M56 369h8M56 370h8M56 371h8M56 372h8M56 373h8M56 374h8M56 375h8M56 376h8M56 377h8M56 378h8M56 379h8M56 380h8M56 381h8M56 382h8M56 383h8M56 384h8M56 385h8M56 386h8M56 387h8M56 388h8M56 389h8M56 390h8M56 391h8M56 392h8M56 393h8M56 394h8M56 395h8M56 396h8M56 397h8M56 398h8M56 399h8M56 400h8M56 401h8M56 402h8M56 403h8M56 404h8M56 405h8M56 406h8M56 407h8M56 408h8M56 409h8M56 410h8M56 411h8M56 412h8M56 413h8M56 414h8M56 415h8M56 416h8M56 417h8M56 418h8M56 419h8M56 420h8M56 421h8M56 422h8M56 423h8" />
<path stroke="#f1f1f1" d="M136 224h8M136 225h8M136 226h8M136 227h8M136 228h8M136 229h8M136 230h8M136 231h8M136 264h8M136 265h8M136 266h8M136 267h8M136 268h8M136 269h8M136 270h8M136 271h8M136 272h8M136 273h8M136 274h8M136 275h8M136 276h8M136 277h8M136 278h8M136 279h8M136 280h8M136 281h8M136 282h8M136 283h8M136 284h8M136 285h8M136 286h8M136 287h8M136 288h8M136 289h8M136 290h8M136 291h8M136 292h8M136 293h8M136 294h8M136 295h8M136 296h8M136 297h8M136 298h8M136 299h8M136 300h8M136 301h8M136 302h8M136 303h8M136 304h8M136 305h8M136 306h8M136 307h8M136 308h8M136 309h8M136 310h8M136 311h8M136 312h8M136 313h8M136 314h8M136 315h8M136 316h8M136 317h8M136 318h8M136 319h8M136 320h8M136 321h8M136 322h8M136 323h8M136 324h8M136 325h8M136 326h8M136 327h8M136 328h8M136 329h8M136 330h8M136 331h8M136 332h8M136 333h8M136 334h8M136 335h8" />
<path stroke="#fba94c" d="M16 256h8M192 256h8M16 257h8M192 257h8M16 258h8M192 258h8M16 259h8M192 259h8M16 260h8M192 260h8M16 261h8M192 261h8M16 262h8M192 262h8M16 263h8M192 263h8M16 264h8M192 264h8M16 265h8M192 265h8M16 266h8M192 266h8M16 267h8M192 267h8M16 268h8M192 268h8M16 269h8M192 269h8M16 270h8M192 270h8M16 271h8M192 271h8M16 272h8M192 272h8M16 273h8M192 273h8M16 274h8M192 274h8M16 275h8M192 275h8M16 276h8M192 276h8M16 277h8M192 277h8M16 278h8M192 278h8M16 279h8M192 279h8M8 280h16M192 280h16M8 281h16M192 281h16M8 282h16M192 282h16M8 283h16M192 283h16M8 284h16M192 284h16M8 285h16M192 285h16M8 286h16M192 286h16M8 287h16M192 287h16M8 288h16M192 288h16M8 289h16M192 289h16M8 290h16M192 290h16M8 291h16M192 291h16M8 292h16M192 292h16M8 293h16M192 293h16M8 294h16M192 294h16M8 295h16M192 295h16M8 296h16M192 296h16M8 297h16M192 297h16M8 298h16M192 298h16M8 299h16M192 299h16M8 300h16M192 300h16M8 301h16M192 301h16M8 302h16M192 302h16M8 303h16M192 303h16M8 312h8M200 312h8M8 313h8M200 313h8M8 314h8M200 314h8M8 315h8M200 315h8M8 316h8M200 316h8M8 317h8M200 317h8M8 318h8M200 318h8M8 319h8M200 319h8M16 320h8M192 320h8M16 321h8M192 321h8M16 322h8M192 322h8M16 323h8M192 323h8M16 324h8M192 324h8M16 325h8M192 325h8M16 326h8M192 326h8M16 327h8M192 327h8M16 328h8M192 328h8M16 329h8M192 329h8M16 330h8M192 330h8M16 331h8M192 331h8M16 332h8M192 332h8M16 333h8M192 333h8M16 334h8M192 334h8M16 335h8M192 335h8" />
<path stroke="#919191" d="M72 432h8M136 432h8M72 433h8M136 433h8M72 434h8M136 434h8M72 435h8M136 435h8M72 436h8M136 436h8M72 437h8M136 437h8M72 438h8M136 438h8M72 439h8M136 439h8M56 440h104M56 441h104M56 442h104M56 443h104M56 444h104M56 445h104M56 446h104M56 447h104M48 448h120M48 449h120M48 450h120M48 451h120M48 452h120M48 453h120M48 454h120M48 455h120M56 456h104M56 457h104M56 458h104M56 459h104M56 460h104M56 461h104M56 462h104M56 463h104M88 464h48M88 465h48M88 466h48M88 467h48M88 468h48M88 469h48M88 470h48M88 471h48" />
</svg>