<svg xmlns="http://www.w3.org/2000/svg" viewBox="0 -0.5 14 145" shape-rendering="crispEdges">
<metadata>Made with Pixels to Svg https://codepen.io/shshaw/pen/XbxvNj</metadata>
<path stroke="#181b1d" d="M4 0h2M8 0h2M3 1h1M5 1h1M8 1h1M10 1h1M2 2h1M5 2h1M8 2h1M11 2h1M1 3h1M5 3h4M12 3h1M0 4h1M4 4h1M6 4h2M9 4h1M13 4h1M0 5h1M3 5h1M10 5h1M13 5h1M0 6h1M3 6h1M10 6h1M13 6h1M0 7h1M3 7h1M10 7h1M13 7h1M0 8h1M3 8h1M10 8h1M13 8h1M0 9h4M10 9h4M0 10h1M3 10h1M10 10h1M13 10h1M0 11h1M3 11h1M10 11h1M13 11h1M0 12h1M3 12h1M10 12h1M13 12h1M0 13h1M3 13h1M10 13h1M13 13h1M0 14h1M4 14h1M6 14h2M9 14h1M13 14h1M1 15h1M5 15h1M8 15h1M12 15h1M2 16h1M5 16h1M8 16h1M11 16h1M3 17h1M5 17h1M8 17h1M10 17h1M4 18h2M8 18h2M5 19h1M8 19h1M5 20h1M8 20h1M5 21h1M8 21h1M5 22h1M8 22h1M5 23h1M8 23h1M5 24h1M8 24h1M4 25h2M8 25h2M3 26h1M5 26h1M8 26h1M10 26h1M2 27h1M5 27h1M8 27h1M11 27h1M1 28h1M5 28h4M12 28h1M0 29h1M4 29h1M6 29h2M9 29h1M13 29h1M0 30h1M3 30h1M10 30h1M13 30h1M0 31h1M3 31h1M10 31h1M13 31h1M0 32h1M3 32h1M10 32h1M13 32h1M0 33h1M3 33h1M10 33h1M13 33h1M0 34h4M10 34h4M0 35h1M3 35h1M10 35h1M13 35h1M0 36h1M3 36h1M10 36h1M13 36h1M0 37h1M3 37h1M10 37h1M13 37h1M0 38h1M3 38h1M10 38h1M13 38h1M0 39h1M4 39h1M6 39h2M9 39h1M13 39h1M1 40h1M5 40h1M8 40h1M12 40h1M2 41h1M5 41h1M8 41h1M11 41h1M3 42h1M5 42h1M8 42h1M10 42h1M4 43h2M8 43h2M5 44h1M8 44h1M5 45h1M8 45h1M5 46h1M8 46h1M5 47h1M8 47h1M5 48h1M8 48h1M5 49h1M8 49h1M5 50h1M8 50h1M3 51h1M5 51h1M8 51h1M10 51h1M2 52h1M5 52h1M8 52h1M11 52h1M1 53h1M5 53h4M12 53h1M0 54h1M4 54h1M6 54h2M9 54h1M13 54h1M0 55h1M3 55h1M10 55h1M13 55h1M0 56h1M3 56h1M10 56h1M13 56h1M0 57h1M3 57h1M10 57h1M13 57h1M0 58h1M3 58h1M10 58h1M13 58h1M0 59h4M10 59h4M0 60h1M3 60h1M10 60h1M13 60h1M0 61h1M3 61h1M10 61h1M13 61h1M0 62h1M3 62h1M10 62h1M13 62h1M0 63h1M3 63h1M10 63h1M13 63h1M0 64h1M4 64h1M6 64h2M9 64h1M13 64h1M1 65h1M5 65h1M8 65h1M12 65h1M2 66h1M5 66h1M8 66h1M11 66h1M3 67h1M5 67h1M8 67h1M10 67h1M4 68h2M8 68h2M5 69h1M8 69h1M5 70h1M8 70h1M5 71h1M8 71h1M5 72h1M8 72h1M5 73h1M8 73h1M5 74h1M8 74h1M4 75h2M8 75h2M3 76h1M5 76h1M8 76h1M10 76h1M2 77h1M5 77h1M8 77h1M11 77h1M1 78h1M5 78h4M12 78h1M0 79h1M4 79h1M6 79h2M9 79h1M13 79h1M0 80h1M3 80h1M10 80h1M13 80h1M0 81h1M3 81h1M10 81h1M13 81h1M0 82h1M3 82h1M10 82h1M13 82h1M0 83h1M3 83h1M10 83h1M13 83h1M0 84h4M10 84h4M0 85h1M3 85h1M10 85h1M13 85h1M0 86h1M3 86h1M10 86h1M13 86h1M0 87h1M3 87h1M10 87h1M13 87h1M0 88h1M3 88h1M10 88h1M13 88h1M0 89h1M4 89h1M6 89h2M9 89h1M13 89h1M1 90h1M5 90h1M8 90h1M12 90h1M2 91h1M5 91h1M8 91h1M11 91h1M3 92h1M5 92h1M8 92h1M10 92h1M4 93h2M8 93h2M5 94h1M8 94h1M5 95h1M8 95h1M5 96h1M8 96h1M5 97h1M8 97h1M5 98h1M8 98h1M5 99h1M8 99h1M4 100h2M8 100h2M3 101h1M5 101h1M8 101h1M10 101h1M2 102h1M5 102h1M8 102h1M11 102h1M1 103h1M5 103h4M12 103h1M0 104h1M4 104h1M6 104h2M9 104h1M13 104h1M0 105h1M3 105h1M10 105h1M13 105h1M0 106h1M3 106h1M10 106h1M13 106h1M0 107h1M3 107h1M10 107h1M13 107h1M0 108h1M3 108h1M10 108h1M13 108h1M0 109h4M10 109h4M0 110h1M3 110h1M10 110h1M13 110h1M0 111h1M3 111h1M10 111h1M13 111h1M0 112h1M3 112h1M10 112h1M13 112h1M0 113h1M3 113h1M10 113h1M13 113h1M0 114h1M4 114h1M6 114h2M9 114h1M13 114h1M1 115h1M5 115h1M8 115h1M12 115h1M2 116h1M5 116h1M8 116h1M11 116h1M3 117h1M5 117h1M8 117h1M10 117h1M4 118h2M8 118h2M5 119h1M8 119h1M5 120h1M8 120h1M5 121h1M8 121h1M5 122h1M8 122h1M5 123h1M8 123h1M5 124h1M8 124h1M5 125h1M8 125h1M3 126h1M5 126h1M8 126h1M10 126h1M2 127h1M5 127h1M8 127h1M11 127h1M1 128h1M5 128h4M12 128h1M0 129h1M4 129h1M6 129h2M9 129h1M13 129h1M0 130h1M3 130h1M10 130h1M13 130h1M0 131h1M3 131h1M10 131h1M13 131h1M0 132h1M3 132h1M10 132h1M13 132h1M0 133h1M3 133h1M10 133h1M13 133h1M0 134h4M10 134h4M0 135h1M3 135h1M10 135h1M13 135h1M0 136h1M3 136h1M10 136h1M13 136h1M0 137h1M3 137h1M10 137h1M13 137h1M0 138h1M3 138h1M10 138h1M13 138h1M0 139h1M4 139h1M6 139h2M9 139h1M13 139h1M1 140h1M5 140h1M8 140h1M12 140h1M2 141h1M5 141h1M8 141h1M11 141h1M3 142h1M5 142h1M8 142h1M10 142h1M4 143h2M8 143h2M5 144h1M8 144h1" />
<path stroke="#585858" d="M6 0h2M1 13h1M2 14h1M3 15h1M4 16h1M6 24h2M6 25h2M1 38h1M2 39h1M3 40h1M4 41h1M6 49h2M6 50h2M1 63h1M2 64h1M3 65h1M4 66h1M6 74h2M6 75h2M1 88h1M2 89h1M3 90h1M4 91h1M6 99h2M6 100h2M1 113h1M2 114h1M3 115h1M4 116h1M6 124h2M6 125h2M1 138h1M2 139h1M3 140h1M4 141h1" />
<path stroke="#5f5f5f" d="M4 1h1M3 2h2M2 3h3M1 4h3M1 5h2M1 6h2M11 6h1M1 7h2M11 7h2M1 8h2M11 8h2M1 10h1M11 10h1M1 11h2M11 11h2M1 12h2M11 12h2M2 13h1M11 13h2M3 14h1M10 14h3M4 15h1M9 15h3M9 16h2M9 17h1M6 19h2M6 20h2M6 21h2M6 22h2M6 23h2M4 26h1M3 27h2M2 28h3M1 29h3M1 30h2M1 31h2M11 31h1M1 32h2M11 32h2M1 33h2M11 33h2M1 35h1M11 35h1M1 36h2M11 36h2M1 37h2M11 37h2M2 38h1M11 38h2M3 39h1M10 39h3M4 40h1M9 40h3M9 41h2M9 42h1M6 44h2M6 45h2M6 46h2M6 47h2M6 48h2M4 51h1M3 52h2M2 53h3M1 54h3M1 55h2M1 56h2M11 56h1M1 57h2M11 57h2M1 58h2M11 58h2M1 60h1M11 60h1M1 61h2M11 61h2M1 62h2M11 62h2M2 63h1M11 63h2M3 64h1M10 64h3M4 65h1M9 65h3M9 66h2M9 67h1M6 69h2M6 70h2M6 71h2M6 72h2M6 73h2M4 76h1M3 77h2M2 78h3M1 79h3M1 80h2M1 81h2M11 81h1M1 82h2M11 82h2M1 83h2M11 83h2M1 85h1M11 85h1M1 86h2M11 86h2M1 87h2M11 87h2M2 88h1M11 88h2M3 89h1M10 89h3M4 90h1M9 90h3M9 91h2M9 92h1M6 94h2M6 95h2M6 96h2M6 97h2M6 98h2M4 101h1M3 102h2M2 103h3M1 104h3M1 105h2M1 106h2M11 106h1M1 107h2M11 107h2M1 108h2M11 108h2M1 110h1M11 110h1M1 111h2M11 111h2M1 112h2M11 112h2M2 113h1M11 113h2M3 114h1M10 114h3M4 115h1M9 115h3M9 116h2M9 117h1M6 119h2M6 120h2M6 121h2M6 122h2M6 123h2M4 126h1M3 127h2M2 128h3M1 129h3M1 130h2M1 131h2M11 131h1M1 132h2M11 132h2M1 133h2M11 133h2M1 135h1M11 135h1M1 136h2M11 136h2M1 137h2M11 137h2M2 138h1M11 138h2M3 139h1M10 139h3M4 140h1M9 140h3M9 141h2M9 142h1M6 144h2" />
<path stroke="#494949" d="M6 1h2M6 2h2M1 14h1M2 15h1M3 16h1M4 17h1M6 26h2M6 27h2M1 39h1M2 40h1M3 41h1M4 42h1M6 51h2M6 52h2M1 64h1M2 65h1M3 66h1M4 67h1M6 76h2M6 77h2M1 89h1M2 90h1M3 91h1M4 92h1M6 101h2M6 102h2M1 114h1M2 115h1M3 116h1M4 117h1M6 126h2M6 127h2M1 139h1M2 140h1M3 141h1M4 142h1" />
<path stroke="#a3a3a3" d="M9 1h1M10 2h1M11 3h1M12 4h1M7 15h1M7 16h1M9 26h1M10 27h1M11 28h1M12 29h1M7 40h1M7 41h1M9 51h1M10 52h1M11 53h1M12 54h1M7 65h1M7 66h1M9 76h1M10 77h1M11 78h1M12 79h1M7 90h1M7 91h1M9 101h1M10 102h1M11 103h1M12 104h1M7 115h1M7 116h1M9 126h1M10 127h1M11 128h1M12 129h1M7 140h1M7 141h1" />
<path stroke="#858585" d="M9 2h1M10 3h1M11 4h1M12 5h1M6 15h1M6 16h1M6 17h2M6 18h2M9 27h1M10 28h1M11 29h1M12 30h1M6 40h1M6 41h1M6 42h2M6 43h2M9 52h1M10 53h1M11 54h1M12 55h1M6 65h1M6 66h1M6 67h2M6 68h2M9 77h1M10 78h1M11 79h1M12 80h1M6 90h1M6 91h1M6 92h2M6 93h2M9 102h1M10 103h1M11 104h1M12 105h1M6 115h1M6 116h1M6 117h2M6 118h2M9 127h1M10 128h1M11 129h1M12 130h1M6 140h1M6 141h1M6 142h2M6 143h2" />
<path stroke="#6e6e6e" d="M9 3h1M10 4h1M11 5h1M12 6h1M9 28h1M10 29h1M11 30h1M12 31h1M9 53h1M10 54h1M11 55h1M12 56h1M9 78h1M10 79h1M11 80h1M12 81h1M9 103h1M10 104h1M11 105h1M12 106h1M9 128h1M10 129h1M11 130h1M12 131h1" />
<path stroke="#676767" d="M2 10h1M12 10h1M2 35h1M12 35h1M2 60h1M12 60h1M2 85h1M12 85h1M2 110h1M12 110h1M2 135h1M12 135h1" />
</svg>