<svg xmlns="http://www.w3.org/2000/svg" viewBox="0 -0.5 28 64" shape-rendering="crispEdges">
<metadata>Made with Pixels to Svg https://codepen.io/shshaw/pen/XbxvNj</metadata>
<path stroke="#392008" d="M11 0h2M10 1h1M13 1h1M10 2h1M14 2h1M10 3h1M14 3h1M9 4h1M14 4h1M9 5h1M14 5h1M9 6h1M15 6h1M9 7h1M15 7h1M9 8h1M15 8h1M9 9h1M15 9h1M9 10h1M15 10h1M9 11h1M15 11h1M9 12h1M16 12h1M9 13h1M16 13h1M9 14h1M16 14h1M9 15h1M16 15h1M9 16h1M17 16h1M9 17h1M17 17h1M9 18h1M16 18h1M9 19h1M16 19h1M26 19h1M9 20h1M16 20h1M23 20h3M27 20h1M8 21h1M16 21h1M20 21h3M27 21h1M8 22h1M16 22h1M18 22h2M25 22h2M8 23h1M16 23h2M23 23h2M8 24h1M22 24h1M8 25h1M20 25h2M9 26h1M19 26h1M9 27h1M18 27h1M9 28h1M18 28h1M9 29h1M17 29h1M9 30h1M17 30h1M9 31h1M16 31h1M9 32h1M16 32h1M9 33h1M16 33h1M9 34h1M16 34h1M9 35h1M16 35h1M9 36h1M16 36h1M9 37h1M16 37h1M9 38h1M16 38h1M1 39h1M9 39h1M16 39h1M0 40h1M2 40h1M9 40h1M16 40h1M0 41h1M3 41h1M9 41h1M17 41h1M1 42h1M4 42h1M9 42h1M17 42h1M2 43h1M5 43h4M18 43h1M3 44h1M17 44h1M3 45h1M16 45h1M4 46h1M15 46h1M5 47h1M15 47h1M6 48h1M15 48h1M7 49h1M15 49h1M8 50h1M15 50h1M8 51h1M15 51h1M9 52h1M15 52h1M9 53h1M15 53h1M9 54h1M15 54h1M9 55h1M15 55h1M9 56h1M15 56h1M9 57h1M15 57h1M9 58h1M15 58h1M9 59h1M14 59h1M9 60h1M14 60h1M10 61h1M14 61h1M11 62h1M13 62h1M12 63h1" />
<path stroke="#9a580b" d="M11 1h1M11 2h1M11 3h1M10 4h1M10 5h1M10 6h1M10 7h1M10 8h1M10 9h1M10 10h1M10 11h1M10 12h1M10 13h1M10 14h1M10 15h1M10 16h1M10 17h1M10 18h1M10 19h1M10 20h1M9 21h1M9 22h1M9 23h1M9 24h1M9 25h1M10 26h1M10 27h1M10 28h1M10 29h1M10 30h1M10 31h1M10 32h1M10 33h1M10 34h1M10 35h1M10 36h1M10 37h1M10 38h1M10 39h1M1 40h1M10 40h1M1 41h1M10 41h1M2 42h1M10 42h1M3 43h1M9 43h2M4 44h1M4 45h2M5 46h2M6 47h2M7 48h3M8 49h2M9 50h1M9 51h3M10 52h2M10 53h2M10 54h2M10 55h2M10 56h2M10 57h2M10 58h2M10 59h2M10 60h3M11 61h3M12 62h1" />
<path stroke="#884e0a" d="M12 1h1M12 2h1M12 3h1M11 4h2M11 5h2M11 6h2M11 7h2M11 8h2M11 9h2M11 10h2M11 11h2M11 12h2M11 13h2M11 14h2M11 15h2M11 16h2M11 17h2M11 18h2M11 19h2M11 20h2M10 21h2M10 22h2M10 23h2M10 24h2M10 25h2M11 26h2M11 27h2M11 28h2M11 29h2M11 30h2M11 31h2M11 32h2M11 33h2M11 34h2M11 35h2M11 36h2M11 37h2M11 38h2M11 39h2M11 40h2M2 41h1M11 41h2M3 42h1M11 42h2M4 43h1M11 43h2M5 44h2M6 45h2M7 46h2M8 47h3M10 48h1M10 49h1M10 50h3M12 51h1M12 52h1M12 53h1M12 54h1M12 55h1M12 56h1M12 57h1M12 58h1M12 59h2M13 60h1" />
<path stroke="#7f4909" d="M13 2h1M13 3h1M13 4h1M13 5h1M13 6h2M13 7h2M13 8h2M13 9h2M13 10h2M13 11h2M13 12h2M13 13h2M13 14h2M13 15h2M13 16h2M13 17h2M13 18h2M13 19h2M13 20h2M12 21h2M12 22h2M12 23h2M12 24h2M12 25h2M13 26h2M13 27h2M13 28h2M13 29h2M13 30h2M13 31h2M13 32h2M13 33h2M13 34h2M13 35h2M13 36h2M13 37h2M13 38h2M13 39h2M13 40h2M13 41h2M13 42h2M13 43h2M7 44h2M8 45h2M9 46h3M11 47h1M11 48h1M11 49h3M13 50h1M13 51h1M13 52h1M13 53h1M13 54h1M13 55h1M13 56h1M13 57h1M13 58h2" />
<path stroke="#774311" d="M15 12h1M15 13h1M15 14h1M15 15h1M15 16h2M15 17h2M15 18h1M15 19h1M15 20h1M26 20h1M14 21h2M23 21h4M14 22h2M20 22h5M14 23h2M18 23h5M14 24h8M14 25h6M15 26h4M15 27h3M15 28h3M15 29h2M15 30h2M15 31h1M15 32h1M15 33h1M15 34h1M15 35h1M15 36h1M15 37h1M15 38h1M15 39h1M15 40h1M15 41h2M15 42h2M15 43h3M9 44h8M10 45h6M12 46h3M12 47h3M12 48h3M14 49h1M14 50h1M14 51h1M14 52h1M14 53h1M14 54h1M14 55h1M14 56h1M14 57h1" />
</svg>