<svg xmlns="http://www.w3.org/2000/svg" viewBox="0 -0.5 720 224" shape-rendering="crispEdges">
<metadata>Made with Pixels to Svg https://codepen.io/shshaw/pen/XbxvNj</metadata>
<path stroke="#181b1d" d="M0 0h72M648 0h72M0 1h72M648 1h72M0 2h72M648 2h72M0 3h72M648 3h72M0 4h72M648 4h72M0 5h72M648 5h72M0 6h72M648 6h72M0 7h72M648 7h72M0 8h8M72 8h576M712 8h8M0 9h8M72 9h576M712 9h8M0 10h8M72 10h576M712 10h8M0 11h8M72 11h576M712 11h8M0 12h8M72 12h576M712 12h8M0 13h8M72 13h576M712 13h8M0 14h8M72 14h576M712 14h8M0 15h8M72 15h576M712 15h8M0 16h8M64 16h8M648 16h8M712 16h8M0 17h8M64 17h8M648 17h8M712 17h8M0 18h8M64 18h8M648 18h8M712 18h8M0 19h8M64 19h8M648 19h8M712 19h8M0 20h8M64 20h8M648 20h8M712 20h8M0 21h8M64 21h8M648 21h8M712 21h8M0 22h8M64 22h8M648 22h8M712 22h8M0 23h8M64 23h8M648 23h8M712 23h8M0 24h8M56 24h8M656 24h8M712 24h8M0 25h8M56 25h8M656 25h8M712 25h8M0 26h8M56 26h8M656 26h8M712 26h8M0 27h8M56 27h8M656 27h8M712 27h8M0 28h8M56 28h8M656 28h8M712 28h8M0 29h8M56 29h8M656 29h8M712 29h8M0 30h8M56 30h8M656 30h8M712 30h8M0 31h8M56 31h8M656 31h8M712 31h8M0 32h8M48 32h8M664 32h8M712 32h8M0 33h8M48 33h8M664 33h8M712 33h8M0 34h8M48 34h8M664 34h8M712 34h8M0 35h8M48 35h8M664 35h8M712 35h8M0 36h8M48 36h8M664 36h8M712 36h8M0 37h8M48 37h8M664 37h8M712 37h8M0 38h8M48 38h8M664 38h8M712 38h8M0 39h8M48 39h8M664 39h8M712 39h8M0 40h8M712 40h8M0 41h8M712 41h8M0 42h8M712 42h8M0 43h8M712 43h8M0 44h8M712 44h8M0 45h8M712 45h8M0 46h8M712 46h8M0 47h8M712 47h8M0 48h8M32 48h8M680 48h8M712 48h8M0 49h8M32 49h8M680 49h8M712 49h8M0 50h8M32 50h8M680 50h8M712 50h8M0 51h8M32 51h8M680 51h8M712 51h8M0 52h8M32 52h8M680 52h8M712 52h8M0 53h8M32 53h8M680 53h8M712 53h8M0 54h8M32 54h8M680 54h8M712 54h8M0 55h8M32 55h8M680 55h8M712 55h8M0 56h8M24 56h8M688 56h8M712 56h8M0 57h8M24 57h8M688 57h8M712 57h8M0 58h8M24 58h8M688 58h8M712 58h8M0 59h8M24 59h8M688 59h8M712 59h8M0 60h8M24 60h8M688 60h8M712 60h8M0 61h8M24 61h8M688 61h8M712 61h8M0 62h8M24 62h8M688 62h8M712 62h8M0 63h8M24 63h8M688 63h8M712 63h8M0 64h8M16 64h8M696 64h8M712 64h8M0 65h8M16 65h8M696 65h8M712 65h8M0 66h8M16 66h8M696 66h8M712 66h8M0 67h8M16 67h8M696 67h8M712 67h8M0 68h8M16 68h8M696 68h8M712 68h8M0 69h8M16 69h8M696 69h8M712 69h8M0 70h8M16 70h8M696 70h8M712 70h8M0 71h8M16 71h8M696 71h8M712 71h8M8 72h8M704 72h8M8 73h8M704 73h8M8 74h8M704 74h8M8 75h8M704 75h8M8 76h8M704 76h8M8 77h8M704 77h8M8 78h8M704 78h8M8 79h8M704 79h8M8 80h8M704 80h8M8 81h8M704 81h8M8 82h8M704 82h8M8 83h8M704 83h8M8 84h8M704 84h8M8 85h8M704 85h8M8 86h8M704 86h8M8 87h8M704 87h8M8 88h8M704 88h8M8 89h8M704 89h8M8 90h8M704 90h8M8 91h8M704 91h8M8 92h8M704 92h8M8 93h8M704 93h8M8 94h8M704 94h8M8 95h8M704 95h8M8 96h8M704 96h8M8 97h8M704 97h8M8 98h8M704 98h8M8 99h8M704 99h8M8 100h8M704 100h8M8 101h8M704 101h8M8 102h8M704 102h8M8 103h8M704 103h8M8 104h8M704 104h8M8 105h8M704 105h8M8 106h8M704 106h8M8 107h8M704 107h8M8 108h8M704 108h8M8 109h8M704 109h8M8 110h8M704 110h8M8 111h8M704 111h8M8 112h8M704 112h8M8 113h8M704 113h8M8 114h8M704 114h8M8 115h8M704 115h8M8 116h8M704 116h8M8 117h8M704 117h8M8 118h8M704 118h8M8 119h8M704 119h8M8 120h8M704 120h8M8 121h8M704 121h8M8 122h8M704 122h8M8 123h8M704 123h8M8 124h8M704 124h8M8 125h8M704 125h8M8 126h8M704 126h8M8 127h8M704 127h8M8 128h8M704 128h8M8 129h8M704 129h8M8 130h8M704 130h8M8 131h8M704 131h8M8 132h8M704 132h8M8 133h8M704 133h8M8 134h8M704 134h8M8 135h8M704 135h8M8 136h8M704 136h8M8 137h8M704 137h8M8 138h8M704 138h8M8 139h8M704 139h8M8 140h8M704 140h8M8 141h8M704 141h8M8 142h8M704 142h8M8 143h8M704 143h8M8 144h8M704 144h8M8 145h8M704 145h8M8 146h8M704 146h8M8 147h8M704 147h8M8 148h8M704 148h8M8 149h8M704 149h8M8 150h8M704 150h8M8 151h8M704 151h8M0 152h8M16 152h8M696 152h8M712 152h8M0 153h8M16 153h8M696 153h8M712 153h8M0 154h8M16 154h8M696 154h8M712 154h8M0 155h8M16 155h8M696 155h8M712 155h8M0 156h8M16 156h8M696 156h8M712 156h8M0 157h8M16 157h8M696 157h8M712 157h8M0 158h8M16 158h8M696 158h8M712 158h8M0 159h8M16 159h8M696 159h8M712 159h8M0 160h8M24 160h8M688 160h8M712 160h8M0 161h8M24 161h8M688 161h8M712 161h8M0 162h8M24 162h8M688 162h8M712 162h8M0 163h8M24 163h8M688 163h8M712 163h8M0 164h8M24 164h8M688 164h8M712 164h8M0 165h8M24 165h8M688 165h8M712 165h8M0 166h8M24 166h8M688 166h8M712 166h8M0 167h8M24 167h8M688 167h8M712 167h8M0 168h8M32 168h8M680 168h8M712 168h8M0 169h8M32 169h8M680 169h8M712 169h8M0 170h8M32 170h8M680 170h8M712 170h8M0 171h8M32 171h8M680 171h8M712 171h8M0 172h8M32 172h8M680 172h8M712 172h8M0 173h8M32 173h8M680 173h8M712 173h8M0 174h8M32 174h8M680 174h8M712 174h8M0 175h8M32 175h8M680 175h8M712 175h8M0 176h8M712 176h8M0 177h8M712 177h8M0 178h8M712 178h8M0 179h8M712 179h8M0 180h8M712 180h8M0 181h8M712 181h8M0 182h8M712 182h8M0 183h8M712 183h8M0 184h8M48 184h8M664 184h8M712 184h8M0 185h8M48 185h8M664 185h8M712 185h8M0 186h8M48 186h8M664 186h8M712 186h8M0 187h8M48 187h8M664 187h8M712 187h8M0 188h8M48 188h8M664 188h8M712 188h8M0 189h8M48 189h8M664 189h8M712 189h8M0 190h8M48 190h8M664 190h8M712 190h8M0 191h8M48 191h8M664 191h8M712 191h8M0 192h8M56 192h8M656 192h8M712 192h8M0 193h8M56 193h8M656 193h8M712 193h8M0 194h8M56 194h8M656 194h8M712 194h8M0 195h8M56 195h8M656 195h8M712 195h8M0 196h8M56 196h8M656 196h8M712 196h8M0 197h8M56 197h8M656 197h8M712 197h8M0 198h8M56 198h8M656 198h8M712 198h8M0 199h8M56 199h8M656 199h8M712 199h8M0 200h8M64 200h8M648 200h8M712 200h8M0 201h8M64 201h8M648 201h8M712 201h8M0 202h8M64 202h8M648 202h8M712 202h8M0 203h8M64 203h8M648 203h8M712 203h8M0 204h8M64 204h8M648 204h8M712 204h8M0 205h8M64 205h8M648 205h8M712 205h8M0 206h8M64 206h8M648 206h8M712 206h8M0 207h8M64 207h8M648 207h8M712 207h8M0 208h8M72 208h576M712 208h8M0 209h8M72 209h576M712 209h8M0 210h8M72 210h576M712 210h8M0 211h8M72 211h576M712 211h8M0 212h8M72 212h576M712 212h8M0 213h8M72 213h576M712 213h8M0 214h8M72 214h576M712 214h8M0 215h8M72 215h576M712 215h8M0 216h72M648 216h72M0 217h72M648 217h72M0 218h72M648 218h72M0 219h72M648 219h72M0 220h72M648 220h72M0 221h72M648 221h72M0 222h72M648 222h72M0 223h72M648 223h72" />
<path stroke="#b2b3c5" d="M8 8h8M704 8h8M8 9h8M704 9h8M8 10h8M704 10h8M8 11h8M704 11h8M8 12h8M704 12h8M8 13h8M704 13h8M8 14h8M704 14h8M8 15h8M704 15h8M16 16h8M696 16h8M16 17h8M696 17h8M16 18h8M696 18h8M16 19h8M696 19h8M16 20h8M696 20h8M16 21h8M696 21h8M16 22h8M696 22h8M16 23h8M696 23h8M24 24h8M688 24h8M24 25h8M688 25h8M24 26h8M688 26h8M24 27h8M688 27h8M24 28h8M688 28h8M24 29h8M688 29h8M24 30h8M688 30h8M24 31h8M688 31h8M24 192h8M688 192h8M24 193h8M688 193h8M24 194h8M688 194h8M24 195h8M688 195h8M24 196h8M688 196h8M24 197h8M688 197h8M24 198h8M688 198h8M24 199h8M688 199h8M16 200h8M696 200h8M16 201h8M696 201h8M16 202h8M696 202h8M16 203h8M696 203h8M16 204h8M696 204h8M16 205h8M696 205h8M16 206h8M696 206h8M16 207h8M696 207h8M8 208h8M704 208h8M8 209h8M704 209h8M8 210h8M704 210h8M8 211h8M704 211h8M8 212h8M704 212h8M8 213h8M704 213h8M8 214h8M704 214h8M8 215h8M704 215h8" />
<path stroke="#8e8e9e" d="M16 8h32M672 8h32M16 9h32M672 9h32M16 10h32M672 10h32M16 11h32M672 11h32M16 12h32M672 12h32M16 13h32M672 13h32M16 14h32M672 14h32M16 15h32M672 15h32M8 16h8M24 16h24M672 16h24M704 16h8M8 17h8M24 17h24M672 17h24M704 17h8M8 18h8M24 18h24M672 18h24M704 18h8M8 19h8M24 19h24M672 19h24M704 19h8M8 20h8M24 20h24M672 20h24M704 20h8M8 21h8M24 21h24M672 21h24M704 21h8M8 22h8M24 22h24M672 22h24M704 22h8M8 23h8M24 23h24M672 23h24M704 23h8M8 24h16M32 24h16M672 24h16M696 24h16M8 25h16M32 25h16M672 25h16M696 25h16M8 26h16M32 26h16M672 26h16M696 26h16M8 27h16M32 27h16M672 27h16M696 27h16M8 28h16M32 28h16M672 28h16M696 28h16M8 29h16M32 29h16M672 29h16M696 29h16M8 30h16M32 30h16M672 30h16M696 30h16M8 31h16M32 31h16M672 31h16M696 31h16M8 32h40M672 32h40M8 33h40M672 33h40M8 34h40M672 34h40M8 35h40M672 35h40M8 36h40M672 36h40M8 37h40M672 37h40M8 38h40M672 38h40M8 39h40M672 39h40M8 40h32M680 40h32M8 41h32M680 41h32M8 42h32M680 42h32M8 43h32M680 43h32M8 44h32M680 44h32M8 45h32M680 45h32M8 46h32M680 46h32M8 47h32M680 47h32M8 176h32M680 176h32M8 177h32M680 177h32M8 178h32M680 178h32M8 179h32M680 179h32M8 180h32M680 180h32M8 181h32M680 181h32M8 182h32M680 182h32M8 183h32M680 183h32M8 184h40M672 184h40M8 185h40M672 185h40M8 186h40M672 186h40M8 187h40M672 187h40M8 188h40M672 188h40M8 189h40M672 189h40M8 190h40M672 190h40M8 191h40M672 191h40M8 192h16M32 192h16M672 192h16M696 192h16M8 193h16M32 193h16M672 193h16M696 193h16M8 194h16M32 194h16M672 194h16M696 194h16M8 195h16M32 195h16M672 195h16M696 195h16M8 196h16M32 196h16M672 196h16M696 196h16M8 197h16M32 197h16M672 197h16M696 197h16M8 198h16M32 198h16M672 198h16M696 198h16M8 199h16M32 199h16M672 199h16M696 199h16M8 200h8M24 200h24M672 200h24M704 200h8M8 201h8M24 201h24M672 201h24M704 201h8M8 202h8M24 202h24M672 202h24M704 202h8M8 203h8M24 203h24M672 203h24M704 203h8M8 204h8M24 204h24M672 204h24M704 204h8M8 205h8M24 205h24M672 205h24M704 205h8M8 206h8M24 206h24M672 206h24M704 206h8M8 207h8M24 207h24M672 207h24M704 207h8M16 208h32M672 208h32M16 209h32M672 209h32M16 210h32M672 210h32M16 211h32M672 211h32M16 212h32M672 212h32M16 213h32M672 213h32M16 214h32M672 214h32M16 215h32M672 215h32" />
<path stroke="#6e6e7a" d="M48 8h24M648 8h24M48 9h24M648 9h24M48 10h24M648 10h24M48 11h24M648 11h24M48 12h24M648 12h24M48 13h24M648 13h24M48 14h24M648 14h24M48 15h24M648 15h24M48 16h16M656 16h16M48 17h16M656 17h16M48 18h16M656 18h16M48 19h16M656 19h16M48 20h16M656 20h16M48 21h16M656 21h16M48 22h16M656 22h16M48 23h16M656 23h16M48 24h8M664 24h8M48 25h8M664 25h8M48 26h8M664 26h8M48 27h8M664 27h8M48 28h8M664 28h8M48 29h8M664 29h8M48 30h8M664 30h8M48 31h8M664 31h8M8 48h24M688 48h24M8 49h24M688 49h24M8 50h24M688 50h24M8 51h24M688 51h24M8 52h24M688 52h24M8 53h24M688 53h24M8 54h24M688 54h24M8 55h24M688 55h24M8 56h16M696 56h16M8 57h16M696 57h16M8 58h16M696 58h16M8 59h16M696 59h16M8 60h16M696 60h16M8 61h16M696 61h16M8 62h16M696 62h16M8 63h16M696 63h16M8 64h8M704 64h8M8 65h8M704 65h8M8 66h8M704 66h8M8 67h8M704 67h8M8 68h8M704 68h8M8 69h8M704 69h8M8 70h8M704 70h8M8 71h8M704 71h8M8 152h8M704 152h8M8 153h8M704 153h8M8 154h8M704 154h8M8 155h8M704 155h8M8 156h8M704 156h8M8 157h8M704 157h8M8 158h8M704 158h8M8 159h8M704 159h8M8 160h16M696 160h16M8 161h16M696 161h16M8 162h16M696 162h16M8 163h16M696 163h16M8 164h16M696 164h16M8 165h16M696 165h16M8 166h16M696 166h16M8 167h16M696 167h16M8 168h24M688 168h24M8 169h24M688 169h24M8 170h24M688 170h24M8 171h24M688 171h24M8 172h24M688 172h24M8 173h24M688 173h24M8 174h24M688 174h24M8 175h24M688 175h24M48 192h8M664 192h8M48 193h8M664 193h8M48 194h8M664 194h8M48 195h8M664 195h8M48 196h8M664 196h8M48 197h8M664 197h8M48 198h8M664 198h8M48 199h8M664 199h8M48 200h16M656 200h16M48 201h16M656 201h16M48 202h16M656 202h16M48 203h16M656 203h16M48 204h16M656 204h16M48 205h16M656 205h16M48 206h16M656 206h16M48 207h16M656 207h16M48 208h24M648 208h24M48 209h24M648 209h24M48 210h24M648 210h24M48 211h24M648 211h24M48 212h24M648 212h24M48 213h24M648 213h24M48 214h24M648 214h24M48 215h24M648 215h24" />
<path stroke="#9e9e9e" d="M72 16h576M72 17h576M72 18h576M72 19h576M72 20h576M72 21h576M72 22h576M72 23h576M64 24h592M64 25h592M64 26h592M64 27h592M64 28h592M64 29h592M64 30h592M64 31h592M56 32h608M56 33h608M56 34h608M56 35h608M56 36h608M56 37h608M56 38h608M56 39h608M32 56h8M32 57h8M32 58h8M32 59h8M32 60h8M32 61h8M32 62h8M32 63h8M24 64h16M24 65h16M24 66h16M24 67h16M24 68h16M24 69h16M24 70h16M24 71h16M16 72h24M16 73h24M16 74h24M16 75h24M16 76h24M16 77h24M16 78h24M16 79h24M16 80h24M16 81h24M16 82h24M16 83h24M16 84h24M16 85h24M16 86h24M16 87h24M16 88h24M16 89h24M16 90h24M16 91h24M16 92h24M16 93h24M16 94h24M16 95h24M16 96h24M16 97h24M16 98h24M16 99h24M16 100h24M16 101h24M16 102h24M16 103h24M16 104h24M16 105h24M16 106h24M16 107h24M16 108h24M16 109h24M16 110h24M16 111h24M16 112h24M16 113h24M16 114h24M16 115h24M16 116h24M16 117h24M16 118h24M16 119h24M16 120h24M16 121h24M16 122h24M16 123h24M16 124h24M16 125h24M16 126h24M16 127h24M16 128h24M16 129h24M16 130h24M16 131h24M16 132h24M16 133h24M16 134h24M16 135h24M16 136h24M16 137h24M16 138h24M16 139h24M16 140h24M16 141h24M16 142h24M16 143h24M16 144h24M16 145h24M16 146h24M16 147h24M16 148h24M16 149h24M16 150h24M16 151h24M24 152h16M24 153h16M24 154h16M24 155h16M24 156h16M24 157h16M24 158h16M24 159h16M32 160h8M32 161h8M32 162h8M32 163h8M32 164h8M32 165h8M32 166h8M32 167h8" />
<path stroke="#e5e5e5" d="M40 40h640M40 41h640M40 42h640M40 43h640M40 44h640M40 45h640M40 46h640M40 47h640M40 48h8M672 48h8M40 49h8M672 49h8M40 50h8M672 50h8M40 51h8M672 51h8M40 52h8M672 52h8M40 53h8M672 53h8M40 54h8M672 54h8M40 55h8M672 55h8M40 56h8M672 56h8M40 57h8M672 57h8M40 58h8M672 58h8M40 59h8M672 59h8M40 60h8M672 60h8M40 61h8M672 61h8M40 62h8M672 62h8M40 63h8M672 63h8M40 64h8M672 64h8M40 65h8M672 65h8M40 66h8M672 66h8M40 67h8M672 67h8M40 68h8M672 68h8M40 69h8M672 69h8M40 70h8M672 70h8M40 71h8M672 71h8M40 72h8M672 72h8M40 73h8M672 73h8M40 74h8M672 74h8M40 75h8M672 75h8M40 76h8M672 76h8M40 77h8M672 77h8M40 78h8M672 78h8M40 79h8M672 79h8M40 80h8M672 80h8M40 81h8M672 81h8M40 82h8M672 82h8M40 83h8M672 83h8M40 84h8M672 84h8M40 85h8M672 85h8M40 86h8M672 86h8M40 87h8M672 87h8M40 88h8M672 88h8M40 89h8M672 89h8M40 90h8M672 90h8M40 91h8M672 91h8M40 92h8M672 92h8M40 93h8M672 93h8M40 94h8M672 94h8M40 95h8M672 95h8M40 96h8M672 96h8M40 97h8M672 97h8M40 98h8M672 98h8M40 99h8M672 99h8M40 100h8M672 100h8M40 101h8M672 101h8M40 102h8M672 102h8M40 103h8M672 103h8M40 104h8M672 104h8M40 105h8M672 105h8M40 106h8M672 106h8M40 107h8M672 107h8M40 108h8M672 108h8M40 109h8M672 109h8M40 110h8M672 110h8M40 111h8M672 111h8M40 112h8M672 112h8M40 113h8M672 113h8M40 114h8M672 114h8M40 115h8M672 115h8M40 116h8M672 116h8M40 117h8M672 117h8M40 118h8M672 118h8M40 119h8M672 119h8M40 120h8M672 120h8M40 121h8M672 121h8M40 122h8M672 122h8M40 123h8M672 123h8M40 124h8M672 124h8M40 125h8M672 125h8M40 126h8M672 126h8M40 127h8M672 127h8M40 128h8M672 128h8M40 129h8M672 129h8M40 130h8M672 130h8M40 131h8M672 131h8M40 132h8M672 132h8M40 133h8M672 133h8M40 134h8M672 134h8M40 135h8M672 135h8M40 136h8M672 136h8M40 137h8M672 137h8M40 138h8M672 138h8M40 139h8M672 139h8M40 140h8M672 140h8M40 141h8M672 141h8M40 142h8M672 142h8M40 143h8M672 143h8M40 144h8M672 144h8M40 145h8M672 145h8M40 146h8M672 146h8M40 147h8M672 147h8M40 148h8M672 148h8M40 149h8M672 149h8M40 150h8M672 150h8M40 151h8M672 151h8M40 152h8M672 152h8M40 153h8M672 153h8M40 154h8M672 154h8M40 155h8M672 155h8M40 156h8M672 156h8M40 157h8M672 157h8M40 158h8M672 158h8M40 159h8M672 159h8M40 160h8M672 160h8M40 161h8M672 161h8M40 162h8M672 162h8M40 163h8M672 163h8M40 164h8M672 164h8M40 165h8M672 165h8M40 166h8M672 166h8M40 167h8M672 167h8M40 168h8M672 168h8M40 169h8M672 169h8M40 170h8M672 170h8M40 171h8M672 171h8M40 172h8M672 172h8M40 173h8M672 173h8M40 174h8M672 174h8M40 175h8M672 175h8M40 176h640M40 177h640M40 178h640M40 179h640M40 180h640M40 181h640M40 182h640M40 183h640" />
<path stroke="#d7d7d7" d="M48 48h624M48 49h624M48 50h624M48 51h624M48 52h624M48 53h624M48 54h624M48 55h624M48 56h8M72 56h600M48 57h8M72 57h600M48 58h8M72 58h600M48 59h8M72 59h600M48 60h8M72 60h600M48 61h8M72 61h600M48 62h8M72 62h600M48 63h8M72 63h600M48 64h8M80 64h592M48 65h8M80 65h592M48 66h8M80 66h592M48 67h8M80 67h592M48 68h8M80 68h592M48 69h8M80 69h592M48 70h8M80 70h592M48 71h8M80 71h592M48 72h16M80 72h592M48 73h16M80 73h592M48 74h16M80 74h592M48 75h16M80 75h592M48 76h16M80 76h592M48 77h16M80 77h592M48 78h16M80 78h592M48 79h16M80 79h592M48 80h624M48 81h624M48 82h624M48 83h624M48 84h624M48 85h624M48 86h624M48 87h624M48 88h624M48 89h624M48 90h624M48 91h624M48 92h624M48 93h624M48 94h624M48 95h624M48 96h624M48 97h624M48 98h624M48 99h624M48 100h624M48 101h624M48 102h624M48 103h624M48 104h624M48 105h624M48 106h624M48 107h624M48 108h624M48 109h624M48 110h624M48 111h624M48 112h624M48 113h624M48 114h624M48 115h624M48 116h624M48 117h624M48 118h624M48 119h624M48 120h624M48 121h624M48 122h624M48 123h624M48 124h624M48 125h624M48 126h624M48 127h624M48 128h624M48 129h624M48 130h624M48 131h624M48 132h624M48 133h624M48 134h624M48 135h624M48 136h624M48 137h624M48 138h624M48 139h624M48 140h624M48 141h624M48 142h624M48 143h624M48 144h592M656 144h16M48 145h592M656 145h16M48 146h592M656 146h16M48 147h592M656 147h16M48 148h592M656 148h16M48 149h592M656 149h16M48 150h592M656 150h16M48 151h592M656 151h16M48 152h592M664 152h8M48 153h592M664 153h8M48 154h592M664 154h8M48 155h592M664 155h8M48 156h592M664 156h8M48 157h592M664 157h8M48 158h592M664 158h8M48 159h592M664 159h8M48 160h600M664 160h8M48 161h600M664 161h8M48 162h600M664 162h8M48 163h600M664 163h8M48 164h600M664 164h8M48 165h600M664 165h8M48 166h600M664 166h8M48 167h600M664 167h8M48 168h624M48 169h624M48 170h624M48 171h624M48 172h624M48 173h624M48 174h624M48 175h624" />
<path stroke="#f0f0f0" d="M56 56h16M56 57h16M56 58h16M56 59h16M56 60h16M56 61h16M56 62h16M56 63h16M56 64h16M56 65h16M56 66h16M56 67h16M56 68h16M56 69h16M56 70h16M56 71h16M640 144h16M640 145h16M640 146h16M640 147h16M640 148h16M640 149h16M640 150h16M640 151h16M640 152h16M640 153h16M640 154h16M640 155h16M640 156h16M640 157h16M640 158h16M640 159h16" />
<path stroke="#6f6f6f" d="M680 56h8M680 57h8M680 58h8M680 59h8M680 60h8M680 61h8M680 62h8M680 63h8M680 64h16M680 65h16M680 66h16M680 67h16M680 68h16M680 69h16M680 70h16M680 71h16M680 72h24M680 73h24M680 74h24M680 75h24M680 76h24M680 77h24M680 78h24M680 79h24M680 80h24M680 81h24M680 82h24M680 83h24M680 84h24M680 85h24M680 86h24M680 87h24M680 88h24M680 89h24M680 90h24M680 91h24M680 92h24M680 93h24M680 94h24M680 95h24M680 96h24M680 97h24M680 98h24M680 99h24M680 100h24M680 101h24M680 102h24M680 103h24M680 104h24M680 105h24M680 106h24M680 107h24M680 108h24M680 109h24M680 110h24M680 111h24M680 112h24M680 113h24M680 114h24M680 115h24M680 116h24M680 117h24M680 118h24M680 119h24M680 120h24M680 121h24M680 122h24M680 123h24M680 124h24M680 125h24M680 126h24M680 127h24M680 128h24M680 129h24M680 130h24M680 131h24M680 132h24M680 133h24M680 134h24M680 135h24M680 136h24M680 137h24M680 138h24M680 139h24M680 140h24M680 141h24M680 142h24M680 143h24M680 144h24M680 145h24M680 146h24M680 147h24M680 148h24M680 149h24M680 150h24M680 151h24M680 152h16M680 153h16M680 154h16M680 155h16M680 156h16M680 157h16M680 158h16M680 159h16M680 160h8M680 161h8M680 162h8M680 163h8M680 164h8M680 165h8M680 166h8M680 167h8M56 184h608M56 185h608M56 186h608M56 187h608M56 188h608M56 189h608M56 190h608M56 191h608M64 192h592M64 193h592M64 194h592M64 195h592M64 196h592M64 197h592M64 198h592M64 199h592M72 200h576M72 201h576M72 202h576M72 203h576M72 204h576M72 205h576M72 206h576M72 207h576" />
<path stroke="#808080" d="M72 64h8M72 65h8M72 66h8M72 67h8M72 68h8M72 69h8M72 70h8M72 71h8M64 72h16M64 73h16M64 74h16M64 75h16M64 76h16M64 77h16M64 78h16M64 79h16M656 152h8M656 153h8M656 154h8M656 155h8M656 156h8M656 157h8M656 158h8M656 159h8M648 160h16M648 161h16M648 162h16M648 163h16M648 164h16M648 165h16M648 166h16M648 167h16" />
</svg>