<svg xmlns="http://www.w3.org/2000/svg" viewBox="0 -0.5 30 25" shape-rendering="crispEdges">
<metadata>Made with Pixels to Svg https://codepen.io/shshaw/pen/XbxvNj</metadata>
<path stroke="#3c3c3c" d="M12 0h5M11 1h1M17 1h1M10 2h1M18 2h1M10 3h1M19 3h1M9 4h1M20 4h1M9 5h1M20 5h1M8 6h1M20 6h1M8 7h1M20 7h1M8 8h1M21 8h1M8 9h1M19 9h4M7 10h3M18 10h1M23 10h1M5 11h2M10 11h1M17 11h1M24 11h1M4 12h1M11 12h1M16 12h1M25 12h1M4 13h1M12 13h1M15 13h1M26 13h1M3 14h1M13 14h2M26 14h1M2 15h1M12 15h3M27 15h1M2 16h1M12 16h1M28 16h1M1 17h1M11 17h2M28 17h1M1 18h1M11 18h1M29 18h1M0 19h1M11 19h1M29 19h1M0 20h1M11 20h1M29 20h1M1 21h2M11 21h1M29 21h1M3 22h1M10 22h1M12 22h1M28 22h2M4 23h6M13 23h1M25 23h4M13 24h13" />
<path stroke="#6d6d6d" d="M12 1h5M11 2h3M11 3h2M10 4h3M10 5h2M9 6h3M9 7h3M9 8h2M9 9h2M10 10h1" />
<path stroke="#7f7f7f" d="M14 2h4M13 3h6M13 4h5M12 5h3M12 6h2M12 7h2M11 8h2M11 9h2M11 10h2M11 11h3M12 12h2M13 13h2" />
<path stroke="#909090" d="M18 4h2M15 5h4M14 6h6M14 7h6M13 8h6M20 8h1M13 9h5M13 10h4M14 11h3M14 12h2" />
<path stroke="#cecece" d="M19 5h1M19 8h1M18 9h1M17 10h1M25 15h1M26 17h1M10 18h1M26 18h1M26 19h1M10 20h1M25 20h1M10 21h1M9 22h1" />
<path stroke="#616161" d="M19 10h4M19 11h5M19 12h4M19 13h3M10 14h2M18 14h3M11 15h1M17 15h4M17 16h4M16 17h4M15 18h4M15 19h4M15 20h5M16 21h5M17 22h5M18 23h5" />
<path stroke="#595959" d="M7 11h3M18 11h1M5 12h6M17 12h2M5 13h1M10 13h2M16 13h3M4 14h2M12 14h1M15 14h3M3 15h2M15 15h2M3 16h1M13 16h4M2 17h2M13 17h3M2 18h2M12 18h3M1 19h2M12 19h3M1 20h3M12 20h3M3 21h2M8 21h2M12 21h4M4 22h5M13 22h4M14 23h4" />
<path stroke="#757575" d="M23 12h2M22 13h4M21 14h5M21 15h4M26 15h1M21 16h7M20 17h6M27 17h1M19 18h7M27 18h2M19 19h7M27 19h2M20 20h5M26 20h3M21 21h8M22 22h6M23 23h2" />
<path stroke="#656565" d="M6 13h4M6 14h4M5 15h2M10 15h1M4 16h2M4 17h1M4 18h1M3 19h3M4 20h6M5 21h3" />
<path stroke="#797979" d="M7 15h3M6 16h6M5 17h6M5 18h5M6 19h5" />
</svg>