<svg xmlns="http://www.w3.org/2000/svg" viewBox="0 -0.5 1032 1080" shape-rendering="crispEdges">
<metadata>Made with Pixels to Svg https://codepen.io/shshaw/pen/XbxvNj</metadata>
<path stroke="#ff474e" d="M492 0h48M492 1h48M492 2h48M492 3h48M492 4h48M492 5h48M492 6h48M492 7h48M492 8h48M492 9h48M492 10h48M492 11h48M456 12h120M456 13h120M456 14h120M456 15h120M456 16h120M456 17h120M456 18h120M456 19h120M456 20h120M456 21h120M456 22h120M456 23h120M420 24h72M540 24h72M420 25h72M540 25h72M420 26h72M540 26h72M420 27h72M540 27h72M420 28h72M540 28h72M420 29h72M540 29h72M420 30h72M540 30h72M420 31h72M540 31h72M420 32h72M540 32h72M420 33h72M540 33h72M420 34h72M540 34h72M420 35h72M540 35h72M384 36h72M576 36h72M384 37h72M576 37h72M384 38h72M576 38h72M384 39h72M576 39h72M384 40h72M576 40h72M384 41h72M576 41h72M384 42h72M576 42h72M384 43h72M576 43h72M384 44h72M576 44h72M384 45h72M576 45h72M384 46h72M576 46h72M384 47h72M576 47h72M360 48h60M612 48h60M360 49h60M612 49h60M360 50h60M612 50h60M360 51h60M612 51h60M360 52h60M612 52h60M360 53h60M612 53h60M360 54h60M612 54h60M360 55h60M612 55h60M360 56h60M612 56h60M360 57h60M612 57h60M360 58h60M612 58h60M360 59h60M612 59h60M336 60h48M648 60h48M336 61h48M648 61h48M336 62h48M648 62h48M336 63h48M648 63h48M336 64h48M648 64h48M336 65h48M648 65h48M336 66h48M648 66h48M336 67h48M648 67h48M336 68h48M648 68h48M336 69h48M648 69h48M336 70h48M648 70h48M336 71h48M648 71h48M312 72h48M672 72h48M312 73h48M672 73h48M312 74h48M672 74h48M312 75h48M672 75h48M312 76h48M672 76h48M312 77h48M672 77h48M312 78h48M672 78h48M312 79h48M672 79h48M312 80h48M672 80h48M312 81h48M672 81h48M312 82h48M672 82h48M312 83h48M672 83h48M300 84h36M696 84h36M300 85h36M696 85h36M300 86h36M696 86h36M300 87h36M696 87h36M300 88h36M696 88h36M300 89h36M696 89h36M300 90h36M696 90h36M300 91h36M696 91h36M300 92h36M696 92h36M300 93h36M696 93h36M300 94h36M696 94h36M300 95h36M696 95h36M288 96h24M720 96h24M288 97h24M720 97h24M288 98h24M720 98h24M288 99h24M720 99h24M288 100h24M720 100h24M288 101h24M720 101h24M288 102h24M720 102h24M288 103h24M720 103h24M288 104h24M720 104h24M288 105h24M720 105h24M288 106h24M720 106h24M288 107h24M720 107h24M276 108h24M732 108h24M276 109h24M732 109h24M276 110h24M732 110h24M276 111h24M732 111h24M276 112h24M732 112h24M276 113h24M732 113h24M276 114h24M732 114h24M276 115h24M732 115h24M276 116h24M732 116h24M276 117h24M732 117h24M276 118h24M732 118h24M276 119h24M732 119h24M264 120h24M744 120h24M264 121h24M744 121h24M264 122h24M744 122h24M264 123h24M744 123h24M264 124h24M744 124h24M264 125h24M744 125h24M264 126h24M744 126h24M264 127h24M744 127h24M264 128h24M744 128h24M264 129h24M744 129h24M264 130h24M744 130h24M264 131h24M744 131h24M252 132h24M756 132h24M252 133h24M756 133h24M252 134h24M756 134h24M252 135h24M756 135h24M252 136h24M756 136h24M252 137h24M756 137h24M252 138h24M756 138h24M252 139h24M756 139h24M252 140h24M756 140h24M252 141h24M756 141h24M252 142h24M756 142h24M252 143h24M756 143h24M240 144h24M768 144h24M240 145h24M768 145h24M240 146h24M768 146h24M240 147h24M768 147h24M240 148h24M768 148h24M240 149h24M768 149h24M240 150h24M768 150h24M240 151h24M768 151h24M240 152h24M768 152h24M240 153h24M768 153h24M240 154h24M768 154h24M240 155h24M768 155h24M144 264h12M876 264h12M144 265h12M876 265h12M144 266h12M876 266h12M144 267h12M876 267h12M144 268h12M876 268h12M144 269h12M876 269h12M144 270h12M876 270h12M144 271h12M876 271h12M144 272h12M876 272h12M144 273h12M876 273h12M144 274h12M876 274h12M144 275h12M876 275h12M132 276h24M876 276h24M132 277h24M876 277h24M132 278h24M876 278h24M132 279h24M876 279h24M132 280h24M876 280h24M132 281h24M876 281h24M132 282h24M876 282h24M132 283h24M876 283h24M132 284h24M876 284h24M132 285h24M876 285h24M132 286h24M876 286h24M132 287h24M876 287h24M120 288h24M888 288h24M120 289h24M888 289h24M120 290h24M888 290h24M120 291h24M888 291h24M120 292h24M888 292h24M120 293h24M888 293h24M120 294h24M888 294h24M120 295h24M888 295h24M120 296h24M888 296h24M120 297h24M888 297h24M120 298h24M888 298h24M120 299h24M888 299h24M108 300h24M900 300h24M108 301h24M900 301h24M108 302h24M900 302h24M108 303h24M900 303h24M108 304h24M900 304h24M108 305h24M900 305h24M108 306h24M900 306h24M108 307h24M900 307h24M108 308h24M900 308h24M108 309h24M900 309h24M108 310h24M900 310h24M108 311h24M900 311h24M96 312h24M912 312h24M96 313h24M912 313h24M96 314h24M912 314h24M96 315h24M912 315h24M96 316h24M912 316h24M96 317h24M912 317h24M96 318h24M912 318h24M96 319h24M912 319h24M96 320h24M912 320h24M96 321h24M912 321h24M96 322h24M912 322h24M96 323h24M912 323h24M84 324h24M924 324h24M84 325h24M924 325h24M84 326h24M924 326h24M84 327h24M924 327h24M84 328h24M924 328h24M84 329h24M924 329h24M84 330h24M924 330h24M84 331h24M924 331h24M84 332h24M924 332h24M84 333h24M924 333h24M84 334h24M924 334h24M84 335h24M924 335h24M72 336h24M936 336h24M72 337h24M936 337h24M72 338h24M936 338h24M72 339h24M936 339h24M72 340h24M936 340h24M72 341h24M936 341h24M72 342h24M936 342h24M72 343h24M936 343h24M72 344h24M936 344h24M72 345h24M936 345h24M72 346h24M936 346h24M72 347h24M936 347h24M72 348h24M936 348h24M72 349h24M936 349h24M72 350h24M936 350h24M72 351h24M936 351h24M72 352h24M936 352h24M72 353h24M936 353h24M72 354h24M936 354h24M72 355h24M936 355h24M72 356h24M936 356h24M72 357h24M936 357h24M72 358h24M936 358h24M72 359h24M936 359h24M60 360h24M948 360h24M60 361h24M948 361h24M60 362h24M948 362h24M60 363h24M948 363h24M60 364h24M948 364h24M60 365h24M948 365h24M60 366h24M948 366h24M60 367h24M948 367h24M60 368h24M948 368h24M60 369h24M948 369h24M60 370h24M948 370h24M60 371h24M948 371h24M60 372h24M948 372h24M60 373h24M948 373h24M60 374h24M948 374h24M60 375h24M948 375h24M60 376h24M948 376h24M60 377h24M948 377h24M60 378h24M948 378h24M60 379h24M948 379h24M60 380h24M948 380h24M60 381h24M948 381h24M60 382h24M948 382h24M60 383h24M948 383h24M48 384h24M960 384h24M48 385h24M960 385h24M48 386h24M960 386h24M48 387h24M960 387h24M48 388h24M960 388h24M48 389h24M960 389h24M48 390h24M960 390h24M48 391h24M960 391h24M48 392h24M960 392h24M48 393h24M960 393h24M48 394h24M960 394h24M48 395h24M960 395h24M48 396h24M960 396h24M48 397h24M960 397h24M48 398h24M960 398h24M48 399h24M960 399h24M48 400h24M960 400h24M48 401h24M960 401h24M48 402h24M960 402h24M48 403h24M960 403h24M48 404h24M960 404h24M48 405h24M960 405h24M48 406h24M960 406h24M48 407h24M960 407h24M36 408h24M972 408h24M36 409h24M972 409h24M36 410h24M972 410h24M36 411h24M972 411h24M36 412h24M972 412h24M36 413h24M972 413h24M36 414h24M972 414h24M36 415h24M972 415h24M36 416h24M972 416h24M36 417h24M972 417h24M36 418h24M972 418h24M36 419h24M972 419h24M36 420h24M972 420h24M36 421h24M972 421h24M36 422h24M972 422h24M36 423h24M972 423h24M36 424h24M972 424h24M36 425h24M972 425h24M36 426h24M972 426h24M36 427h24M972 427h24M36 428h24M972 428h24M36 429h24M972 429h24M36 430h24M972 430h24M36 431h24M972 431h24M36 432h24M972 432h24M36 433h24M972 433h24M36 434h24M972 434h24M36 435h24M972 435h24M36 436h24M972 436h24M36 437h24M972 437h24M36 438h24M972 438h24M36 439h24M972 439h24M36 440h24M972 440h24M36 441h24M972 441h24M36 442h24M972 442h24M36 443h24M972 443h24M24 444h24M984 444h24M24 445h24M984 445h24M24 446h24M984 446h24M24 447h24M984 447h24M24 448h24M984 448h24M24 449h24M984 449h24M24 450h24M984 450h24M24 451h24M984 451h24M24 452h24M984 452h24M24 453h24M984 453h24M24 454h24M984 454h24M24 455h24M984 455h24M24 456h24M984 456h24M24 457h24M984 457h24M24 458h24M984 458h24M24 459h24M984 459h24M24 460h24M984 460h24M24 461h24M984 461h24M24 462h24M984 462h24M24 463h24M984 463h24M24 464h24M984 464h24M24 465h24M984 465h24M24 466h24M984 466h24M24 467h24M984 467h24M24 468h24M984 468h24M24 469h24M984 469h24M24 470h24M984 470h24M24 471h24M984 471h24M24 472h24M984 472h24M24 473h24M984 473h24M24 474h24M984 474h24M24 475h24M984 475h24M24 476h24M984 476h24M24 477h24M984 477h24M24 478h24M984 478h24M24 479h24M984 479h24M12 480h24M996 480h24M12 481h24M996 481h24M12 482h24M996 482h24M12 483h24M996 483h24M12 484h24M996 484h24M12 485h24M996 485h24M12 486h24M996 486h24M12 487h24M996 487h24M12 488h24M996 488h24M12 489h24M996 489h24M12 490h24M996 490h24M12 491h24M996 491h24M12 492h24M996 492h24M12 493h24M996 493h24M12 494h24M996 494h24M12 495h24M996 495h24M12 496h24M996 496h24M12 497h24M996 497h24M12 498h24M996 498h24M12 499h24M996 499h24M12 500h24M996 500h24M12 501h24M996 501h24M12 502h24M996 502h24M12 503h24M996 503h24M12 504h24M996 504h24M12 505h24M996 505h24M12 506h24M996 506h24M12 507h24M996 507h24M12 508h24M996 508h24M12 509h24M996 509h24M12 510h24M996 510h24M12 511h24M996 511h24M12 512h24M996 512h24M12 513h24M996 513h24M12 514h24M996 514h24M12 515h24M996 515h24M0 516h24M1008 516h24M0 517h24M1008 517h24M0 518h24M1008 518h24M0 519h24M1008 519h24M0 520h24M1008 520h24M0 521h24M1008 521h24M0 522h24M1008 522h24M0 523h24M1008 523h24M0 524h24M1008 524h24M0 525h24M1008 525h24M0 526h24M1008 526h24M0 527h24M1008 527h24M0 528h24M1008 528h24M0 529h24M1008 529h24M0 530h24M1008 530h24M0 531h24M1008 531h24M0 532h24M1008 532h24M0 533h24M1008 533h24M0 534h24M1008 534h24M0 535h24M1008 535h24M0 536h24M1008 536h24M0 537h24M1008 537h24M0 538h24M1008 538h24M0 539h24M1008 539h24M0 540h24M1008 540h24M0 541h24M1008 541h24M0 542h24M1008 542h24M0 543h24M1008 543h24M0 544h24M1008 544h24M0 545h24M1008 545h24M0 546h24M1008 546h24M0 547h24M1008 547h24M0 548h24M1008 548h24M0 549h24M1008 549h24M0 550h24M1008 550h24M0 551h24M1008 551h24M0 552h24M1008 552h24M0 553h24M1008 553h24M0 554h24M1008 554h24M0 555h24M1008 555h24M0 556h24M1008 556h24M0 557h24M1008 557h24M0 558h24M1008 558h24M0 559h24M1008 559h24M0 560h24M1008 560h24M0 561h24M1008 561h24M0 562h24M1008 562h24M0 563h24M1008 563h24M12 564h24M996 564h24M12 565h24M996 565h24M12 566h24M996 566h24M12 567h24M996 567h24M12 568h24M996 568h24M12 569h24M996 569h24M12 570h24M996 570h24M12 571h24M996 571h24M12 572h24M996 572h24M12 573h24M996 573h24M12 574h24M996 574h24M12 575h24M996 575h24M12 576h24M996 576h24M12 577h24M996 577h24M12 578h24M996 578h24M12 579h24M996 579h24M12 580h24M996 580h24M12 581h24M996 581h24M12 582h24M996 582h24M12 583h24M996 583h24M12 584h24M996 584h24M12 585h24M996 585h24M12 586h24M996 586h24M12 587h24M996 587h24M12 588h24M996 588h24M12 589h24M996 589h24M12 590h24M996 590h24M12 591h24M996 591h24M12 592h24M996 592h24M12 593h24M996 593h24M12 594h24M996 594h24M12 595h24M996 595h24M12 596h24M996 596h24M12 597h24M996 597h24M12 598h24M996 598h24M12 599h24M996 599h24M24 600h24M984 600h24M24 601h24M984 601h24M24 602h24M984 602h24M24 603h24M984 603h24M24 604h24M984 604h24M24 605h24M984 605h24M24 606h24M984 606h24M24 607h24M984 607h24M24 608h24M984 608h24M24 609h24M984 609h24M24 610h24M984 610h24M24 611h24M984 611h24M24 612h24M984 612h24M24 613h24M984 613h24M24 614h24M984 614h24M24 615h24M984 615h24M24 616h24M984 616h24M24 617h24M984 617h24M24 618h24M984 618h24M24 619h24M984 619h24M24 620h24M984 620h24M24 621h24M984 621h24M24 622h24M984 622h24M24 623h24M984 623h24M24 624h24M984 624h24M24 625h24M984 625h24M24 626h24M984 626h24M24 627h24M984 627h24M24 628h24M984 628h24M24 629h24M984 629h24M24 630h24M984 630h24M24 631h24M984 631h24M24 632h24M984 632h24M24 633h24M984 633h24M24 634h24M984 634h24M24 635h24M984 635h24M36 636h24M972 636h24M36 637h24M972 637h24M36 638h24M972 638h24M36 639h24M972 639h24M36 640h24M972 640h24M36 641h24M972 641h24M36 642h24M972 642h24M36 643h24M972 643h24M36 644h24M972 644h24M36 645h24M972 645h24M36 646h24M972 646h24M36 647h24M972 647h24M36 648h24M972 648h24M36 649h24M972 649h24M36 650h24M972 650h24M36 651h24M972 651h24M36 652h24M972 652h24M36 653h24M972 653h24M36 654h24M972 654h24M36 655h24M972 655h24M36 656h24M972 656h24M36 657h24M972 657h24M36 658h24M972 658h24M36 659h24M972 659h24M36 660h24M972 660h24M36 661h24M972 661h24M36 662h24M972 662h24M36 663h24M972 663h24M36 664h24M972 664h24M36 665h24M972 665h24M36 666h24M972 666h24M36 667h24M972 667h24M36 668h24M972 668h24M36 669h24M972 669h24M36 670h24M972 670h24M36 671h24M972 671h24M48 672h24M960 672h24M48 673h24M960 673h24M48 674h24M960 674h24M48 675h24M960 675h24M48 676h24M960 676h24M48 677h24M960 677h24M48 678h24M960 678h24M48 679h24M960 679h24M48 680h24M960 680h24M48 681h24M960 681h24M48 682h24M960 682h24M48 683h24M960 683h24M48 684h24M960 684h24M48 685h24M960 685h24M48 686h24M960 686h24M48 687h24M960 687h24M48 688h24M960 688h24M48 689h24M960 689h24M48 690h24M960 690h24M48 691h24M960 691h24M48 692h24M960 692h24M48 693h24M960 693h24M48 694h24M960 694h24M48 695h24M960 695h24M60 696h24M948 696h24M60 697h24M948 697h24M60 698h24M948 698h24M60 699h24M948 699h24M60 700h24M948 700h24M60 701h24M948 701h24M60 702h24M948 702h24M60 703h24M948 703h24M60 704h24M948 704h24M60 705h24M948 705h24M60 706h24M948 706h24M60 707h24M948 707h24M60 708h24M948 708h24M60 709h24M948 709h24M60 710h24M948 710h24M60 711h24M948 711h24M60 712h24M948 712h24M60 713h24M948 713h24M60 714h24M948 714h24M60 715h24M948 715h24M60 716h24M948 716h24M60 717h24M948 717h24M60 718h24M948 718h24M60 719h24M948 719h24M72 720h24M936 720h24M72 721h24M936 721h24M72 722h24M936 722h24M72 723h24M936 723h24M72 724h24M936 724h24M72 725h24M936 725h24M72 726h24M936 726h24M72 727h24M936 727h24M72 728h24M936 728h24M72 729h24M936 729h24M72 730h24M936 730h24M72 731h24M936 731h24M72 732h24M936 732h24M72 733h24M936 733h24M72 734h24M936 734h24M72 735h24M936 735h24M72 736h24M936 736h24M72 737h24M936 737h24M72 738h24M936 738h24M72 739h24M936 739h24M72 740h24M936 740h24M72 741h24M936 741h24M72 742h24M936 742h24M72 743h24M936 743h24M84 744h24M924 744h24M84 745h24M924 745h24M84 746h24M924 746h24M84 747h24M924 747h24M84 748h24M924 748h24M84 749h24M924 749h24M84 750h24M924 750h24M84 751h24M924 751h24M84 752h24M924 752h24M84 753h24M924 753h24M84 754h24M924 754h24M84 755h24M924 755h24M96 756h24M912 756h24M96 757h24M912 757h24M96 758h24M912 758h24M96 759h24M912 759h24M96 760h24M912 760h24M96 761h24M912 761h24M96 762h24M912 762h24M96 763h24M912 763h24M96 764h24M912 764h24M96 765h24M912 765h24M96 766h24M912 766h24M96 767h24M912 767h24M108 768h24M900 768h24M108 769h24M900 769h24M108 770h24M900 770h24M108 771h24M900 771h24M108 772h24M900 772h24M108 773h24M900 773h24M108 774h24M900 774h24M108 775h24M900 775h24M108 776h24M900 776h24M108 777h24M900 777h24M108 778h24M900 778h24M108 779h24M900 779h24M120 780h24M888 780h24M120 781h24M888 781h24M120 782h24M888 782h24M120 783h24M888 783h24M120 784h24M888 784h24M120 785h24M888 785h24M120 786h24M888 786h24M120 787h24M888 787h24M120 788h24M888 788h24M120 789h24M888 789h24M120 790h24M888 790h24M120 791h24M888 791h24M132 792h24M876 792h24M132 793h24M876 793h24M132 794h24M876 794h24M132 795h24M876 795h24M132 796h24M876 796h24M132 797h24M876 797h24M132 798h24M876 798h24M132 799h24M876 799h24M132 800h24M876 800h24M132 801h24M876 801h24M132 802h24M876 802h24M132 803h24M876 803h24M144 804h12M876 804h12M144 805h12M876 805h12M144 806h12M876 806h12M144 807h12M876 807h12M144 808h12M876 808h12M144 809h12M876 809h12M144 810h12M876 810h12M144 811h12M876 811h12M144 812h12M876 812h12M144 813h12M876 813h12M144 814h12M876 814h12M144 815h12M876 815h12M240 936h24M768 936h24M240 937h24M768 937h24M240 938h24M768 938h24M240 939h24M768 939h24M240 940h24M768 940h24M240 941h24M768 941h24M240 942h24M768 942h24M240 943h24M768 943h24M240 944h24M768 944h24M240 945h24M768 945h24M240 946h24M768 946h24M240 947h24M768 947h24M252 948h24M756 948h24M252 949h24M756 949h24M252 950h24M756 950h24M252 951h24M756 951h24M252 952h24M756 952h24M252 953h24M756 953h24M252 954h24M756 954h24M252 955h24M756 955h24M252 956h24M756 956h24M252 957h24M756 957h24M252 958h24M756 958h24M252 959h24M756 959h24M264 960h24M744 960h24M264 961h24M744 961h24M264 962h24M744 962h24M264 963h24M744 963h24M264 964h24M744 964h24M264 965h24M744 965h24M264 966h24M744 966h24M264 967h24M744 967h24M264 968h24M744 968h24M264 969h24M744 969h24M264 970h24M744 970h24M264 971h24M744 971h24M276 972h24M732 972h24M276 973h24M732 973h24M276 974h24M732 974h24M276 975h24M732 975h24M276 976h24M732 976h24M276 977h24M732 977h24M276 978h24M732 978h24M276 979h24M732 979h24M276 980h24M732 980h24M276 981h24M732 981h24M276 982h24M732 982h24M276 983h24M732 983h24M288 984h24M720 984h24M288 985h24M720 985h24M288 986h24M720 986h24M288 987h24M720 987h24M288 988h24M720 988h24M288 989h24M720 989h24M288 990h24M720 990h24M288 991h24M720 991h24M288 992h24M720 992h24M288 993h24M720 993h24M288 994h24M720 994h24M288 995h24M720 995h24M300 996h36M696 996h36M300 997h36M696 997h36M300 998h36M696 998h36M300 999h36M696 999h36M300 1000h36M696 1000h36M300 1001h36M696 1001h36M300 1002h36M696 1002h36M300 1003h36M696 1003h36M300 1004h36M696 1004h36M300 1005h36M696 1005h36M300 1006h36M696 1006h36M300 1007h36M696 1007h36M312 1008h48M672 1008h48M312 1009h48M672 1009h48M312 1010h48M672 1010h48M312 1011h48M672 1011h48M312 1012h48M672 1012h48M312 1013h48M672 1013h48M312 1014h48M672 1014h48M312 1015h48M672 1015h48M312 1016h48M672 1016h48M312 1017h48M672 1017h48M312 1018h48M672 1018h48M312 1019h48M672 1019h48M336 1020h48M648 1020h48M336 1021h48M648 1021h48M336 1022h48M648 1022h48M336 1023h48M648 1023h48M336 1024h48M648 1024h48M336 1025h48M648 1025h48M336 1026h48M648 1026h48M336 1027h48M648 1027h48M336 1028h48M648 1028h48M336 1029h48M648 1029h48M336 1030h48M648 1030h48M336 1031h48M648 1031h48M360 1032h60M612 1032h60M360 1033h60M612 1033h60M360 1034h60M612 1034h60M360 1035h60M612 1035h60M360 1036h60M612 1036h60M360 1037h60M612 1037h60M360 1038h60M612 1038h60M360 1039h60M612 1039h60M360 1040h60M612 1040h60M360 1041h60M612 1041h60M360 1042h60M612 1042h60M360 1043h60M612 1043h60M384 1044h72M576 1044h72M384 1045h72M576 1045h72M384 1046h72M576 1046h72M384 1047h72M576 1047h72M384 1048h72M576 1048h72M384 1049h72M576 1049h72M384 1050h72M576 1050h72M384 1051h72M576 1051h72M384 1052h72M576 1052h72M384 1053h72M576 1053h72M384 1054h72M576 1054h72M384 1055h72M576 1055h72M420 1056h72M540 1056h72M420 1057h72M540 1057h72M420 1058h72M540 1058h72M420 1059h72M540 1059h72M420 1060h72M540 1060h72M420 1061h72M540 1061h72M420 1062h72M540 1062h72M420 1063h72M540 1063h72M420 1064h72M540 1064h72M420 1065h72M540 1065h72M420 1066h72M540 1066h72M420 1067h72M540 1067h72M456 1068h120M456 1069h120M456 1070h120M456 1071h120M456 1072h120M456 1073h120M456 1074h120M456 1075h120M456 1076h120M456 1077h120M456 1078h120M456 1079h120" />
<path stroke="#ff656d" d="M492 48h36M492 49h36M492 50h36M492 51h36M492 52h36M492 53h36M492 54h36M492 55h36M492 56h36M492 57h36M492 58h36M492 59h36M456 60h120M456 61h120M456 62h120M456 63h120M456 64h120M456 65h120M456 66h120M456 67h120M456 68h120M456 69h120M456 70h120M456 71h120M420 72h72M540 72h72M420 73h72M540 73h72M420 74h72M540 74h72M420 75h72M540 75h72M420 76h72M540 76h72M420 77h72M540 77h72M420 78h72M540 78h72M420 79h72M540 79h72M420 80h72M540 80h72M420 81h72M540 81h72M420 82h72M540 82h72M420 83h72M540 83h72M384 84h72M576 84h72M384 85h72M576 85h72M384 86h72M576 86h72M384 87h72M576 87h72M384 88h72M576 88h72M384 89h72M576 89h72M384 90h72M576 90h72M384 91h72M576 91h72M384 92h72M576 92h72M384 93h72M576 93h72M384 94h72M576 94h72M384 95h72M576 95h72M360 96h60M612 96h60M360 97h60M612 97h60M360 98h60M612 98h60M360 99h60M612 99h60M360 100h60M612 100h60M360 101h60M612 101h60M360 102h60M612 102h60M360 103h60M612 103h60M360 104h60M612 104h60M360 105h60M612 105h60M360 106h60M612 106h60M360 107h60M612 107h60M336 108h48M648 108h48M336 109h48M648 109h48M336 110h48M648 110h48M336 111h48M648 111h48M336 112h48M648 112h48M336 113h48M648 113h48M336 114h48M648 114h48M336 115h48M648 115h48M336 116h48M648 116h48M336 117h48M648 117h48M336 118h48M648 118h48M336 119h48M648 119h48M312 120h48M672 120h48M312 121h48M672 121h48M312 122h48M672 122h48M312 123h48M672 123h48M312 124h48M672 124h48M312 125h48M672 125h48M312 126h48M672 126h48M312 127h48M672 127h48M312 128h48M672 128h48M312 129h48M672 129h48M312 130h48M672 130h48M312 131h48M672 131h48M300 132h24M696 132h36M300 133h24M696 133h36M300 134h24M696 134h36M300 135h24M696 135h36M300 136h24M696 136h36M300 137h24M696 137h36M300 138h24M696 138h36M300 139h24M696 139h36M300 140h24M696 140h36M300 141h24M696 141h36M300 142h24M696 142h36M300 143h24M696 143h36M288 144h24M720 144h24M288 145h24M720 145h24M288 146h24M720 146h24M288 147h24M720 147h24M288 148h24M720 148h24M288 149h24M720 149h24M288 150h24M720 150h24M288 151h24M720 151h24M288 152h24M720 152h24M288 153h24M720 153h24M288 154h24M720 154h24M288 155h24M720 155h24M276 156h24M732 156h24M276 157h24M732 157h24M276 158h24M732 158h24M276 159h24M732 159h24M276 160h24M732 160h24M276 161h24M732 161h24M276 162h24M732 162h24M276 163h24M732 163h24M276 164h24M732 164h24M276 165h24M732 165h24M276 166h24M732 166h24M276 167h24M732 167h24M276 168h12M744 168h12M276 169h12M744 169h12M276 170h12M744 170h12M276 171h12M744 171h12M276 172h12M744 172h12M276 173h12M744 173h12M276 174h12M744 174h12M276 175h12M744 175h12M276 176h12M744 176h12M276 177h12M744 177h12M276 178h12M744 178h12M276 179h12M744 179h12M156 300h24M852 300h24M156 301h24M852 301h24M156 302h24M852 302h24M156 303h24M852 303h24M156 304h24M852 304h24M156 305h24M852 305h24M156 306h24M852 306h24M156 307h24M852 307h24M156 308h24M852 308h24M156 309h24M852 309h24M156 310h24M852 310h24M156 311h24M852 311h24M144 312h24M864 312h24M144 313h24M864 313h24M144 314h24M864 314h24M144 315h24M864 315h24M144 316h24M864 316h24M144 317h24M864 317h24M144 318h24M864 318h24M144 319h24M864 319h24M144 320h24M864 320h24M144 321h24M864 321h24M144 322h24M864 322h24M144 323h24M864 323h24M132 324h24M876 324h24M132 325h24M876 325h24M132 326h24M876 326h24M132 327h24M876 327h24M132 328h24M876 328h24M132 329h24M876 329h24M132 330h24M876 330h24M132 331h24M876 331h24M132 332h24M876 332h24M132 333h24M876 333h24M132 334h24M876 334h24M132 335h24M876 335h24M120 336h24M888 336h24M120 337h24M888 337h24M120 338h24M888 338h24M120 339h24M888 339h24M120 340h24M888 340h24M120 341h24M888 341h24M120 342h24M888 342h24M120 343h24M888 343h24M120 344h24M888 344h24M120 345h24M888 345h24M120 346h24M888 346h24M120 347h24M888 347h24M120 348h12M900 348h12M120 349h12M900 349h12M120 350h12M900 350h12M120 351h12M900 351h12M120 352h12M900 352h12M120 353h12M900 353h12M120 354h12M900 354h12M120 355h12M900 355h12M120 356h12M900 356h12M120 357h12M900 357h12M120 358h12M900 358h12M120 359h12M900 359h12M108 360h24M900 360h24M108 361h24M900 361h24M108 362h24M900 362h24M108 363h24M900 363h24M108 364h24M900 364h24M108 365h24M900 365h24M108 366h24M900 366h24M108 367h24M900 367h24M108 368h24M900 368h24M108 369h24M900 369h24M108 370h24M900 370h24M108 371h24M900 371h24M108 372h24M900 372h24M108 373h24M900 373h24M108 374h24M900 374h24M108 375h24M900 375h24M108 376h24M900 376h24M108 377h24M900 377h24M108 378h24M900 378h24M108 379h24M900 379h24M108 380h24M900 380h24M108 381h24M900 381h24M108 382h24M900 382h24M108 383h24M900 383h24M96 384h24M912 384h24M96 385h24M912 385h24M96 386h24M912 386h24M96 387h24M912 387h24M96 388h24M912 388h24M96 389h24M912 389h24M96 390h24M912 390h24M96 391h24M912 391h24M96 392h24M912 392h24M96 393h24M912 393h24M96 394h24M912 394h24M96 395h24M912 395h24M96 396h24M912 396h24M96 397h24M912 397h24M96 398h24M912 398h24M96 399h24M912 399h24M96 400h24M912 400h24M96 401h24M912 401h24M96 402h24M912 402h24M96 403h24M912 403h24M96 404h24M912 404h24M96 405h24M912 405h24M96 406h24M912 406h24M96 407h24M912 407h24M84 408h24M924 408h24M84 409h24M924 409h24M84 410h24M924 410h24M84 411h24M924 411h24M84 412h24M924 412h24M84 413h24M924 413h24M84 414h24M924 414h24M84 415h24M924 415h24M84 416h24M924 416h24M84 417h24M924 417h24M84 418h24M924 418h24M84 419h24M924 419h24M84 420h24M924 420h24M84 421h24M924 421h24M84 422h24M924 422h24M84 423h24M924 423h24M84 424h24M924 424h24M84 425h24M924 425h24M84 426h24M924 426h24M84 427h24M924 427h24M84 428h24M924 428h24M84 429h24M924 429h24M84 430h24M924 430h24M84 431h24M924 431h24M84 432h24M924 432h24M84 433h24M924 433h24M84 434h24M924 434h24M84 435h24M924 435h24M84 436h24M924 436h24M84 437h24M924 437h24M84 438h24M924 438h24M84 439h24M924 439h24M84 440h24M924 440h24M84 441h24M924 441h24M84 442h24M924 442h24M84 443h24M924 443h24M72 444h24M936 444h24M72 445h24M936 445h24M72 446h24M936 446h24M72 447h24M936 447h24M72 448h24M936 448h24M72 449h24M936 449h24M72 450h24M936 450h24M72 451h24M936 451h24M72 452h24M936 452h24M72 453h24M936 453h24M72 454h24M936 454h24M72 455h24M936 455h24M72 456h24M936 456h24M72 457h24M936 457h24M72 458h24M936 458h24M72 459h24M936 459h24M72 460h24M936 460h24M72 461h24M936 461h24M72 462h24M936 462h24M72 463h24M936 463h24M72 464h24M936 464h24M72 465h24M936 465h24M72 466h24M936 466h24M72 467h24M936 467h24M72 468h24M936 468h24M72 469h24M936 469h24M72 470h24M936 470h24M72 471h24M936 471h24M72 472h24M936 472h24M72 473h24M936 473h24M72 474h24M936 474h24M72 475h24M936 475h24M72 476h24M936 476h24M72 477h24M936 477h24M72 478h24M936 478h24M72 479h24M936 479h24M60 480h24M948 480h24M60 481h24M948 481h24M60 482h24M948 482h24M60 483h24M948 483h24M60 484h24M948 484h24M60 485h24M948 485h24M60 486h24M948 486h24M60 487h24M948 487h24M60 488h24M948 488h24M60 489h24M948 489h24M60 490h24M948 490h24M60 491h24M948 491h24M60 492h24M948 492h24M60 493h24M948 493h24M60 494h24M948 494h24M60 495h24M948 495h24M60 496h24M948 496h24M60 497h24M948 497h24M60 498h24M948 498h24M60 499h24M948 499h24M60 500h24M948 500h24M60 501h24M948 501h24M60 502h24M948 502h24M60 503h24M948 503h24M60 504h24M948 504h24M60 505h24M948 505h24M60 506h24M948 506h24M60 507h24M948 507h24M60 508h24M948 508h24M60 509h24M948 509h24M60 510h24M948 510h24M60 511h24M948 511h24M60 512h24M948 512h24M60 513h24M948 513h24M60 514h24M948 514h24M60 515h24M948 515h24M48 516h24M960 516h24M48 517h24M960 517h24M48 518h24M960 518h24M48 519h24M960 519h24M48 520h24M960 520h24M48 521h24M960 521h24M48 522h24M960 522h24M48 523h24M960 523h24M48 524h24M960 524h24M48 525h24M960 525h24M48 526h24M960 526h24M48 527h24M960 527h24M48 528h24M960 528h24M48 529h24M960 529h24M48 530h24M960 530h24M48 531h24M960 531h24M48 532h24M960 532h24M48 533h24M960 533h24M48 534h24M960 534h24M48 535h24M960 535h24M48 536h24M960 536h24M48 537h24M960 537h24M48 538h24M960 538h24M48 539h24M960 539h24M48 540h24M960 540h24M48 541h24M960 541h24M48 542h24M960 542h24M48 543h24M960 543h24M48 544h24M960 544h24M48 545h24M960 545h24M48 546h24M960 546h24M48 547h24M960 547h24M48 548h24M960 548h24M48 549h24M960 549h24M48 550h24M960 550h24M48 551h24M960 551h24M60 552h12M960 552h12M60 553h12M960 553h12M60 554h12M960 554h12M60 555h12M960 555h12M60 556h12M960 556h12M60 557h12M960 557h12M60 558h12M960 558h12M60 559h12M960 559h12M60 560h12M960 560h12M60 561h12M960 561h12M60 562h12M960 562h12M60 563h12M960 563h12M60 564h24M948 564h24M60 565h24M948 565h24M60 566h24M948 566h24M60 567h24M948 567h24M60 568h24M948 568h24M60 569h24M948 569h24M60 570h24M948 570h24M60 571h24M948 571h24M60 572h24M948 572h24M60 573h24M948 573h24M60 574h24M948 574h24M60 575h24M948 575h24M60 576h24M948 576h24M60 577h24M948 577h24M60 578h24M948 578h24M60 579h24M948 579h24M60 580h24M948 580h24M60 581h24M948 581h24M60 582h24M948 582h24M60 583h24M948 583h24M60 584h24M948 584h24M60 585h24M948 585h24M60 586h24M948 586h24M60 587h24M948 587h24M60 588h24M948 588h24M60 589h24M948 589h24M60 590h24M948 590h24M60 591h24M948 591h24M60 592h24M948 592h24M60 593h24M948 593h24M60 594h24M948 594h24M60 595h24M948 595h24M60 596h24M948 596h24M60 597h24M948 597h24M60 598h24M948 598h24M60 599h24M948 599h24M72 600h24M936 600h24M72 601h24M936 601h24M72 602h24M936 602h24M72 603h24M936 603h24M72 604h24M936 604h24M72 605h24M936 605h24M72 606h24M936 606h24M72 607h24M936 607h24M72 608h24M936 608h24M72 609h24M936 609h24M72 610h24M936 610h24M72 611h24M936 611h24M72 612h24M936 612h24M72 613h24M936 613h24M72 614h24M936 614h24M72 615h24M936 615h24M72 616h24M936 616h24M72 617h24M936 617h24M72 618h24M936 618h24M72 619h24M936 619h24M72 620h24M936 620h24M72 621h24M936 621h24M72 622h24M936 622h24M72 623h24M936 623h24M72 624h24M936 624h24M72 625h24M936 625h24M72 626h24M936 626h24M72 627h24M936 627h24M72 628h24M936 628h24M72 629h24M936 629h24M72 630h24M936 630h24M72 631h24M936 631h24M72 632h24M936 632h24M72 633h24M936 633h24M72 634h24M936 634h24M72 635h24M936 635h24M84 636h24M924 636h24M84 637h24M924 637h24M84 638h24M924 638h24M84 639h24M924 639h24M84 640h24M924 640h24M84 641h24M924 641h24M84 642h24M924 642h24M84 643h24M924 643h24M84 644h24M924 644h24M84 645h24M924 645h24M84 646h24M924 646h24M84 647h24M924 647h24M84 648h24M924 648h24M84 649h24M924 649h24M84 650h24M924 650h24M84 651h24M924 651h24M84 652h24M924 652h24M84 653h24M924 653h24M84 654h24M924 654h24M84 655h24M924 655h24M84 656h24M924 656h24M84 657h24M924 657h24M84 658h24M924 658h24M84 659h24M924 659h24M84 660h24M924 660h24M84 661h24M924 661h24M84 662h24M924 662h24M84 663h24M924 663h24M84 664h24M924 664h24M84 665h24M924 665h24M84 666h24M924 666h24M84 667h24M924 667h24M84 668h24M924 668h24M84 669h24M924 669h24M84 670h24M924 670h24M84 671h24M924 671h24M96 672h24M912 672h24M96 673h24M912 673h24M96 674h24M912 674h24M96 675h24M912 675h24M96 676h24M912 676h24M96 677h24M912 677h24M96 678h24M912 678h24M96 679h24M912 679h24M96 680h24M912 680h24M96 681h24M912 681h24M96 682h24M912 682h24M96 683h24M912 683h24M96 684h24M912 684h24M96 685h24M912 685h24M96 686h24M912 686h24M96 687h24M912 687h24M96 688h24M912 688h24M96 689h24M912 689h24M96 690h24M912 690h24M96 691h24M912 691h24M96 692h24M912 692h24M96 693h24M912 693h24M96 694h24M912 694h24M96 695h24M912 695h24M108 696h24M900 696h24M108 697h24M900 697h24M108 698h24M900 698h24M108 699h24M900 699h24M108 700h24M900 700h24M108 701h24M900 701h24M108 702h24M900 702h24M108 703h24M900 703h24M108 704h24M900 704h24M108 705h24M900 705h24M108 706h24M900 706h24M108 707h24M900 707h24M108 708h24M900 708h24M108 709h24M900 709h24M108 710h24M900 710h24M108 711h24M900 711h24M108 712h24M900 712h24M108 713h24M900 713h24M108 714h24M900 714h24M108 715h24M900 715h24M108 716h24M900 716h24M108 717h24M900 717h24M108 718h24M900 718h24M108 719h24M900 719h24M120 720h24M888 720h24M120 721h24M888 721h24M120 722h24M888 722h24M120 723h24M888 723h24M120 724h24M888 724h24M120 725h24M888 725h24M120 726h24M888 726h24M120 727h24M888 727h24M120 728h24M888 728h24M120 729h24M888 729h24M120 730h24M888 730h24M120 731h24M888 731h24M120 732h24M888 732h24M120 733h24M888 733h24M120 734h24M888 734h24M120 735h24M888 735h24M120 736h24M888 736h24M120 737h24M888 737h24M120 738h24M888 738h24M120 739h24M888 739h24M120 740h24M888 740h24M120 741h24M888 741h24M120 742h24M888 742h24M120 743h24M888 743h24M132 744h24M876 744h24M132 745h24M876 745h24M132 746h24M876 746h24M132 747h24M876 747h24M132 748h24M876 748h24M132 749h24M876 749h24M132 750h24M876 750h24M132 751h24M876 751h24M132 752h24M876 752h24M132 753h24M876 753h24M132 754h24M876 754h24M132 755h24M876 755h24M144 756h24M864 756h24M144 757h24M864 757h24M144 758h24M864 758h24M144 759h24M864 759h24M144 760h24M864 760h24M144 761h24M864 761h24M144 762h24M864 762h24M144 763h24M864 763h24M144 764h24M864 764h24M144 765h24M864 765h24M144 766h24M864 766h24M144 767h24M864 767h24M156 768h24M852 768h24M156 769h24M852 769h24M156 770h24M852 770h24M156 771h24M852 771h24M156 772h24M852 772h24M156 773h24M852 773h24M156 774h24M852 774h24M156 775h24M852 775h24M156 776h24M852 776h24M156 777h24M852 777h24M156 778h24M852 778h24M156 779h24M852 779h24M276 912h12M744 912h12M276 913h12M744 913h12M276 914h12M744 914h12M276 915h12M744 915h12M276 916h12M744 916h12M276 917h12M744 917h12M276 918h12M744 918h12M276 919h12M744 919h12M276 920h12M744 920h12M276 921h12M744 921h12M276 922h12M744 922h12M276 923h12M744 923h12M276 924h24M732 924h24M276 925h24M732 925h24M276 926h24M732 926h24M276 927h24M732 927h24M276 928h24M732 928h24M276 929h24M732 929h24M276 930h24M732 930h24M276 931h24M732 931h24M276 932h24M732 932h24M276 933h24M732 933h24M276 934h24M732 934h24M276 935h24M732 935h24M288 936h24M720 936h24M288 937h24M720 937h24M288 938h24M720 938h24M288 939h24M720 939h24M288 940h24M720 940h24M288 941h24M720 941h24M288 942h24M720 942h24M288 943h24M720 943h24M288 944h24M720 944h24M288 945h24M720 945h24M288 946h24M720 946h24M288 947h24M720 947h24M300 948h36M708 948h24M300 949h36M708 949h24M300 950h36M708 950h24M300 951h36M708 951h24M300 952h36M708 952h24M300 953h36M708 953h24M300 954h36M708 954h24M300 955h36M708 955h24M300 956h36M708 956h24M300 957h36M708 957h24M300 958h36M708 958h24M300 959h36M708 959h24M312 960h48M672 960h48M312 961h48M672 961h48M312 962h48M672 962h48M312 963h48M672 963h48M312 964h48M672 964h48M312 965h48M672 965h48M312 966h48M672 966h48M312 967h48M672 967h48M312 968h48M672 968h48M312 969h48M672 969h48M312 970h48M672 970h48M312 971h48M672 971h48M336 972h48M648 972h48M336 973h48M648 973h48M336 974h48M648 974h48M336 975h48M648 975h48M336 976h48M648 976h48M336 977h48M648 977h48M336 978h48M648 978h48M336 979h48M648 979h48M336 980h48M648 980h48M336 981h48M648 981h48M336 982h48M648 982h48M336 983h48M648 983h48M360 984h60M612 984h60M360 985h60M612 985h60M360 986h60M612 986h60M360 987h60M612 987h60M360 988h60M612 988h60M360 989h60M612 989h60M360 990h60M612 990h60M360 991h60M612 991h60M360 992h60M612 992h60M360 993h60M612 993h60M360 994h60M612 994h60M360 995h60M612 995h60M384 996h72M576 996h72M384 997h72M576 997h72M384 998h72M576 998h72M384 999h72M576 999h72M384 1000h72M576 1000h72M384 1001h72M576 1001h72M384 1002h72M576 1002h72M384 1003h72M576 1003h72M384 1004h72M576 1004h72M384 1005h72M576 1005h72M384 1006h72M576 1006h72M384 1007h72M576 1007h72M420 1008h72M540 1008h72M420 1009h72M540 1009h72M420 1010h72M540 1010h72M420 1011h72M540 1011h72M420 1012h72M540 1012h72M420 1013h72M540 1013h72M420 1014h72M540 1014h72M420 1015h72M540 1015h72M420 1016h72M540 1016h72M420 1017h72M540 1017h72M420 1018h72M540 1018h72M420 1019h72M540 1019h72M456 1020h120M456 1021h120M456 1022h120M456 1023h120M456 1024h120M456 1025h120M456 1026h120M456 1027h120M456 1028h120M456 1029h120M456 1030h120M456 1031h120M504 1032h36M504 1033h36M504 1034h36M504 1035h36M504 1036h36M504 1037h36M504 1038h36M504 1039h36M504 1040h36M504 1041h36M504 1042h36M504 1043h36" />
<path stroke="#bc787d" d="M528 48h12M528 49h12M528 50h12M528 51h12M528 52h12M528 53h12M528 54h12M528 55h12M528 56h12M528 57h12M528 58h12M528 59h12M324 132h12M324 133h12M324 134h12M324 135h12M324 136h12M324 137h12M324 138h12M324 139h12M324 140h12M324 141h12M324 142h12M324 143h12M132 348h12M888 348h12M132 349h12M888 349h12M132 350h12M888 350h12M132 351h12M888 351h12M132 352h12M888 352h12M132 353h12M888 353h12M132 354h12M888 354h12M132 355h12M888 355h12M132 356h12M888 356h12M132 357h12M888 357h12M132 358h12M888 358h12M132 359h12M888 359h12M48 552h12M972 552h12M48 553h12M972 553h12M48 554h12M972 554h12M48 555h12M972 555h12M48 556h12M972 556h12M48 557h12M972 557h12M48 558h12M972 558h12M48 559h12M972 559h12M48 560h12M972 560h12M48 561h12M972 561h12M48 562h12M972 562h12M48 563h12M972 563h12M696 948h12M696 949h12M696 950h12M696 951h12M696 952h12M696 953h12M696 954h12M696 955h12M696 956h12M696 957h12M696 958h12M696 959h12M492 1032h12M492 1033h12M492 1034h12M492 1035h12M492 1036h12M492 1037h12M492 1038h12M492 1039h12M492 1040h12M492 1041h12M492 1042h12M492 1043h12" />
<path stroke="#ffafb0" d="M432 96h60M540 96h60M432 97h60M540 97h60M432 98h60M540 98h60M432 99h60M540 99h60M432 100h60M540 100h60M432 101h60M540 101h60M432 102h60M540 102h60M432 103h60M540 103h60M432 104h60M540 104h60M432 105h60M540 105h60M432 106h60M540 106h60M432 107h60M540 107h60M420 108h84M528 108h84M420 109h84M528 109h84M420 110h84M528 110h84M420 111h84M528 111h84M420 112h84M528 112h84M420 113h84M528 113h84M420 114h84M528 114h84M420 115h84M528 115h84M420 116h84M528 116h84M420 117h84M528 117h84M420 118h84M528 118h84M420 119h84M528 119h84M420 120h192M420 121h192M420 122h192M420 123h192M420 124h192M420 125h192M420 126h192M420 127h192M420 128h192M420 129h192M420 130h192M420 131h192M408 132h216M408 133h216M408 134h216M408 135h216M408 136h216M408 137h216M408 138h216M408 139h216M408 140h216M408 141h216M408 142h216M408 143h216M408 144h216M408 145h216M408 146h216M408 147h216M408 148h216M408 149h216M408 150h216M408 151h216M408 152h216M408 153h216M408 154h216M408 155h216M408 156h216M408 157h216M408 158h216M408 159h216M408 160h216M408 161h216M408 162h216M408 163h216M408 164h216M408 165h216M408 166h216M408 167h216M420 168h192M420 169h192M420 170h192M420 171h192M420 172h192M420 173h192M420 174h192M420 175h192M420 176h192M420 177h192M420 178h192M420 179h192M420 180h192M420 181h192M420 182h192M420 183h192M420 184h192M420 185h192M420 186h192M420 187h192M420 188h192M420 189h192M420 190h192M420 191h192M432 192h168M432 193h168M432 194h168M432 195h168M432 196h168M432 197h168M432 198h168M432 199h168M432 200h168M432 201h168M432 202h168M432 203h168M444 204h144M444 205h144M444 206h144M444 207h144M444 208h144M444 209h144M444 210h144M444 211h144M444 212h144M444 213h144M444 214h144M444 215h144M456 216h120M456 217h120M456 218h120M456 219h120M456 220h120M456 221h120M456 222h120M456 223h120M456 224h120M456 225h120M456 226h120M456 227h120M468 228h96M468 229h96M468 230h96M468 231h96M468 232h96M468 233h96M468 234h96M468 235h96M468 236h96M468 237h96M468 238h96M468 239h96M480 240h72M480 241h72M480 242h72M480 243h72M480 244h72M480 245h72M480 246h72M480 247h72M480 248h72M480 249h72M480 250h72M480 251h72M492 252h48M492 253h48M492 254h48M492 255h48M492 256h48M492 257h48M492 258h48M492 259h48M492 260h48M492 261h48M492 262h48M492 263h48M504 264h24M504 265h24M504 266h24M504 267h24M504 268h24M504 269h24M504 270h24M504 271h24M504 272h24M504 273h24M504 274h24M504 275h24M504 276h24M504 277h24M504 278h24M504 279h24M504 280h24M504 281h24M504 282h24M504 283h24M504 284h24M504 285h24M504 286h24M504 287h24M132 432h36M864 432h36M132 433h36M864 433h36M132 434h36M864 434h36M132 435h36M864 435h36M132 436h36M864 436h36M132 437h36M864 437h36M132 438h36M864 438h36M132 439h36M864 439h36M132 440h36M864 440h36M132 441h36M864 441h36M132 442h36M864 442h36M132 443h36M864 443h36M108 444h84M840 444h84M108 445h84M840 445h84M108 446h84M840 446h84M108 447h84M840 447h84M108 448h84M840 448h84M108 449h84M840 449h84M108 450h84M840 450h84M108 451h84M840 451h84M108 452h84M840 452h84M108 453h84M840 453h84M108 454h84M840 454h84M108 455h84M840 455h84M96 456h108M828 456h108M96 457h108M828 457h108M96 458h108M828 458h108M96 459h108M828 459h108M96 460h108M828 460h108M96 461h108M828 461h108M96 462h108M828 462h108M96 463h108M828 463h108M96 464h108M828 464h108M96 465h108M828 465h108M96 466h108M828 466h108M96 467h108M828 467h108M96 468h120M816 468h120M96 469h120M816 469h120M96 470h120M816 470h120M96 471h120M816 471h120M96 472h120M816 472h120M96 473h120M816 473h120M96 474h120M816 474h120M96 475h120M816 475h120M96 476h120M816 476h120M96 477h120M816 477h120M96 478h120M816 478h120M96 479h120M816 479h120M96 480h132M804 480h132M96 481h132M804 481h132M96 482h132M804 482h132M96 483h132M804 483h132M96 484h132M804 484h132M96 485h132M804 485h132M96 486h132M804 486h132M96 487h132M804 487h132M96 488h132M804 488h132M96 489h132M804 489h132M96 490h132M804 490h132M96 491h132M804 491h132M96 492h144M792 492h144M96 493h144M792 493h144M96 494h144M792 494h144M96 495h144M792 495h144M96 496h144M792 496h144M96 497h144M792 497h144M96 498h144M792 498h144M96 499h144M792 499h144M96 500h144M792 500h144M96 501h144M792 501h144M96 502h144M792 502h144M96 503h144M792 503h144M96 504h156M780 504h156M96 505h156M780 505h156M96 506h156M780 506h156M96 507h156M780 507h156M96 508h156M780 508h156M96 509h156M780 509h156M96 510h156M780 510h156M96 511h156M780 511h156M96 512h156M780 512h156M96 513h156M780 513h156M96 514h156M780 514h156M96 515h156M780 515h156M108 516h156M768 516h156M108 517h156M768 517h156M108 518h156M768 518h156M108 519h156M768 519h156M108 520h156M768 520h156M108 521h156M768 521h156M108 522h156M768 522h156M108 523h156M768 523h156M108 524h156M768 524h156M108 525h156M768 525h156M108 526h156M768 526h156M108 527h156M768 527h156M120 528h168M744 528h168M120 529h168M744 529h168M120 530h168M744 530h168M120 531h168M744 531h168M120 532h168M744 532h168M120 533h168M744 533h168M120 534h168M744 534h168M120 535h168M744 535h168M120 536h168M744 536h168M120 537h168M744 537h168M120 538h168M744 538h168M120 539h168M744 539h168M120 540h168M744 540h168M120 541h168M744 541h168M120 542h168M744 542h168M120 543h168M744 543h168M120 544h168M744 544h168M120 545h168M744 545h168M120 546h168M744 546h168M120 547h168M744 547h168M120 548h168M744 548h168M120 549h168M744 549h168M120 550h168M744 550h168M120 551h168M744 551h168M108 552h156M768 552h156M108 553h156M768 553h156M108 554h156M768 554h156M108 555h156M768 555h156M108 556h156M768 556h156M108 557h156M768 557h156M108 558h156M768 558h156M108 559h156M768 559h156M108 560h156M768 560h156M108 561h156M768 561h156M108 562h156M768 562h156M108 563h156M768 563h156M96 564h156M780 564h156M96 565h156M780 565h156M96 566h156M780 566h156M96 567h156M780 567h156M96 568h156M780 568h156M96 569h156M780 569h156M96 570h156M780 570h156M96 571h156M780 571h156M96 572h156M780 572h156M96 573h156M780 573h156M96 574h156M780 574h156M96 575h156M780 575h156M96 576h144M792 576h144M96 577h144M792 577h144M96 578h144M792 578h144M96 579h144M792 579h144M96 580h144M792 580h144M96 581h144M792 581h144M96 582h144M792 582h144M96 583h144M792 583h144M96 584h144M792 584h144M96 585h144M792 585h144M96 586h144M792 586h144M96 587h144M792 587h144M96 588h132M804 588h132M96 589h132M804 589h132M96 590h132M804 590h132M96 591h132M804 591h132M96 592h132M804 592h132M96 593h132M804 593h132M96 594h132M804 594h132M96 595h132M804 595h132M96 596h132M804 596h132M96 597h132M804 597h132M96 598h132M804 598h132M96 599h132M804 599h132M96 600h120M816 600h120M96 601h120M816 601h120M96 602h120M816 602h120M96 603h120M816 603h120M96 604h120M816 604h120M96 605h120M816 605h120M96 606h120M816 606h120M96 607h120M816 607h120M96 608h120M816 608h120M96 609h120M816 609h120M96 610h120M816 610h120M96 611h120M816 611h120M96 612h108M828 612h108M96 613h108M828 613h108M96 614h108M828 614h108M96 615h108M828 615h108M96 616h108M828 616h108M96 617h108M828 617h108M96 618h108M828 618h108M96 619h108M828 619h108M96 620h108M828 620h108M96 621h108M828 621h108M96 622h108M828 622h108M96 623h108M828 623h108M108 624h84M840 624h84M108 625h84M840 625h84M108 626h84M840 626h84M108 627h84M840 627h84M108 628h84M840 628h84M108 629h84M840 629h84M108 630h84M840 630h84M108 631h84M840 631h84M108 632h84M840 632h84M108 633h84M840 633h84M108 634h84M840 634h84M108 635h84M840 635h84M132 636h36M864 636h36M132 637h36M864 637h36M132 638h36M864 638h36M132 639h36M864 639h36M132 640h36M864 640h36M132 641h36M864 641h36M132 642h36M864 642h36M132 643h36M864 643h36M132 644h36M864 644h36M132 645h36M864 645h36M132 646h36M864 646h36M132 647h36M864 647h36M504 804h24M504 805h24M504 806h24M504 807h24M504 808h24M504 809h24M504 810h24M504 811h24M504 812h24M504 813h24M504 814h24M504 815h24M504 816h24M504 817h24M504 818h24M504 819h24M504 820h24M504 821h24M504 822h24M504 823h24M504 824h24M504 825h24M504 826h24M504 827h24M492 828h48M492 829h48M492 830h48M492 831h48M492 832h48M492 833h48M492 834h48M492 835h48M492 836h48M492 837h48M492 838h48M492 839h48M480 840h72M480 841h72M480 842h72M480 843h72M480 844h72M480 845h72M480 846h72M480 847h72M480 848h72M480 849h72M480 850h72M480 851h72M468 852h96M468 853h96M468 854h96M468 855h96M468 856h96M468 857h96M468 858h96M468 859h96M468 860h96M468 861h96M468 862h96M468 863h96M456 864h120M456 865h120M456 866h120M456 867h120M456 868h120M456 869h120M456 870h120M456 871h120M456 872h120M456 873h120M456 874h120M456 875h120M444 876h144M444 877h144M444 878h144M444 879h144M444 880h144M444 881h144M444 882h144M444 883h144M444 884h144M444 885h144M444 886h144M444 887h144M432 888h168M432 889h168M432 890h168M432 891h168M432 892h168M432 893h168M432 894h168M432 895h168M432 896h168M432 897h168M432 898h168M432 899h168M420 900h192M420 901h192M420 902h192M420 903h192M420 904h192M420 905h192M420 906h192M420 907h192M420 908h192M420 909h192M420 910h192M420 911h192M420 912h192M420 913h192M420 914h192M420 915h192M420 916h192M420 917h192M420 918h192M420 919h192M420 920h192M420 921h192M420 922h192M420 923h192M408 924h216M408 925h216M408 926h216M408 927h216M408 928h216M408 929h216M408 930h216M408 931h216M408 932h216M408 933h216M408 934h216M408 935h216M408 936h216M408 937h216M408 938h216M408 939h216M408 940h216M408 941h216M408 942h216M408 943h216M408 944h216M408 945h216M408 946h216M408 947h216M408 948h216M408 949h216M408 950h216M408 951h216M408 952h216M408 953h216M408 954h216M408 955h216M408 956h216M408 957h216M408 958h216M408 959h216M420 960h192M420 961h192M420 962h192M420 963h192M420 964h192M420 965h192M420 966h192M420 967h192M420 968h192M420 969h192M420 970h192M420 971h192M420 972h84M528 972h84M420 973h84M528 973h84M420 974h84M528 974h84M420 975h84M528 975h84M420 976h84M528 976h84M420 977h84M528 977h84M420 978h84M528 978h84M420 979h84M528 979h84M420 980h84M528 980h84M420 981h84M528 981h84M420 982h84M528 982h84M420 983h84M528 983h84M432 984h60M540 984h60M432 985h60M540 985h60M432 986h60M540 986h60M432 987h60M540 987h60M432 988h60M540 988h60M432 989h60M540 989h60M432 990h60M540 990h60M432 991h60M540 991h60M432 992h60M540 992h60M432 993h60M540 993h60M432 994h60M540 994h60M432 995h60M540 995h60" />
<path stroke="#ff7f79" d="M384 132h24M624 132h24M384 133h24M624 133h24M384 134h24M624 134h24M384 135h24M624 135h24M384 136h24M624 136h24M384 137h24M624 137h24M384 138h24M624 138h24M384 139h24M624 139h24M384 140h24M624 140h24M384 141h24M624 141h24M384 142h24M624 142h24M384 143h24M624 143h24M360 144h48M624 144h48M360 145h48M624 145h48M360 146h48M624 146h48M360 147h48M624 147h48M360 148h48M624 148h48M360 149h48M624 149h48M360 150h48M624 150h48M360 151h48M624 151h48M360 152h48M624 152h48M360 153h48M624 153h48M360 154h48M624 154h48M360 155h48M624 155h48M336 156h48M648 156h48M336 157h48M648 157h48M336 158h48M648 158h48M336 159h48M648 159h48M336 160h48M648 160h48M336 161h48M648 161h48M336 162h48M648 162h48M336 163h48M648 163h48M336 164h48M648 164h48M336 165h48M648 165h48M336 166h48M648 166h48M336 167h48M648 167h48M312 168h48M672 168h48M312 169h48M672 169h48M312 170h48M672 170h48M312 171h48M672 171h48M312 172h48M672 172h48M312 173h48M672 173h48M312 174h48M672 174h48M312 175h48M672 175h48M312 176h48M672 176h48M312 177h48M672 177h48M312 178h48M672 178h48M312 179h48M672 179h48M312 180h24M696 180h24M312 181h24M696 181h24M312 182h24M696 182h24M312 183h24M696 183h24M312 184h24M696 184h24M312 185h24M696 185h24M312 186h24M696 186h24M312 187h24M696 187h24M312 188h24M696 188h24M312 189h24M696 189h24M312 190h24M696 190h24M312 191h24M696 191h24M168 336h24M840 336h24M168 337h24M840 337h24M168 338h24M840 338h24M168 339h24M840 339h24M168 340h24M840 340h24M168 341h24M840 341h24M168 342h24M840 342h24M168 343h24M840 343h24M168 344h24M840 344h24M168 345h24M840 345h24M168 346h24M840 346h24M168 347h24M840 347h24M168 348h24M840 348h24M168 349h24M840 349h24M168 350h24M840 350h24M168 351h24M840 351h24M168 352h24M840 352h24M168 353h24M840 353h24M168 354h24M840 354h24M168 355h24M840 355h24M168 356h24M840 356h24M168 357h24M840 357h24M168 358h24M840 358h24M168 359h24M840 359h24M156 360h24M852 360h24M156 361h24M852 361h24M156 362h24M852 362h24M156 363h24M852 363h24M156 364h24M852 364h24M156 365h24M852 365h24M156 366h24M852 366h24M156 367h24M852 367h24M156 368h24M852 368h24M156 369h24M852 369h24M156 370h24M852 370h24M156 371h24M852 371h24M156 372h24M852 372h24M156 373h24M852 373h24M156 374h24M852 374h24M156 375h24M852 375h24M156 376h24M852 376h24M156 377h24M852 377h24M156 378h24M852 378h24M156 379h24M852 379h24M156 380h24M852 380h24M156 381h24M852 381h24M156 382h24M852 382h24M156 383h24M852 383h24M144 384h24M864 384h24M144 385h24M864 385h24M144 386h24M864 386h24M144 387h24M864 387h24M144 388h24M864 388h24M144 389h24M864 389h24M144 390h24M864 390h24M144 391h24M864 391h24M144 392h24M864 392h24M144 393h24M864 393h24M144 394h24M864 394h24M144 395h24M864 395h24M144 396h24M864 396h24M144 397h24M864 397h24M144 398h24M864 398h24M144 399h24M864 399h24M144 400h24M864 400h24M144 401h24M864 401h24M144 402h24M864 402h24M144 403h24M864 403h24M144 404h24M864 404h24M144 405h24M864 405h24M144 406h24M864 406h24M144 407h24M864 407h24M132 408h24M876 408h24M132 409h24M876 409h24M132 410h24M876 410h24M132 411h24M876 411h24M132 412h24M876 412h24M132 413h24M876 413h24M132 414h24M876 414h24M132 415h24M876 415h24M132 416h24M876 416h24M132 417h24M876 417h24M132 418h24M876 418h24M132 419h24M876 419h24M132 420h24M876 420h24M132 421h24M876 421h24M132 422h24M876 422h24M132 423h24M876 423h24M132 424h24M876 424h24M132 425h24M876 425h24M132 426h24M876 426h24M132 427h24M876 427h24M132 428h24M876 428h24M132 429h24M876 429h24M132 430h24M876 430h24M132 431h24M876 431h24M132 648h24M876 648h24M132 649h24M876 649h24M132 650h24M876 650h24M132 651h24M876 651h24M132 652h24M876 652h24M132 653h24M876 653h24M132 654h24M876 654h24M132 655h24M876 655h24M132 656h24M876 656h24M132 657h24M876 657h24M132 658h24M876 658h24M132 659h24M876 659h24M132 660h24M876 660h24M132 661h24M876 661h24M132 662h24M876 662h24M132 663h24M876 663h24M132 664h24M876 664h24M132 665h24M876 665h24M132 666h24M876 666h24M132 667h24M876 667h24M132 668h24M876 668h24M132 669h24M876 669h24M132 670h24M876 670h24M132 671h24M876 671h24M144 672h24M864 672h24M144 673h24M864 673h24M144 674h24M864 674h24M144 675h24M864 675h24M144 676h24M864 676h24M144 677h24M864 677h24M144 678h24M864 678h24M144 679h24M864 679h24M144 680h24M864 680h24M144 681h24M864 681h24M144 682h24M864 682h24M144 683h24M864 683h24M144 684h24M864 684h24M144 685h24M864 685h24M144 686h24M864 686h24M144 687h24M864 687h24M144 688h24M864 688h24M144 689h24M864 689h24M144 690h24M864 690h24M144 691h24M864 691h24M144 692h24M864 692h24M144 693h24M864 693h24M144 694h24M864 694h24M144 695h24M864 695h24M156 696h24M852 696h24M156 697h24M852 697h24M156 698h24M852 698h24M156 699h24M852 699h24M156 700h24M852 700h24M156 701h24M852 701h24M156 702h24M852 702h24M156 703h24M852 703h24M156 704h24M852 704h24M156 705h24M852 705h24M156 706h24M852 706h24M156 707h24M852 707h24M156 708h24M852 708h24M156 709h24M852 709h24M156 710h24M852 710h24M156 711h24M852 711h24M156 712h24M852 712h24M156 713h24M852 713h24M156 714h24M852 714h24M156 715h24M852 715h24M156 716h24M852 716h24M156 717h24M852 717h24M156 718h24M852 718h24M156 719h24M852 719h24M168 720h24M840 720h24M168 721h24M840 721h24M168 722h24M840 722h24M168 723h24M840 723h24M168 724h24M840 724h24M168 725h24M840 725h24M168 726h24M840 726h24M168 727h24M840 727h24M168 728h24M840 728h24M168 729h24M840 729h24M168 730h24M840 730h24M168 731h24M840 731h24M168 732h24M840 732h24M168 733h24M840 733h24M168 734h24M840 734h24M168 735h24M840 735h24M168 736h24M840 736h24M168 737h24M840 737h24M168 738h24M840 738h24M168 739h24M840 739h24M168 740h24M840 740h24M168 741h24M840 741h24M168 742h24M840 742h24M168 743h24M840 743h24M312 900h24M696 900h24M312 901h24M696 901h24M312 902h24M696 902h24M312 903h24M696 903h24M312 904h24M696 904h24M312 905h24M696 905h24M312 906h24M696 906h24M312 907h24M696 907h24M312 908h24M696 908h24M312 909h24M696 909h24M312 910h24M696 910h24M312 911h24M696 911h24M312 912h48M672 912h48M312 913h48M672 913h48M312 914h48M672 914h48M312 915h48M672 915h48M312 916h48M672 916h48M312 917h48M672 917h48M312 918h48M672 918h48M312 919h48M672 919h48M312 920h48M672 920h48M312 921h48M672 921h48M312 922h48M672 922h48M312 923h48M672 923h48M336 924h48M648 924h48M336 925h48M648 925h48M336 926h48M648 926h48M336 927h48M648 927h48M336 928h48M648 928h48M336 929h48M648 929h48M336 930h48M648 930h48M336 931h48M648 931h48M336 932h48M648 932h48M336 933h48M648 933h48M336 934h48M648 934h48M336 935h48M648 935h48M360 936h48M624 936h48M360 937h48M624 937h48M360 938h48M624 938h48M360 939h48M624 939h48M360 940h48M624 940h48M360 941h48M624 941h48M360 942h48M624 942h48M360 943h48M624 943h48M360 944h48M624 944h48M360 945h48M624 945h48M360 946h48M624 946h48M360 947h48M624 947h48M384 948h24M624 948h24M384 949h24M624 949h24M384 950h24M624 950h24M384 951h24M624 951h24M384 952h24M624 952h24M384 953h24M624 953h24M384 954h24M624 954h24M384 955h24M624 955h24M384 956h24M624 956h24M384 957h24M624 957h24M384 958h24M624 958h24M384 959h24M624 959h24" />
<path stroke="#ff8389" d="M408 168h12M612 168h12M408 169h12M612 169h12M408 170h12M612 170h12M408 171h12M612 171h12M408 172h12M612 172h12M408 173h12M612 173h12M408 174h12M612 174h12M408 175h12M612 175h12M408 176h12M612 176h12M408 177h12M612 177h12M408 178h12M612 178h12M408 179h12M612 179h12M384 180h36M612 180h36M384 181h36M612 181h36M384 182h36M612 182h36M384 183h36M612 183h36M384 184h36M612 184h36M384 185h36M612 185h36M384 186h36M612 186h36M384 187h36M612 187h36M384 188h36M612 188h36M384 189h36M612 189h36M384 190h36M612 190h36M384 191h36M612 191h36M360 192h48M624 192h48M360 193h48M624 193h48M360 194h48M624 194h48M360 195h48M624 195h48M360 196h48M624 196h48M360 197h48M624 197h48M360 198h48M624 198h48M360 199h48M624 199h48M360 200h48M624 200h48M360 201h48M624 201h48M360 202h48M624 202h48M360 203h48M624 203h48M360 204h24M432 204h12M588 204h12M648 204h24M360 205h24M432 205h12M588 205h12M648 205h24M360 206h24M432 206h12M588 206h12M648 206h24M360 207h24M432 207h12M588 207h12M648 207h24M360 208h24M432 208h12M588 208h12M648 208h24M360 209h24M432 209h12M588 209h12M648 209h24M360 210h24M432 210h12M588 210h12M648 210h24M360 211h24M432 211h12M588 211h12M648 211h24M360 212h24M432 212h12M588 212h12M648 212h24M360 213h24M432 213h12M588 213h12M648 213h24M360 214h24M432 214h12M588 214h12M648 214h24M360 215h24M432 215h12M588 215h12M648 215h24M408 216h48M576 216h48M408 217h48M576 217h48M408 218h48M576 218h48M408 219h48M576 219h48M408 220h48M576 220h48M408 221h48M576 221h48M408 222h48M576 222h48M408 223h48M576 223h48M408 224h48M576 224h48M408 225h48M576 225h48M408 226h48M576 226h48M408 227h48M576 227h48M408 228h24M600 228h24M408 229h24M600 229h24M408 230h24M600 230h24M408 231h24M600 231h24M408 232h24M600 232h24M408 233h24M600 233h24M408 234h24M600 234h24M408 235h24M600 235h24M408 236h24M600 236h24M408 237h24M600 237h24M408 238h24M600 238h24M408 239h24M600 239h24M456 252h36M540 252h36M456 253h36M540 253h36M456 254h36M540 254h36M456 255h36M540 255h36M456 256h36M540 256h36M456 257h36M540 257h36M456 258h36M540 258h36M456 259h36M540 259h36M456 260h36M540 260h36M456 261h36M540 261h36M456 262h36M540 262h36M456 263h36M540 263h36M480 264h24M528 264h24M480 265h24M528 265h24M480 266h24M528 266h24M480 267h24M528 267h24M480 268h24M528 268h24M480 269h24M528 269h24M480 270h24M528 270h24M480 271h24M528 271h24M480 272h24M528 272h24M480 273h24M528 273h24M480 274h24M528 274h24M480 275h24M528 275h24M192 384h24M816 384h24M192 385h24M816 385h24M192 386h24M816 386h24M192 387h24M816 387h24M192 388h24M816 388h24M192 389h24M816 389h24M192 390h24M816 390h24M192 391h24M816 391h24M192 392h24M816 392h24M192 393h24M816 393h24M192 394h24M816 394h24M192 395h24M816 395h24M192 396h24M816 396h24M192 397h24M816 397h24M192 398h24M816 398h24M192 399h24M816 399h24M192 400h24M816 400h24M192 401h24M816 401h24M192 402h24M816 402h24M192 403h24M816 403h24M192 404h24M816 404h24M192 405h24M816 405h24M192 406h24M816 406h24M192 407h24M816 407h24M180 408h24M828 408h24M180 409h24M828 409h24M180 410h24M828 410h24M180 411h24M828 411h24M180 412h24M828 412h24M180 413h24M828 413h24M180 414h24M828 414h24M180 415h24M828 415h24M180 416h24M828 416h24M180 417h24M828 417h24M180 418h24M828 418h24M180 419h24M828 419h24M180 420h24M828 420h24M180 421h24M828 421h24M180 422h24M828 422h24M180 423h24M828 423h24M180 424h24M828 424h24M180 425h24M828 425h24M180 426h24M828 426h24M180 427h24M828 427h24M180 428h24M828 428h24M180 429h24M828 429h24M180 430h24M828 430h24M180 431h24M828 431h24M168 432h24M216 432h24M792 432h24M840 432h24M168 433h24M216 433h24M792 433h24M840 433h24M168 434h24M216 434h24M792 434h24M840 434h24M168 435h24M216 435h24M792 435h24M840 435h24M168 436h24M216 436h24M792 436h24M840 436h24M168 437h24M216 437h24M792 437h24M840 437h24M168 438h24M216 438h24M792 438h24M840 438h24M168 439h24M216 439h24M792 439h24M840 439h24M168 440h24M216 440h24M792 440h24M840 440h24M168 441h24M216 441h24M792 441h24M840 441h24M168 442h24M216 442h24M792 442h24M840 442h24M168 443h24M216 443h24M792 443h24M840 443h24M216 444h24M792 444h24M216 445h24M792 445h24M216 446h24M792 446h24M216 447h24M792 447h24M216 448h24M792 448h24M216 449h24M792 449h24M216 450h24M792 450h24M216 451h24M792 451h24M216 452h24M792 452h24M216 453h24M792 453h24M216 454h24M792 454h24M216 455h24M792 455h24M204 456h24M804 456h24M204 457h24M804 457h24M204 458h24M804 458h24M204 459h24M804 459h24M204 460h24M804 460h24M204 461h24M804 461h24M204 462h24M804 462h24M204 463h24M804 463h24M204 464h24M804 464h24M204 465h24M804 465h24M204 466h24M804 466h24M204 467h24M804 467h24M216 468h12M804 468h12M216 469h12M804 469h12M216 470h12M804 470h12M216 471h12M804 471h12M216 472h12M804 472h12M216 473h12M804 473h12M216 474h12M804 474h12M216 475h12M804 475h12M216 476h12M804 476h12M216 477h12M804 477h12M216 478h12M804 478h12M216 479h12M804 479h12M252 480h12M768 480h12M252 481h12M768 481h12M252 482h12M768 482h12M252 483h12M768 483h12M252 484h12M768 484h12M252 485h12M768 485h12M252 486h12M768 486h12M252 487h12M768 487h12M252 488h12M768 488h12M252 489h12M768 489h12M252 490h12M768 490h12M252 491h12M768 491h12M252 492h12M768 492h12M252 493h12M768 493h12M252 494h12M768 494h12M252 495h12M768 495h12M252 496h12M768 496h12M252 497h12M768 497h12M252 498h12M768 498h12M252 499h12M768 499h12M252 500h12M768 500h12M252 501h12M768 501h12M252 502h12M768 502h12M252 503h12M768 503h12M252 504h24M756 504h24M252 505h24M756 505h24M252 506h24M756 506h24M252 507h24M756 507h24M252 508h24M756 508h24M252 509h24M756 509h24M252 510h24M756 510h24M252 511h24M756 511h24M252 512h24M756 512h24M252 513h24M756 513h24M252 514h24M756 514h24M252 515h24M756 515h24M264 516h12M756 516h12M264 517h12M756 517h12M264 518h12M756 518h12M264 519h12M756 519h12M264 520h12M756 520h12M264 521h12M756 521h12M264 522h12M756 522h12M264 523h12M756 523h12M264 524h12M756 524h12M264 525h12M756 525h12M264 526h12M756 526h12M264 527h12M756 527h12M264 552h12M756 552h12M264 553h12M756 553h12M264 554h12M756 554h12M264 555h12M756 555h12M264 556h12M756 556h12M264 557h12M756 557h12M264 558h12M756 558h12M264 559h12M756 559h12M264 560h12M756 560h12M264 561h12M756 561h12M264 562h12M756 562h12M264 563h12M756 563h12M252 564h24M756 564h24M252 565h24M756 565h24M252 566h24M756 566h24M252 567h24M756 567h24M252 568h24M756 568h24M252 569h24M756 569h24M252 570h24M756 570h24M252 571h24M756 571h24M252 572h24M756 572h24M252 573h24M756 573h24M252 574h24M756 574h24M252 575h24M756 575h24M252 576h12M768 576h12M252 577h12M768 577h12M252 578h12M768 578h12M252 579h12M768 579h12M252 580h12M768 580h12M252 581h12M768 581h12M252 582h12M768 582h12M252 583h12M768 583h12M252 584h12M768 584h12M252 585h12M768 585h12M252 586h12M768 586h12M252 587h12M768 587h12M252 588h12M768 588h12M252 589h12M768 589h12M252 590h12M768 590h12M252 591h12M768 591h12M252 592h12M768 592h12M252 593h12M768 593h12M252 594h12M768 594h12M252 595h12M768 595h12M252 596h12M768 596h12M252 597h12M768 597h12M252 598h12M768 598h12M252 599h12M768 599h12M216 600h12M804 600h12M216 601h12M804 601h12M216 602h12M804 602h12M216 603h12M804 603h12M216 604h12M804 604h12M216 605h12M804 605h12M216 606h12M804 606h12M216 607h12M804 607h12M216 608h12M804 608h12M216 609h12M804 609h12M216 610h12M804 610h12M216 611h12M804 611h12M204 612h24M804 612h24M204 613h24M804 613h24M204 614h24M804 614h24M204 615h24M804 615h24M204 616h24M804 616h24M204 617h24M804 617h24M204 618h24M804 618h24M204 619h24M804 619h24M204 620h24M804 620h24M204 621h24M804 621h24M204 622h24M804 622h24M204 623h24M804 623h24M216 624h24M792 624h24M216 625h24M792 625h24M216 626h24M792 626h24M216 627h24M792 627h24M216 628h24M792 628h24M216 629h24M792 629h24M216 630h24M792 630h24M216 631h24M792 631h24M216 632h24M792 632h24M216 633h24M792 633h24M216 634h24M792 634h24M216 635h24M792 635h24M168 636h24M216 636h24M792 636h24M840 636h24M168 637h24M216 637h24M792 637h24M840 637h24M168 638h24M216 638h24M792 638h24M840 638h24M168 639h24M216 639h24M792 639h24M840 639h24M168 640h24M216 640h24M792 640h24M840 640h24M168 641h24M216 641h24M792 641h24M840 641h24M168 642h24M216 642h24M792 642h24M840 642h24M168 643h24M216 643h24M792 643h24M840 643h24M168 644h24M216 644h24M792 644h24M840 644h24M168 645h24M216 645h24M792 645h24M840 645h24M168 646h24M216 646h24M792 646h24M840 646h24M168 647h24M216 647h24M792 647h24M840 647h24M180 648h24M828 648h24M180 649h24M828 649h24M180 650h24M828 650h24M180 651h24M828 651h24M180 652h24M828 652h24M180 653h24M828 653h24M180 654h24M828 654h24M180 655h24M828 655h24M180 656h24M828 656h24M180 657h24M828 657h24M180 658h24M828 658h24M180 659h24M828 659h24M180 660h24M828 660h24M180 661h24M828 661h24M180 662h24M828 662h24M180 663h24M828 663h24M180 664h24M828 664h24M180 665h24M828 665h24M180 666h24M828 666h24M180 667h24M828 667h24M180 668h24M828 668h24M180 669h24M828 669h24M180 670h24M828 670h24M180 671h24M828 671h24M192 672h24M816 672h24M192 673h24M816 673h24M192 674h24M816 674h24M192 675h24M816 675h24M192 676h24M816 676h24M192 677h24M816 677h24M192 678h24M816 678h24M192 679h24M816 679h24M192 680h24M816 680h24M192 681h24M816 681h24M192 682h24M816 682h24M192 683h24M816 683h24M192 684h24M816 684h24M192 685h24M816 685h24M192 686h24M816 686h24M192 687h24M816 687h24M192 688h24M816 688h24M192 689h24M816 689h24M192 690h24M816 690h24M192 691h24M816 691h24M192 692h24M816 692h24M192 693h24M816 693h24M192 694h24M816 694h24M192 695h24M816 695h24M480 816h24M528 816h24M480 817h24M528 817h24M480 818h24M528 818h24M480 819h24M528 819h24M480 820h24M528 820h24M480 821h24M528 821h24M480 822h24M528 822h24M480 823h24M528 823h24M480 824h24M528 824h24M480 825h24M528 825h24M480 826h24M528 826h24M480 827h24M528 827h24M456 828h36M540 828h36M456 829h36M540 829h36M456 830h36M540 830h36M456 831h36M540 831h36M456 832h36M540 832h36M456 833h36M540 833h36M456 834h36M540 834h36M456 835h36M540 835h36M456 836h36M540 836h36M456 837h36M540 837h36M456 838h36M540 838h36M456 839h36M540 839h36M408 852h24M600 852h24M408 853h24M600 853h24M408 854h24M600 854h24M408 855h24M600 855h24M408 856h24M600 856h24M408 857h24M600 857h24M408 858h24M600 858h24M408 859h24M600 859h24M408 860h24M600 860h24M408 861h24M600 861h24M408 862h24M600 862h24M408 863h24M600 863h24M408 864h48M576 864h48M408 865h48M576 865h48M408 866h48M576 866h48M408 867h48M576 867h48M408 868h48M576 868h48M408 869h48M576 869h48M408 870h48M576 870h48M408 871h48M576 871h48M408 872h48M576 872h48M408 873h48M576 873h48M408 874h48M576 874h48M408 875h48M576 875h48M360 876h24M432 876h12M588 876h12M648 876h24M360 877h24M432 877h12M588 877h12M648 877h24M360 878h24M432 878h12M588 878h12M648 878h24M360 879h24M432 879h12M588 879h12M648 879h24M360 880h24M432 880h12M588 880h12M648 880h24M360 881h24M432 881h12M588 881h12M648 881h24M360 882h24M432 882h12M588 882h12M648 882h24M360 883h24M432 883h12M588 883h12M648 883h24M360 884h24M432 884h12M588 884h12M648 884h24M360 885h24M432 885h12M588 885h12M648 885h24M360 886h24M432 886h12M588 886h12M648 886h24M360 887h24M432 887h12M588 887h12M648 887h24M360 888h48M624 888h48M360 889h48M624 889h48M360 890h48M624 890h48M360 891h48M624 891h48M360 892h48M624 892h48M360 893h48M624 893h48M360 894h48M624 894h48M360 895h48M624 895h48M360 896h48M624 896h48M360 897h48M624 897h48M360 898h48M624 898h48M360 899h48M624 899h48M384 900h36M612 900h36M384 901h36M612 901h36M384 902h36M612 902h36M384 903h36M612 903h36M384 904h36M612 904h36M384 905h36M612 905h36M384 906h36M612 906h36M384 907h36M612 907h36M384 908h36M612 908h36M384 909h36M612 909h36M384 910h36M612 910h36M384 911h36M612 911h36M408 912h12M612 912h12M408 913h12M612 913h12M408 914h12M612 914h12M408 915h12M612 915h12M408 916h12M612 916h12M408 917h12M612 917h12M408 918h12M612 918h12M408 919h12M612 919h12M408 920h12M612 920h12M408 921h12M612 921h12M408 922h12M612 922h12M408 923h12M612 923h12" />
</svg>