<svg xmlns="http://www.w3.org/2000/svg" viewBox="0 -0.5 64 64" shape-rendering="crispEdges">
<metadata>Made with Pixels to Svg https://codepen.io/shshaw/pen/XbxvNj</metadata>
<path stroke="#96c666" d="M32 0h1M31 1h3M31 2h1M33 2h1M31 3h1M33 3h1M30 4h2M33 4h2M30 5h1M34 5h1M30 6h1M34 6h1M29 7h2M34 7h2M29 8h1M35 8h1M29 9h1M35 9h1M28 10h2M35 10h2M28 11h1M36 11h1M28 12h1M36 12h1M28 13h1M36 13h1M28 14h1M36 14h1M28 15h1M36 15h1M28 16h1M36 16h1M28 17h1M36 17h1M28 18h1M36 18h1M28 19h1M36 19h1M28 20h1M36 20h1M28 21h1M36 21h1M28 22h1M36 22h1M28 23h1M36 23h1M28 24h1M36 24h1M28 25h1M36 25h1M28 26h1M36 26h1M28 27h1M36 27h1M28 28h1M36 28h1M28 29h1M36 29h1M28 30h1M36 30h1M28 31h1M36 31h1M28 32h1M36 32h1M28 33h1M36 33h1M28 34h1M36 34h1M28 35h1M36 35h1M28 36h1M36 36h1M28 37h1M36 37h1M28 38h1M36 38h1M28 39h1M36 39h1M28 40h1M36 40h1M28 41h1M36 41h1M28 42h1M36 42h1M28 43h1M36 43h1M28 44h1M36 44h1" />
<path stroke="#87b25c" d="M32 2h1M32 3h1M32 4h1M31 5h3M31 6h1M33 6h1M31 7h1M33 7h1M30 8h2M33 8h2M30 9h1M34 9h1M30 10h1M34 10h1M29 11h2M34 11h2M29 12h2M34 12h2M29 13h2M34 13h2M29 14h2M34 14h2M29 15h2M34 15h2M29 16h2M34 16h2M29 17h2M34 17h2M29 18h2M34 18h2M29 19h2M34 19h2M29 20h2M34 20h2M29 21h2M34 21h2M29 22h2M34 22h2M29 23h2M34 23h2M29 24h2M34 24h2M29 25h2M34 25h2M29 26h2M34 26h2M29 27h2M34 27h2M29 28h2M34 28h2M29 29h2M34 29h2M29 30h2M34 30h2M29 31h2M34 31h2M29 32h2M34 32h2M29 33h2M34 33h2M29 34h2M34 34h2M29 35h2M34 35h2M29 36h2M34 36h2M29 37h2M34 37h2M29 38h1M35 38h1M29 39h1M35 39h1M29 40h1M35 40h1M29 41h2M34 41h2M29 42h3M33 42h3M31 43h1M33 43h1" />
<path stroke="#71954d" d="M32 6h1M32 7h1M32 8h1M31 9h3M31 10h1M33 10h1M31 11h1M33 11h1M31 12h1M33 12h1M31 13h1M33 13h1M31 14h1M33 14h1M31 15h1M33 15h1M31 16h1M33 16h1M31 17h1M33 17h1M31 18h1M33 18h1M31 19h1M33 19h1M31 20h1M33 20h1M31 21h1M33 21h1M31 22h1M33 22h1M31 23h1M33 23h1M31 24h1M33 24h1M31 25h1M33 25h1M31 26h1M33 26h1M31 27h1M33 27h1M31 28h1M33 28h1M31 29h1M33 29h1M31 30h1M33 30h1M31 31h1M33 31h1M31 32h1M33 32h1M31 33h1M33 33h1M31 34h1M33 34h1M31 35h1M33 35h1M31 36h3" />
<path stroke="#3d6030" d="M32 10h1M32 11h1M32 12h1M32 13h1M32 14h1M32 15h1M32 16h1M32 17h1M32 18h1M32 19h1M32 20h1M32 21h1M32 22h1M32 23h1M32 24h1M32 25h1M32 26h1M32 27h1M32 28h1M32 29h1M32 30h1M32 31h1M32 32h1M32 33h1M32 34h1M32 35h1" />
<path stroke="#41976b" d="M31 37h3M30 38h3M34 38h1M30 39h5M30 40h1M32 40h3M31 41h3M31 58h3M30 59h2M33 59h2M30 60h5M30 61h1M32 61h3M31 62h3M32 63h1" />
<path stroke="#973326" d="M33 38h1M31 40h1" />
<path stroke="#609732" d="M21 42h5M39 42h5M20 43h4M25 43h3M29 43h2M34 43h2M37 43h4M42 43h3M19 44h3M26 44h2M29 44h2M34 44h2M37 44h3M44 44h2M18 45h7M27 45h12M41 45h6M18 46h3M24 46h1M27 46h1M29 46h1M31 46h1M33 46h1M35 46h1M37 46h1M43 46h4M19 47h4M26 47h13M40 47h2M44 47h2M20 48h2M24 48h5M30 48h1M34 48h8M43 48h2M21 49h5M30 49h1M34 49h1M39 49h5" />
<path stroke="#794e25" d="M32 42h1M32 43h1M31 44h3" />
<path stroke="#1e6a21" d="M24 43h1M41 43h1M22 44h4M40 44h4M25 45h2M39 45h2M21 46h3M25 46h2M28 46h1M30 46h1M32 46h1M34 46h1M36 46h1M38 46h5M23 47h3M39 47h1M42 47h2M22 48h2M42 48h1" />
<path stroke="#b7714b" d="M31 48h3M31 50h3M31 52h3M31 54h3M31 56h3" />
<path stroke="#c48b5f" d="M31 49h3M31 51h3M31 53h3M31 55h3M31 57h3" />
<path stroke="#317250" d="M32 59h1M31 61h1" />
</svg>