<svg xmlns="http://www.w3.org/2000/svg" viewBox="0 -0.5 25 63" shape-rendering="crispEdges">
<metadata>Made with Pixels to Svg https://codepen.io/shshaw/pen/XbxvNj</metadata>
<path stroke="#f9b3b5" d="M12 0h1M11 1h3M10 2h2M13 2h2M10 3h1M14 3h1M9 4h1M15 4h1M9 5h1M15 5h1M8 6h1M16 6h1M8 7h1M16 7h1M8 8h1M16 8h1M8 9h1M16 9h1M8 10h1M16 10h1M8 11h1M16 11h1M8 12h1M16 12h1M8 13h1M16 13h1M8 14h1M16 14h1M8 15h1M16 15h1M8 16h1M16 16h1M8 17h1M16 17h1M8 18h1M16 18h1M8 19h1M16 19h1M8 20h1M16 20h1M8 21h1M16 21h1M8 22h1M16 22h1M8 23h1M16 23h1M8 24h1M16 24h1M8 25h1M16 25h1M8 26h1M16 26h1M8 27h1M16 27h1M8 28h1M16 28h1M8 29h1M16 29h1M8 30h1M16 30h1M8 31h1M16 31h1M8 32h1M16 32h1M8 33h1M16 33h1M8 34h1M16 34h1M8 35h1M16 35h1M8 36h1M16 36h1M8 37h1M16 37h1M8 38h1M16 38h1M8 39h1M16 39h1M8 40h1M16 40h1M8 41h1M16 41h1M8 42h1M16 42h1M8 43h1M16 43h1M8 44h1M16 44h1" />
<path stroke="#f8c1c2" d="M12 2h1M11 3h3M10 4h5M10 5h5M9 6h1M15 6h1M9 7h1M15 7h1M9 8h1M15 8h1M9 9h1M15 9h1M9 10h1M15 10h1M9 11h1M15 11h1M9 12h1M15 12h1M9 13h1M15 13h1M9 14h1M15 14h1M9 15h1M15 15h1M9 16h1M15 16h1M9 17h1M15 17h1M9 18h1M15 18h1M9 19h1M15 19h1M9 20h1M15 20h1M9 21h1M15 21h1M9 22h1M15 22h1M9 23h1M15 23h1M9 24h1M15 24h1M9 25h1M15 25h1M9 26h1M15 26h1M9 27h1M15 27h1M9 28h1M15 28h1M9 29h1M15 29h1M9 30h1M15 30h1M15 31h1M9 35h1M15 35h1M9 36h1M15 36h1M9 37h1M15 37h1M9 38h1M15 38h1M9 39h1M15 39h1M9 40h1M15 40h1M9 41h1M15 41h1M9 42h1M15 42h1" />
<path stroke="#fcc3c5" d="M10 6h5M10 7h5M10 8h1M14 8h1M10 9h1M14 9h1M10 10h1M14 10h1M10 11h1M14 11h1M10 12h1M14 12h1M10 13h1M14 13h1M10 14h1M14 14h1M10 15h1M14 15h1M10 16h1M14 16h1M10 17h1M14 17h1M10 18h1M14 18h1M10 19h1M14 19h1M10 20h1M14 20h1M10 21h1M14 21h1M10 22h1M14 22h1M10 23h1M14 23h1M10 24h1M14 24h1M10 25h1M14 25h1M10 26h1M14 26h1M10 27h1M14 27h1M10 28h1M14 28h1M10 29h1M14 29h1M10 30h1M14 30h1M9 31h2M14 31h1M9 32h2M14 32h2M9 33h2M14 33h2M9 34h2M14 34h2M10 35h1M14 35h1M10 36h1M14 36h1M10 37h1M14 37h1M10 38h1M14 38h1M10 39h1M14 39h1M10 40h1M14 40h1M10 41h1M14 41h1M10 42h1M14 42h1" />
<path stroke="#ffcbcb" d="M11 8h3M11 9h3M11 10h1M13 10h1M11 11h1M13 11h1M11 12h1M13 12h1M11 13h1M13 13h1M11 14h1M13 14h1M11 15h1M13 15h1M11 16h1M13 16h1M11 17h1M13 17h1M11 18h1M13 18h1M11 19h1M13 19h1M11 20h1M13 20h1M11 21h1M13 21h1M11 22h1M13 22h1M11 23h1M13 23h1M11 24h1M13 24h1M11 25h1M13 25h1M11 26h1M13 26h1M11 27h1M13 27h1M11 28h1M13 28h1M11 29h1M13 29h1M11 30h1M13 30h1M11 31h1M13 31h1M11 32h1M13 32h1M11 33h1M13 33h1M11 34h1M13 34h1M11 35h1M13 35h1M11 37h1M13 37h1M11 38h1M13 38h1M11 39h1M13 39h1M11 40h1M13 40h1M11 41h1M13 41h1M11 42h1M13 42h1M11 43h1M13 43h1M11 44h1M13 44h1" />
<path stroke="#f8cec1" d="M12 10h1M12 11h1M12 12h1M12 13h1M12 14h1M12 15h1M12 16h1M12 17h1M12 18h1M12 19h1M12 20h1M12 21h1M12 22h1M12 23h1M12 24h1M12 25h1M12 26h1M12 27h1M12 28h1M12 29h1M12 30h1M12 31h1M12 32h1M12 33h1M12 34h1M12 35h1" />
<path stroke="#f87c82" d="M11 36h3M12 37h1M12 38h1M12 39h1M12 40h1M12 41h1M12 42h1M9 43h2M12 43h1M14 43h2M9 44h2M12 44h1M14 44h2M0 45h25M1 46h3M5 46h1M7 46h1M9 46h1M11 46h1M13 46h1M15 46h1M17 46h1M19 46h1M21 46h3M2 47h9M14 47h9M2 48h2M7 48h1M17 48h1M21 48h2M1 49h2M7 49h1M17 49h1M22 49h2M0 50h2M7 50h1M17 50h1M23 50h2M0 51h1M24 51h1M10 58h1M11 60h1M12 61h1" />
<path stroke="#fe7f85" d="M4 46h1M6 46h1M8 46h1M10 46h1M12 46h1M14 46h1M16 46h1M18 46h1M20 46h1" />
<path stroke="#d9934b" d="M11 47h3M11 49h3M11 51h3M11 53h3M11 55h3M12 57h1" />
<path stroke="#d98659" d="M11 48h3M11 50h3M11 52h3M11 54h3M11 56h3" />
<path stroke="#f42834" d="M10 57h2M13 57h2M9 58h1M11 58h5M9 59h7M10 60h1M12 60h3M11 61h1M13 61h1M12 62h1" />
</svg>