<svg xmlns="http://www.w3.org/2000/svg" viewBox="0 -0.5 25 61" shape-rendering="crispEdges">
<metadata>Made with Pixels to Svg https://codepen.io/shshaw/pen/XbxvNj</metadata>
<path stroke="#6f93a1" d="M12 0h1M11 1h3M10 2h2M13 2h2M10 3h1M14 3h1M9 4h1M15 4h1M9 5h1M15 5h1M8 6h1M16 6h1M8 7h1M16 7h1M8 8h1M16 8h1M8 9h1M16 9h1M8 10h1M16 10h1M8 11h1M16 11h1M8 12h1M16 12h1M8 13h1M16 13h1M8 14h1M16 14h1M8 15h1M16 15h1M8 16h1M16 16h1M8 17h1M16 17h1M8 18h1M16 18h1M8 19h1M16 19h1M8 20h1M16 20h1M8 21h1M16 21h1M8 22h1M16 22h1M8 23h1M16 23h1M8 24h1M16 24h1M8 25h1M16 25h1M8 26h1M16 26h1M8 27h1M16 27h1M8 28h1M16 28h1M8 29h1M16 29h1M8 30h1M16 30h1M8 31h1M16 31h1M8 32h1M16 32h1M8 33h1M16 33h1M8 34h1M16 34h1M8 35h1M16 35h1M8 36h1M16 36h1M8 37h1M16 37h1M8 38h1M16 38h1M8 39h1M16 39h1M8 40h1M16 40h1M8 41h1M16 41h1M8 42h1M16 42h1M8 43h1M16 43h1M8 44h1M16 44h1" />
<path stroke="#81acbb" d="M12 2h1M11 3h3M10 4h2M13 4h2M10 5h2M13 5h2M9 6h2M14 6h2M9 7h2M14 7h2M9 8h2M14 8h2M9 9h2M14 9h2M9 10h2M14 10h2M9 11h2M14 11h2M9 12h2M14 12h2M9 13h2M14 13h2M9 14h2M14 14h2M9 15h2M14 15h2M9 16h2M14 16h2M9 17h2M14 17h2M9 18h2M14 18h2M9 19h2M14 19h2M9 20h2M14 20h2M9 21h2M14 21h2M9 22h2M14 22h2M9 23h2M14 23h2M9 24h2M14 24h2M9 25h2M14 25h2M9 26h2M14 26h2M9 27h2M14 27h2M9 28h2M14 28h2M9 29h2M14 29h2M9 30h2M14 30h2M9 31h2M14 31h2M9 32h2M14 32h2M9 33h2M14 33h2M9 34h2M14 34h2M9 35h2M14 35h2M9 36h2M14 36h2M9 37h2M14 37h2M9 38h2M14 38h2M9 39h2M14 39h2M9 40h2M14 40h2M9 41h2M14 41h2M9 42h2M14 42h2" />
<path stroke="#94c4d6" d="M12 4h1M12 5h1M11 6h3M11 7h3M11 8h3M11 9h3M11 10h1M13 10h1M11 11h1M13 11h1M11 12h1M13 12h1M11 13h1M13 13h1M11 14h1M13 14h1M11 15h1M13 15h1M11 16h1M13 16h1M11 17h1M13 17h1M11 18h1M13 18h1M11 19h1M13 19h1M11 20h1M13 20h1M11 21h1M13 21h1M11 22h1M13 22h1M11 23h1M13 23h1M11 24h1M13 24h1M11 25h1M13 25h1M11 26h1M13 26h1M11 27h1M13 27h1M11 28h1M13 28h1M11 29h1M13 29h1M11 30h1M13 30h1M11 31h1M13 31h1M11 32h1M13 32h1M11 33h1M13 33h1M11 34h1M13 34h1M11 35h1M13 35h1M11 37h1M13 37h1M11 38h1M13 38h1M11 39h1M13 39h1M11 40h1M13 40h1M11 41h1M13 41h1M11 42h1M13 42h1M11 43h1M13 43h1M11 44h1M13 44h1" />
<path stroke="#474f63" d="M12 10h1M12 11h1M12 12h1M12 13h1M12 14h1M12 15h1M12 16h1M12 17h1M12 18h1M12 19h1M12 20h1M12 21h1M12 22h1M12 23h1M12 24h1M12 25h1M12 26h1M12 27h1M12 28h1M12 29h1M12 30h1M12 31h1M12 32h1M12 33h1M12 34h1M12 35h1" />
<path stroke="#556b77" d="M11 36h3M12 37h1M12 38h1M12 39h1M12 40h1M7 41h1M12 41h1M17 41h1M7 42h1M12 42h1M17 42h1M6 43h2M9 43h2M12 43h1M14 43h2M17 43h2M5 44h3M9 44h2M12 44h1M14 44h2M17 44h3M0 45h25M1 46h3M5 46h1M7 46h1M9 46h1M11 46h1M13 46h1M15 46h1M17 46h1M19 46h1M21 46h3M2 47h21M2 48h2M6 48h2M17 48h2M21 48h2M2 49h1M7 49h1M17 49h1M22 49h1M2 50h1M7 50h1M17 50h1M22 50h1M1 51h1M23 51h1" />
<path stroke="#629179" d="M4 46h1M6 46h1M8 46h1M10 46h1M12 46h1M14 46h1M16 46h1M18 46h1M20 46h1" />
<path stroke="#b7714b" d="M11 48h3M11 50h3M11 52h3M11 54h3M11 56h3" />
<path stroke="#c48b5f" d="M11 49h3M11 51h3M11 53h3M11 55h3M11 57h3" />
<path stroke="#798ba2" d="M10 57h1M14 57h1M9 58h7" />
<path stroke="#8ba0ba" d="M11 59h3M12 60h1" />
</svg>